%TF.GenerationSoftware,KiCad,Pcbnew,7.0.2*%
%TF.CreationDate,2024-04-02T18:30:14-04:00*%
%TF.ProjectId,filt1,66696c74-312e-46b6-9963-61645f706362,rev?*%
%TF.SameCoordinates,Original*%
%TF.FileFunction,Legend,Top*%
%TF.FilePolarity,Positive*%
%FSLAX46Y46*%
G04 Gerber Fmt 4.6, Leading zero omitted, Abs format (unit mm)*
G04 Created by KiCad (PCBNEW 7.0.2) date 2024-04-02 18:30:14*
%MOMM*%
%LPD*%
G01*
G04 APERTURE LIST*
%ADD10C,0.150000*%
%ADD11C,0.100000*%
%ADD12C,0.120000*%
G04 APERTURE END LIST*
D10*
%TO.C,U1*%
X158246619Y-91991404D02*
X159056142Y-91991404D01*
X159056142Y-91991404D02*
X159151380Y-91943785D01*
X159151380Y-91943785D02*
X159199000Y-91896166D01*
X159199000Y-91896166D02*
X159246619Y-91800928D01*
X159246619Y-91800928D02*
X159246619Y-91610452D01*
X159246619Y-91610452D02*
X159199000Y-91515214D01*
X159199000Y-91515214D02*
X159151380Y-91467595D01*
X159151380Y-91467595D02*
X159056142Y-91419976D01*
X159056142Y-91419976D02*
X158246619Y-91419976D01*
X159246619Y-90419976D02*
X159246619Y-90991404D01*
X159246619Y-90705690D02*
X158246619Y-90705690D01*
X158246619Y-90705690D02*
X158389476Y-90800928D01*
X158389476Y-90800928D02*
X158484714Y-90896166D01*
X158484714Y-90896166D02*
X158532333Y-90991404D01*
%TO.C,J2*%
X176462619Y-101873333D02*
X177176904Y-101873333D01*
X177176904Y-101873333D02*
X177319761Y-101920952D01*
X177319761Y-101920952D02*
X177415000Y-102016190D01*
X177415000Y-102016190D02*
X177462619Y-102159047D01*
X177462619Y-102159047D02*
X177462619Y-102254285D01*
X176557857Y-101444761D02*
X176510238Y-101397142D01*
X176510238Y-101397142D02*
X176462619Y-101301904D01*
X176462619Y-101301904D02*
X176462619Y-101063809D01*
X176462619Y-101063809D02*
X176510238Y-100968571D01*
X176510238Y-100968571D02*
X176557857Y-100920952D01*
X176557857Y-100920952D02*
X176653095Y-100873333D01*
X176653095Y-100873333D02*
X176748333Y-100873333D01*
X176748333Y-100873333D02*
X176891190Y-100920952D01*
X176891190Y-100920952D02*
X177462619Y-101492380D01*
X177462619Y-101492380D02*
X177462619Y-100873333D01*
%TO.C,R1*%
X170462619Y-103166666D02*
X169986428Y-103499999D01*
X170462619Y-103738094D02*
X169462619Y-103738094D01*
X169462619Y-103738094D02*
X169462619Y-103357142D01*
X169462619Y-103357142D02*
X169510238Y-103261904D01*
X169510238Y-103261904D02*
X169557857Y-103214285D01*
X169557857Y-103214285D02*
X169653095Y-103166666D01*
X169653095Y-103166666D02*
X169795952Y-103166666D01*
X169795952Y-103166666D02*
X169891190Y-103214285D01*
X169891190Y-103214285D02*
X169938809Y-103261904D01*
X169938809Y-103261904D02*
X169986428Y-103357142D01*
X169986428Y-103357142D02*
X169986428Y-103738094D01*
X170462619Y-102214285D02*
X170462619Y-102785713D01*
X170462619Y-102499999D02*
X169462619Y-102499999D01*
X169462619Y-102499999D02*
X169605476Y-102595237D01*
X169605476Y-102595237D02*
X169700714Y-102690475D01*
X169700714Y-102690475D02*
X169748333Y-102785713D01*
D11*
%TO.C,J1*%
X161462619Y-102033333D02*
X162176904Y-102033333D01*
X162176904Y-102033333D02*
X162319761Y-102080952D01*
X162319761Y-102080952D02*
X162415000Y-102176190D01*
X162415000Y-102176190D02*
X162462619Y-102319047D01*
X162462619Y-102319047D02*
X162462619Y-102414285D01*
X162462619Y-101033333D02*
X162462619Y-101604761D01*
X162462619Y-101319047D02*
X161462619Y-101319047D01*
X161462619Y-101319047D02*
X161605476Y-101414285D01*
X161605476Y-101414285D02*
X161700714Y-101509523D01*
X161700714Y-101509523D02*
X161748333Y-101604761D01*
D12*
%TO.C,U1*%
X160054000Y-97071500D02*
X161070000Y-97071500D01*
X161070000Y-97071500D02*
X161070000Y-97579500D01*
X160054000Y-85641500D02*
X160054000Y-97071500D01*
X179358000Y-85641500D02*
X179358000Y-96817500D01*
%TO.C,R1*%
X170512742Y-100977500D02*
X170987258Y-100977500D01*
X170512742Y-102022500D02*
X170987258Y-102022500D01*
D11*
%TO.C,J1*%
X164000000Y-97200000D02*
G75*
G03*
X164000000Y-106200000I0J-4500000D01*
G01*
%TD*%
M02*
