%TF.GenerationSoftware,KiCad,Pcbnew,7.0.2*%
%TF.CreationDate,2024-04-02T18:30:14-04:00*%
%TF.ProjectId,filt1,66696c74-312e-46b6-9963-61645f706362,rev?*%
%TF.SameCoordinates,Original*%
%TF.FileFunction,Copper,L2,Bot*%
%TF.FilePolarity,Positive*%
%FSLAX46Y46*%
G04 Gerber Fmt 4.6, Leading zero omitted, Abs format (unit mm)*
G04 Created by KiCad (PCBNEW 7.0.2) date 2024-04-02 18:30:14*
%MOMM*%
%LPD*%
G01*
G04 APERTURE LIST*
G04 Aperture macros list*
%AMRoundRect*
0 Rectangle with rounded corners*
0 $1 Rounding radius*
0 $2 $3 $4 $5 $6 $7 $8 $9 X,Y pos of 4 corners*
0 Add a 4 corners polygon primitive as box body*
4,1,4,$2,$3,$4,$5,$6,$7,$8,$9,$2,$3,0*
0 Add four circle primitives for the rounded corners*
1,1,$1+$1,$2,$3*
1,1,$1+$1,$4,$5*
1,1,$1+$1,$6,$7*
1,1,$1+$1,$8,$9*
0 Add four rect primitives between the rounded corners*
20,1,$1+$1,$2,$3,$4,$5,0*
20,1,$1+$1,$4,$5,$6,$7,0*
20,1,$1+$1,$6,$7,$8,$9,0*
20,1,$1+$1,$8,$9,$2,$3,0*%
G04 Aperture macros list end*
%TA.AperFunction,ComponentPad*%
%ADD10C,1.016000*%
%TD*%
%TA.AperFunction,ComponentPad*%
%ADD11C,2.250000*%
%TD*%
%TA.AperFunction,ComponentPad*%
%ADD12C,2.050000*%
%TD*%
%TA.AperFunction,ComponentPad*%
%ADD13C,1.500000*%
%TD*%
%TA.AperFunction,ComponentPad*%
%ADD14C,2.500000*%
%TD*%
%TA.AperFunction,ComponentPad*%
%ADD15RoundRect,0.500000X1.250000X-0.500000X1.250000X0.500000X-1.250000X0.500000X-1.250000X-0.500000X0*%
%TD*%
%TA.AperFunction,ViaPad*%
%ADD16C,0.800000*%
%TD*%
%TA.AperFunction,Conductor*%
%ADD17C,0.400000*%
%TD*%
G04 APERTURE END LIST*
D10*
%TO.P,U1,3,GND*%
%TO.N,GND*%
X166404000Y-97579500D03*
X167928000Y-97579500D03*
%TO.P,U1,5,GND*%
X171484000Y-97579500D03*
X173008000Y-97579500D03*
%TO.P,U1,7,GND*%
X176564000Y-97579500D03*
X178088000Y-97579500D03*
X162086000Y-91864500D03*
X164626000Y-91864500D03*
X167166000Y-91864500D03*
X169706000Y-91864500D03*
X172246000Y-91864500D03*
X174786000Y-91864500D03*
X177326000Y-91864500D03*
X162086000Y-90594500D03*
X164626000Y-90594500D03*
X167166000Y-90594500D03*
X169706000Y-90594500D03*
X172246000Y-90594500D03*
X174786000Y-90594500D03*
X177326000Y-90594500D03*
%TD*%
D11*
%TO.P,J2,2,Ext*%
%TO.N,GND*%
X171920000Y-99000000D03*
X177000000Y-99000000D03*
X171920000Y-104080000D03*
X177000000Y-104080000D03*
D12*
%TO.P,J2,1,In*%
%TO.N,Net-(J2-In)*%
X174460000Y-101540000D03*
%TD*%
D13*
%TO.P,J1,1,In*%
%TO.N,Net-(J1-In)*%
X164000000Y-101700000D03*
D14*
%TO.P,J1,2,Ext*%
%TO.N,GND*%
X163750000Y-104400000D03*
D15*
X167000000Y-104400000D03*
D14*
X163750000Y-99000000D03*
D15*
X167000000Y-99000000D03*
%TD*%
D16*
%TO.N,Net-(J2-In)*%
X176000000Y-88500000D03*
%TD*%
D17*
%TO.N,Net-(J2-In)*%
X176000000Y-94585606D02*
X176000000Y-88500000D01*
X174460000Y-96125606D02*
X176000000Y-94585606D01*
X174460000Y-101540000D02*
X174460000Y-96125606D01*
%TD*%
%TA.AperFunction,Conductor*%
%TO.N,GND*%
G36*
X179942539Y-85020185D02*
G01*
X179988294Y-85072989D01*
X179999500Y-85124500D01*
X179999500Y-105875500D01*
X179979815Y-105942539D01*
X179927011Y-105988294D01*
X179875500Y-105999500D01*
X168810168Y-105999500D01*
X168743129Y-105979815D01*
X168697374Y-105927011D01*
X168687430Y-105857853D01*
X168716455Y-105794297D01*
X168752756Y-105765592D01*
X168803128Y-105739279D01*
X168960752Y-105610752D01*
X169089276Y-105453131D01*
X169183442Y-105272862D01*
X169239390Y-105077329D01*
X169249757Y-104960731D01*
X169250000Y-104955260D01*
X169250000Y-104650000D01*
X168195882Y-104650000D01*
X168234556Y-104556631D01*
X168255177Y-104400000D01*
X168234556Y-104243369D01*
X168195882Y-104150000D01*
X169250000Y-104150000D01*
X169250000Y-104080000D01*
X170289975Y-104080000D01*
X170310043Y-104334993D01*
X170369753Y-104583705D01*
X170467636Y-104820012D01*
X170601284Y-105038108D01*
X170604533Y-105041911D01*
X170604535Y-105041911D01*
X171168766Y-104477679D01*
X171212316Y-104559822D01*
X171332009Y-104700735D01*
X171479195Y-104812623D01*
X171521402Y-104832150D01*
X170958087Y-105395464D01*
X170958087Y-105395465D01*
X170961895Y-105398718D01*
X171179982Y-105532361D01*
X171416294Y-105630246D01*
X171665006Y-105689956D01*
X171920000Y-105710024D01*
X172174993Y-105689956D01*
X172423705Y-105630246D01*
X172660012Y-105532363D01*
X172878108Y-105398715D01*
X172881911Y-105395465D01*
X172881912Y-105395464D01*
X172318609Y-104832161D01*
X172437431Y-104760669D01*
X172571658Y-104633523D01*
X172674861Y-104481308D01*
X173235464Y-105041912D01*
X173235465Y-105041911D01*
X173238715Y-105038108D01*
X173372363Y-104820012D01*
X173470246Y-104583705D01*
X173529956Y-104334993D01*
X173550024Y-104080000D01*
X175369975Y-104080000D01*
X175390043Y-104334993D01*
X175449753Y-104583705D01*
X175547636Y-104820012D01*
X175681284Y-105038108D01*
X175684533Y-105041911D01*
X175684535Y-105041911D01*
X176248766Y-104477678D01*
X176292316Y-104559822D01*
X176412009Y-104700735D01*
X176559195Y-104812623D01*
X176601402Y-104832150D01*
X176038087Y-105395464D01*
X176038087Y-105395465D01*
X176041895Y-105398718D01*
X176259982Y-105532361D01*
X176496294Y-105630246D01*
X176745006Y-105689956D01*
X177000000Y-105710024D01*
X177254993Y-105689956D01*
X177503705Y-105630246D01*
X177740012Y-105532363D01*
X177958108Y-105398715D01*
X177961911Y-105395465D01*
X177961912Y-105395464D01*
X177398609Y-104832161D01*
X177517431Y-104760669D01*
X177651658Y-104633523D01*
X177754861Y-104481308D01*
X178315464Y-105041912D01*
X178315465Y-105041911D01*
X178318715Y-105038108D01*
X178452363Y-104820012D01*
X178550246Y-104583705D01*
X178609956Y-104334993D01*
X178630024Y-104080000D01*
X178609956Y-103825006D01*
X178550246Y-103576294D01*
X178452361Y-103339982D01*
X178318718Y-103121895D01*
X178315465Y-103118087D01*
X178315464Y-103118087D01*
X177751232Y-103682319D01*
X177707684Y-103600178D01*
X177587991Y-103459265D01*
X177440805Y-103347377D01*
X177398596Y-103327849D01*
X177961911Y-102764535D01*
X177961911Y-102764533D01*
X177958108Y-102761284D01*
X177740012Y-102627636D01*
X177503705Y-102529753D01*
X177254993Y-102470043D01*
X177000000Y-102449975D01*
X176745006Y-102470043D01*
X176496294Y-102529753D01*
X176259982Y-102627638D01*
X176041895Y-102761281D01*
X176038087Y-102764533D01*
X176601391Y-103327837D01*
X176482569Y-103399331D01*
X176348342Y-103526477D01*
X176245138Y-103678691D01*
X175684534Y-103118087D01*
X175684533Y-103118087D01*
X175681281Y-103121895D01*
X175547638Y-103339982D01*
X175449753Y-103576294D01*
X175390043Y-103825006D01*
X175369975Y-104080000D01*
X173550024Y-104080000D01*
X173550024Y-104079999D01*
X173529956Y-103825006D01*
X173470246Y-103576294D01*
X173372361Y-103339982D01*
X173238718Y-103121895D01*
X173235465Y-103118087D01*
X173235464Y-103118087D01*
X172671232Y-103682318D01*
X172627684Y-103600178D01*
X172507991Y-103459265D01*
X172360805Y-103347377D01*
X172318597Y-103327849D01*
X172881911Y-102764535D01*
X172881911Y-102764533D01*
X172878108Y-102761284D01*
X172660012Y-102627636D01*
X172423705Y-102529753D01*
X172174993Y-102470043D01*
X171920000Y-102449975D01*
X171665006Y-102470043D01*
X171416294Y-102529753D01*
X171179982Y-102627638D01*
X170961895Y-102761281D01*
X170958087Y-102764533D01*
X170958087Y-102764534D01*
X171521390Y-103327837D01*
X171402569Y-103399331D01*
X171268342Y-103526477D01*
X171165138Y-103678691D01*
X170604534Y-103118087D01*
X170604533Y-103118087D01*
X170601281Y-103121895D01*
X170467638Y-103339982D01*
X170369753Y-103576294D01*
X170310043Y-103825006D01*
X170289975Y-104080000D01*
X169250000Y-104080000D01*
X169250000Y-103844739D01*
X169249757Y-103839268D01*
X169239390Y-103722670D01*
X169183442Y-103527137D01*
X169089276Y-103346868D01*
X168960752Y-103189247D01*
X168803131Y-103060723D01*
X168622862Y-102966557D01*
X168427329Y-102910609D01*
X168310731Y-102900242D01*
X168305261Y-102900000D01*
X167250000Y-102900000D01*
X167250000Y-103800000D01*
X166750000Y-103800000D01*
X166750000Y-102900000D01*
X165694739Y-102900000D01*
X165689268Y-102900242D01*
X165572670Y-102910609D01*
X165377135Y-102966558D01*
X165196869Y-103060721D01*
X165056566Y-103175123D01*
X165056565Y-103175124D01*
X165104816Y-103223375D01*
X165138301Y-103284698D01*
X165133317Y-103354390D01*
X165104816Y-103398737D01*
X164501232Y-104002319D01*
X164457684Y-103920178D01*
X164337991Y-103779265D01*
X164190805Y-103667377D01*
X164148596Y-103647849D01*
X164799167Y-102997278D01*
X164708455Y-102935432D01*
X164664153Y-102881403D01*
X164656094Y-102811999D01*
X164686837Y-102749257D01*
X164707178Y-102731407D01*
X164806877Y-102661598D01*
X164961598Y-102506877D01*
X165087102Y-102327639D01*
X165179575Y-102129330D01*
X165236207Y-101917977D01*
X165255277Y-101700000D01*
X165236207Y-101482023D01*
X165179575Y-101270670D01*
X165087102Y-101072362D01*
X164961598Y-100893123D01*
X164806877Y-100738402D01*
X164707181Y-100668594D01*
X164663558Y-100614019D01*
X164656366Y-100544520D01*
X164687888Y-100482166D01*
X164708455Y-100464568D01*
X164799167Y-100402720D01*
X164148609Y-99752161D01*
X164267431Y-99680669D01*
X164401658Y-99553523D01*
X164504861Y-99401308D01*
X165104816Y-100001262D01*
X165138301Y-100062585D01*
X165133317Y-100132276D01*
X165104816Y-100176624D01*
X165056566Y-100224874D01*
X165196868Y-100339276D01*
X165377137Y-100433442D01*
X165572670Y-100489390D01*
X165689268Y-100499757D01*
X165694739Y-100500000D01*
X166750000Y-100500000D01*
X166750000Y-99600000D01*
X167250000Y-99600000D01*
X167250000Y-100500000D01*
X168305261Y-100500000D01*
X168310731Y-100499757D01*
X168427329Y-100489390D01*
X168622862Y-100433442D01*
X168803131Y-100339276D01*
X168960752Y-100210752D01*
X169089276Y-100053131D01*
X169183442Y-99872862D01*
X169239390Y-99677329D01*
X169249757Y-99560731D01*
X169250000Y-99555260D01*
X169250000Y-99250000D01*
X168195882Y-99250000D01*
X168234556Y-99156631D01*
X168255177Y-99000000D01*
X168255177Y-98999999D01*
X170289975Y-98999999D01*
X170310043Y-99254993D01*
X170369753Y-99503705D01*
X170467636Y-99740012D01*
X170601284Y-99958108D01*
X170604533Y-99961911D01*
X170604535Y-99961911D01*
X171168766Y-99397679D01*
X171212316Y-99479822D01*
X171332009Y-99620735D01*
X171479195Y-99732623D01*
X171521402Y-99752150D01*
X170958087Y-100315464D01*
X170958087Y-100315465D01*
X170961895Y-100318718D01*
X171179982Y-100452361D01*
X171416294Y-100550246D01*
X171665006Y-100609956D01*
X171920000Y-100630024D01*
X172174993Y-100609956D01*
X172423705Y-100550246D01*
X172660012Y-100452363D01*
X172878108Y-100318715D01*
X172881911Y-100315465D01*
X172881912Y-100315464D01*
X172318609Y-99752161D01*
X172437431Y-99680669D01*
X172571658Y-99553523D01*
X172674861Y-99401309D01*
X173235464Y-99961912D01*
X173235465Y-99961911D01*
X173238715Y-99958108D01*
X173372363Y-99740012D01*
X173470246Y-99503705D01*
X173514926Y-99317600D01*
X173549717Y-99257008D01*
X173611743Y-99224844D01*
X173681312Y-99231320D01*
X173736336Y-99274380D01*
X173759345Y-99340352D01*
X173759500Y-99346547D01*
X173759500Y-100110674D01*
X173739815Y-100177713D01*
X173700290Y-100216401D01*
X173560562Y-100302027D01*
X173377973Y-100457973D01*
X173222028Y-100640560D01*
X173096567Y-100845296D01*
X173004676Y-101067136D01*
X172948623Y-101300619D01*
X172929783Y-101540000D01*
X172948623Y-101779380D01*
X173004676Y-102012863D01*
X173052919Y-102129330D01*
X173096567Y-102234704D01*
X173222028Y-102439439D01*
X173377973Y-102622027D01*
X173560561Y-102777972D01*
X173765296Y-102903433D01*
X173922160Y-102968408D01*
X173987136Y-102995323D01*
X174060898Y-103013031D01*
X174220621Y-103051377D01*
X174460000Y-103070217D01*
X174699379Y-103051377D01*
X174932863Y-102995323D01*
X175154704Y-102903433D01*
X175359439Y-102777972D01*
X175542027Y-102622027D01*
X175697972Y-102439439D01*
X175823433Y-102234704D01*
X175915323Y-102012863D01*
X175971377Y-101779379D01*
X175990217Y-101540000D01*
X175971377Y-101300621D01*
X175933031Y-101140898D01*
X175915323Y-101067136D01*
X175888408Y-101002160D01*
X175823433Y-100845296D01*
X175697972Y-100640561D01*
X175542027Y-100457973D01*
X175359439Y-100302028D01*
X175332434Y-100285479D01*
X175219710Y-100216401D01*
X175172835Y-100164589D01*
X175160500Y-100110674D01*
X175160500Y-99346547D01*
X175180185Y-99279508D01*
X175232989Y-99233753D01*
X175302147Y-99223809D01*
X175365703Y-99252834D01*
X175403477Y-99311612D01*
X175405074Y-99317600D01*
X175449753Y-99503705D01*
X175547636Y-99740012D01*
X175681284Y-99958108D01*
X175684533Y-99961911D01*
X175684535Y-99961911D01*
X176248766Y-99397679D01*
X176292316Y-99479822D01*
X176412009Y-99620735D01*
X176559195Y-99732623D01*
X176601402Y-99752150D01*
X176038087Y-100315464D01*
X176038087Y-100315465D01*
X176041895Y-100318718D01*
X176259982Y-100452361D01*
X176496294Y-100550246D01*
X176745006Y-100609956D01*
X177000000Y-100630024D01*
X177254993Y-100609956D01*
X177503705Y-100550246D01*
X177740012Y-100452363D01*
X177958108Y-100318715D01*
X177961911Y-100315465D01*
X177961912Y-100315464D01*
X177398609Y-99752161D01*
X177517431Y-99680669D01*
X177651658Y-99553523D01*
X177754861Y-99401309D01*
X178315464Y-99961912D01*
X178315465Y-99961911D01*
X178318715Y-99958108D01*
X178452363Y-99740012D01*
X178550246Y-99503705D01*
X178609956Y-99254993D01*
X178630024Y-99000000D01*
X178609956Y-98745006D01*
X178550246Y-98496294D01*
X178452361Y-98259982D01*
X178318718Y-98041895D01*
X178315465Y-98038087D01*
X178315464Y-98038087D01*
X177751232Y-98602319D01*
X177707684Y-98520178D01*
X177587991Y-98379265D01*
X177440805Y-98267377D01*
X177398597Y-98247849D01*
X177961911Y-97684535D01*
X177961911Y-97684533D01*
X177958108Y-97681284D01*
X177740012Y-97547636D01*
X177503705Y-97449753D01*
X177254993Y-97390043D01*
X177000000Y-97369975D01*
X176745006Y-97390043D01*
X176496294Y-97449753D01*
X176259982Y-97547638D01*
X176041895Y-97681281D01*
X176038087Y-97684533D01*
X176038087Y-97684534D01*
X176601390Y-98247837D01*
X176482569Y-98319331D01*
X176348342Y-98446477D01*
X176245138Y-98598691D01*
X175684534Y-98038087D01*
X175684533Y-98038087D01*
X175681281Y-98041895D01*
X175547638Y-98259982D01*
X175449753Y-98496294D01*
X175405074Y-98682399D01*
X175370283Y-98742991D01*
X175308257Y-98775155D01*
X175238688Y-98768679D01*
X175183664Y-98725619D01*
X175160655Y-98659647D01*
X175160500Y-98653452D01*
X175160500Y-96467124D01*
X175180185Y-96400085D01*
X175196814Y-96379448D01*
X176477731Y-95098530D01*
X176483150Y-95093429D01*
X176528183Y-95053535D01*
X176562355Y-95004026D01*
X176566775Y-94998019D01*
X176603878Y-94950663D01*
X176608035Y-94941425D01*
X176619060Y-94921876D01*
X176624818Y-94913536D01*
X176646150Y-94857284D01*
X176648999Y-94850406D01*
X176673695Y-94795537D01*
X176675522Y-94785562D01*
X176681549Y-94763945D01*
X176685140Y-94754478D01*
X176692387Y-94694785D01*
X176693514Y-94687383D01*
X176704358Y-94628212D01*
X176700723Y-94568138D01*
X176700500Y-94560718D01*
X176700500Y-89115387D01*
X176720184Y-89048352D01*
X176732349Y-89032419D01*
X176732533Y-89032216D01*
X176827179Y-88868284D01*
X176885674Y-88688256D01*
X176905460Y-88500000D01*
X176885674Y-88311744D01*
X176827179Y-88131716D01*
X176827179Y-88131715D01*
X176732533Y-87967783D01*
X176605870Y-87827110D01*
X176452730Y-87715848D01*
X176279802Y-87638855D01*
X176094648Y-87599500D01*
X176094646Y-87599500D01*
X175905354Y-87599500D01*
X175905352Y-87599500D01*
X175720197Y-87638855D01*
X175547269Y-87715848D01*
X175394129Y-87827110D01*
X175267466Y-87967783D01*
X175172820Y-88131715D01*
X175114326Y-88311742D01*
X175094540Y-88499999D01*
X175114326Y-88688257D01*
X175172820Y-88868284D01*
X175267465Y-89032214D01*
X175267646Y-89032415D01*
X175267964Y-89033078D01*
X175273983Y-89043503D01*
X175273188Y-89043961D01*
X175297879Y-89095405D01*
X175299500Y-89115391D01*
X175299500Y-94244086D01*
X175279815Y-94311125D01*
X175263181Y-94331767D01*
X173982290Y-95612657D01*
X173976838Y-95617789D01*
X173931816Y-95657676D01*
X173897649Y-95707174D01*
X173893213Y-95713203D01*
X173856121Y-95760548D01*
X173851961Y-95769792D01*
X173840941Y-95789331D01*
X173835182Y-95797675D01*
X173813853Y-95853911D01*
X173810989Y-95860825D01*
X173786303Y-95915676D01*
X173784475Y-95925653D01*
X173778454Y-95947254D01*
X173774859Y-95956734D01*
X173767609Y-96016433D01*
X173766483Y-96023832D01*
X173755641Y-96082996D01*
X173759274Y-96143039D01*
X173759500Y-96150526D01*
X173759500Y-98653452D01*
X173739815Y-98720491D01*
X173687011Y-98766246D01*
X173617853Y-98776190D01*
X173554297Y-98747165D01*
X173516523Y-98688387D01*
X173514926Y-98682399D01*
X173470246Y-98496294D01*
X173372361Y-98259982D01*
X173238718Y-98041895D01*
X173235465Y-98038087D01*
X173235464Y-98038087D01*
X172671232Y-98602319D01*
X172627684Y-98520178D01*
X172507991Y-98379265D01*
X172360805Y-98267377D01*
X172318597Y-98247849D01*
X172881911Y-97684535D01*
X172881911Y-97684533D01*
X172878108Y-97681284D01*
X172660012Y-97547636D01*
X172423705Y-97449753D01*
X172174993Y-97390043D01*
X171919999Y-97369975D01*
X171665006Y-97390043D01*
X171416294Y-97449753D01*
X171179982Y-97547638D01*
X170961895Y-97681281D01*
X170958087Y-97684533D01*
X170958087Y-97684534D01*
X171521390Y-98247837D01*
X171402569Y-98319331D01*
X171268342Y-98446477D01*
X171165138Y-98598691D01*
X170604534Y-98038087D01*
X170604533Y-98038087D01*
X170601281Y-98041895D01*
X170467638Y-98259982D01*
X170369753Y-98496294D01*
X170310043Y-98745006D01*
X170289975Y-98999999D01*
X168255177Y-98999999D01*
X168234556Y-98843369D01*
X168195882Y-98750000D01*
X169250000Y-98750000D01*
X169250000Y-98444739D01*
X169249757Y-98439268D01*
X169239390Y-98322670D01*
X169183442Y-98127137D01*
X169089276Y-97946868D01*
X168960752Y-97789247D01*
X168803131Y-97660723D01*
X168622862Y-97566557D01*
X168427329Y-97510609D01*
X168310731Y-97500242D01*
X168305261Y-97500000D01*
X167250000Y-97500000D01*
X167250000Y-98400000D01*
X166750000Y-98400000D01*
X166750000Y-97500000D01*
X165694739Y-97500000D01*
X165689268Y-97500242D01*
X165572670Y-97510609D01*
X165377135Y-97566558D01*
X165196869Y-97660721D01*
X165056566Y-97775123D01*
X165056565Y-97775124D01*
X165104816Y-97823375D01*
X165138301Y-97884698D01*
X165133317Y-97954390D01*
X165104816Y-97998737D01*
X164501232Y-98602319D01*
X164457684Y-98520178D01*
X164337991Y-98379265D01*
X164190805Y-98267377D01*
X164148596Y-98247849D01*
X164799167Y-97597278D01*
X164627451Y-97480205D01*
X164391139Y-97366403D01*
X164140503Y-97289091D01*
X163881144Y-97250000D01*
X163618856Y-97250000D01*
X163359496Y-97289091D01*
X163108860Y-97366403D01*
X162872545Y-97480206D01*
X162700832Y-97597278D01*
X163351391Y-98247837D01*
X163232569Y-98319331D01*
X163098342Y-98446477D01*
X162995138Y-98598691D01*
X162347873Y-97951427D01*
X162300028Y-98011424D01*
X162168882Y-98238576D01*
X162073059Y-98482729D01*
X162014693Y-98738447D01*
X161995092Y-99000000D01*
X162014693Y-99261552D01*
X162073059Y-99517270D01*
X162168882Y-99761424D01*
X162300027Y-99988573D01*
X162347873Y-100048571D01*
X162347874Y-100048571D01*
X162998766Y-99397679D01*
X163042316Y-99479822D01*
X163162009Y-99620735D01*
X163309195Y-99732623D01*
X163351402Y-99752150D01*
X162700831Y-100402720D01*
X162872546Y-100519793D01*
X163079018Y-100619226D01*
X163130878Y-100666049D01*
X163149190Y-100733476D01*
X163128142Y-100800100D01*
X163112898Y-100818627D01*
X163038400Y-100893125D01*
X162912898Y-101072361D01*
X162820425Y-101270668D01*
X162763792Y-101482025D01*
X162744722Y-101699999D01*
X162763792Y-101917974D01*
X162789217Y-102012863D01*
X162820425Y-102129330D01*
X162912898Y-102327639D01*
X163038402Y-102506877D01*
X163038404Y-102506880D01*
X163038405Y-102506880D01*
X163112897Y-102581372D01*
X163146382Y-102642695D01*
X163141398Y-102712387D01*
X163099526Y-102768320D01*
X163079018Y-102780773D01*
X162872546Y-102880206D01*
X162700832Y-102997278D01*
X163351391Y-103647837D01*
X163232569Y-103719331D01*
X163098342Y-103846477D01*
X162995138Y-103998691D01*
X162347873Y-103351427D01*
X162300028Y-103411424D01*
X162168882Y-103638576D01*
X162073059Y-103882729D01*
X162014693Y-104138447D01*
X161995092Y-104400000D01*
X162014693Y-104661552D01*
X162073059Y-104917270D01*
X162168882Y-105161424D01*
X162300027Y-105388573D01*
X162347873Y-105448571D01*
X162347874Y-105448571D01*
X162998766Y-104797679D01*
X163042316Y-104879822D01*
X163162009Y-105020735D01*
X163309195Y-105132623D01*
X163351402Y-105152150D01*
X162700831Y-105802720D01*
X162706274Y-105860760D01*
X162705528Y-105860829D01*
X162709667Y-105896482D01*
X162678923Y-105959224D01*
X162619138Y-105995384D01*
X162587455Y-105999500D01*
X160124500Y-105999500D01*
X160057461Y-105979815D01*
X160011706Y-105927011D01*
X160000500Y-105875500D01*
X160000500Y-85124500D01*
X160020185Y-85057461D01*
X160072989Y-85011706D01*
X160124500Y-85000500D01*
X179875500Y-85000500D01*
X179942539Y-85020185D01*
G37*
%TD.AperFunction*%
%TA.AperFunction,Conductor*%
G36*
X165104816Y-105401262D02*
G01*
X165138301Y-105462585D01*
X165133317Y-105532276D01*
X165104816Y-105576624D01*
X165056566Y-105624874D01*
X165196871Y-105739279D01*
X165247244Y-105765592D01*
X165297551Y-105814079D01*
X165313658Y-105882066D01*
X165290451Y-105947969D01*
X165235298Y-105990864D01*
X165189832Y-105999500D01*
X164912542Y-105999500D01*
X164845503Y-105979815D01*
X164799748Y-105927011D01*
X164789804Y-105857853D01*
X164795081Y-105846297D01*
X164799167Y-105802720D01*
X164148609Y-105152161D01*
X164267431Y-105080669D01*
X164401658Y-104953523D01*
X164504861Y-104801308D01*
X165104816Y-105401262D01*
G37*
%TD.AperFunction*%
%TD*%
M02*
