M48
; DRILL file {KiCad 7.0.2} date Tue Apr  2 18:30:12 2024
; FORMAT={-:-/ absolute / inch / decimal}
; #@! TF.CreationDate,2024-04-02T18:30:12-04:00
; #@! TF.GenerationSoftware,Kicad,Pcbnew,7.0.2
; #@! TF.FileFunction,MixedPlating,1,2
FMAT,2
INCH
; #@! TA.AperFunction,Plated,PTH,ViaDrill
T1C0.0157
; #@! TA.AperFunction,Plated,PTH,ComponentDrill
T2C0.0200
; #@! TA.AperFunction,Plated,PTH,ComponentDrill
T3C0.0315
; #@! TA.AperFunction,Plated,PTH,ComponentDrill
T4C0.0394
; #@! TA.AperFunction,Plated,PTH,ComponentDrill
T5C0.0472
; #@! TA.AperFunction,Plated,PTH,ComponentDrill
T6C0.0669
%
G90
G05
T1
X6.9291Y-3.4843
T2
X6.3813Y-3.5667
X6.3813Y-3.6167
X6.4813Y-3.5667
X6.4813Y-3.6167
X6.5513Y-3.8417
X6.5813Y-3.5667
X6.5813Y-3.6167
X6.6113Y-3.8417
X6.6813Y-3.5667
X6.6813Y-3.6167
X6.7513Y-3.8417
X6.7813Y-3.5667
X6.7813Y-3.6167
X6.8113Y-3.8417
X6.8813Y-3.5667
X6.8813Y-3.6167
X6.9513Y-3.8417
X6.9813Y-3.5667
X6.9813Y-3.6167
X7.0113Y-3.8417
T3
X6.4567Y-4.0039
T4
X6.8685Y-3.9976
T6
X6.4469Y-3.8976
X6.4469Y-4.1102
X6.7685Y-3.8976
X6.7685Y-4.0976
X6.9685Y-3.8976
X6.9685Y-4.0976
T5
G00X6.5492Y-3.8976
M15
G01X6.6004Y-3.8976
M16
G05
G00X6.5492Y-4.1102
M15
G01X6.6004Y-4.1102
M16
G05
T0
M30
