M48
; DRILL file {KiCad 7.0.2} date Fri Mar 22 17:28:43 2024
; FORMAT={-:-/ absolute / inch / decimal}
; #@! TF.CreationDate,2024-03-22T17:28:43-04:00
; #@! TF.GenerationSoftware,Kicad,Pcbnew,7.0.2
; #@! TF.FileFunction,MixedPlating,1,4
FMAT,2
INCH
; #@! TA.AperFunction,Plated,PTH,ViaDrill
T1C0.0118
; #@! TA.AperFunction,Plated,PTH,ComponentDrill
T2C0.0118
; #@! TA.AperFunction,Plated,PTH,ComponentDrill
T3C0.0315
; #@! TA.AperFunction,Plated,PTH,ComponentDrill
T4C0.0331
; #@! TA.AperFunction,Plated,PTH,ComponentDrill
T5C0.0350
; #@! TA.AperFunction,Plated,PTH,ComponentDrill
T6C0.0354
; #@! TA.AperFunction,Plated,PTH,ComponentDrill
T7C0.0394
; #@! TA.AperFunction,Plated,PTH,ComponentDrill
T8C0.0402
; #@! TA.AperFunction,Plated,PTH,ComponentDrill
T9C0.0433
; #@! TA.AperFunction,Plated,PTH,ComponentDrill
T10C0.0472
; #@! TA.AperFunction,Plated,PTH,ComponentDrill
T11C0.0500
; #@! TA.AperFunction,Plated,PTH,ComponentDrill
T12C0.0618
; #@! TA.AperFunction,Plated,PTH,ComponentDrill
T13C0.0630
; #@! TA.AperFunction,NonPlated,NPTH,ComponentDrill
T14C0.0335
; #@! TA.AperFunction,NonPlated,NPTH,ComponentDrill
T15C0.0354
; #@! TA.AperFunction,NonPlated,NPTH,ComponentDrill
T16C0.1280
%
G90
G05
T1
X3.5433Y-4.5276
X3.5433Y-4.626
X3.5433Y-4.7244
X3.5433Y-4.8228
X3.5433Y-4.9213
X3.5433Y-5.0197
X3.5433Y-5.2165
X3.5433Y-5.315
X3.5433Y-5.4134
X3.5433Y-5.5118
X3.5433Y-5.6102
X3.6417Y-1.1811
X3.6417Y-4.5276
X3.6417Y-4.8228
X3.6417Y-4.9213
X3.6417Y-5.0197
X3.6417Y-5.2165
X3.6417Y-5.6102
X3.7303Y-5.4134
X3.7303Y-5.5118
X3.7402Y-1.1811
X3.7402Y-1.6732
X3.7402Y-4.5276
X3.7402Y-4.626
X3.7402Y-4.7244
X3.7402Y-4.8228
X3.7402Y-4.9213
X3.7402Y-5.6102
X3.8386Y-4.4291
X3.8386Y-4.5276
X3.8386Y-4.626
X3.8386Y-4.7244
X3.8386Y-4.8228
X3.8386Y-5.6102
X3.9281Y-5.1083
X3.9281Y-5.2067
X3.937Y-1.1811
X3.937Y-1.6732
X3.937Y-4.4291
X3.937Y-4.5276
X3.937Y-5.0197
X3.937Y-5.6102
X3.9862Y-2.185
X4.0157Y-3.0807
X4.0231Y-4.5276
X4.0266Y-5.3051
X4.0266Y-5.4035
X4.0266Y-5.502
X4.0354Y-1.1811
X4.0354Y-3.9665
X4.0354Y-4.4291
X4.0354Y-5.6102
X4.0453Y-3.5335
X4.0906Y-3.1102
X4.0906Y-3.1398
X4.0906Y-3.5434
X4.0906Y-3.5728
X4.0906Y-3.9862
X4.0906Y-4.0157
X4.1142Y-3.1102
X4.1142Y-3.1398
X4.1142Y-3.5433
X4.1142Y-3.5728
X4.1142Y-3.9862
X4.1142Y-4.0157
X4.125Y-5.502
X4.1339Y-2.9724
X4.1339Y-4.4291
X4.1339Y-4.5211
X4.1339Y-4.6339
X4.1339Y-4.7634
X4.1339Y-5.0197
X4.1339Y-5.315
X4.1339Y-5.4134
X4.1378Y-3.1102
X4.1378Y-3.1398
X4.1378Y-3.5433
X4.1378Y-3.5728
X4.1378Y-3.9862
X4.1378Y-4.0157
X4.1447Y-5.1083
X4.154Y-2.7362
X4.154Y-2.8445
X4.2224Y-4.0354
X4.2323Y-3.9961
X4.2323Y-4.9213
X4.2323Y-5.0197
X4.2323Y-5.1181
X4.2323Y-5.2165
X4.2323Y-5.315
X4.2323Y-5.4134
X4.2323Y-5.5118
X4.2323Y-5.6102
X4.2421Y-2.9035
X4.2426Y-4.4724
X4.259Y-3.635
X4.2618Y-3.3563
X4.2913Y-4.7343
X4.3307Y-4.6453
X4.3307Y-4.9213
X4.3307Y-5.1181
X4.3307Y-5.2165
X4.3307Y-5.315
X4.3307Y-5.4134
X4.3307Y-5.5118
X4.3307Y-5.6102
X4.3504Y-2.8937
X4.3601Y-3.0314
X4.3602Y-2.0571
X4.3602Y-2.7657
X4.3602Y-2.9429
X4.3602Y-3.9764
X4.3701Y-2.7165
X4.3766Y-2.6741
X4.3917Y-4.4882
X4.3996Y-3.0472
X4.3998Y-3.0805
X4.4094Y-2.4803
X4.4094Y-2.7067
X4.4094Y-3.1791
X4.4193Y-2.7264
X4.4291Y-1.1811
X4.4291Y-2.6772
X4.4291Y-3.1988
X4.4291Y-3.3071
X4.4291Y-4.9213
X4.4291Y-5.0197
X4.4291Y-5.4134
X4.4291Y-5.6102
X4.4488Y-4.7343
X4.4686Y-3.947
X4.4705Y-3.9764
X4.4764Y-3.4094
X4.4807Y-3.3192
X4.4911Y-1.6707
X4.4938Y-3.8622
X4.5059Y-3.498
X4.5059Y-4.5079
X4.5276Y-1.1811
X4.5276Y-5.1181
X4.5276Y-5.6102
X4.5354Y-3.4232
X4.5472Y-3.1417
X4.565Y-4.0885
X4.6122Y-1.8996
X4.6122Y-1.9291
X4.6161Y-3.7697
X4.626Y-1.1811
X4.626Y-5.4134
X4.626Y-5.5118
X4.626Y-5.6102
X4.628Y-3.1673
X4.6358Y-1.8996
X4.6358Y-1.9291
X4.6457Y-3.0512
X4.6555Y-4.065
X4.6594Y-1.8996
X4.6594Y-1.9291
X4.6713Y-3.7579
X4.6821Y-4.9213
X4.6969Y-4.2916
X4.7Y-4.7
X4.7047Y-3.6831
X4.7126Y-4.5362
X4.7146Y-1.8898
X4.7243Y-5.512
X4.7244Y-1.1811
X4.7244Y-4.9213
X4.7244Y-5.0197
X4.7244Y-5.6102
X4.7245Y-2.3623
X4.7293Y-1.6683
X4.7303Y-3.1201
X4.7343Y-3.002
X4.7374Y-3.1771
X4.7441Y-2.9528
X4.7489Y-5.1575
X4.7598Y-3.5945
X4.7618Y-3.1693
X4.7638Y-2.8543
X4.7638Y-4.3701
X4.7668Y-3.1264
X4.7736Y-2.6673
X4.7854Y-4.5217
X4.8066Y-4.7244
X4.8228Y-4.5276
X4.8228Y-4.626
X4.8228Y-4.9213
X4.8228Y-5.0197
X4.8228Y-5.2165
X4.8228Y-5.315
X4.8228Y-5.4134
X4.8228Y-5.6102
X4.823Y-2.2639
X4.8327Y-4.8031
X4.8524Y-4.4783
X4.8583Y-4.685
X4.8799Y-3.3524
X4.8819Y-2.7854
X4.8839Y-2.9173
X4.8858Y-4.6063
X4.8917Y-4.3898
X4.915Y-4.3332
X4.9213Y-2.126
X4.9213Y-4.9213
X4.9213Y-5.0197
X4.9213Y-5.2165
X4.9213Y-5.315
X4.9213Y-5.4134
X4.9213Y-5.5118
X4.9416Y-3.061
X4.9508Y-2.8543
X4.9626Y-4.2697
X5.0Y-3.2579
X5.0098Y-2.3622
X5.0098Y-3.5531
X5.0197Y-4.5177
X5.0236Y-3.2447
X5.0363Y-3.9758
X5.0433Y-4.7913
X5.0551Y-3.9941
X5.0551Y-5.2047
X5.0591Y-2.5689
X5.0591Y-2.627
X5.0591Y-2.7461
X5.0591Y-2.8071
X5.0591Y-2.9911
X5.0591Y-3.0522
X5.0591Y-3.9173
X5.063Y-5.0315
X5.0728Y-2.4252
X5.0751Y-3.8039
X5.0797Y-2.5345
X5.0827Y-3.998
X5.087Y-3.3181
X5.0886Y-2.2736
X5.0886Y-2.313
X5.0906Y-3.1693
X5.0945Y-4.9134
X5.0977Y-4.2052
X5.1102Y-4.8819
X5.1102Y-5.0315
X5.1181Y-1.1811
X5.124Y-4.5333
X5.1299Y-3.1398
X5.1311Y-5.2026
X5.1356Y-3.7445
X5.1378Y-4.3209
X5.1417Y-5.0315
X5.1476Y-3.2776
X5.1476Y-3.8091
X5.1476Y-3.9173
X5.1626Y-4.9664
X5.166Y-3.4228
X5.1666Y-3.2386
X5.1772Y-2.9331
X5.1783Y-5.1108
X5.1831Y-1.8996
X5.1831Y-1.9291
X5.1929Y-4.1221
X5.1965Y-3.6268
X5.1969Y-2.9823
X5.1969Y-4.0282
X5.1991Y-3.3356
X5.2007Y-3.691
X5.2067Y-1.8996
X5.2067Y-1.9291
X5.2067Y-2.9331
X5.2165Y-1.1811
X5.2165Y-1.6707
X5.2165Y-5.4134
X5.2165Y-5.5118
X5.2196Y-2.2966
X5.2283Y-5.1732
X5.2288Y-3.8005
X5.2299Y-4.7203
X5.2303Y-1.8996
X5.2303Y-1.9291
X5.2307Y-4.5727
X5.2362Y-3.9075
X5.2362Y-3.9508
X5.239Y-4.9459
X5.2421Y-4.4447
X5.2421Y-4.4939
X5.248Y-2.4705
X5.25Y-4.7953
X5.2657Y-3.3896
X5.2697Y-3.1398
X5.2723Y-3.077
X5.2742Y-3.176
X5.2756Y-1.8701
X5.2757Y-3.8315
X5.2767Y-3.7467
X5.2776Y-3.7874
X5.2783Y-4.9459
X5.2808Y-3.642
X5.2831Y-3.5616
X5.2854Y-2.4902
X5.2913Y-4.4724
X5.2953Y-3.1693
X5.2953Y-3.2874
X5.2986Y-3.0807
X5.3041Y-2.4311
X5.3084Y-2.9113
X5.3097Y-3.8274
X5.315Y-1.1811
X5.315Y-3.8747
X5.315Y-5.2047
X5.315Y-5.4134
X5.3159Y-3.5579
X5.3204Y-3.7602
X5.3248Y-3.1398
X5.3349Y-4.1994
X5.3492Y-3.987
X5.3543Y-3.4843
X5.3543Y-3.7126
X5.3543Y-3.7992
X5.3549Y-3.9118
X5.355Y-3.8831
X5.3571Y-4.3576
X5.3571Y-5.0727
X5.3622Y-3.3563
X5.3768Y-4.9459
X5.3832Y-3.1386
X5.3908Y-5.4354
X5.3937Y-3.4764
X5.3976Y-3.9094
X5.3981Y-3.5864
X5.4035Y-2.4606
X5.409Y-3.3939
X5.4134Y-1.1811
X5.4134Y-1.6732
X5.4134Y-4.0354
X5.4134Y-5.2165
X5.4134Y-5.5118
X5.4154Y-3.3602
X5.4161Y-4.4455
X5.4161Y-4.9459
X5.4183Y-4.315
X5.4193Y-4.4841
X5.4232Y-2.4311
X5.4233Y-2.7532
X5.4279Y-3.8775
X5.4314Y-5.3321
X5.4325Y-3.9894
X5.4331Y-3.5531
X5.4331Y-3.5963
X5.4331Y-3.6356
X5.4331Y-3.675
X5.4331Y-3.7144
X5.4331Y-3.7538
X5.4331Y-3.8325
X5.4331Y-3.9488
X5.436Y-3.9074
X5.4528Y-3.3957
X5.4531Y-2.3261
X5.4626Y-4.0687
X5.4668Y-4.1493
X5.4705Y-3.9528
X5.4715Y-3.7135
X5.4724Y-3.5175
X5.4724Y-3.5569
X5.4724Y-3.6693
X5.4724Y-3.7538
X5.4727Y-2.649
X5.4773Y-3.4416
X5.4803Y-4.3155
X5.4821Y-2.8009
X5.4895Y-5.433
X5.4921Y-2.2638
X5.4949Y-4.9459
X5.4964Y-2.2977
X5.502Y-2.7854
X5.502Y-2.8346
X5.5052Y-3.8346
X5.5079Y-3.6378
X5.5085Y-3.7538
X5.5085Y-3.7931
X5.5118Y-3.5963
X5.5118Y-3.675
X5.5118Y-5.2165
X5.5118Y-5.5118
X5.5217Y-2.6378
X5.5263Y-3.99
X5.5295Y-2.4311
X5.5309Y-2.2829
X5.5319Y-3.1412
X5.5334Y-5.3321
X5.5413Y-3.3465
X5.5441Y-4.9459
X5.5472Y-3.6417
X5.5512Y-3.5175
X5.5512Y-5.0472
X5.5512Y-2.7854
X5.5513Y-3.596
X5.5699Y-4.4783
X5.5835Y-4.9459
X5.5864Y-3.6704
X5.5867Y-3.9082
X5.5881Y-3.7538
X5.5887Y-3.7931
X5.5891Y-2.4332
X5.5898Y-3.7171
X5.5906Y-3.5955
X5.5906Y-3.6356
X5.5906Y-3.8325
X5.5906Y-5.0472
X5.5915Y-3.1398
X5.5968Y-3.8741
X5.6004Y-3.439
X5.6004Y-4.5177
X5.6009Y-1.1129
X5.6049Y-2.656
X5.6102Y-3.3858
X5.6102Y-3.99
X5.6161Y-4.9073
X5.6256Y-3.6312
X5.6299Y-3.675
X5.6309Y-4.4783
X5.6339Y-3.9089
X5.6379Y-4.1373
X5.6401Y-2.983
X5.6408Y-3.5566
X5.6545Y-4.7165
X5.6555Y-4.5906
X5.6557Y-4.108
X5.6664Y-3.7174
X5.6673Y-3.9528
X5.6693Y-3.4764
X5.6693Y-3.6356
X5.6693Y-3.8325
X5.6693Y-3.862
X5.6714Y-3.5949
X5.673Y-4.943
X5.6732Y-3.5591
X5.6736Y-3.7598
X5.6747Y-3.791
X5.6791Y-2.2441
X5.6811Y-2.5906
X5.7003Y-2.6083
X5.7008Y-4.7165
X5.7045Y-3.7179
X5.7047Y-4.9459
X5.7087Y-1.7717
X5.7087Y-3.675
X5.7087Y-3.7538
X5.7087Y-3.8423
X5.7124Y-4.5333
X5.7205Y-4.8187
X5.7228Y-4.8581
X5.7323Y-3.1752
X5.7402Y-2.502
X5.7402Y-3.563
X5.7411Y-5.1969
X5.7461Y-3.8349
X5.7463Y-3.8632
X5.748Y-3.7221
X5.748Y-2.7362
X5.748Y-3.675
X5.748Y-3.7538
X5.748Y-3.9112
X5.748Y-3.9506
X5.7502Y-3.9886
X5.7542Y-3.1668
X5.7559Y-1.9035
X5.7559Y-1.9331
X5.7559Y-5.0079
X5.7591Y-5.1124
X5.7624Y-2.7033
X5.7677Y-2.7667
X5.7677Y-2.9026
X5.7677Y-2.9636
X5.7756Y-3.4803
X5.7776Y-2.44
X5.7795Y-1.9035
X5.7795Y-1.9331
X5.787Y-3.7511
X5.7874Y-3.429
X5.7874Y-3.8234
X5.7877Y-3.8705
X5.7894Y-3.0925
X5.8031Y-1.9035
X5.8031Y-1.9331
X5.8071Y-1.6732
X5.8071Y-5.4134
X5.8071Y-5.5118
X5.8193Y-5.1927
X5.8268Y-4.8925
X5.8366Y-2.4016
X5.8366Y-3.616
X5.8445Y-4.8729
X5.8461Y-3.931
X5.8465Y-2.126
X5.8465Y-2.2933
X5.8563Y-1.8898
X5.8583Y-4.8228
X5.8661Y-3.7628
X5.874Y-4.8465
X5.876Y-2.2835
X5.876Y-2.3622
X5.8799Y-4.0846
X5.8843Y-2.2343
X5.8858Y-2.3425
X5.8863Y-3.8516
X5.8957Y-4.7933
X5.9041Y-2.372
X5.9055Y-2.6181
X5.9055Y-4.9213
X5.9055Y-5.4134
X5.9063Y-3.406
X5.9147Y-2.7744
X5.9252Y-2.2047
X5.9252Y-2.7461
X5.9253Y-2.5786
X5.9291Y-4.311
X5.935Y-2.6476
X5.9379Y-2.801
X5.9448Y-2.5592
X5.9449Y-2.1161
X5.9449Y-2.2343
X5.9457Y-3.3572
X5.9547Y-1.9685
X5.9547Y-2.2736
X5.9618Y-2.1555
X5.9646Y-2.4213
X5.9646Y-2.4508
X5.9694Y-2.7508
X5.9727Y-3.3132
X5.9744Y-3.1102
X5.9803Y-3.3484
X5.9882Y-4.5217
X5.9898Y-2.7711
X6.0Y-4.2264
X6.0039Y-3.3522
X6.0039Y-4.7244
X6.0039Y-4.8228
X6.0039Y-4.9213
X6.0039Y-5.0197
X6.0039Y-5.1181
X6.0039Y-5.315
X6.0039Y-5.4134
X6.0138Y-3.061
X6.0138Y-3.2874
X6.0236Y-2.1358
X6.0236Y-3.0217
X6.0236Y-3.3661
X6.0335Y-2.3524
X6.0433Y-2.5492
X6.0433Y-4.252
X6.0531Y-2.0669
X6.0728Y-3.7242
X6.0945Y-3.748
X6.1024Y-4.3307
X6.1024Y-4.4291
X6.1024Y-4.626
X6.1024Y-4.7244
X6.1024Y-4.8228
X6.1024Y-4.9213
X6.1024Y-5.315
X6.1152Y-4.0748
X6.1319Y-2.372
X6.135Y-4.103
X6.1417Y-2.5394
X6.1516Y-4.2323
X6.1614Y-2.2638
X6.1732Y-4.0804
X6.1811Y-2.8839
X6.1811Y-3.5667
X6.1909Y-1.9783
X6.2008Y-3.1398
X6.2008Y-4.3307
X6.2008Y-4.4291
X6.2008Y-4.5276
X6.2008Y-4.7244
X6.2008Y-4.8228
X6.2008Y-5.2165
X6.2008Y-5.315
X6.2008Y-5.5118
X6.2008Y-5.6102
X6.2106Y-2.0669
X6.2106Y-2.5394
X6.2126Y-3.7717
X6.2205Y-2.2343
X6.2205Y-2.9232
X6.2283Y-3.7165
X6.2303Y-2.5591
X6.2362Y-3.622
X6.2441Y-3.3858
X6.2678Y-3.8345
X6.2756Y-3.7087
X6.2756Y-3.7559
X6.2795Y-2.0571
X6.2835Y-3.6614
X6.2992Y-4.1929
X6.2992Y-4.3307
X6.2992Y-4.4291
X6.2992Y-4.5276
X6.2992Y-4.626
X6.2992Y-5.1181
X6.2992Y-5.2165
X6.2992Y-5.5118
X6.2992Y-5.6102
X6.3043Y-2.7672
X6.3071Y-3.3858
X6.3081Y-2.1959
X6.3091Y-4.0016
X6.315Y-3.7559
X6.315Y-3.8268
X6.3189Y-1.9587
X6.3189Y-2.1304
X6.3228Y-3.874
X6.3287Y-2.0079
X6.3287Y-2.0571
X6.3287Y-2.7756
X6.3287Y-3.2677
X6.3469Y-3.99
X6.3543Y-3.4724
X6.3583Y-3.0512
X6.3622Y-3.3858
X6.3671Y-3.6849
X6.378Y-2.5787
X6.3789Y-3.8817
X6.3878Y-3.3563
X6.3976Y-4.3307
X6.3976Y-4.4291
X6.3976Y-4.5276
X6.3976Y-4.626
X6.3976Y-4.7244
X6.3976Y-5.0197
X6.3976Y-5.1181
X6.3976Y-5.2067
X6.3976Y-5.4035
X6.3976Y-5.502
X6.3976Y-5.6102
X6.4013Y-3.5585
X6.4252Y-3.3937
X6.4252Y-3.8346
X6.4449Y-5.3524
X6.4488Y-3.6142
X6.4488Y-3.8031
X6.4567Y-3.5197
X6.4606Y-4.0276
X6.4828Y-4.0079
X6.4843Y-3.7813
X6.4882Y-3.6457
X6.4961Y-1.8996
X6.4961Y-3.5512
X6.4961Y-5.1083
X6.4961Y-5.3051
X6.4961Y-5.502
X6.4968Y-3.9862
X6.5Y-3.7577
X6.5034Y-3.6652
X6.5059Y-4.0354
X6.5059Y-4.124
X6.5157Y-2.1457
X6.5174Y-3.5847
X6.5197Y-3.6849
X6.5256Y-3.9698
X6.5354Y-2.3524
X6.5354Y-4.124
X6.5394Y-3.7144
X6.5433Y-3.5039
X6.5433Y-5.2539
X6.5512Y-3.6299
X6.5551Y-4.8543
X6.5579Y-3.5658
X6.565Y-2.1358
X6.565Y-4.6949
X6.5748Y-2.2933
X6.5748Y-3.8404
X6.5748Y-4.0748
X6.5846Y-3.9469
X6.5846Y-4.0354
X6.5846Y-4.3898
X6.5918Y-4.5866
X6.5935Y-3.6849
X6.6Y-3.742
X6.6142Y-4.5276
X6.6211Y-3.5026
X6.6437Y-3.9862
X6.6634Y-2.9193
X6.6634Y-4.5177
X6.6732Y-4.2717
X6.6752Y-2.8051
X6.6772Y-3.1831
X6.7028Y-2.874
X6.7028Y-3.0512
X6.7028Y-3.1102
X6.7028Y-4.5276
X6.7087Y-3.8346
X6.7101Y-2.9724
X6.7126Y-3.002
X6.7224Y-3.7439
X6.7323Y-3.6024
X6.7323Y-3.7636
X6.7717Y-3.4646
X6.7717Y-3.6417
X6.8031Y-2.8071
X6.8268Y-5.4232
X6.8307Y-4.1142
X6.8504Y-3.6614
X6.8602Y-1.939
X6.8701Y-3.5039
X6.8898Y-3.376
X6.8898Y-3.563
X6.8898Y-5.3839
X6.8898Y-5.4134
X6.8898Y-5.4429
X6.8996Y-2.0866
X6.9291Y-3.6024
X6.9291Y-5.3839
X6.9291Y-5.4134
X6.9291Y-5.4429
X6.9293Y-3.8421
X6.939Y-2.1654
X6.9685Y-5.3839
X6.9685Y-5.4134
X6.9685Y-5.4429
X6.9783Y-2.874
X6.9882Y-3.4449
X7.0472Y-2.9528
X7.0472Y-4.4587
X7.0669Y-3.1693
X7.0669Y-3.5236
X7.0757Y-1.8377
X7.0866Y-3.3661
X7.0866Y-5.6102
X7.0965Y-4.0945
X7.1043Y-1.8465
X7.128Y-2.8189
X7.1358Y-4.4488
X7.1359Y-1.9881
X7.1554Y-1.9686
X7.1654Y-3.4449
X7.185Y-5.2165
X7.185Y-5.315
X7.185Y-5.5118
X7.185Y-5.6102
X7.1893Y-2.6575
X7.1949Y-2.5886
X7.2046Y-2.6182
X7.2441Y-4.2246
X7.2638Y-4.1437
X7.2638Y-4.242
T2
X5.3866Y-4.6071
X5.3866Y-4.6514
X5.3866Y-4.6957
X5.3866Y-4.74
X5.3866Y-4.7843
X5.4309Y-4.6071
X5.4309Y-4.6514
X5.4309Y-4.6957
X5.4309Y-4.74
X5.4309Y-4.7843
X5.4752Y-4.6071
X5.4752Y-4.6514
X5.4752Y-4.6957
X5.4752Y-4.74
X5.4752Y-4.7843
X5.5195Y-4.6071
X5.5195Y-4.6514
X5.5195Y-4.6957
X5.5195Y-4.74
X5.5195Y-4.7843
X5.5638Y-4.6071
X5.5638Y-4.6514
X5.5638Y-4.6957
X5.5638Y-4.74
X5.5638Y-4.7843
X6.0925Y-2.1088
X6.0925Y-2.1481
X6.0925Y-2.1875
X6.1319Y-2.1088
X6.1319Y-2.1481
X6.1319Y-2.1875
X6.1713Y-2.1088
X6.1713Y-2.1481
X6.1713Y-2.1875
T3
X3.9272Y-4.5965
X3.9272Y-4.7343
X5.5058Y-2.1654
X5.6436Y-2.1654
X7.1063Y-5.1969
X7.1063Y-5.3346
T4
X3.879Y-5.4126
X3.879Y-5.5126
X3.929Y-5.4626
X3.979Y-5.4126
X3.979Y-5.5126
X4.4776Y-5.4323
X4.4776Y-5.5323
X4.5276Y-5.4823
X4.5776Y-5.4323
X4.5776Y-5.5323
X5.0386Y-5.4421
X5.0386Y-5.5421
X5.0886Y-5.4921
X5.1386Y-5.4421
X5.1386Y-5.5421
X5.6087Y-5.4421
X5.6087Y-5.5421
X5.6587Y-5.4921
X5.7087Y-5.4421
X5.7087Y-5.5421
T5
X6.1724Y-1.6033
X6.2626Y-1.6033
X6.3024Y-1.3435
X6.3424Y-1.4136
X6.3824Y-1.3435
X6.4224Y-1.4136
X6.4624Y-1.3435
X6.5024Y-1.4136
X6.5424Y-1.3435
X6.5824Y-1.4136
X6.6224Y-1.6033
X6.7126Y-1.6033
T6
X6.6579Y-2.01
X6.6579Y-2.11
X6.6579Y-2.21
X6.6579Y-2.31
X6.7579Y-2.06
X6.7579Y-2.16
X6.7579Y-2.26
X6.7579Y-2.36
T7
X3.6417Y-4.6063
X3.6417Y-4.7047
X3.6516Y-5.4134
X3.6516Y-5.5118
X4.3071Y-2.1732
X4.4055Y-2.1732
X6.8488Y-4.4047
X6.8488Y-4.5047
X6.8488Y-4.6047
X6.8488Y-4.7047
X6.9488Y-4.4047
X6.9488Y-4.5047
X6.9488Y-4.6047
X6.9488Y-4.7047
X7.0669Y-4.8425
X7.1063Y-4.3047
X7.1063Y-4.4047
X7.1063Y-4.5047
X7.1063Y-4.6047
X7.1063Y-4.7047
X7.2063Y-4.3047
X7.2063Y-4.4047
X7.2063Y-4.5047
X7.2063Y-4.6047
X7.2063Y-4.7047
X7.2244Y-4.8425
T8
X6.4677Y-1.9699
X6.4677Y-2.0699
X6.4677Y-2.3002
X6.4677Y-2.4002
T9
X4.2283Y-2.4
X4.2283Y-2.5
X4.2283Y-2.6
X4.2283Y-2.8362
X4.2283Y-3.0331
X4.2283Y-3.2693
X4.2283Y-3.4661
X4.2283Y-3.7087
X4.2283Y-3.9055
X4.2283Y-4.1323
X4.2283Y-4.2323
X4.2283Y-4.3323
T10
X3.5476Y-1.3488
X4.1295Y-1.3488
T12
X6.1224Y-1.3785
X6.7626Y-1.3785
T13
X6.8878Y-1.874
X6.8878Y-2.4961
T14
X4.6024Y-2.6496
X4.6024Y-3.0433
T15
X7.0758Y-1.3819
X7.0758Y-1.5551
T16
X6.1925Y-1.2435
X6.6925Y-1.2435
X7.0079Y-1.96
X7.0079Y-2.41
T7
G00X4.3701Y-1.5787
M15
G01X4.3701Y-1.626
M16
G05
G00X4.3701Y-1.8622
M15
G01X4.3701Y-1.9094
M16
G05
G00X4.4685Y-1.2756
M15
G01X4.4685Y-1.3228
M16
G05
G00X4.5669Y-1.8622
M15
G01X4.5669Y-1.9094
M16
G05
G00X4.9409Y-1.5787
M15
G01X4.9409Y-1.626
M16
G05
G00X4.9409Y-1.8622
M15
G01X4.9409Y-1.9094
M16
G05
G00X5.0394Y-1.2756
M15
G01X5.0394Y-1.3228
M16
G05
G00X5.1378Y-1.8622
M15
G01X5.1378Y-1.9094
M16
G05
G00X5.5118Y-1.5787
M15
G01X5.5118Y-1.626
M16
G05
G00X5.5118Y-1.8622
M15
G01X5.5118Y-1.9094
M16
G05
G00X5.6102Y-1.2756
M15
G01X5.6102Y-1.3228
M16
G05
G00X5.7087Y-1.8622
M15
G01X5.7087Y-1.9094
M16
G05
T11
G00X3.6051Y-2.0669
M15
G01X3.761Y-2.0669
M16
G05
G00X3.9161Y-2.0669
M15
G01X4.072Y-2.0669
M16
G05
T0
M30
