%TF.GenerationSoftware,KiCad,Pcbnew,7.0.2*%
%TF.CreationDate,2024-03-22T17:28:19-04:00*%
%TF.ProjectId,MR-Core,4d522d43-6f72-4652-9e6b-696361645f70,rev?*%
%TF.SameCoordinates,Original*%
%TF.FileFunction,Soldermask,Bot*%
%TF.FilePolarity,Negative*%
%FSLAX46Y46*%
G04 Gerber Fmt 4.6, Leading zero omitted, Abs format (unit mm)*
G04 Created by KiCad (PCBNEW 7.0.2) date 2024-03-22 17:28:19*
%MOMM*%
%LPD*%
G01*
G04 APERTURE LIST*
G04 Aperture macros list*
%AMRoundRect*
0 Rectangle with rounded corners*
0 $1 Rounding radius*
0 $2 $3 $4 $5 $6 $7 $8 $9 X,Y pos of 4 corners*
0 Add a 4 corners polygon primitive as box body*
4,1,4,$2,$3,$4,$5,$6,$7,$8,$9,$2,$3,0*
0 Add four circle primitives for the rounded corners*
1,1,$1+$1,$2,$3*
1,1,$1+$1,$4,$5*
1,1,$1+$1,$6,$7*
1,1,$1+$1,$8,$9*
0 Add four rect primitives between the rounded corners*
20,1,$1+$1,$2,$3,$4,$5,0*
20,1,$1+$1,$4,$5,$6,$7,0*
20,1,$1+$1,$6,$7,$8,$9,0*
20,1,$1+$1,$8,$9,$2,$3,0*%
G04 Aperture macros list end*
%ADD10R,2.000000X1.905000*%
%ADD11O,2.000000X1.905000*%
%ADD12R,1.350000X4.200000*%
%ADD13C,1.240000*%
%ADD14RoundRect,0.250000X-0.750000X0.600000X-0.750000X-0.600000X0.750000X-0.600000X0.750000X0.600000X0*%
%ADD15O,2.000000X1.700000*%
%ADD16C,0.900000*%
%ADD17O,1.712000X3.220000*%
%ADD18C,2.000000*%
%ADD19O,6.500000X2.300000*%
%ADD20R,1.600000X1.600000*%
%ADD21C,1.600000*%
%ADD22RoundRect,0.250000X0.600000X0.750000X-0.600000X0.750000X-0.600000X-0.750000X0.600000X-0.750000X0*%
%ADD23O,1.700000X2.000000*%
%ADD24C,3.250000*%
%ADD25R,1.500000X1.500000*%
%ADD26C,1.500000*%
%ADD27C,2.300000*%
%ADD28RoundRect,0.248000X0.552000X-0.552000X0.552000X0.552000X-0.552000X0.552000X-0.552000X-0.552000X0*%
%ADD29C,1.720000*%
%ADD30C,2.200000*%
%ADD31C,0.850000*%
%ADD32R,1.700000X1.700000*%
%ADD33O,1.700000X1.700000*%
%ADD34RoundRect,0.225000X-0.225000X-0.250000X0.225000X-0.250000X0.225000X0.250000X-0.225000X0.250000X0*%
%ADD35RoundRect,0.225000X0.225000X0.250000X-0.225000X0.250000X-0.225000X-0.250000X0.225000X-0.250000X0*%
%ADD36RoundRect,0.225000X-0.250000X0.225000X-0.250000X-0.225000X0.250000X-0.225000X0.250000X0.225000X0*%
%ADD37RoundRect,0.225000X0.250000X-0.225000X0.250000X0.225000X-0.250000X0.225000X-0.250000X-0.225000X0*%
%ADD38RoundRect,0.218750X-0.256250X0.218750X-0.256250X-0.218750X0.256250X-0.218750X0.256250X0.218750X0*%
%ADD39R,1.500000X1.000000*%
%ADD40RoundRect,0.200000X0.200000X0.275000X-0.200000X0.275000X-0.200000X-0.275000X0.200000X-0.275000X0*%
%ADD41RoundRect,0.200000X-0.200000X-0.275000X0.200000X-0.275000X0.200000X0.275000X-0.200000X0.275000X0*%
%ADD42R,0.500000X0.250000*%
%ADD43R,0.900000X1.600000*%
%ADD44RoundRect,0.218750X0.256250X-0.218750X0.256250X0.218750X-0.256250X0.218750X-0.256250X-0.218750X0*%
%ADD45RoundRect,0.200000X-0.275000X0.200000X-0.275000X-0.200000X0.275000X-0.200000X0.275000X0.200000X0*%
%ADD46RoundRect,0.225000X-0.017678X0.335876X-0.335876X0.017678X0.017678X-0.335876X0.335876X-0.017678X0*%
%ADD47RoundRect,0.200000X0.275000X-0.200000X0.275000X0.200000X-0.275000X0.200000X-0.275000X-0.200000X0*%
%ADD48RoundRect,0.218750X-0.218750X-0.256250X0.218750X-0.256250X0.218750X0.256250X-0.218750X0.256250X0*%
%ADD49R,1.000000X1.500000*%
%ADD50RoundRect,0.218750X0.218750X0.256250X-0.218750X0.256250X-0.218750X-0.256250X0.218750X-0.256250X0*%
%ADD51RoundRect,0.250000X-0.475000X0.250000X-0.475000X-0.250000X0.475000X-0.250000X0.475000X0.250000X0*%
G04 APERTURE END LIST*
D10*
%TO.C,R25*%
X107400000Y-77040000D03*
D11*
X107400000Y-72040000D03*
%TD*%
D12*
%TO.C,J17*%
X132875000Y-141887500D03*
X138525000Y-141887500D03*
%TD*%
D13*
%TO.C,J1*%
X143730000Y-139500000D03*
X142460000Y-138230000D03*
X142460000Y-140770000D03*
X145000000Y-138230000D03*
X145000000Y-140770000D03*
%TD*%
%TO.C,J2*%
X129250000Y-139500000D03*
X127980000Y-138230000D03*
X127980000Y-140770000D03*
X130520000Y-138230000D03*
X130520000Y-140770000D03*
%TD*%
D10*
%TO.C,R26*%
X107400000Y-99200000D03*
D11*
X107400000Y-94200000D03*
%TD*%
D14*
%TO.C,J20*%
X92750000Y-137500000D03*
D15*
X92750000Y-140000000D03*
%TD*%
D13*
%TO.C,J3*%
X99797500Y-138750000D03*
X101067500Y-140020000D03*
X101067500Y-137480000D03*
X98527500Y-140020000D03*
X98527500Y-137480000D03*
%TD*%
D16*
%TO.C,J23*%
X179725000Y-39500000D03*
X179725000Y-35100000D03*
%TD*%
D17*
%TO.C,J22*%
X128000000Y-33000000D03*
X125500000Y-47900000D03*
X130500000Y-47900000D03*
X125500000Y-40700000D03*
%TD*%
D18*
%TO.C,J12*%
X90110000Y-34260000D03*
X104890000Y-34260000D03*
D19*
X93550000Y-52500000D03*
X101450000Y-52500000D03*
%TD*%
D12*
%TO.C,J18*%
X147425000Y-141887500D03*
X153075000Y-141887500D03*
%TD*%
D20*
%TO.C,C139*%
X180500000Y-132000000D03*
D21*
X180500000Y-135500000D03*
%TD*%
D22*
%TO.C,J19*%
X111900000Y-55200000D03*
D23*
X109400000Y-55200000D03*
%TD*%
D18*
%TO.C,TP8*%
X183500000Y-123000000D03*
%TD*%
D12*
%TO.C,J8*%
X103500000Y-141637500D03*
X109150000Y-141637500D03*
%TD*%
%TO.C,J16*%
X118625000Y-141837500D03*
X124275000Y-141837500D03*
%TD*%
D24*
%TO.C,J9*%
X157290000Y-31585000D03*
X169990000Y-31585000D03*
D25*
X160080000Y-34125000D03*
D26*
X161096000Y-35905000D03*
X162112000Y-34125000D03*
X163128000Y-35905000D03*
X164144000Y-34125000D03*
X165160000Y-35905000D03*
X166176000Y-34125000D03*
X167192000Y-35905000D03*
X156780000Y-40725000D03*
X159070000Y-40725000D03*
X168210000Y-40725000D03*
X170500000Y-40725000D03*
D27*
X155510000Y-35015000D03*
X171770000Y-35015000D03*
%TD*%
D18*
%TO.C,TP7*%
X179500000Y-123000000D03*
%TD*%
D24*
%TO.C,J15*%
X178000000Y-49785000D03*
X178000000Y-61215000D03*
D28*
X169110000Y-51055000D03*
D21*
X171650000Y-52325000D03*
X169110000Y-53595000D03*
X171650000Y-54865000D03*
X169110000Y-56135000D03*
X171650000Y-57405000D03*
X169110000Y-58675000D03*
X171650000Y-59945000D03*
D29*
X164280000Y-50035000D03*
X164280000Y-52575000D03*
X164280000Y-58425000D03*
X164280000Y-60965000D03*
D30*
X174950000Y-47600000D03*
X174950000Y-63400000D03*
%TD*%
D31*
%TO.C,J13*%
X116900000Y-77300000D03*
X116900000Y-67300000D03*
%TD*%
D20*
%TO.C,C198*%
X99750000Y-120250000D03*
D21*
X99750000Y-116750000D03*
%TD*%
D32*
%TO.C,J6*%
X180500000Y-109340000D03*
D33*
X183040000Y-109340000D03*
X180500000Y-111880000D03*
X183040000Y-111880000D03*
X180500000Y-114420000D03*
X183040000Y-114420000D03*
X180500000Y-116960000D03*
X183040000Y-116960000D03*
X180500000Y-119500000D03*
X183040000Y-119500000D03*
%TD*%
D10*
%TO.C,U14*%
X107400000Y-66040000D03*
D11*
X107400000Y-63500000D03*
X107400000Y-60960000D03*
%TD*%
D17*
%TO.C,J7*%
X113500000Y-33000000D03*
X111000000Y-47900000D03*
X116000000Y-47900000D03*
X111000000Y-40700000D03*
%TD*%
D13*
%TO.C,J4*%
X115000000Y-139250000D03*
X113730000Y-140520000D03*
X116270000Y-140520000D03*
X113730000Y-137980000D03*
X116270000Y-137980000D03*
%TD*%
D10*
%TO.C,R30*%
X107400000Y-88040000D03*
D11*
X107400000Y-83040000D03*
%TD*%
D17*
%TO.C,J5*%
X142500000Y-33000000D03*
X140000000Y-47900000D03*
X145000000Y-47900000D03*
X140000000Y-40700000D03*
%TD*%
D10*
%TO.C,U18*%
X107400000Y-110040000D03*
D11*
X107400000Y-107500000D03*
X107400000Y-104960000D03*
%TD*%
D32*
%TO.C,J10*%
X173960000Y-111880000D03*
D33*
X176500000Y-111880000D03*
X173960000Y-114420000D03*
X176500000Y-114420000D03*
X173960000Y-116960000D03*
X176500000Y-116960000D03*
X173960000Y-119500000D03*
X176500000Y-119500000D03*
%TD*%
D14*
%TO.C,J21*%
X92500000Y-117000000D03*
D15*
X92500000Y-119500000D03*
%TD*%
D20*
%TO.C,C200*%
X139847349Y-55000000D03*
D21*
X143347349Y-55000000D03*
%TD*%
D34*
%TO.C,C17*%
X136025000Y-108000000D03*
X137575000Y-108000000D03*
%TD*%
D35*
%TO.C,C119*%
X162025000Y-97085429D03*
X160475000Y-97085429D03*
%TD*%
D36*
%TO.C,C112*%
X158750000Y-96570429D03*
X158750000Y-98120429D03*
%TD*%
D34*
%TO.C,C185*%
X147475000Y-91095429D03*
X149025000Y-91095429D03*
%TD*%
D37*
%TO.C,C64*%
X132800000Y-125750000D03*
X132800000Y-124200000D03*
%TD*%
D34*
%TO.C,C3*%
X114450000Y-113000000D03*
X116000000Y-113000000D03*
%TD*%
D35*
%TO.C,C181*%
X131300000Y-91595429D03*
X129750000Y-91595429D03*
%TD*%
%TO.C,C180*%
X138000000Y-90100000D03*
X136450000Y-90100000D03*
%TD*%
D36*
%TO.C,C67*%
X127950000Y-109825000D03*
X127950000Y-111375000D03*
%TD*%
D34*
%TO.C,C187*%
X147475000Y-88095429D03*
X149025000Y-88095429D03*
%TD*%
D36*
%TO.C,C46*%
X133000000Y-116025000D03*
X133000000Y-117575000D03*
%TD*%
%TO.C,C42*%
X144750000Y-101770429D03*
X144750000Y-103320429D03*
%TD*%
D35*
%TO.C,C127*%
X163275000Y-92095429D03*
X161725000Y-92095429D03*
%TD*%
D38*
%TO.C,FB4*%
X139000000Y-94012500D03*
X139000000Y-95587500D03*
%TD*%
D36*
%TO.C,C116*%
X168500000Y-97545429D03*
X168500000Y-99095429D03*
%TD*%
D37*
%TO.C,C156*%
X156500000Y-51275000D03*
X156500000Y-49725000D03*
%TD*%
%TO.C,C82*%
X140750000Y-112175000D03*
X140750000Y-110625000D03*
%TD*%
%TO.C,C148*%
X128500000Y-65250000D03*
X128500000Y-63700000D03*
%TD*%
%TO.C,C208*%
X153500000Y-51000000D03*
X153500000Y-49450000D03*
%TD*%
D36*
%TO.C,C111*%
X157270000Y-96570429D03*
X157270000Y-98120429D03*
%TD*%
D37*
%TO.C,C170*%
X166500000Y-118275000D03*
X166500000Y-116725000D03*
%TD*%
%TO.C,C87*%
X141000000Y-90120429D03*
X141000000Y-88570429D03*
%TD*%
D39*
%TO.C,JP1*%
X144000000Y-70300000D03*
X144000000Y-69000000D03*
%TD*%
D40*
%TO.C,R48*%
X175825000Y-73000000D03*
X174175000Y-73000000D03*
%TD*%
D34*
%TO.C,C167*%
X175225000Y-56400000D03*
X176775000Y-56400000D03*
%TD*%
D37*
%TO.C,C44*%
X144000000Y-125775000D03*
X144000000Y-124225000D03*
%TD*%
D35*
%TO.C,C176*%
X136775000Y-93345429D03*
X135225000Y-93345429D03*
%TD*%
%TO.C,C25*%
X131300000Y-99095429D03*
X129750000Y-99095429D03*
%TD*%
%TO.C,C129*%
X163275000Y-93595429D03*
X161725000Y-93595429D03*
%TD*%
D41*
%TO.C,R89*%
X159175000Y-53000000D03*
X160825000Y-53000000D03*
%TD*%
D34*
%TO.C,C131*%
X167475000Y-95095429D03*
X169025000Y-95095429D03*
%TD*%
D35*
%TO.C,C12*%
X143025000Y-113750000D03*
X141475000Y-113750000D03*
%TD*%
D34*
%TO.C,C96*%
X123250000Y-75000000D03*
X124800000Y-75000000D03*
%TD*%
D42*
%TO.C,U10*%
X146800000Y-47350000D03*
X146800000Y-46850000D03*
X146800000Y-46350000D03*
X146800000Y-45850000D03*
X148700000Y-45850000D03*
X148700000Y-46350000D03*
X148700000Y-46850000D03*
X148700000Y-47350000D03*
D43*
X147750000Y-46600000D03*
%TD*%
D34*
%TO.C,C24*%
X143475000Y-130500000D03*
X145025000Y-130500000D03*
%TD*%
D41*
%TO.C,R11*%
X147250000Y-132000000D03*
X148900000Y-132000000D03*
%TD*%
D44*
%TO.C,FB5*%
X127200000Y-130000000D03*
X127200000Y-128425000D03*
%TD*%
D37*
%TO.C,C19*%
X142500000Y-85395429D03*
X142500000Y-83845429D03*
%TD*%
%TO.C,C58*%
X142400000Y-125775000D03*
X142400000Y-124225000D03*
%TD*%
%TO.C,C79*%
X137600000Y-125775000D03*
X137600000Y-124225000D03*
%TD*%
D34*
%TO.C,C35*%
X139225000Y-91600000D03*
X140775000Y-91600000D03*
%TD*%
D45*
%TO.C,R87*%
X166000000Y-48000000D03*
X166000000Y-49650000D03*
%TD*%
D36*
%TO.C,C110*%
X155750000Y-96595429D03*
X155750000Y-98145429D03*
%TD*%
D34*
%TO.C,C66*%
X123600000Y-120600000D03*
X125150000Y-120600000D03*
%TD*%
D35*
%TO.C,C120*%
X162025000Y-98595429D03*
X160475000Y-98595429D03*
%TD*%
D37*
%TO.C,C122*%
X160000000Y-88620429D03*
X160000000Y-87070429D03*
%TD*%
D35*
%TO.C,C145*%
X136800000Y-79750000D03*
X135250000Y-79750000D03*
%TD*%
D34*
%TO.C,C48*%
X144975000Y-113500000D03*
X146525000Y-113500000D03*
%TD*%
%TO.C,C166*%
X175225000Y-58000000D03*
X176775000Y-58000000D03*
%TD*%
D36*
%TO.C,C179*%
X139000000Y-97050000D03*
X139000000Y-98600000D03*
%TD*%
%TO.C,C26*%
X146250000Y-101820429D03*
X146250000Y-103370429D03*
%TD*%
D34*
%TO.C,C99*%
X123250000Y-76600000D03*
X124800000Y-76600000D03*
%TD*%
D36*
%TO.C,C115*%
X167000000Y-97545429D03*
X167000000Y-99095429D03*
%TD*%
D34*
%TO.C,C188*%
X147500000Y-86595429D03*
X149050000Y-86595429D03*
%TD*%
D37*
%TO.C,C9*%
X122250000Y-113775000D03*
X122250000Y-112225000D03*
%TD*%
%TO.C,C33*%
X139500000Y-85395429D03*
X139500000Y-83845429D03*
%TD*%
D35*
%TO.C,C77*%
X149775000Y-112000000D03*
X148225000Y-112000000D03*
%TD*%
D36*
%TO.C,C84*%
X137500000Y-112725000D03*
X137500000Y-114275000D03*
%TD*%
D35*
%TO.C,C143*%
X146550000Y-79750000D03*
X145000000Y-79750000D03*
%TD*%
D37*
%TO.C,C72*%
X151400000Y-114975000D03*
X151400000Y-113425000D03*
%TD*%
D35*
%TO.C,C178*%
X136775000Y-96345429D03*
X135225000Y-96345429D03*
%TD*%
%TO.C,C182*%
X131300000Y-93095429D03*
X129750000Y-93095429D03*
%TD*%
%TO.C,C177*%
X136775000Y-94845429D03*
X135225000Y-94845429D03*
%TD*%
D36*
%TO.C,C149*%
X128500000Y-66725000D03*
X128500000Y-68275000D03*
%TD*%
D41*
%TO.C,R13*%
X169500000Y-75500000D03*
X171150000Y-75500000D03*
%TD*%
%TO.C,R101*%
X165175000Y-115000000D03*
X166825000Y-115000000D03*
%TD*%
D46*
%TO.C,C107*%
X166798008Y-87797421D03*
X165701992Y-88893437D03*
%TD*%
D35*
%TO.C,C162*%
X111816072Y-116000000D03*
X110266072Y-116000000D03*
%TD*%
D36*
%TO.C,C114*%
X165500000Y-97570429D03*
X165500000Y-99120429D03*
%TD*%
D35*
%TO.C,C117*%
X157000000Y-90595429D03*
X155450000Y-90595429D03*
%TD*%
%TO.C,C73*%
X127175000Y-123612500D03*
X125625000Y-123612500D03*
%TD*%
D36*
%TO.C,C152*%
X146500000Y-68725000D03*
X146500000Y-70275000D03*
%TD*%
D35*
%TO.C,C160*%
X111816072Y-119000000D03*
X110266072Y-119000000D03*
%TD*%
D42*
%TO.C,U28*%
X132250000Y-47250000D03*
X132250000Y-46750000D03*
X132250000Y-46250000D03*
X132250000Y-45750000D03*
X134150000Y-45750000D03*
X134150000Y-46250000D03*
X134150000Y-46750000D03*
X134150000Y-47250000D03*
D43*
X133200000Y-46500000D03*
%TD*%
D41*
%TO.C,R3*%
X169500000Y-79000000D03*
X171150000Y-79000000D03*
%TD*%
D34*
%TO.C,C153*%
X140450000Y-61750000D03*
X142000000Y-61750000D03*
%TD*%
D37*
%TO.C,C132*%
X163000000Y-88620429D03*
X163000000Y-87070429D03*
%TD*%
D34*
%TO.C,C97*%
X123250000Y-73400000D03*
X124800000Y-73400000D03*
%TD*%
D37*
%TO.C,C5*%
X171000000Y-114775000D03*
X171000000Y-113225000D03*
%TD*%
D47*
%TO.C,R97*%
X166500000Y-111325000D03*
X166500000Y-109675000D03*
%TD*%
D48*
%TO.C,FB6*%
X123612500Y-119100000D03*
X125187500Y-119100000D03*
%TD*%
D36*
%TO.C,C141*%
X128500000Y-75975000D03*
X128500000Y-77525000D03*
%TD*%
D44*
%TO.C,FB1*%
X125025000Y-71787500D03*
X125025000Y-70212500D03*
%TD*%
D37*
%TO.C,C53*%
X140800000Y-125775000D03*
X140800000Y-124225000D03*
%TD*%
D34*
%TO.C,C54*%
X144975000Y-115000000D03*
X146525000Y-115000000D03*
%TD*%
D40*
%TO.C,R8*%
X145225000Y-118200000D03*
X143575000Y-118200000D03*
%TD*%
D35*
%TO.C,C154*%
X111550000Y-53000000D03*
X110000000Y-53000000D03*
%TD*%
D45*
%TO.C,R64*%
X167250000Y-90020429D03*
X167250000Y-91670429D03*
%TD*%
D47*
%TO.C,R41*%
X167500000Y-52825000D03*
X167500000Y-51175000D03*
%TD*%
D36*
%TO.C,C146*%
X146750000Y-61975000D03*
X146750000Y-63525000D03*
%TD*%
D37*
%TO.C,C59*%
X139200000Y-115975000D03*
X139200000Y-114425000D03*
%TD*%
D35*
%TO.C,C172*%
X143025000Y-97595429D03*
X141475000Y-97595429D03*
%TD*%
%TO.C,C68*%
X127175000Y-126812500D03*
X125625000Y-126812500D03*
%TD*%
D36*
%TO.C,C29*%
X133820000Y-128345429D03*
X133820000Y-129895429D03*
%TD*%
D41*
%TO.C,R9*%
X135975000Y-109600000D03*
X137625000Y-109600000D03*
%TD*%
D34*
%TO.C,C102*%
X129000000Y-61750000D03*
X130550000Y-61750000D03*
%TD*%
D37*
%TO.C,C34*%
X141000000Y-85395429D03*
X141000000Y-83845429D03*
%TD*%
D41*
%TO.C,R28*%
X130925000Y-133750000D03*
X132575000Y-133750000D03*
%TD*%
D40*
%TO.C,R15*%
X131075000Y-132250000D03*
X129425000Y-132250000D03*
%TD*%
D34*
%TO.C,C98*%
X123250000Y-78200000D03*
X124800000Y-78200000D03*
%TD*%
D35*
%TO.C,C36*%
X137275000Y-97845429D03*
X135725000Y-97845429D03*
%TD*%
%TO.C,C71*%
X145550000Y-110400000D03*
X144000000Y-110400000D03*
%TD*%
%TO.C,C147*%
X142025000Y-79750000D03*
X140475000Y-79750000D03*
%TD*%
%TO.C,C183*%
X131300000Y-94595429D03*
X129750000Y-94595429D03*
%TD*%
D34*
%TO.C,C52*%
X143625000Y-119800000D03*
X145175000Y-119800000D03*
%TD*%
D37*
%TO.C,C121*%
X161500000Y-88620429D03*
X161500000Y-87070429D03*
%TD*%
%TO.C,C56*%
X139200000Y-125775000D03*
X139200000Y-124225000D03*
%TD*%
%TO.C,C32*%
X138000000Y-85395429D03*
X138000000Y-83845429D03*
%TD*%
%TO.C,C50*%
X136000000Y-125775000D03*
X136000000Y-124225000D03*
%TD*%
D48*
%TO.C,FB11*%
X177100000Y-46700000D03*
X178675000Y-46700000D03*
%TD*%
D47*
%TO.C,R42*%
X173500000Y-54825000D03*
X173500000Y-53175000D03*
%TD*%
D41*
%TO.C,R4*%
X169500000Y-77500000D03*
X171150000Y-77500000D03*
%TD*%
D34*
%TO.C,C51*%
X131475000Y-114500000D03*
X133025000Y-114500000D03*
%TD*%
D36*
%TO.C,C109*%
X154250000Y-96570429D03*
X154250000Y-98120429D03*
%TD*%
%TO.C,C80*%
X129650000Y-119075000D03*
X129650000Y-120625000D03*
%TD*%
D34*
%TO.C,C86*%
X139950000Y-107400000D03*
X141500000Y-107400000D03*
%TD*%
D37*
%TO.C,C123*%
X158500000Y-88620429D03*
X158500000Y-87070429D03*
%TD*%
D49*
%TO.C,JP4*%
X131000000Y-59500000D03*
X129700000Y-59500000D03*
X128400000Y-59500000D03*
%TD*%
D37*
%TO.C,C207*%
X155000000Y-51000000D03*
X155000000Y-49450000D03*
%TD*%
D38*
%TO.C,FB7*%
X129550000Y-109812500D03*
X129550000Y-111387500D03*
%TD*%
D34*
%TO.C,C47*%
X145625000Y-125800000D03*
X147175000Y-125800000D03*
%TD*%
D35*
%TO.C,C75*%
X129550000Y-114600000D03*
X128000000Y-114600000D03*
%TD*%
D34*
%TO.C,C164*%
X173250000Y-51600000D03*
X174800000Y-51600000D03*
%TD*%
D44*
%TO.C,FB9*%
X149775000Y-115037500D03*
X149775000Y-113462500D03*
%TD*%
D37*
%TO.C,C76*%
X142375000Y-112175000D03*
X142375000Y-110625000D03*
%TD*%
D36*
%TO.C,C69*%
X126650000Y-119100000D03*
X126650000Y-120650000D03*
%TD*%
D40*
%TO.C,R10*%
X145825000Y-132000000D03*
X144175000Y-132000000D03*
%TD*%
D50*
%TO.C,FB8*%
X145587500Y-112000000D03*
X144012500Y-112000000D03*
%TD*%
D37*
%TO.C,C100*%
X148250000Y-61000000D03*
X148250000Y-59450000D03*
%TD*%
%TO.C,C63*%
X134400000Y-125775000D03*
X134400000Y-124225000D03*
%TD*%
D34*
%TO.C,C7*%
X114450000Y-114500000D03*
X116000000Y-114500000D03*
%TD*%
%TO.C,C126*%
X167475000Y-93595429D03*
X169025000Y-93595429D03*
%TD*%
D37*
%TO.C,C20*%
X136500000Y-85420429D03*
X136500000Y-83870429D03*
%TD*%
D36*
%TO.C,C40*%
X141750000Y-101770429D03*
X141750000Y-103320429D03*
%TD*%
D34*
%TO.C,C184*%
X147475000Y-92595429D03*
X149025000Y-92595429D03*
%TD*%
D41*
%TO.C,R16*%
X145495000Y-133500000D03*
X147145000Y-133500000D03*
%TD*%
D34*
%TO.C,C159*%
X110225000Y-122000000D03*
X111775000Y-122000000D03*
%TD*%
D37*
%TO.C,C18*%
X144000000Y-85395429D03*
X144000000Y-83845429D03*
%TD*%
D35*
%TO.C,C81*%
X129550000Y-116200000D03*
X128000000Y-116200000D03*
%TD*%
D37*
%TO.C,C65*%
X125600000Y-129962500D03*
X125600000Y-128412500D03*
%TD*%
D45*
%TO.C,R27*%
X150850000Y-97975000D03*
X150850000Y-99625000D03*
%TD*%
D35*
%TO.C,C118*%
X157025000Y-92095429D03*
X155475000Y-92095429D03*
%TD*%
D45*
%TO.C,R1*%
X110250000Y-61175000D03*
X110250000Y-62825000D03*
%TD*%
D44*
%TO.C,FB3*%
X159500000Y-51287500D03*
X159500000Y-49712500D03*
%TD*%
D34*
%TO.C,C62*%
X145625000Y-123200000D03*
X147175000Y-123200000D03*
%TD*%
%TO.C,C173*%
X141475000Y-96095429D03*
X143025000Y-96095429D03*
%TD*%
%TO.C,C38*%
X147475000Y-94095429D03*
X149025000Y-94095429D03*
%TD*%
D45*
%TO.C,R98*%
X165000000Y-109675000D03*
X165000000Y-111325000D03*
%TD*%
D51*
%TO.C,C137*%
X166500000Y-123300000D03*
X166500000Y-125200000D03*
%TD*%
D35*
%TO.C,C43*%
X130975000Y-126200000D03*
X129425000Y-126200000D03*
%TD*%
D37*
%TO.C,C209*%
X166000000Y-52775000D03*
X166000000Y-51225000D03*
%TD*%
D34*
%TO.C,C16*%
X136025000Y-111250000D03*
X137575000Y-111250000D03*
%TD*%
%TO.C,C186*%
X147475000Y-89595429D03*
X149025000Y-89595429D03*
%TD*%
D45*
%TO.C,R33*%
X151500000Y-58175000D03*
X151500000Y-59825000D03*
%TD*%
D35*
%TO.C,C21*%
X131300000Y-96095429D03*
X129750000Y-96095429D03*
%TD*%
D51*
%TO.C,C206*%
X159000000Y-55775000D03*
X159000000Y-57675000D03*
%TD*%
D35*
%TO.C,C128*%
X163275000Y-90595429D03*
X161725000Y-90595429D03*
%TD*%
%TO.C,C78*%
X149775000Y-109000000D03*
X148225000Y-109000000D03*
%TD*%
D42*
%TO.C,U24*%
X117800000Y-47250000D03*
X117800000Y-46750000D03*
X117800000Y-46250000D03*
X117800000Y-45750000D03*
X119700000Y-45750000D03*
X119700000Y-46250000D03*
X119700000Y-46750000D03*
X119700000Y-47250000D03*
D43*
X118750000Y-46500000D03*
%TD*%
D45*
%TO.C,R43*%
X173500000Y-57675000D03*
X173500000Y-59325000D03*
%TD*%
D37*
%TO.C,C163*%
X158000000Y-51275000D03*
X158000000Y-49725000D03*
%TD*%
D35*
%TO.C,C144*%
X130300000Y-79750000D03*
X128750000Y-79750000D03*
%TD*%
D34*
%TO.C,C55*%
X145425000Y-121600000D03*
X146975000Y-121600000D03*
%TD*%
D41*
%TO.C,R24*%
X169500000Y-73000000D03*
X171150000Y-73000000D03*
%TD*%
D34*
%TO.C,C49*%
X143650000Y-116600000D03*
X145200000Y-116600000D03*
%TD*%
D35*
%TO.C,C83*%
X149775000Y-110500000D03*
X148225000Y-110500000D03*
%TD*%
D37*
%TO.C,C150*%
X139500000Y-90120429D03*
X139500000Y-88570429D03*
%TD*%
%TO.C,C101*%
X148100000Y-80475000D03*
X148100000Y-78925000D03*
%TD*%
D41*
%TO.C,R14*%
X132425000Y-132250000D03*
X134075000Y-132250000D03*
%TD*%
D45*
%TO.C,R44*%
X123225000Y-70175000D03*
X123225000Y-71825000D03*
%TD*%
D34*
%TO.C,C174*%
X141475000Y-94595429D03*
X143025000Y-94595429D03*
%TD*%
D36*
%TO.C,C57*%
X134600000Y-116025000D03*
X134600000Y-117575000D03*
%TD*%
%TO.C,C113*%
X170000000Y-97570429D03*
X170000000Y-99120429D03*
%TD*%
D35*
%TO.C,C161*%
X111816072Y-117500000D03*
X110266072Y-117500000D03*
%TD*%
D34*
%TO.C,C142*%
X134725000Y-61750000D03*
X136275000Y-61750000D03*
%TD*%
D47*
%TO.C,R45*%
X162000000Y-60325000D03*
X162000000Y-58675000D03*
%TD*%
D34*
%TO.C,C165*%
X173225000Y-50000000D03*
X174775000Y-50000000D03*
%TD*%
D41*
%TO.C,R2*%
X153500000Y-108000000D03*
X155150000Y-108000000D03*
%TD*%
D37*
%TO.C,C31*%
X138750000Y-103345429D03*
X138750000Y-101795429D03*
%TD*%
D35*
%TO.C,C70*%
X129525000Y-113000000D03*
X127975000Y-113000000D03*
%TD*%
D36*
%TO.C,C151*%
X146500000Y-73725000D03*
X146500000Y-75275000D03*
%TD*%
D40*
%TO.C,R39*%
X151825000Y-53500000D03*
X150175000Y-53500000D03*
%TD*%
D37*
%TO.C,C88*%
X142500000Y-89775000D03*
X142500000Y-88225000D03*
%TD*%
D48*
%TO.C,FB10*%
X161212500Y-101345429D03*
X162787500Y-101345429D03*
%TD*%
D37*
%TO.C,C2*%
X120750000Y-113775000D03*
X120750000Y-112225000D03*
%TD*%
D35*
%TO.C,C175*%
X136775000Y-91845429D03*
X135225000Y-91845429D03*
%TD*%
D51*
%TO.C,C199*%
X110500000Y-108100000D03*
X110500000Y-110000000D03*
%TD*%
D36*
%TO.C,C205*%
X153000000Y-54950000D03*
X153000000Y-56500000D03*
%TD*%
D37*
%TO.C,C61*%
X139200000Y-112175000D03*
X139200000Y-110625000D03*
%TD*%
D36*
%TO.C,C74*%
X128150000Y-119075000D03*
X128150000Y-120625000D03*
%TD*%
D34*
%TO.C,C28*%
X132975000Y-120000000D03*
X134525000Y-120000000D03*
%TD*%
D37*
%TO.C,C30*%
X140250000Y-103345429D03*
X140250000Y-101795429D03*
%TD*%
D35*
%TO.C,C22*%
X131300000Y-97595429D03*
X129750000Y-97595429D03*
%TD*%
D34*
%TO.C,C27*%
X129975000Y-130750000D03*
X131525000Y-130750000D03*
%TD*%
D48*
%TO.C,FB15*%
X110250000Y-120500000D03*
X111825000Y-120500000D03*
%TD*%
D41*
%TO.C,R40*%
X169175000Y-49000000D03*
X170825000Y-49000000D03*
%TD*%
D39*
%TO.C,JP9*%
X158000000Y-75350000D03*
X158000000Y-76650000D03*
%TD*%
D35*
%TO.C,C130*%
X163275000Y-95095429D03*
X161725000Y-95095429D03*
%TD*%
D34*
%TO.C,C45*%
X131450000Y-113000000D03*
X133000000Y-113000000D03*
%TD*%
%TO.C,C85*%
X139950000Y-109000000D03*
X141500000Y-109000000D03*
%TD*%
D37*
%TO.C,C140*%
X128500000Y-71300000D03*
X128500000Y-69750000D03*
%TD*%
D36*
%TO.C,C41*%
X143250000Y-101770429D03*
X143250000Y-103320429D03*
%TD*%
D35*
%TO.C,C60*%
X127175000Y-125212500D03*
X125625000Y-125212500D03*
%TD*%
M02*
