%TF.GenerationSoftware,KiCad,Pcbnew,8.0.5*%
%TF.CreationDate,2024-12-20T11:35:35-05:00*%
%TF.ProjectId,mc3_afe,6d63335f-6166-4652-9e6b-696361645f70,rev?*%
%TF.SameCoordinates,Original*%
%TF.FileFunction,Legend,Bot*%
%TF.FilePolarity,Positive*%
%FSLAX46Y46*%
G04 Gerber Fmt 4.6, Leading zero omitted, Abs format (unit mm)*
G04 Created by KiCad (PCBNEW 8.0.5) date 2024-12-20 11:35:35*
%MOMM*%
%LPD*%
G01*
G04 APERTURE LIST*
%ADD10C,0.150000*%
%ADD11C,0.120000*%
G04 APERTURE END LIST*
D10*
X159392857Y-94609580D02*
X159440476Y-94657200D01*
X159440476Y-94657200D02*
X159583333Y-94704819D01*
X159583333Y-94704819D02*
X159678571Y-94704819D01*
X159678571Y-94704819D02*
X159821428Y-94657200D01*
X159821428Y-94657200D02*
X159916666Y-94561961D01*
X159916666Y-94561961D02*
X159964285Y-94466723D01*
X159964285Y-94466723D02*
X160011904Y-94276247D01*
X160011904Y-94276247D02*
X160011904Y-94133390D01*
X160011904Y-94133390D02*
X159964285Y-93942914D01*
X159964285Y-93942914D02*
X159916666Y-93847676D01*
X159916666Y-93847676D02*
X159821428Y-93752438D01*
X159821428Y-93752438D02*
X159678571Y-93704819D01*
X159678571Y-93704819D02*
X159583333Y-93704819D01*
X159583333Y-93704819D02*
X159440476Y-93752438D01*
X159440476Y-93752438D02*
X159392857Y-93800057D01*
X158440476Y-94704819D02*
X159011904Y-94704819D01*
X158726190Y-94704819D02*
X158726190Y-93704819D01*
X158726190Y-93704819D02*
X158821428Y-93847676D01*
X158821428Y-93847676D02*
X158916666Y-93942914D01*
X158916666Y-93942914D02*
X159011904Y-93990533D01*
X158107142Y-93704819D02*
X157488095Y-93704819D01*
X157488095Y-93704819D02*
X157821428Y-94085771D01*
X157821428Y-94085771D02*
X157678571Y-94085771D01*
X157678571Y-94085771D02*
X157583333Y-94133390D01*
X157583333Y-94133390D02*
X157535714Y-94181009D01*
X157535714Y-94181009D02*
X157488095Y-94276247D01*
X157488095Y-94276247D02*
X157488095Y-94514342D01*
X157488095Y-94514342D02*
X157535714Y-94609580D01*
X157535714Y-94609580D02*
X157583333Y-94657200D01*
X157583333Y-94657200D02*
X157678571Y-94704819D01*
X157678571Y-94704819D02*
X157964285Y-94704819D01*
X157964285Y-94704819D02*
X158059523Y-94657200D01*
X158059523Y-94657200D02*
X158107142Y-94609580D01*
X144429580Y-92607142D02*
X144477200Y-92559523D01*
X144477200Y-92559523D02*
X144524819Y-92416666D01*
X144524819Y-92416666D02*
X144524819Y-92321428D01*
X144524819Y-92321428D02*
X144477200Y-92178571D01*
X144477200Y-92178571D02*
X144381961Y-92083333D01*
X144381961Y-92083333D02*
X144286723Y-92035714D01*
X144286723Y-92035714D02*
X144096247Y-91988095D01*
X144096247Y-91988095D02*
X143953390Y-91988095D01*
X143953390Y-91988095D02*
X143762914Y-92035714D01*
X143762914Y-92035714D02*
X143667676Y-92083333D01*
X143667676Y-92083333D02*
X143572438Y-92178571D01*
X143572438Y-92178571D02*
X143524819Y-92321428D01*
X143524819Y-92321428D02*
X143524819Y-92416666D01*
X143524819Y-92416666D02*
X143572438Y-92559523D01*
X143572438Y-92559523D02*
X143620057Y-92607142D01*
X144524819Y-93559523D02*
X144524819Y-92988095D01*
X144524819Y-93273809D02*
X143524819Y-93273809D01*
X143524819Y-93273809D02*
X143667676Y-93178571D01*
X143667676Y-93178571D02*
X143762914Y-93083333D01*
X143762914Y-93083333D02*
X143810533Y-92988095D01*
X143953390Y-94130952D02*
X143905771Y-94035714D01*
X143905771Y-94035714D02*
X143858152Y-93988095D01*
X143858152Y-93988095D02*
X143762914Y-93940476D01*
X143762914Y-93940476D02*
X143715295Y-93940476D01*
X143715295Y-93940476D02*
X143620057Y-93988095D01*
X143620057Y-93988095D02*
X143572438Y-94035714D01*
X143572438Y-94035714D02*
X143524819Y-94130952D01*
X143524819Y-94130952D02*
X143524819Y-94321428D01*
X143524819Y-94321428D02*
X143572438Y-94416666D01*
X143572438Y-94416666D02*
X143620057Y-94464285D01*
X143620057Y-94464285D02*
X143715295Y-94511904D01*
X143715295Y-94511904D02*
X143762914Y-94511904D01*
X143762914Y-94511904D02*
X143858152Y-94464285D01*
X143858152Y-94464285D02*
X143905771Y-94416666D01*
X143905771Y-94416666D02*
X143953390Y-94321428D01*
X143953390Y-94321428D02*
X143953390Y-94130952D01*
X143953390Y-94130952D02*
X144001009Y-94035714D01*
X144001009Y-94035714D02*
X144048628Y-93988095D01*
X144048628Y-93988095D02*
X144143866Y-93940476D01*
X144143866Y-93940476D02*
X144334342Y-93940476D01*
X144334342Y-93940476D02*
X144429580Y-93988095D01*
X144429580Y-93988095D02*
X144477200Y-94035714D01*
X144477200Y-94035714D02*
X144524819Y-94130952D01*
X144524819Y-94130952D02*
X144524819Y-94321428D01*
X144524819Y-94321428D02*
X144477200Y-94416666D01*
X144477200Y-94416666D02*
X144429580Y-94464285D01*
X144429580Y-94464285D02*
X144334342Y-94511904D01*
X144334342Y-94511904D02*
X144143866Y-94511904D01*
X144143866Y-94511904D02*
X144048628Y-94464285D01*
X144048628Y-94464285D02*
X144001009Y-94416666D01*
X144001009Y-94416666D02*
X143953390Y-94321428D01*
X150892857Y-96109580D02*
X150940476Y-96157200D01*
X150940476Y-96157200D02*
X151083333Y-96204819D01*
X151083333Y-96204819D02*
X151178571Y-96204819D01*
X151178571Y-96204819D02*
X151321428Y-96157200D01*
X151321428Y-96157200D02*
X151416666Y-96061961D01*
X151416666Y-96061961D02*
X151464285Y-95966723D01*
X151464285Y-95966723D02*
X151511904Y-95776247D01*
X151511904Y-95776247D02*
X151511904Y-95633390D01*
X151511904Y-95633390D02*
X151464285Y-95442914D01*
X151464285Y-95442914D02*
X151416666Y-95347676D01*
X151416666Y-95347676D02*
X151321428Y-95252438D01*
X151321428Y-95252438D02*
X151178571Y-95204819D01*
X151178571Y-95204819D02*
X151083333Y-95204819D01*
X151083333Y-95204819D02*
X150940476Y-95252438D01*
X150940476Y-95252438D02*
X150892857Y-95300057D01*
X150511904Y-95300057D02*
X150464285Y-95252438D01*
X150464285Y-95252438D02*
X150369047Y-95204819D01*
X150369047Y-95204819D02*
X150130952Y-95204819D01*
X150130952Y-95204819D02*
X150035714Y-95252438D01*
X150035714Y-95252438D02*
X149988095Y-95300057D01*
X149988095Y-95300057D02*
X149940476Y-95395295D01*
X149940476Y-95395295D02*
X149940476Y-95490533D01*
X149940476Y-95490533D02*
X149988095Y-95633390D01*
X149988095Y-95633390D02*
X150559523Y-96204819D01*
X150559523Y-96204819D02*
X149940476Y-96204819D01*
X149321428Y-95204819D02*
X149226190Y-95204819D01*
X149226190Y-95204819D02*
X149130952Y-95252438D01*
X149130952Y-95252438D02*
X149083333Y-95300057D01*
X149083333Y-95300057D02*
X149035714Y-95395295D01*
X149035714Y-95395295D02*
X148988095Y-95585771D01*
X148988095Y-95585771D02*
X148988095Y-95823866D01*
X148988095Y-95823866D02*
X149035714Y-96014342D01*
X149035714Y-96014342D02*
X149083333Y-96109580D01*
X149083333Y-96109580D02*
X149130952Y-96157200D01*
X149130952Y-96157200D02*
X149226190Y-96204819D01*
X149226190Y-96204819D02*
X149321428Y-96204819D01*
X149321428Y-96204819D02*
X149416666Y-96157200D01*
X149416666Y-96157200D02*
X149464285Y-96109580D01*
X149464285Y-96109580D02*
X149511904Y-96014342D01*
X149511904Y-96014342D02*
X149559523Y-95823866D01*
X149559523Y-95823866D02*
X149559523Y-95585771D01*
X149559523Y-95585771D02*
X149511904Y-95395295D01*
X149511904Y-95395295D02*
X149464285Y-95300057D01*
X149464285Y-95300057D02*
X149416666Y-95252438D01*
X149416666Y-95252438D02*
X149321428Y-95204819D01*
X161892857Y-100289580D02*
X161940476Y-100337200D01*
X161940476Y-100337200D02*
X162083333Y-100384819D01*
X162083333Y-100384819D02*
X162178571Y-100384819D01*
X162178571Y-100384819D02*
X162321428Y-100337200D01*
X162321428Y-100337200D02*
X162416666Y-100241961D01*
X162416666Y-100241961D02*
X162464285Y-100146723D01*
X162464285Y-100146723D02*
X162511904Y-99956247D01*
X162511904Y-99956247D02*
X162511904Y-99813390D01*
X162511904Y-99813390D02*
X162464285Y-99622914D01*
X162464285Y-99622914D02*
X162416666Y-99527676D01*
X162416666Y-99527676D02*
X162321428Y-99432438D01*
X162321428Y-99432438D02*
X162178571Y-99384819D01*
X162178571Y-99384819D02*
X162083333Y-99384819D01*
X162083333Y-99384819D02*
X161940476Y-99432438D01*
X161940476Y-99432438D02*
X161892857Y-99480057D01*
X160940476Y-100384819D02*
X161511904Y-100384819D01*
X161226190Y-100384819D02*
X161226190Y-99384819D01*
X161226190Y-99384819D02*
X161321428Y-99527676D01*
X161321428Y-99527676D02*
X161416666Y-99622914D01*
X161416666Y-99622914D02*
X161511904Y-99670533D01*
X160035714Y-99384819D02*
X160511904Y-99384819D01*
X160511904Y-99384819D02*
X160559523Y-99861009D01*
X160559523Y-99861009D02*
X160511904Y-99813390D01*
X160511904Y-99813390D02*
X160416666Y-99765771D01*
X160416666Y-99765771D02*
X160178571Y-99765771D01*
X160178571Y-99765771D02*
X160083333Y-99813390D01*
X160083333Y-99813390D02*
X160035714Y-99861009D01*
X160035714Y-99861009D02*
X159988095Y-99956247D01*
X159988095Y-99956247D02*
X159988095Y-100194342D01*
X159988095Y-100194342D02*
X160035714Y-100289580D01*
X160035714Y-100289580D02*
X160083333Y-100337200D01*
X160083333Y-100337200D02*
X160178571Y-100384819D01*
X160178571Y-100384819D02*
X160416666Y-100384819D01*
X160416666Y-100384819D02*
X160511904Y-100337200D01*
X160511904Y-100337200D02*
X160559523Y-100289580D01*
X151142857Y-98859580D02*
X151190476Y-98907200D01*
X151190476Y-98907200D02*
X151333333Y-98954819D01*
X151333333Y-98954819D02*
X151428571Y-98954819D01*
X151428571Y-98954819D02*
X151571428Y-98907200D01*
X151571428Y-98907200D02*
X151666666Y-98811961D01*
X151666666Y-98811961D02*
X151714285Y-98716723D01*
X151714285Y-98716723D02*
X151761904Y-98526247D01*
X151761904Y-98526247D02*
X151761904Y-98383390D01*
X151761904Y-98383390D02*
X151714285Y-98192914D01*
X151714285Y-98192914D02*
X151666666Y-98097676D01*
X151666666Y-98097676D02*
X151571428Y-98002438D01*
X151571428Y-98002438D02*
X151428571Y-97954819D01*
X151428571Y-97954819D02*
X151333333Y-97954819D01*
X151333333Y-97954819D02*
X151190476Y-98002438D01*
X151190476Y-98002438D02*
X151142857Y-98050057D01*
X150190476Y-98954819D02*
X150761904Y-98954819D01*
X150476190Y-98954819D02*
X150476190Y-97954819D01*
X150476190Y-97954819D02*
X150571428Y-98097676D01*
X150571428Y-98097676D02*
X150666666Y-98192914D01*
X150666666Y-98192914D02*
X150761904Y-98240533D01*
X149714285Y-98954819D02*
X149523809Y-98954819D01*
X149523809Y-98954819D02*
X149428571Y-98907200D01*
X149428571Y-98907200D02*
X149380952Y-98859580D01*
X149380952Y-98859580D02*
X149285714Y-98716723D01*
X149285714Y-98716723D02*
X149238095Y-98526247D01*
X149238095Y-98526247D02*
X149238095Y-98145295D01*
X149238095Y-98145295D02*
X149285714Y-98050057D01*
X149285714Y-98050057D02*
X149333333Y-98002438D01*
X149333333Y-98002438D02*
X149428571Y-97954819D01*
X149428571Y-97954819D02*
X149619047Y-97954819D01*
X149619047Y-97954819D02*
X149714285Y-98002438D01*
X149714285Y-98002438D02*
X149761904Y-98050057D01*
X149761904Y-98050057D02*
X149809523Y-98145295D01*
X149809523Y-98145295D02*
X149809523Y-98383390D01*
X149809523Y-98383390D02*
X149761904Y-98478628D01*
X149761904Y-98478628D02*
X149714285Y-98526247D01*
X149714285Y-98526247D02*
X149619047Y-98573866D01*
X149619047Y-98573866D02*
X149428571Y-98573866D01*
X149428571Y-98573866D02*
X149333333Y-98526247D01*
X149333333Y-98526247D02*
X149285714Y-98478628D01*
X149285714Y-98478628D02*
X149238095Y-98383390D01*
X156454819Y-89261905D02*
X157264342Y-89261905D01*
X157264342Y-89261905D02*
X157359580Y-89309524D01*
X157359580Y-89309524D02*
X157407200Y-89357143D01*
X157407200Y-89357143D02*
X157454819Y-89452381D01*
X157454819Y-89452381D02*
X157454819Y-89642857D01*
X157454819Y-89642857D02*
X157407200Y-89738095D01*
X157407200Y-89738095D02*
X157359580Y-89785714D01*
X157359580Y-89785714D02*
X157264342Y-89833333D01*
X157264342Y-89833333D02*
X156454819Y-89833333D01*
X157454819Y-90833333D02*
X157454819Y-90261905D01*
X157454819Y-90547619D02*
X156454819Y-90547619D01*
X156454819Y-90547619D02*
X156597676Y-90452381D01*
X156597676Y-90452381D02*
X156692914Y-90357143D01*
X156692914Y-90357143D02*
X156740533Y-90261905D01*
X156454819Y-91166667D02*
X156454819Y-91785714D01*
X156454819Y-91785714D02*
X156835771Y-91452381D01*
X156835771Y-91452381D02*
X156835771Y-91595238D01*
X156835771Y-91595238D02*
X156883390Y-91690476D01*
X156883390Y-91690476D02*
X156931009Y-91738095D01*
X156931009Y-91738095D02*
X157026247Y-91785714D01*
X157026247Y-91785714D02*
X157264342Y-91785714D01*
X157264342Y-91785714D02*
X157359580Y-91738095D01*
X157359580Y-91738095D02*
X157407200Y-91690476D01*
X157407200Y-91690476D02*
X157454819Y-91595238D01*
X157454819Y-91595238D02*
X157454819Y-91309524D01*
X157454819Y-91309524D02*
X157407200Y-91214286D01*
X157407200Y-91214286D02*
X157359580Y-91166667D01*
X170142857Y-96609580D02*
X170190476Y-96657200D01*
X170190476Y-96657200D02*
X170333333Y-96704819D01*
X170333333Y-96704819D02*
X170428571Y-96704819D01*
X170428571Y-96704819D02*
X170571428Y-96657200D01*
X170571428Y-96657200D02*
X170666666Y-96561961D01*
X170666666Y-96561961D02*
X170714285Y-96466723D01*
X170714285Y-96466723D02*
X170761904Y-96276247D01*
X170761904Y-96276247D02*
X170761904Y-96133390D01*
X170761904Y-96133390D02*
X170714285Y-95942914D01*
X170714285Y-95942914D02*
X170666666Y-95847676D01*
X170666666Y-95847676D02*
X170571428Y-95752438D01*
X170571428Y-95752438D02*
X170428571Y-95704819D01*
X170428571Y-95704819D02*
X170333333Y-95704819D01*
X170333333Y-95704819D02*
X170190476Y-95752438D01*
X170190476Y-95752438D02*
X170142857Y-95800057D01*
X169190476Y-96704819D02*
X169761904Y-96704819D01*
X169476190Y-96704819D02*
X169476190Y-95704819D01*
X169476190Y-95704819D02*
X169571428Y-95847676D01*
X169571428Y-95847676D02*
X169666666Y-95942914D01*
X169666666Y-95942914D02*
X169761904Y-95990533D01*
X168333333Y-96038152D02*
X168333333Y-96704819D01*
X168571428Y-95657200D02*
X168809523Y-96371485D01*
X168809523Y-96371485D02*
X168190476Y-96371485D01*
X147859580Y-87857142D02*
X147907200Y-87809523D01*
X147907200Y-87809523D02*
X147954819Y-87666666D01*
X147954819Y-87666666D02*
X147954819Y-87571428D01*
X147954819Y-87571428D02*
X147907200Y-87428571D01*
X147907200Y-87428571D02*
X147811961Y-87333333D01*
X147811961Y-87333333D02*
X147716723Y-87285714D01*
X147716723Y-87285714D02*
X147526247Y-87238095D01*
X147526247Y-87238095D02*
X147383390Y-87238095D01*
X147383390Y-87238095D02*
X147192914Y-87285714D01*
X147192914Y-87285714D02*
X147097676Y-87333333D01*
X147097676Y-87333333D02*
X147002438Y-87428571D01*
X147002438Y-87428571D02*
X146954819Y-87571428D01*
X146954819Y-87571428D02*
X146954819Y-87666666D01*
X146954819Y-87666666D02*
X147002438Y-87809523D01*
X147002438Y-87809523D02*
X147050057Y-87857142D01*
X147954819Y-88809523D02*
X147954819Y-88238095D01*
X147954819Y-88523809D02*
X146954819Y-88523809D01*
X146954819Y-88523809D02*
X147097676Y-88428571D01*
X147097676Y-88428571D02*
X147192914Y-88333333D01*
X147192914Y-88333333D02*
X147240533Y-88238095D01*
X146954819Y-89142857D02*
X146954819Y-89809523D01*
X146954819Y-89809523D02*
X147954819Y-89380952D01*
X167954819Y-89738095D02*
X168764342Y-89738095D01*
X168764342Y-89738095D02*
X168859580Y-89785714D01*
X168859580Y-89785714D02*
X168907200Y-89833333D01*
X168907200Y-89833333D02*
X168954819Y-89928571D01*
X168954819Y-89928571D02*
X168954819Y-90119047D01*
X168954819Y-90119047D02*
X168907200Y-90214285D01*
X168907200Y-90214285D02*
X168859580Y-90261904D01*
X168859580Y-90261904D02*
X168764342Y-90309523D01*
X168764342Y-90309523D02*
X167954819Y-90309523D01*
X168954819Y-90833333D02*
X168954819Y-91023809D01*
X168954819Y-91023809D02*
X168907200Y-91119047D01*
X168907200Y-91119047D02*
X168859580Y-91166666D01*
X168859580Y-91166666D02*
X168716723Y-91261904D01*
X168716723Y-91261904D02*
X168526247Y-91309523D01*
X168526247Y-91309523D02*
X168145295Y-91309523D01*
X168145295Y-91309523D02*
X168050057Y-91261904D01*
X168050057Y-91261904D02*
X168002438Y-91214285D01*
X168002438Y-91214285D02*
X167954819Y-91119047D01*
X167954819Y-91119047D02*
X167954819Y-90928571D01*
X167954819Y-90928571D02*
X168002438Y-90833333D01*
X168002438Y-90833333D02*
X168050057Y-90785714D01*
X168050057Y-90785714D02*
X168145295Y-90738095D01*
X168145295Y-90738095D02*
X168383390Y-90738095D01*
X168383390Y-90738095D02*
X168478628Y-90785714D01*
X168478628Y-90785714D02*
X168526247Y-90833333D01*
X168526247Y-90833333D02*
X168573866Y-90928571D01*
X168573866Y-90928571D02*
X168573866Y-91119047D01*
X168573866Y-91119047D02*
X168526247Y-91214285D01*
X168526247Y-91214285D02*
X168478628Y-91261904D01*
X168478628Y-91261904D02*
X168383390Y-91309523D01*
X169142857Y-98609580D02*
X169190476Y-98657200D01*
X169190476Y-98657200D02*
X169333333Y-98704819D01*
X169333333Y-98704819D02*
X169428571Y-98704819D01*
X169428571Y-98704819D02*
X169571428Y-98657200D01*
X169571428Y-98657200D02*
X169666666Y-98561961D01*
X169666666Y-98561961D02*
X169714285Y-98466723D01*
X169714285Y-98466723D02*
X169761904Y-98276247D01*
X169761904Y-98276247D02*
X169761904Y-98133390D01*
X169761904Y-98133390D02*
X169714285Y-97942914D01*
X169714285Y-97942914D02*
X169666666Y-97847676D01*
X169666666Y-97847676D02*
X169571428Y-97752438D01*
X169571428Y-97752438D02*
X169428571Y-97704819D01*
X169428571Y-97704819D02*
X169333333Y-97704819D01*
X169333333Y-97704819D02*
X169190476Y-97752438D01*
X169190476Y-97752438D02*
X169142857Y-97800057D01*
X168190476Y-98704819D02*
X168761904Y-98704819D01*
X168476190Y-98704819D02*
X168476190Y-97704819D01*
X168476190Y-97704819D02*
X168571428Y-97847676D01*
X168571428Y-97847676D02*
X168666666Y-97942914D01*
X168666666Y-97942914D02*
X168761904Y-97990533D01*
X167333333Y-97704819D02*
X167523809Y-97704819D01*
X167523809Y-97704819D02*
X167619047Y-97752438D01*
X167619047Y-97752438D02*
X167666666Y-97800057D01*
X167666666Y-97800057D02*
X167761904Y-97942914D01*
X167761904Y-97942914D02*
X167809523Y-98133390D01*
X167809523Y-98133390D02*
X167809523Y-98514342D01*
X167809523Y-98514342D02*
X167761904Y-98609580D01*
X167761904Y-98609580D02*
X167714285Y-98657200D01*
X167714285Y-98657200D02*
X167619047Y-98704819D01*
X167619047Y-98704819D02*
X167428571Y-98704819D01*
X167428571Y-98704819D02*
X167333333Y-98657200D01*
X167333333Y-98657200D02*
X167285714Y-98609580D01*
X167285714Y-98609580D02*
X167238095Y-98514342D01*
X167238095Y-98514342D02*
X167238095Y-98276247D01*
X167238095Y-98276247D02*
X167285714Y-98181009D01*
X167285714Y-98181009D02*
X167333333Y-98133390D01*
X167333333Y-98133390D02*
X167428571Y-98085771D01*
X167428571Y-98085771D02*
X167619047Y-98085771D01*
X167619047Y-98085771D02*
X167714285Y-98133390D01*
X167714285Y-98133390D02*
X167761904Y-98181009D01*
X167761904Y-98181009D02*
X167809523Y-98276247D01*
D11*
%TO.C,C13*%
X159788748Y-95340000D02*
X161211252Y-95340000D01*
X159788748Y-97160000D02*
X161211252Y-97160000D01*
%TO.C,C18*%
X144990000Y-93390580D02*
X144990000Y-93109420D01*
X146010000Y-93390580D02*
X146010000Y-93109420D01*
%TO.C,C20*%
X154736252Y-95340000D02*
X153313748Y-95340000D01*
X154736252Y-97160000D02*
X153313748Y-97160000D01*
%TO.C,C15*%
X161390580Y-97990000D02*
X161109420Y-97990000D01*
X161390580Y-99010000D02*
X161109420Y-99010000D01*
%TO.C,C19*%
X153384420Y-97740000D02*
X153665580Y-97740000D01*
X153384420Y-98760000D02*
X153665580Y-98760000D01*
%TO.C,U13*%
X149090000Y-88590000D02*
X149090000Y-92350000D01*
X150350000Y-88590000D02*
X149090000Y-88590000D01*
X154650000Y-88590000D02*
X155910000Y-88590000D01*
X155910000Y-88590000D02*
X155910000Y-92350000D01*
X156140000Y-93870000D02*
X155810000Y-93630000D01*
X156140000Y-93390000D01*
X156140000Y-93870000D01*
G36*
X156140000Y-93870000D02*
G01*
X155810000Y-93630000D01*
X156140000Y-93390000D01*
X156140000Y-93870000D01*
G37*
%TO.C,C14*%
X166436252Y-95340000D02*
X165013748Y-95340000D01*
X166436252Y-97160000D02*
X165013748Y-97160000D01*
%TO.C,C17*%
X146590000Y-91788748D02*
X146590000Y-93211252D01*
X148410000Y-91788748D02*
X148410000Y-93211252D01*
%TO.C,U9*%
X160590000Y-88590000D02*
X160590000Y-92350000D01*
X161850000Y-88590000D02*
X160590000Y-88590000D01*
X166150000Y-88590000D02*
X167410000Y-88590000D01*
X167410000Y-88590000D02*
X167410000Y-92350000D01*
X167640000Y-93870000D02*
X167310000Y-93630000D01*
X167640000Y-93390000D01*
X167640000Y-93870000D01*
G36*
X167640000Y-93870000D02*
G01*
X167310000Y-93630000D01*
X167640000Y-93390000D01*
X167640000Y-93870000D01*
G37*
%TO.C,C16*%
X165084420Y-97740000D02*
X165365580Y-97740000D01*
X165084420Y-98760000D02*
X165365580Y-98760000D01*
%TD*%
M02*
