%TF.GenerationSoftware,KiCad,Pcbnew,8.0.5*%
%TF.CreationDate,2024-12-20T11:35:35-05:00*%
%TF.ProjectId,mc3_afe,6d63335f-6166-4652-9e6b-696361645f70,rev?*%
%TF.SameCoordinates,Original*%
%TF.FileFunction,Soldermask,Bot*%
%TF.FilePolarity,Negative*%
%FSLAX46Y46*%
G04 Gerber Fmt 4.6, Leading zero omitted, Abs format (unit mm)*
G04 Created by KiCad (PCBNEW 8.0.5) date 2024-12-20 11:35:35*
%MOMM*%
%LPD*%
G01*
G04 APERTURE LIST*
G04 Aperture macros list*
%AMRoundRect*
0 Rectangle with rounded corners*
0 $1 Rounding radius*
0 $2 $3 $4 $5 $6 $7 $8 $9 X,Y pos of 4 corners*
0 Add a 4 corners polygon primitive as box body*
4,1,4,$2,$3,$4,$5,$6,$7,$8,$9,$2,$3,0*
0 Add four circle primitives for the rounded corners*
1,1,$1+$1,$2,$3*
1,1,$1+$1,$4,$5*
1,1,$1+$1,$6,$7*
1,1,$1+$1,$8,$9*
0 Add four rect primitives between the rounded corners*
20,1,$1+$1,$2,$3,$4,$5,0*
20,1,$1+$1,$4,$5,$6,$7,0*
20,1,$1+$1,$6,$7,$8,$9,0*
20,1,$1+$1,$8,$9,$2,$3,0*%
G04 Aperture macros list end*
%ADD10C,1.240000*%
%ADD11RoundRect,0.250000X-0.425000X-1.600000X0.425000X-1.600000X0.425000X1.600000X-0.425000X1.600000X0*%
%ADD12RoundRect,0.250000X-1.600000X0.425000X-1.600000X-0.425000X1.600000X-0.425000X1.600000X0.425000X0*%
%ADD13C,1.000000*%
%ADD14R,1.700000X1.700000*%
%ADD15O,1.700000X1.700000*%
%ADD16RoundRect,0.250000X0.325000X0.650000X-0.325000X0.650000X-0.325000X-0.650000X0.325000X-0.650000X0*%
%ADD17RoundRect,0.225000X-0.250000X0.225000X-0.250000X-0.225000X0.250000X-0.225000X0.250000X0.225000X0*%
%ADD18RoundRect,0.250000X-0.325000X-0.650000X0.325000X-0.650000X0.325000X0.650000X-0.325000X0.650000X0*%
%ADD19RoundRect,0.225000X-0.225000X-0.250000X0.225000X-0.250000X0.225000X0.250000X-0.225000X0.250000X0*%
%ADD20RoundRect,0.225000X0.225000X0.250000X-0.225000X0.250000X-0.225000X-0.250000X0.225000X-0.250000X0*%
%ADD21RoundRect,0.375000X0.375000X-0.625000X0.375000X0.625000X-0.375000X0.625000X-0.375000X-0.625000X0*%
%ADD22RoundRect,0.500000X1.400000X-0.500000X1.400000X0.500000X-1.400000X0.500000X-1.400000X-0.500000X0*%
%ADD23RoundRect,0.250000X0.650000X-0.325000X0.650000X0.325000X-0.650000X0.325000X-0.650000X-0.325000X0*%
G04 APERTURE END LIST*
D10*
%TO.C,J5*%
X173300000Y-94430000D03*
X172030000Y-93160000D03*
X172030000Y-95700000D03*
X174570000Y-93160000D03*
X174570000Y-95700000D03*
%TD*%
D11*
%TO.C,J7*%
X149225000Y-110650000D03*
X143575000Y-110650000D03*
%TD*%
D12*
%TO.C,J3*%
X68412500Y-108825000D03*
X68412500Y-103175000D03*
%TD*%
D13*
%TO.C,TP2*%
X149200000Y-97200000D03*
%TD*%
D10*
%TO.C,J2*%
X85480000Y-71980000D03*
X84210000Y-70710000D03*
X84210000Y-73250000D03*
X86750000Y-70710000D03*
X86750000Y-73250000D03*
%TD*%
D12*
%TO.C,J1*%
X68412500Y-73075000D03*
X68412500Y-67425000D03*
%TD*%
D11*
%TO.C,J6*%
X95325000Y-110650000D03*
X89675000Y-110650000D03*
%TD*%
D14*
%TO.C,J9*%
X146840000Y-81750000D03*
D15*
X149380000Y-81750000D03*
X151920000Y-81750000D03*
X154460000Y-81750000D03*
X157000000Y-81750000D03*
%TD*%
D14*
%TO.C,J10*%
X163290000Y-81750000D03*
D15*
X160750000Y-81750000D03*
%TD*%
D14*
%TO.C,J8*%
X83750000Y-60000000D03*
D15*
X81210000Y-60000000D03*
X78670000Y-60000000D03*
%TD*%
D13*
%TO.C,TP1*%
X147000000Y-97200000D03*
%TD*%
D12*
%TO.C,J4*%
X68412500Y-92325000D03*
X68412500Y-86675000D03*
%TD*%
D16*
%TO.C,C13*%
X161975000Y-96250000D03*
X159025000Y-96250000D03*
%TD*%
D17*
%TO.C,C18*%
X145500000Y-92475000D03*
X145500000Y-94025000D03*
%TD*%
D18*
%TO.C,C20*%
X152550000Y-96250000D03*
X155500000Y-96250000D03*
%TD*%
D19*
%TO.C,C15*%
X160475000Y-98500000D03*
X162025000Y-98500000D03*
%TD*%
D20*
%TO.C,C19*%
X154300000Y-98250000D03*
X152750000Y-98250000D03*
%TD*%
D21*
%TO.C,U13*%
X154800000Y-93650000D03*
X152500000Y-93650000D03*
D22*
X152500000Y-87350000D03*
D21*
X150200000Y-93650000D03*
%TD*%
D18*
%TO.C,C14*%
X164250000Y-96250000D03*
X167200000Y-96250000D03*
%TD*%
D23*
%TO.C,C17*%
X147500000Y-93975000D03*
X147500000Y-91025000D03*
%TD*%
D21*
%TO.C,U9*%
X166300000Y-93650000D03*
X164000000Y-93650000D03*
D22*
X164000000Y-87350000D03*
D21*
X161700000Y-93650000D03*
%TD*%
D20*
%TO.C,C16*%
X166000000Y-98250000D03*
X164450000Y-98250000D03*
%TD*%
M02*
