M48
; DRILL file {KiCad 8.0.5} date 2024-12-20T11:36:01-0500
; FORMAT={-:-/ absolute / inch / decimal}
; #@! TF.CreationDate,2024-12-20T11:36:01-05:00
; #@! TF.GenerationSoftware,Kicad,Pcbnew,8.0.5
; #@! TF.FileFunction,MixedPlating,1,4
FMAT,2
INCH
; #@! TA.AperFunction,Plated,PTH,ViaDrill
T1C0.0118
; #@! TA.AperFunction,Plated,PTH,ComponentDrill
T2C0.0197
; #@! TA.AperFunction,Plated,PTH,ComponentDrill
T3C0.0200
; #@! TA.AperFunction,Plated,PTH,ComponentDrill
T4C0.0331
; #@! TA.AperFunction,Plated,PTH,ComponentDrill
T5C0.0394
%
G90
G05
T1
X2.6575Y-2.4606
X2.6575Y-3.0512
X2.6575Y-3.248
X2.6575Y-3.8386
X2.6575Y-4.4291
X2.7559Y-2.5591
X2.7559Y-2.9528
X2.7559Y-3.1496
X2.7559Y-3.3465
X2.7559Y-3.7402
X2.7559Y-3.937
X2.7559Y-4.3307
X2.8543Y-2.4606
X2.8543Y-3.0512
X2.8543Y-3.248
X2.8543Y-3.4449
X2.8543Y-3.8386
X2.8543Y-4.0354
X2.8543Y-4.2323
X2.8543Y-4.4291
X2.8583Y-3.7992
X2.8819Y-3.6772
X2.9016Y-3.8622
X2.9134Y-3.6417
X2.9232Y-2.5886
X2.9528Y-2.3622
X2.9528Y-2.9528
X2.9528Y-3.1496
X2.9528Y-3.937
X2.9528Y-4.1339
X2.9528Y-4.3307
X2.9902Y-3.647
X3.0217Y-3.435
X3.0468Y-2.65
X3.0512Y-2.4606
X3.0512Y-2.6083
X3.0512Y-3.0512
X3.0512Y-3.248
X3.0512Y-3.6319
X3.0512Y-4.0354
X3.0512Y-4.2323
X3.0512Y-4.4291
X3.0807Y-3.5925
X3.1024Y-3.8583
X3.1201Y-3.3661
X3.1299Y-3.689
X3.1378Y-3.8307
X3.1496Y-2.5591
X3.1496Y-2.7559
X3.1496Y-2.9528
X3.1496Y-3.1496
X3.1496Y-3.937
X3.1496Y-4.1339
X3.1732Y-3.6417
X3.189Y-2.6339
X3.2438Y-2.6671
X3.248Y-2.4606
X3.248Y-3.0512
X3.248Y-3.248
X3.248Y-3.8386
X3.248Y-4.0354
X3.248Y-4.2323
X3.248Y-4.4291
X3.3071Y-2.5492
X3.3465Y-2.9528
X3.3465Y-3.1496
X3.3465Y-3.937
X3.3465Y-4.1339
X3.3465Y-4.3307
X3.389Y-2.5787
X3.4449Y-2.6575
X3.4449Y-3.0512
X3.4449Y-3.248
X3.4449Y-3.8386
X3.4449Y-4.0354
X3.4449Y-4.2323
X3.4449Y-4.4291
X3.5433Y-2.5591
X3.5433Y-2.7559
X3.5433Y-2.9528
X3.5433Y-3.1496
X3.5433Y-3.7402
X3.5433Y-3.937
X3.5433Y-4.1339
X3.6277Y-3.2383
X3.6417Y-3.4449
X3.6417Y-3.6417
X3.6417Y-3.8386
X3.7334Y-3.3623
X3.8235Y-3.2632
X3.937Y-3.3681
X3.937Y-4.3307
X4.0289Y-3.2546
X4.0354Y-3.4449
X4.0354Y-4.4291
X4.1254Y-3.3681
X4.1339Y-4.3307
X4.2323Y-4.4291
X4.2368Y-3.2395
X4.3307Y-3.3366
X4.3307Y-4.3307
X4.4291Y-3.248
X4.4291Y-3.7402
X4.4291Y-3.8386
X4.4291Y-3.937
X4.4291Y-4.4291
X4.4843Y-4.0827
X4.5276Y-4.3307
X4.626Y-3.248
X4.626Y-3.8386
X4.626Y-4.0354
X4.626Y-4.2323
X4.626Y-4.4291
X4.7244Y-3.7402
X4.7244Y-3.937
X4.7244Y-4.1339
X4.7244Y-4.3307
X4.8031Y-3.5354
X4.811Y-3.6772
X4.8228Y-3.248
X4.8228Y-3.4449
X4.8228Y-3.8386
X4.8228Y-4.0354
X4.8228Y-4.2323
X4.8228Y-4.4291
X4.9213Y-3.3465
X4.9213Y-4.3307
X5.0197Y-3.248
X5.0197Y-4.4291
X5.1181Y-3.3465
X5.1181Y-4.3307
X5.2165Y-3.248
X5.2165Y-3.4449
X5.2165Y-4.4291
X5.315Y-3.3465
X5.315Y-4.3307
X5.4134Y-3.248
X5.4134Y-4.4291
X5.4921Y-3.937
X5.5118Y-3.3465
X5.5118Y-4.3307
X5.5512Y-3.563
X5.5512Y-3.6811
X5.5787Y-3.9685
X5.5984Y-4.1102
X5.6102Y-3.248
X5.6102Y-3.6417
X5.6102Y-3.7992
X5.6102Y-4.2323
X5.6299Y-3.5039
X5.6299Y-3.748
X5.6457Y-3.5472
X5.6799Y-3.3913
X5.689Y-3.4646
X5.6978Y-3.7992
X5.7047Y-3.5984
X5.7087Y-4.1339
X5.7123Y-3.3994
X5.7531Y-3.4257
X5.7738Y-3.4504
X5.8071Y-4.0354
X5.8071Y-4.2323
X5.8268Y-3.3496
X5.8268Y-3.5138
X5.9055Y-4.1339
X5.9252Y-3.7598
X5.9252Y-3.9764
X5.9488Y-3.5787
X5.9528Y-3.8386
X5.9957Y-3.3524
X6.0039Y-4.0354
X6.0039Y-4.2323
X6.0039Y-4.4291
X6.0335Y-3.3504
X6.0591Y-3.9291
X6.063Y-3.7717
X6.1024Y-3.3465
X6.1024Y-3.5433
X6.1024Y-4.1339
X6.1024Y-4.3307
X6.1181Y-4.0197
X6.1929Y-3.7598
X6.2008Y-3.4449
X6.2008Y-3.6417
X6.2008Y-4.0354
X6.2008Y-4.2323
X6.2008Y-4.4291
X6.2165Y-3.5394
X6.252Y-3.6811
X6.2677Y-3.8819
X6.2835Y-4.0197
X6.2894Y-3.3661
X6.2992Y-3.5433
X6.2992Y-3.7402
X6.2992Y-4.1339
X6.2992Y-4.3307
X6.3976Y-3.3661
X6.3976Y-4.2323
X6.3976Y-4.4291
X6.4173Y-3.8386
X6.4252Y-3.7441
X6.4921Y-3.937
X6.4961Y-3.5433
X6.4961Y-4.3307
X6.5394Y-3.8031
X6.5624Y-3.477
X6.5945Y-3.248
X6.5945Y-3.6417
X6.5945Y-4.2323
X6.5945Y-4.4291
X6.6378Y-3.6811
X6.6378Y-3.8465
X6.6417Y-3.7638
X6.6929Y-3.3465
X6.6929Y-4.3307
X6.7205Y-3.8543
X6.7244Y-3.5984
X6.7913Y-3.248
X6.7913Y-3.4449
X6.7913Y-3.8386
X6.7913Y-4.4291
X6.8602Y-4.124
X6.8898Y-3.3465
X6.8898Y-3.5433
X6.8898Y-3.937
X6.8898Y-4.3307
X6.9882Y-3.4449
X6.9882Y-3.6417
X6.9882Y-3.8386
X6.9882Y-4.0354
X6.9882Y-4.2323
X6.9882Y-4.4291
X7.0866Y-3.3465
X7.0866Y-3.5433
X7.0866Y-3.7402
X7.0866Y-3.937
X7.0866Y-4.1339
T2
X5.7874Y-3.8268
X5.874Y-3.8268
T3
X3.8695Y-3.733
X3.8695Y-3.793
X3.8695Y-3.933
X3.8695Y-3.993
X3.8695Y-4.133
X3.8695Y-4.193
X4.0945Y-3.563
X4.0945Y-3.663
X4.0945Y-3.763
X4.0945Y-3.863
X4.0945Y-3.963
X4.0945Y-4.063
X4.0945Y-4.163
X4.1445Y-3.563
X4.1445Y-3.663
X4.1445Y-3.763
X4.1445Y-3.863
X4.1445Y-3.963
X4.1445Y-4.063
X4.1445Y-4.163
X4.3695Y-3.533
X4.3695Y-3.593
X4.3695Y-3.733
X4.3695Y-3.793
X4.3695Y-3.933
X4.3695Y-3.993
X4.9325Y-3.7157
X4.9325Y-3.7757
X4.9325Y-3.9157
X4.9325Y-3.9757
X4.9325Y-4.1157
X4.9325Y-4.1757
X5.1575Y-3.5457
X5.1575Y-3.6457
X5.1575Y-3.7457
X5.1575Y-3.8457
X5.1575Y-3.9457
X5.1575Y-4.0457
X5.1575Y-4.1457
X5.2075Y-3.5457
X5.2075Y-3.6457
X5.2075Y-3.7457
X5.2075Y-3.8457
X5.2075Y-3.9457
X5.2075Y-4.0457
X5.2075Y-4.1457
X5.4325Y-3.5157
X5.4325Y-3.5757
X5.4325Y-3.7157
X5.4325Y-3.7757
X5.4325Y-3.9157
X5.4325Y-3.9757
T4
X3.3154Y-2.7839
X3.3154Y-2.8839
X3.3654Y-2.8339
X3.4154Y-2.7839
X3.4154Y-2.8839
X6.7728Y-3.6677
X6.7728Y-3.7677
X6.8228Y-3.7177
X6.8728Y-3.6677
X6.8728Y-3.7677
T5
X3.0972Y-2.3622
X3.1972Y-2.3622
X3.2972Y-2.3622
X5.7811Y-3.2185
X5.8811Y-3.2185
X5.9811Y-3.2185
X6.0811Y-3.2185
X6.1811Y-3.2185
X6.3287Y-3.2185
X6.4287Y-3.2185
M30
