%TF.GenerationSoftware,KiCad,Pcbnew,8.0.5*%
%TF.CreationDate,2024-12-20T11:35:35-05:00*%
%TF.ProjectId,mc3_afe,6d63335f-6166-4652-9e6b-696361645f70,rev?*%
%TF.SameCoordinates,Original*%
%TF.FileFunction,Copper,L3,Inr*%
%TF.FilePolarity,Positive*%
%FSLAX46Y46*%
G04 Gerber Fmt 4.6, Leading zero omitted, Abs format (unit mm)*
G04 Created by KiCad (PCBNEW 8.0.5) date 2024-12-20 11:35:35*
%MOMM*%
%LPD*%
G01*
G04 APERTURE LIST*
%TA.AperFunction,ComponentPad*%
%ADD10C,1.240000*%
%TD*%
%TA.AperFunction,ComponentPad*%
%ADD11C,1.000000*%
%TD*%
%TA.AperFunction,ComponentPad*%
%ADD12C,1.016000*%
%TD*%
%TA.AperFunction,ComponentPad*%
%ADD13R,1.700000X1.700000*%
%TD*%
%TA.AperFunction,ComponentPad*%
%ADD14O,1.700000X1.700000*%
%TD*%
%TA.AperFunction,ViaPad*%
%ADD15C,0.600000*%
%TD*%
G04 APERTURE END LIST*
D10*
%TO.N,Net-(J5-In)*%
%TO.C,J5*%
X173300000Y-94430000D03*
%TO.N,GND*%
X172030000Y-93160000D03*
X172030000Y-95700000D03*
X174570000Y-93160000D03*
X174570000Y-95700000D03*
%TD*%
D11*
%TO.N,Net-(U4-PUP2)*%
%TO.C,TP2*%
X149200000Y-97200000D03*
%TD*%
D10*
%TO.N,Net-(J2-In)*%
%TO.C,J2*%
X85480000Y-71980000D03*
%TO.N,GND*%
X84210000Y-70710000D03*
X84210000Y-73250000D03*
X86750000Y-70710000D03*
X86750000Y-73250000D03*
%TD*%
D12*
%TO.N,GND*%
%TO.C,U7*%
X137985000Y-89298000D03*
X137985000Y-90822000D03*
X125285000Y-94378000D03*
X125285000Y-95902000D03*
X137985000Y-94378000D03*
X137985000Y-95902000D03*
X125285000Y-99458000D03*
X125285000Y-100982000D03*
X137985000Y-99458000D03*
X137985000Y-100982000D03*
X125285000Y-104538000D03*
X125285000Y-106062000D03*
X131000000Y-90060000D03*
X131000000Y-92600000D03*
X131000000Y-95140000D03*
X131000000Y-97680000D03*
X131000000Y-100220000D03*
X131000000Y-102760000D03*
X131000000Y-105300000D03*
X132270000Y-90060000D03*
X132270000Y-92600000D03*
X132270000Y-95140000D03*
X132270000Y-97680000D03*
X132270000Y-100220000D03*
X132270000Y-102760000D03*
X132270000Y-105300000D03*
%TD*%
%TO.N,GND*%
%TO.C,U2*%
X110985000Y-89738000D03*
X110985000Y-91262000D03*
X98285000Y-94818000D03*
X98285000Y-96342000D03*
X110985000Y-94818000D03*
X110985000Y-96342000D03*
X98285000Y-99898000D03*
X98285000Y-101422000D03*
X110985000Y-99898000D03*
X110985000Y-101422000D03*
X98285000Y-104978000D03*
X98285000Y-106502000D03*
X104000000Y-90500000D03*
X104000000Y-93040000D03*
X104000000Y-95580000D03*
X104000000Y-98120000D03*
X104000000Y-100660000D03*
X104000000Y-103200000D03*
X104000000Y-105740000D03*
X105270000Y-90500000D03*
X105270000Y-93040000D03*
X105270000Y-95580000D03*
X105270000Y-98120000D03*
X105270000Y-100660000D03*
X105270000Y-103200000D03*
X105270000Y-105740000D03*
%TD*%
D13*
%TO.N,Net-(J9-Pin_1)*%
%TO.C,J9*%
X146840000Y-81750000D03*
D14*
%TO.N,Net-(J9-Pin_2)*%
X149380000Y-81750000D03*
%TO.N,Net-(J9-Pin_3)*%
X151920000Y-81750000D03*
%TO.N,Net-(J9-Pin_4)*%
X154460000Y-81750000D03*
%TO.N,GND*%
X157000000Y-81750000D03*
%TD*%
D13*
%TO.N,+12V*%
%TO.C,J10*%
X163290000Y-81750000D03*
D14*
%TO.N,GND*%
X160750000Y-81750000D03*
%TD*%
D13*
%TO.N,/SW1*%
%TO.C,J8*%
X83750000Y-60000000D03*
D14*
%TO.N,/SW2*%
X81210000Y-60000000D03*
%TO.N,GND*%
X78670000Y-60000000D03*
%TD*%
D11*
%TO.N,Net-(U4-PUP1)*%
%TO.C,TP1*%
X147000000Y-97200000D03*
%TD*%
D15*
%TO.N,GND*%
X85000000Y-110000000D03*
X72500000Y-62500000D03*
X102500000Y-112500000D03*
X77500000Y-102500000D03*
X97115686Y-82884314D03*
X147500000Y-102500000D03*
X122000000Y-89800000D03*
X160000000Y-110000000D03*
X117500000Y-97500000D03*
X137500000Y-82500000D03*
X77500000Y-82500000D03*
X90000000Y-95000000D03*
X107500000Y-112500000D03*
X80600000Y-92500000D03*
X75000000Y-110000000D03*
X87500000Y-77500000D03*
X142500000Y-107500000D03*
X112500000Y-112500000D03*
X155000000Y-90000000D03*
X153900000Y-99800000D03*
X113900000Y-103700000D03*
X112500000Y-100000000D03*
X158800000Y-93500000D03*
X157300000Y-95500000D03*
X167500000Y-92500000D03*
X87500000Y-112500000D03*
X72600000Y-96500000D03*
X164900000Y-100000000D03*
X75950000Y-92634323D03*
X155400000Y-102100000D03*
X168600000Y-97700000D03*
X130000000Y-110000000D03*
X120000000Y-110000000D03*
X75000000Y-100000000D03*
X150500000Y-95500000D03*
X87500000Y-67500000D03*
X154000000Y-95800000D03*
X140000000Y-85000000D03*
X142200000Y-104400000D03*
X163200000Y-95100000D03*
X90000000Y-80000000D03*
X82500000Y-107500000D03*
X177500000Y-112500000D03*
X137500000Y-112500000D03*
X110000000Y-110000000D03*
X122500000Y-87500000D03*
X92143291Y-82251908D03*
X167500000Y-82500000D03*
X85000000Y-80000000D03*
X132500000Y-82500000D03*
X166684314Y-88315686D03*
X70000000Y-80000000D03*
X90000000Y-105000000D03*
X170800000Y-91400000D03*
X85000000Y-105000000D03*
X122200000Y-93400000D03*
X77500000Y-107500000D03*
X177500000Y-102500000D03*
X163000000Y-97500000D03*
X100000000Y-110000000D03*
X177500000Y-97500000D03*
X160000000Y-105000000D03*
X127500000Y-112500000D03*
X82500000Y-82500000D03*
X90000000Y-70000000D03*
X72500000Y-102500000D03*
X120000000Y-105000000D03*
X77500000Y-77500000D03*
X102500000Y-87500000D03*
X135000000Y-85000000D03*
X82500000Y-112500000D03*
X72500000Y-97500000D03*
X120000000Y-95000000D03*
X147500000Y-107500000D03*
X117500000Y-82500000D03*
X160000000Y-90000000D03*
X90000000Y-65000000D03*
X79500000Y-93700000D03*
X72500000Y-77500000D03*
X115000000Y-110000000D03*
X87500000Y-107500000D03*
X127500000Y-82500000D03*
X87500000Y-82500000D03*
X139500000Y-100000000D03*
X170000000Y-85000000D03*
X143000000Y-89000000D03*
X92500000Y-97500000D03*
X122500000Y-82500000D03*
X157500000Y-107500000D03*
X150000000Y-105000000D03*
X92500000Y-92500000D03*
X180000000Y-90000000D03*
X168700000Y-95600000D03*
X80000000Y-65000000D03*
X175000000Y-90000000D03*
X70000000Y-85000000D03*
X122500000Y-102500000D03*
X170700000Y-97900000D03*
X74000000Y-92500000D03*
X82500000Y-77500000D03*
X151200000Y-97500000D03*
X166100000Y-96600000D03*
X104785689Y-85550000D03*
X117500000Y-107500000D03*
X180000000Y-95000000D03*
X102334314Y-82665686D03*
X77500000Y-112500000D03*
X105000000Y-110000000D03*
X94828830Y-85402534D03*
X151100000Y-90900000D03*
X167500000Y-107500000D03*
X85000000Y-100000000D03*
X141000000Y-90500000D03*
X135000000Y-110000000D03*
X80000000Y-75000000D03*
X132500000Y-112500000D03*
X112500000Y-95000000D03*
X155000000Y-105000000D03*
X180000000Y-100000000D03*
X80000000Y-70000000D03*
X90000000Y-100000000D03*
X162500000Y-107500000D03*
X122500000Y-112500000D03*
X82392165Y-67743135D03*
X82500000Y-97500000D03*
X142500000Y-92500000D03*
X159200000Y-98600000D03*
X70000000Y-95000000D03*
X162500000Y-112500000D03*
X157500000Y-87500000D03*
X157500000Y-102500000D03*
X140000000Y-110000000D03*
X175000000Y-110000000D03*
X180000000Y-105000000D03*
X72500000Y-112500000D03*
X177500000Y-92500000D03*
X155000000Y-110000000D03*
X75000000Y-80000000D03*
X67500000Y-77500000D03*
X87500000Y-97500000D03*
X73700000Y-98100000D03*
X160000000Y-95000000D03*
X82500000Y-102500000D03*
X168600000Y-93500000D03*
X75000000Y-75000000D03*
X155000000Y-85000000D03*
X145000000Y-105000000D03*
X142500000Y-82500000D03*
X72500000Y-82500000D03*
X122500000Y-107500000D03*
X70000000Y-100000000D03*
X85000000Y-75000000D03*
X142500000Y-96500000D03*
X90000000Y-75000000D03*
X67500000Y-82500000D03*
X73200000Y-93400000D03*
X152500000Y-112500000D03*
X165000000Y-110000000D03*
X157500000Y-92500000D03*
X125000000Y-110000000D03*
X141700000Y-100800000D03*
X67500000Y-62500000D03*
X175000000Y-100000000D03*
X130000000Y-85000000D03*
X167500000Y-112500000D03*
X177500000Y-87500000D03*
X141000000Y-93500000D03*
X132500000Y-87500000D03*
X82500000Y-62500000D03*
X152500000Y-102500000D03*
X144900000Y-91400000D03*
X153250000Y-85100000D03*
X180000000Y-85000000D03*
X87500000Y-102500000D03*
X172500000Y-112500000D03*
X77500000Y-62500000D03*
X172500000Y-97500000D03*
X157500000Y-112500000D03*
X165000000Y-90000000D03*
X80000000Y-100000000D03*
X175000000Y-85000000D03*
X67500000Y-112500000D03*
X157900000Y-89900000D03*
X122500000Y-97500000D03*
X172500000Y-87500000D03*
X107615686Y-82284314D03*
X112500000Y-97500000D03*
X70000000Y-110000000D03*
X100000000Y-85550000D03*
X80000000Y-105000000D03*
X177500000Y-107500000D03*
X72500000Y-87500000D03*
X159600000Y-102100000D03*
X72500000Y-107500000D03*
X170000000Y-110000000D03*
X79700000Y-97300000D03*
X172500000Y-82500000D03*
X67500000Y-97500000D03*
X70000000Y-65000000D03*
X80000000Y-80000000D03*
X78800000Y-98000000D03*
X152500000Y-107500000D03*
X117500000Y-112500000D03*
X75000000Y-60000000D03*
X120000000Y-100000000D03*
X112500000Y-82500000D03*
X75000000Y-105000000D03*
X146653809Y-87640921D03*
X117500000Y-102500000D03*
X125000000Y-85000000D03*
X92500000Y-87500000D03*
X143400000Y-90100000D03*
X70000000Y-75000000D03*
%TO.N,+5V*%
X79250000Y-85500000D03*
X110000000Y-84750000D03*
%TO.N,+3V0*%
X162500000Y-85500000D03*
X148000000Y-85080761D03*
X159750000Y-85500000D03*
X150500000Y-101000000D03*
X86080760Y-65500000D03*
X144725013Y-96500013D03*
X74250000Y-65750000D03*
X76750000Y-87250000D03*
X148000000Y-89250000D03*
%TO.N,+12V*%
X174250000Y-104750000D03*
%TO.N,/SW2*%
X81000000Y-66900000D03*
X77388682Y-67310883D03*
X78250000Y-91250000D03*
%TO.N,/SW1*%
X77500000Y-92250000D03*
X84000005Y-64750005D03*
X77500000Y-66249999D03*
%TO.N,Net-(J9-Pin_3)*%
X145093689Y-86343689D03*
%TO.N,Net-(J9-Pin_4)*%
X143000000Y-95200000D03*
%TO.N,Net-(J9-Pin_1)*%
X144500000Y-88000000D03*
%TO.N,Net-(J9-Pin_2)*%
X144268846Y-86138411D03*
%TO.N,Net-(U11-QE)*%
X146128753Y-87011627D03*
X152290691Y-85150000D03*
%TD*%
%TA.AperFunction,Conductor*%
%TO.N,GND*%
G36*
X91943039Y-58019685D02*
G01*
X91988794Y-58072489D01*
X92000000Y-58124000D01*
X92000000Y-80000000D01*
X181876000Y-80000000D01*
X181943039Y-80019685D01*
X181988794Y-80072489D01*
X182000000Y-80124000D01*
X182000000Y-112876000D01*
X181980315Y-112943039D01*
X181927511Y-112988794D01*
X181876000Y-113000000D01*
X66124000Y-113000000D01*
X66056961Y-112980315D01*
X66011206Y-112927511D01*
X66000000Y-112876000D01*
X66000000Y-110124265D01*
X76652466Y-110124265D01*
X76652466Y-110375734D01*
X76691801Y-110624090D01*
X76769508Y-110863244D01*
X76883668Y-111087293D01*
X77031463Y-111290717D01*
X77031467Y-111290722D01*
X77209277Y-111468532D01*
X77209282Y-111468536D01*
X77386720Y-111597451D01*
X77412710Y-111616334D01*
X77555474Y-111689076D01*
X77636755Y-111730491D01*
X77636757Y-111730491D01*
X77636760Y-111730493D01*
X77764949Y-111772144D01*
X77875909Y-111808198D01*
X78124266Y-111847534D01*
X78375729Y-111847534D01*
X78375734Y-111847534D01*
X78624090Y-111808198D01*
X78863240Y-111730493D01*
X79087290Y-111616334D01*
X79290724Y-111468531D01*
X79468531Y-111290724D01*
X79616334Y-111087290D01*
X79730493Y-110863240D01*
X79808198Y-110624090D01*
X79847534Y-110375729D01*
X79850000Y-110250000D01*
X79847534Y-110124271D01*
X79847533Y-110124265D01*
X177652466Y-110124265D01*
X177652466Y-110375734D01*
X177691801Y-110624090D01*
X177769508Y-110863244D01*
X177883668Y-111087293D01*
X178031463Y-111290717D01*
X178031467Y-111290722D01*
X178209277Y-111468532D01*
X178209282Y-111468536D01*
X178386720Y-111597451D01*
X178412710Y-111616334D01*
X178555474Y-111689076D01*
X178636755Y-111730491D01*
X178636757Y-111730491D01*
X178636760Y-111730493D01*
X178764949Y-111772144D01*
X178875909Y-111808198D01*
X179124266Y-111847534D01*
X179375729Y-111847534D01*
X179375734Y-111847534D01*
X179624090Y-111808198D01*
X179863240Y-111730493D01*
X180087290Y-111616334D01*
X180290724Y-111468531D01*
X180468531Y-111290724D01*
X180616334Y-111087290D01*
X180730493Y-110863240D01*
X180808198Y-110624090D01*
X180847534Y-110375729D01*
X180850000Y-110250000D01*
X180847534Y-110124271D01*
X180808198Y-109875910D01*
X180730493Y-109636760D01*
X180730491Y-109636757D01*
X180730491Y-109636755D01*
X180689076Y-109555474D01*
X180616334Y-109412710D01*
X180597451Y-109386720D01*
X180468536Y-109209282D01*
X180468532Y-109209277D01*
X180290722Y-109031467D01*
X180290717Y-109031463D01*
X180087293Y-108883668D01*
X180087292Y-108883667D01*
X180087290Y-108883666D01*
X180017322Y-108848015D01*
X179863244Y-108769508D01*
X179624090Y-108691801D01*
X179375734Y-108652466D01*
X179375729Y-108652466D01*
X179124271Y-108652466D01*
X179124266Y-108652466D01*
X178875909Y-108691801D01*
X178636755Y-108769508D01*
X178412706Y-108883668D01*
X178209282Y-109031463D01*
X178209277Y-109031467D01*
X178031467Y-109209277D01*
X178031463Y-109209282D01*
X177883668Y-109412706D01*
X177769508Y-109636755D01*
X177691801Y-109875909D01*
X177652466Y-110124265D01*
X79847533Y-110124265D01*
X79808198Y-109875910D01*
X79730493Y-109636760D01*
X79730491Y-109636757D01*
X79730491Y-109636755D01*
X79689076Y-109555474D01*
X79616334Y-109412710D01*
X79597451Y-109386720D01*
X79468536Y-109209282D01*
X79468532Y-109209277D01*
X79290722Y-109031467D01*
X79290717Y-109031463D01*
X79087293Y-108883668D01*
X79087292Y-108883667D01*
X79087290Y-108883666D01*
X79017322Y-108848015D01*
X78863244Y-108769508D01*
X78624090Y-108691801D01*
X78375734Y-108652466D01*
X78375729Y-108652466D01*
X78124271Y-108652466D01*
X78124266Y-108652466D01*
X77875909Y-108691801D01*
X77636755Y-108769508D01*
X77412706Y-108883668D01*
X77209282Y-109031463D01*
X77209277Y-109031467D01*
X77031467Y-109209277D01*
X77031463Y-109209282D01*
X76883668Y-109412706D01*
X76769508Y-109636755D01*
X76691801Y-109875909D01*
X76652466Y-110124265D01*
X66000000Y-110124265D01*
X66000000Y-104750000D01*
X173744353Y-104750000D01*
X173764834Y-104892456D01*
X173824622Y-105023371D01*
X173824623Y-105023373D01*
X173918872Y-105132143D01*
X174039947Y-105209953D01*
X174039950Y-105209954D01*
X174039949Y-105209954D01*
X174178036Y-105250499D01*
X174178038Y-105250500D01*
X174178039Y-105250500D01*
X174321962Y-105250500D01*
X174321962Y-105250499D01*
X174460053Y-105209953D01*
X174581128Y-105132143D01*
X174675377Y-105023373D01*
X174735165Y-104892457D01*
X174755647Y-104750000D01*
X174735165Y-104607543D01*
X174675377Y-104476627D01*
X174581128Y-104367857D01*
X174460053Y-104290047D01*
X174460051Y-104290046D01*
X174460049Y-104290045D01*
X174460050Y-104290045D01*
X174321963Y-104249500D01*
X174321961Y-104249500D01*
X174178039Y-104249500D01*
X174178036Y-104249500D01*
X174039949Y-104290045D01*
X173918873Y-104367856D01*
X173824623Y-104476626D01*
X173824622Y-104476628D01*
X173764834Y-104607543D01*
X173744353Y-104750000D01*
X66000000Y-104750000D01*
X66000000Y-101000000D01*
X149994353Y-101000000D01*
X150014834Y-101142456D01*
X150074622Y-101273371D01*
X150074623Y-101273373D01*
X150168872Y-101382143D01*
X150289947Y-101459953D01*
X150289950Y-101459954D01*
X150289949Y-101459954D01*
X150428036Y-101500499D01*
X150428038Y-101500500D01*
X150428039Y-101500500D01*
X150571962Y-101500500D01*
X150571962Y-101500499D01*
X150710053Y-101459953D01*
X150831128Y-101382143D01*
X150925377Y-101273373D01*
X150985165Y-101142457D01*
X151005647Y-101000000D01*
X150985165Y-100857543D01*
X150925377Y-100726627D01*
X150831128Y-100617857D01*
X150710053Y-100540047D01*
X150710051Y-100540046D01*
X150710049Y-100540045D01*
X150710050Y-100540045D01*
X150571963Y-100499500D01*
X150571961Y-100499500D01*
X150428039Y-100499500D01*
X150428036Y-100499500D01*
X150289949Y-100540045D01*
X150168873Y-100617856D01*
X150074623Y-100726626D01*
X150074622Y-100726628D01*
X150014834Y-100857543D01*
X149994353Y-101000000D01*
X66000000Y-101000000D01*
X66000000Y-97200000D01*
X146294355Y-97200000D01*
X146314859Y-97368869D01*
X146314860Y-97368874D01*
X146375182Y-97527931D01*
X146437475Y-97618177D01*
X146471817Y-97667929D01*
X146577505Y-97761560D01*
X146599150Y-97780736D01*
X146749773Y-97859789D01*
X146749775Y-97859790D01*
X146914944Y-97900500D01*
X147085056Y-97900500D01*
X147250225Y-97859790D01*
X147329692Y-97818081D01*
X147400849Y-97780736D01*
X147400850Y-97780734D01*
X147400852Y-97780734D01*
X147528183Y-97667929D01*
X147624818Y-97527930D01*
X147685140Y-97368872D01*
X147705645Y-97200000D01*
X148494355Y-97200000D01*
X148514859Y-97368869D01*
X148514860Y-97368874D01*
X148575182Y-97527931D01*
X148637475Y-97618177D01*
X148671817Y-97667929D01*
X148777505Y-97761560D01*
X148799150Y-97780736D01*
X148949773Y-97859789D01*
X148949775Y-97859790D01*
X149114944Y-97900500D01*
X149285056Y-97900500D01*
X149450225Y-97859790D01*
X149529692Y-97818081D01*
X149600849Y-97780736D01*
X149600850Y-97780734D01*
X149600852Y-97780734D01*
X149728183Y-97667929D01*
X149824818Y-97527930D01*
X149885140Y-97368872D01*
X149905645Y-97200000D01*
X149885140Y-97031128D01*
X149824818Y-96872070D01*
X149728183Y-96732071D01*
X149600852Y-96619266D01*
X149600849Y-96619263D01*
X149450226Y-96540210D01*
X149285056Y-96499500D01*
X149114944Y-96499500D01*
X148949773Y-96540210D01*
X148799150Y-96619263D01*
X148671816Y-96732072D01*
X148575182Y-96872068D01*
X148514860Y-97031125D01*
X148514859Y-97031130D01*
X148494355Y-97200000D01*
X147705645Y-97200000D01*
X147685140Y-97031128D01*
X147624818Y-96872070D01*
X147528183Y-96732071D01*
X147400852Y-96619266D01*
X147400849Y-96619263D01*
X147250226Y-96540210D01*
X147085056Y-96499500D01*
X146914944Y-96499500D01*
X146749773Y-96540210D01*
X146599150Y-96619263D01*
X146471816Y-96732072D01*
X146375182Y-96872068D01*
X146314860Y-97031125D01*
X146314859Y-97031130D01*
X146294355Y-97200000D01*
X66000000Y-97200000D01*
X66000000Y-96500013D01*
X144219366Y-96500013D01*
X144239847Y-96642469D01*
X144269261Y-96706875D01*
X144299636Y-96773386D01*
X144393885Y-96882156D01*
X144514960Y-96959966D01*
X144514963Y-96959967D01*
X144514962Y-96959967D01*
X144653049Y-97000512D01*
X144653051Y-97000513D01*
X144653052Y-97000513D01*
X144796975Y-97000513D01*
X144796975Y-97000512D01*
X144935066Y-96959966D01*
X145056141Y-96882156D01*
X145150390Y-96773386D01*
X145210178Y-96642470D01*
X145230660Y-96500013D01*
X145210178Y-96357556D01*
X145150390Y-96226640D01*
X145056141Y-96117870D01*
X144935066Y-96040060D01*
X144935064Y-96040059D01*
X144935062Y-96040058D01*
X144935063Y-96040058D01*
X144796976Y-95999513D01*
X144796974Y-95999513D01*
X144653052Y-95999513D01*
X144653049Y-95999513D01*
X144514962Y-96040058D01*
X144393886Y-96117869D01*
X144299636Y-96226639D01*
X144299635Y-96226641D01*
X144239847Y-96357556D01*
X144219366Y-96500013D01*
X66000000Y-96500013D01*
X66000000Y-95200000D01*
X142494353Y-95200000D01*
X142514834Y-95342456D01*
X142560347Y-95442114D01*
X142574623Y-95473373D01*
X142668872Y-95582143D01*
X142789947Y-95659953D01*
X142789950Y-95659954D01*
X142789949Y-95659954D01*
X142897107Y-95691417D01*
X142926336Y-95700000D01*
X142928036Y-95700499D01*
X142928038Y-95700500D01*
X142928039Y-95700500D01*
X143071962Y-95700500D01*
X143071962Y-95700499D01*
X143210053Y-95659953D01*
X143331128Y-95582143D01*
X143425377Y-95473373D01*
X143485165Y-95342457D01*
X143505647Y-95200000D01*
X143485165Y-95057543D01*
X143425377Y-94926627D01*
X143331128Y-94817857D01*
X143210053Y-94740047D01*
X143210051Y-94740046D01*
X143210049Y-94740045D01*
X143210050Y-94740045D01*
X143071963Y-94699500D01*
X143071961Y-94699500D01*
X142928039Y-94699500D01*
X142928036Y-94699500D01*
X142789949Y-94740045D01*
X142668873Y-94817856D01*
X142574623Y-94926626D01*
X142574622Y-94926628D01*
X142514834Y-95057543D01*
X142494353Y-95200000D01*
X66000000Y-95200000D01*
X66000000Y-93159999D01*
X170905202Y-93159999D01*
X170905202Y-93160000D01*
X170924353Y-93366676D01*
X170981158Y-93566327D01*
X171073673Y-93752123D01*
X171073681Y-93752136D01*
X171078254Y-93758191D01*
X171612356Y-93224089D01*
X171638622Y-93322114D01*
X171693916Y-93417886D01*
X171772114Y-93496084D01*
X171867886Y-93551378D01*
X171965909Y-93577642D01*
X171434785Y-94108767D01*
X171434785Y-94108768D01*
X171528625Y-94166872D01*
X171528634Y-94166877D01*
X171722186Y-94241859D01*
X171926219Y-94280000D01*
X172133781Y-94280000D01*
X172334125Y-94242549D01*
X172403640Y-94249580D01*
X172458319Y-94293078D01*
X172480801Y-94359231D01*
X172480130Y-94378321D01*
X172474308Y-94429995D01*
X172474308Y-94430004D01*
X172480130Y-94481678D01*
X172468075Y-94550500D01*
X172420726Y-94601879D01*
X172353116Y-94619503D01*
X172334126Y-94617450D01*
X172133782Y-94580000D01*
X171926219Y-94580000D01*
X171722186Y-94618140D01*
X171722185Y-94618140D01*
X171528634Y-94693121D01*
X171528633Y-94693122D01*
X171434784Y-94751231D01*
X171965909Y-95282356D01*
X171867886Y-95308622D01*
X171772114Y-95363916D01*
X171693916Y-95442114D01*
X171638622Y-95537886D01*
X171612356Y-95635909D01*
X171078254Y-95101807D01*
X171078253Y-95101808D01*
X171073679Y-95107866D01*
X171073675Y-95107872D01*
X170981158Y-95293672D01*
X170924353Y-95493323D01*
X170905202Y-95699999D01*
X170905202Y-95700000D01*
X170924353Y-95906676D01*
X170981158Y-96106327D01*
X171073673Y-96292123D01*
X171073681Y-96292136D01*
X171078254Y-96298191D01*
X171612356Y-95764089D01*
X171638622Y-95862114D01*
X171693916Y-95957886D01*
X171772114Y-96036084D01*
X171867886Y-96091378D01*
X171965909Y-96117643D01*
X171434785Y-96648767D01*
X171434785Y-96648768D01*
X171528625Y-96706872D01*
X171528634Y-96706877D01*
X171722186Y-96781859D01*
X171926219Y-96820000D01*
X172133781Y-96820000D01*
X172337813Y-96781859D01*
X172337814Y-96781859D01*
X172531370Y-96706875D01*
X172625214Y-96648768D01*
X172625214Y-96648767D01*
X172094090Y-96117642D01*
X172192114Y-96091378D01*
X172287886Y-96036084D01*
X172366084Y-95957886D01*
X172421378Y-95862114D01*
X172447643Y-95764089D01*
X172981744Y-96298190D01*
X172981745Y-96298190D01*
X172986324Y-96292127D01*
X172986326Y-96292124D01*
X173078840Y-96106330D01*
X173078841Y-96106329D01*
X173135646Y-95906676D01*
X173154798Y-95700000D01*
X173154798Y-95699999D01*
X173135646Y-95493319D01*
X173135645Y-95493316D01*
X173110958Y-95406548D01*
X173111545Y-95336681D01*
X173149812Y-95278222D01*
X173213609Y-95249732D01*
X173244104Y-95249394D01*
X173290511Y-95254622D01*
X173299999Y-95255692D01*
X173300000Y-95255692D01*
X173300001Y-95255692D01*
X173308111Y-95254778D01*
X173355892Y-95249394D01*
X173424712Y-95261448D01*
X173476092Y-95308796D01*
X173493717Y-95376406D01*
X173489042Y-95406547D01*
X173464353Y-95493321D01*
X173445202Y-95699999D01*
X173445202Y-95700000D01*
X173464353Y-95906676D01*
X173521158Y-96106327D01*
X173613673Y-96292123D01*
X173613681Y-96292136D01*
X173618254Y-96298191D01*
X174152356Y-95764089D01*
X174178622Y-95862114D01*
X174233916Y-95957886D01*
X174312114Y-96036084D01*
X174407886Y-96091378D01*
X174505909Y-96117643D01*
X173974785Y-96648767D01*
X173974785Y-96648768D01*
X174068625Y-96706872D01*
X174068634Y-96706877D01*
X174262186Y-96781859D01*
X174466219Y-96820000D01*
X174673781Y-96820000D01*
X174877813Y-96781859D01*
X174877814Y-96781859D01*
X175071370Y-96706875D01*
X175165214Y-96648768D01*
X175165214Y-96648767D01*
X174634090Y-96117642D01*
X174732114Y-96091378D01*
X174827886Y-96036084D01*
X174906084Y-95957886D01*
X174961378Y-95862114D01*
X174987643Y-95764090D01*
X175521744Y-96298190D01*
X175521745Y-96298190D01*
X175526324Y-96292127D01*
X175526326Y-96292124D01*
X175618840Y-96106330D01*
X175618841Y-96106329D01*
X175675646Y-95906676D01*
X175694798Y-95700000D01*
X175694798Y-95699999D01*
X175675646Y-95493323D01*
X175618841Y-95293670D01*
X175618840Y-95293669D01*
X175526328Y-95107879D01*
X175526324Y-95107873D01*
X175521744Y-95101808D01*
X174987643Y-95635909D01*
X174961378Y-95537886D01*
X174906084Y-95442114D01*
X174827886Y-95363916D01*
X174732114Y-95308622D01*
X174634089Y-95282356D01*
X175165214Y-94751231D01*
X175165213Y-94751229D01*
X175071374Y-94693126D01*
X174877813Y-94618140D01*
X174673781Y-94580000D01*
X174466218Y-94580000D01*
X174265873Y-94617450D01*
X174196358Y-94610419D01*
X174141680Y-94566921D01*
X174119198Y-94500767D01*
X174119869Y-94481676D01*
X174125692Y-94430000D01*
X174125692Y-94429998D01*
X174119869Y-94378323D01*
X174131923Y-94309501D01*
X174179271Y-94258121D01*
X174246882Y-94240496D01*
X174265874Y-94242549D01*
X174466219Y-94280000D01*
X174673781Y-94280000D01*
X174877813Y-94241859D01*
X174877814Y-94241859D01*
X175071370Y-94166875D01*
X175165214Y-94108768D01*
X175165214Y-94108767D01*
X174634090Y-93577643D01*
X174732114Y-93551378D01*
X174827886Y-93496084D01*
X174906084Y-93417886D01*
X174961378Y-93322114D01*
X174987643Y-93224090D01*
X175521744Y-93758190D01*
X175521745Y-93758190D01*
X175526324Y-93752127D01*
X175526326Y-93752124D01*
X175618840Y-93566330D01*
X175618841Y-93566329D01*
X175675646Y-93366676D01*
X175694798Y-93160000D01*
X175694798Y-93159999D01*
X175675646Y-92953323D01*
X175618841Y-92753670D01*
X175618840Y-92753669D01*
X175526328Y-92567879D01*
X175526324Y-92567873D01*
X175521744Y-92561808D01*
X174987643Y-93095909D01*
X174961378Y-92997886D01*
X174906084Y-92902114D01*
X174827886Y-92823916D01*
X174732114Y-92768622D01*
X174634089Y-92742356D01*
X175165214Y-92211231D01*
X175165213Y-92211229D01*
X175071374Y-92153126D01*
X174877813Y-92078140D01*
X174673781Y-92040000D01*
X174466219Y-92040000D01*
X174262186Y-92078140D01*
X174262185Y-92078140D01*
X174068634Y-92153121D01*
X174068633Y-92153122D01*
X173974784Y-92211231D01*
X174505910Y-92742356D01*
X174407886Y-92768622D01*
X174312114Y-92823916D01*
X174233916Y-92902114D01*
X174178622Y-92997886D01*
X174152356Y-93095909D01*
X173618254Y-92561807D01*
X173618253Y-92561808D01*
X173613679Y-92567866D01*
X173613675Y-92567872D01*
X173521158Y-92753672D01*
X173464353Y-92953323D01*
X173445202Y-93159999D01*
X173445202Y-93160000D01*
X173464353Y-93366678D01*
X173489042Y-93453452D01*
X173488454Y-93523319D01*
X173450187Y-93581778D01*
X173386389Y-93610267D01*
X173355892Y-93610605D01*
X173300004Y-93604308D01*
X173299996Y-93604308D01*
X173244106Y-93610605D01*
X173175284Y-93598550D01*
X173123905Y-93551201D01*
X173106281Y-93483591D01*
X173110957Y-93453450D01*
X173135646Y-93366679D01*
X173154798Y-93160000D01*
X173154798Y-93159999D01*
X173135646Y-92953323D01*
X173078841Y-92753670D01*
X173078840Y-92753669D01*
X172986328Y-92567879D01*
X172986324Y-92567873D01*
X172981744Y-92561808D01*
X172447642Y-93095909D01*
X172421378Y-92997886D01*
X172366084Y-92902114D01*
X172287886Y-92823916D01*
X172192114Y-92768622D01*
X172094089Y-92742356D01*
X172625214Y-92211231D01*
X172625213Y-92211229D01*
X172531374Y-92153126D01*
X172337813Y-92078140D01*
X172133781Y-92040000D01*
X171926219Y-92040000D01*
X171722186Y-92078140D01*
X171722185Y-92078140D01*
X171528634Y-92153121D01*
X171528633Y-92153122D01*
X171434784Y-92211231D01*
X171965910Y-92742356D01*
X171867886Y-92768622D01*
X171772114Y-92823916D01*
X171693916Y-92902114D01*
X171638622Y-92997886D01*
X171612356Y-93095909D01*
X171078254Y-92561807D01*
X171078253Y-92561808D01*
X171073679Y-92567866D01*
X171073675Y-92567872D01*
X170981158Y-92753672D01*
X170924353Y-92953323D01*
X170905202Y-93159999D01*
X66000000Y-93159999D01*
X66000000Y-92250000D01*
X76994353Y-92250000D01*
X77014834Y-92392456D01*
X77074622Y-92523371D01*
X77074623Y-92523373D01*
X77168872Y-92632143D01*
X77289947Y-92709953D01*
X77289950Y-92709954D01*
X77289949Y-92709954D01*
X77428036Y-92750499D01*
X77428038Y-92750500D01*
X77428039Y-92750500D01*
X77571962Y-92750500D01*
X77571962Y-92750499D01*
X77710053Y-92709953D01*
X77831128Y-92632143D01*
X77925377Y-92523373D01*
X77985165Y-92392457D01*
X78005647Y-92250000D01*
X77985165Y-92107543D01*
X77925377Y-91976627D01*
X77831128Y-91867857D01*
X77831126Y-91867855D01*
X77825320Y-91861155D01*
X77827797Y-91859007D01*
X77814902Y-91838927D01*
X77780794Y-91834015D01*
X77765295Y-91825549D01*
X77710051Y-91790045D01*
X77571963Y-91749500D01*
X77571961Y-91749500D01*
X77428039Y-91749500D01*
X77428036Y-91749500D01*
X77289949Y-91790045D01*
X77168873Y-91867856D01*
X77074623Y-91976626D01*
X77074622Y-91976628D01*
X77014834Y-92107543D01*
X76994353Y-92250000D01*
X66000000Y-92250000D01*
X66000000Y-91250000D01*
X77744353Y-91250000D01*
X77764834Y-91392456D01*
X77824622Y-91523371D01*
X77824623Y-91523373D01*
X77918872Y-91632143D01*
X77918873Y-91632143D01*
X77924680Y-91638845D01*
X77922201Y-91640992D01*
X77935097Y-91661071D01*
X77969211Y-91665987D01*
X77984698Y-91674446D01*
X78018446Y-91696135D01*
X78039948Y-91709954D01*
X78158108Y-91744647D01*
X78174633Y-91749500D01*
X78178036Y-91750499D01*
X78178038Y-91750500D01*
X78178039Y-91750500D01*
X78321962Y-91750500D01*
X78321962Y-91750499D01*
X78460053Y-91709953D01*
X78581128Y-91632143D01*
X78675377Y-91523373D01*
X78735165Y-91392457D01*
X78755647Y-91250000D01*
X78735165Y-91107543D01*
X78675377Y-90976627D01*
X78581128Y-90867857D01*
X78460053Y-90790047D01*
X78460051Y-90790046D01*
X78460049Y-90790045D01*
X78460050Y-90790045D01*
X78321963Y-90749500D01*
X78321961Y-90749500D01*
X78178039Y-90749500D01*
X78178036Y-90749500D01*
X78039949Y-90790045D01*
X77918873Y-90867856D01*
X77824623Y-90976626D01*
X77824622Y-90976628D01*
X77764834Y-91107543D01*
X77744353Y-91250000D01*
X66000000Y-91250000D01*
X66000000Y-89250000D01*
X147494353Y-89250000D01*
X147514834Y-89392456D01*
X147574622Y-89523371D01*
X147574623Y-89523373D01*
X147668872Y-89632143D01*
X147789947Y-89709953D01*
X147789950Y-89709954D01*
X147789949Y-89709954D01*
X147928036Y-89750499D01*
X147928038Y-89750500D01*
X147928039Y-89750500D01*
X148071962Y-89750500D01*
X148071962Y-89750499D01*
X148210053Y-89709953D01*
X148331128Y-89632143D01*
X148425377Y-89523373D01*
X148485165Y-89392457D01*
X148505647Y-89250000D01*
X148485165Y-89107543D01*
X148425377Y-88976627D01*
X148331128Y-88867857D01*
X148210053Y-88790047D01*
X148210051Y-88790046D01*
X148210049Y-88790045D01*
X148210050Y-88790045D01*
X148071963Y-88749500D01*
X148071961Y-88749500D01*
X147928039Y-88749500D01*
X147928036Y-88749500D01*
X147789949Y-88790045D01*
X147668873Y-88867856D01*
X147574623Y-88976626D01*
X147574622Y-88976628D01*
X147514834Y-89107543D01*
X147494353Y-89250000D01*
X66000000Y-89250000D01*
X66000000Y-88000000D01*
X143994353Y-88000000D01*
X144014834Y-88142456D01*
X144074622Y-88273371D01*
X144074623Y-88273373D01*
X144168872Y-88382143D01*
X144289947Y-88459953D01*
X144289950Y-88459954D01*
X144289949Y-88459954D01*
X144428036Y-88500499D01*
X144428038Y-88500500D01*
X144428039Y-88500500D01*
X144571962Y-88500500D01*
X144571962Y-88500499D01*
X144710053Y-88459953D01*
X144831128Y-88382143D01*
X144925377Y-88273373D01*
X144985165Y-88142457D01*
X145005647Y-88000000D01*
X144985165Y-87857543D01*
X144925377Y-87726627D01*
X144831128Y-87617857D01*
X144710053Y-87540047D01*
X144710051Y-87540046D01*
X144710049Y-87540045D01*
X144710050Y-87540045D01*
X144571963Y-87499500D01*
X144571961Y-87499500D01*
X144428039Y-87499500D01*
X144428036Y-87499500D01*
X144289949Y-87540045D01*
X144168873Y-87617856D01*
X144074623Y-87726626D01*
X144074622Y-87726628D01*
X144014834Y-87857543D01*
X143994353Y-88000000D01*
X66000000Y-88000000D01*
X66000000Y-87250000D01*
X76244353Y-87250000D01*
X76264834Y-87392456D01*
X76319487Y-87512127D01*
X76324623Y-87523373D01*
X76418872Y-87632143D01*
X76539947Y-87709953D01*
X76539950Y-87709954D01*
X76539949Y-87709954D01*
X76678036Y-87750499D01*
X76678038Y-87750500D01*
X76678039Y-87750500D01*
X76821962Y-87750500D01*
X76821962Y-87750499D01*
X76960053Y-87709953D01*
X77081128Y-87632143D01*
X77175377Y-87523373D01*
X77235165Y-87392457D01*
X77255647Y-87250000D01*
X77235165Y-87107543D01*
X77191361Y-87011627D01*
X145623106Y-87011627D01*
X145643587Y-87154083D01*
X145687392Y-87250000D01*
X145703376Y-87285000D01*
X145797625Y-87393770D01*
X145918700Y-87471580D01*
X145918703Y-87471581D01*
X145918702Y-87471581D01*
X146056789Y-87512126D01*
X146056791Y-87512127D01*
X146056792Y-87512127D01*
X146200715Y-87512127D01*
X146200715Y-87512126D01*
X146338806Y-87471580D01*
X146459881Y-87393770D01*
X146554130Y-87285000D01*
X146613918Y-87154084D01*
X146634400Y-87011627D01*
X146613918Y-86869170D01*
X146554130Y-86738254D01*
X146459881Y-86629484D01*
X146338806Y-86551674D01*
X146338804Y-86551673D01*
X146338802Y-86551672D01*
X146338803Y-86551672D01*
X146200716Y-86511127D01*
X146200714Y-86511127D01*
X146056792Y-86511127D01*
X146056789Y-86511127D01*
X145918702Y-86551672D01*
X145797625Y-86629483D01*
X145761434Y-86671250D01*
X145702655Y-86709024D01*
X145659829Y-86709023D01*
X145677457Y-86747621D01*
X145667514Y-86816779D01*
X145667514Y-86816780D01*
X145643587Y-86869172D01*
X145623106Y-87011627D01*
X77191361Y-87011627D01*
X77175377Y-86976627D01*
X77081128Y-86867857D01*
X76960053Y-86790047D01*
X76960051Y-86790046D01*
X76960049Y-86790045D01*
X76960050Y-86790045D01*
X76821963Y-86749500D01*
X76821961Y-86749500D01*
X76678039Y-86749500D01*
X76678036Y-86749500D01*
X76539949Y-86790045D01*
X76418873Y-86867856D01*
X76324623Y-86976626D01*
X76324622Y-86976628D01*
X76264834Y-87107543D01*
X76244353Y-87250000D01*
X66000000Y-87250000D01*
X66000000Y-86138411D01*
X143763199Y-86138411D01*
X143783680Y-86280867D01*
X143843468Y-86411782D01*
X143843469Y-86411784D01*
X143937718Y-86520554D01*
X144058793Y-86598364D01*
X144058796Y-86598365D01*
X144058795Y-86598365D01*
X144196882Y-86638910D01*
X144196884Y-86638911D01*
X144196885Y-86638911D01*
X144340808Y-86638911D01*
X144340808Y-86638910D01*
X144478899Y-86598364D01*
X144500126Y-86584721D01*
X144567165Y-86565036D01*
X144634205Y-86584719D01*
X144661081Y-86611591D01*
X144662504Y-86610359D01*
X144668311Y-86617061D01*
X144668312Y-86617062D01*
X144762561Y-86725832D01*
X144883636Y-86803642D01*
X144883639Y-86803643D01*
X144883638Y-86803643D01*
X145021725Y-86844188D01*
X145021727Y-86844189D01*
X145021728Y-86844189D01*
X145165651Y-86844189D01*
X145165651Y-86844188D01*
X145303742Y-86803642D01*
X145424817Y-86725832D01*
X145461007Y-86684065D01*
X145519783Y-86646292D01*
X145562612Y-86646292D01*
X145544984Y-86607691D01*
X145554927Y-86538537D01*
X145578854Y-86486146D01*
X145599336Y-86343689D01*
X145578854Y-86201232D01*
X145519066Y-86070316D01*
X145424817Y-85961546D01*
X145303742Y-85883736D01*
X145303740Y-85883735D01*
X145303738Y-85883734D01*
X145303739Y-85883734D01*
X145165652Y-85843189D01*
X145165650Y-85843189D01*
X145021728Y-85843189D01*
X145021725Y-85843189D01*
X144883638Y-85883734D01*
X144883636Y-85883735D01*
X144862404Y-85897380D01*
X144795364Y-85917063D01*
X144728325Y-85897377D01*
X144701454Y-85870507D01*
X144700031Y-85871741D01*
X144694222Y-85865037D01*
X144599974Y-85756268D01*
X144478899Y-85678458D01*
X144478897Y-85678457D01*
X144478895Y-85678456D01*
X144478896Y-85678456D01*
X144340809Y-85637911D01*
X144340807Y-85637911D01*
X144196885Y-85637911D01*
X144196882Y-85637911D01*
X144058795Y-85678456D01*
X143937719Y-85756267D01*
X143843469Y-85865037D01*
X143843468Y-85865039D01*
X143783680Y-85995954D01*
X143763199Y-86138411D01*
X66000000Y-86138411D01*
X66000000Y-85500000D01*
X78744353Y-85500000D01*
X78764834Y-85642456D01*
X78768508Y-85650500D01*
X78824623Y-85773373D01*
X78918872Y-85882143D01*
X79039947Y-85959953D01*
X79039950Y-85959954D01*
X79039949Y-85959954D01*
X79178036Y-86000499D01*
X79178038Y-86000500D01*
X79178039Y-86000500D01*
X79321962Y-86000500D01*
X79321962Y-86000499D01*
X79460053Y-85959953D01*
X79581128Y-85882143D01*
X79675377Y-85773373D01*
X79735165Y-85642457D01*
X79755647Y-85500000D01*
X79735165Y-85357543D01*
X79675377Y-85226627D01*
X79581128Y-85117857D01*
X79460053Y-85040047D01*
X79460051Y-85040046D01*
X79460049Y-85040045D01*
X79460050Y-85040045D01*
X79321963Y-84999500D01*
X79321961Y-84999500D01*
X79178039Y-84999500D01*
X79178036Y-84999500D01*
X79039949Y-85040045D01*
X78918873Y-85117856D01*
X78824623Y-85226626D01*
X78824622Y-85226628D01*
X78764834Y-85357543D01*
X78744353Y-85500000D01*
X66000000Y-85500000D01*
X66000000Y-84750000D01*
X109494353Y-84750000D01*
X109514834Y-84892456D01*
X109574622Y-85023371D01*
X109574623Y-85023373D01*
X109668872Y-85132143D01*
X109789947Y-85209953D01*
X109789950Y-85209954D01*
X109789949Y-85209954D01*
X109928036Y-85250499D01*
X109928038Y-85250500D01*
X109928039Y-85250500D01*
X110071962Y-85250500D01*
X110071962Y-85250499D01*
X110210053Y-85209953D01*
X110331128Y-85132143D01*
X110375650Y-85080761D01*
X147494353Y-85080761D01*
X147514834Y-85223217D01*
X147574622Y-85354132D01*
X147574623Y-85354134D01*
X147668872Y-85462904D01*
X147789947Y-85540714D01*
X147789950Y-85540715D01*
X147789949Y-85540715D01*
X147928036Y-85581260D01*
X147928038Y-85581261D01*
X147928039Y-85581261D01*
X148071962Y-85581261D01*
X148071962Y-85581260D01*
X148210053Y-85540714D01*
X148331128Y-85462904D01*
X148425377Y-85354134D01*
X148485165Y-85223218D01*
X148495692Y-85150000D01*
X151785044Y-85150000D01*
X151805525Y-85292456D01*
X151833692Y-85354132D01*
X151865314Y-85423373D01*
X151959563Y-85532143D01*
X152080638Y-85609953D01*
X152080641Y-85609954D01*
X152080640Y-85609954D01*
X152218727Y-85650499D01*
X152218729Y-85650500D01*
X152218730Y-85650500D01*
X152362653Y-85650500D01*
X152362653Y-85650499D01*
X152500744Y-85609953D01*
X152621819Y-85532143D01*
X152649671Y-85500000D01*
X159244353Y-85500000D01*
X159264834Y-85642456D01*
X159268508Y-85650500D01*
X159324623Y-85773373D01*
X159418872Y-85882143D01*
X159539947Y-85959953D01*
X159539950Y-85959954D01*
X159539949Y-85959954D01*
X159678036Y-86000499D01*
X159678038Y-86000500D01*
X159678039Y-86000500D01*
X159821962Y-86000500D01*
X159821962Y-86000499D01*
X159960053Y-85959953D01*
X160081128Y-85882143D01*
X160175377Y-85773373D01*
X160235165Y-85642457D01*
X160255647Y-85500000D01*
X161994353Y-85500000D01*
X162014834Y-85642456D01*
X162018508Y-85650500D01*
X162074623Y-85773373D01*
X162168872Y-85882143D01*
X162289947Y-85959953D01*
X162289950Y-85959954D01*
X162289949Y-85959954D01*
X162428036Y-86000499D01*
X162428038Y-86000500D01*
X162428039Y-86000500D01*
X162571962Y-86000500D01*
X162571962Y-86000499D01*
X162710053Y-85959953D01*
X162831128Y-85882143D01*
X162925377Y-85773373D01*
X162985165Y-85642457D01*
X163005647Y-85500000D01*
X162985165Y-85357543D01*
X162925377Y-85226627D01*
X162831128Y-85117857D01*
X162710053Y-85040047D01*
X162710051Y-85040046D01*
X162710049Y-85040045D01*
X162710050Y-85040045D01*
X162571963Y-84999500D01*
X162571961Y-84999500D01*
X162428039Y-84999500D01*
X162428036Y-84999500D01*
X162289949Y-85040045D01*
X162168873Y-85117856D01*
X162074623Y-85226626D01*
X162074622Y-85226628D01*
X162014834Y-85357543D01*
X161994353Y-85500000D01*
X160255647Y-85500000D01*
X160235165Y-85357543D01*
X160175377Y-85226627D01*
X160081128Y-85117857D01*
X159960053Y-85040047D01*
X159960051Y-85040046D01*
X159960049Y-85040045D01*
X159960050Y-85040045D01*
X159821963Y-84999500D01*
X159821961Y-84999500D01*
X159678039Y-84999500D01*
X159678036Y-84999500D01*
X159539949Y-85040045D01*
X159418873Y-85117856D01*
X159324623Y-85226626D01*
X159324622Y-85226628D01*
X159264834Y-85357543D01*
X159244353Y-85500000D01*
X152649671Y-85500000D01*
X152716068Y-85423373D01*
X152775856Y-85292457D01*
X152796338Y-85150000D01*
X152775856Y-85007543D01*
X152716068Y-84876627D01*
X152621819Y-84767857D01*
X152500744Y-84690047D01*
X152500742Y-84690046D01*
X152500740Y-84690045D01*
X152500741Y-84690045D01*
X152362654Y-84649500D01*
X152362652Y-84649500D01*
X152218730Y-84649500D01*
X152218727Y-84649500D01*
X152080640Y-84690045D01*
X151959564Y-84767856D01*
X151865314Y-84876626D01*
X151865313Y-84876628D01*
X151805525Y-85007543D01*
X151785044Y-85150000D01*
X148495692Y-85150000D01*
X148505647Y-85080761D01*
X148485165Y-84938304D01*
X148425377Y-84807388D01*
X148331128Y-84698618D01*
X148210053Y-84620808D01*
X148210051Y-84620807D01*
X148210049Y-84620806D01*
X148210050Y-84620806D01*
X148071963Y-84580261D01*
X148071961Y-84580261D01*
X147928039Y-84580261D01*
X147928036Y-84580261D01*
X147789949Y-84620806D01*
X147668873Y-84698617D01*
X147574623Y-84807387D01*
X147574622Y-84807389D01*
X147514834Y-84938304D01*
X147494353Y-85080761D01*
X110375650Y-85080761D01*
X110425377Y-85023373D01*
X110485165Y-84892457D01*
X110505647Y-84750000D01*
X110485165Y-84607543D01*
X110425377Y-84476627D01*
X110331128Y-84367857D01*
X110210053Y-84290047D01*
X110210051Y-84290046D01*
X110210049Y-84290045D01*
X110210050Y-84290045D01*
X110071963Y-84249500D01*
X110071961Y-84249500D01*
X109928039Y-84249500D01*
X109928036Y-84249500D01*
X109789949Y-84290045D01*
X109668873Y-84367856D01*
X109574623Y-84476626D01*
X109574622Y-84476628D01*
X109514834Y-84607543D01*
X109494353Y-84750000D01*
X66000000Y-84750000D01*
X66000000Y-82624265D01*
X93152466Y-82624265D01*
X93152466Y-82875734D01*
X93191801Y-83124090D01*
X93269508Y-83363244D01*
X93383668Y-83587293D01*
X93531463Y-83790717D01*
X93531467Y-83790722D01*
X93709277Y-83968532D01*
X93709282Y-83968536D01*
X93886720Y-84097451D01*
X93912710Y-84116334D01*
X94055474Y-84189076D01*
X94136755Y-84230491D01*
X94136757Y-84230491D01*
X94136760Y-84230493D01*
X94264949Y-84272144D01*
X94375909Y-84308198D01*
X94624266Y-84347534D01*
X94875729Y-84347534D01*
X94875734Y-84347534D01*
X95124090Y-84308198D01*
X95363240Y-84230493D01*
X95587290Y-84116334D01*
X95790724Y-83968531D01*
X95968531Y-83790724D01*
X96116334Y-83587290D01*
X96230493Y-83363240D01*
X96308198Y-83124090D01*
X96347534Y-82875729D01*
X96350000Y-82750000D01*
X96347534Y-82624271D01*
X96308198Y-82375910D01*
X96230493Y-82136760D01*
X96230491Y-82136757D01*
X96230491Y-82136755D01*
X96160810Y-82000000D01*
X96116334Y-81912710D01*
X95998119Y-81750000D01*
X95968536Y-81709282D01*
X95968532Y-81709277D01*
X95790722Y-81531467D01*
X95790717Y-81531463D01*
X95587293Y-81383668D01*
X95587292Y-81383667D01*
X95587290Y-81383666D01*
X95513451Y-81346043D01*
X95363244Y-81269508D01*
X95124090Y-81191801D01*
X94875734Y-81152466D01*
X94875729Y-81152466D01*
X94624271Y-81152466D01*
X94624266Y-81152466D01*
X94375909Y-81191801D01*
X94136755Y-81269508D01*
X93912706Y-81383668D01*
X93709282Y-81531463D01*
X93709277Y-81531467D01*
X93531467Y-81709277D01*
X93531463Y-81709282D01*
X93383668Y-81912706D01*
X93269508Y-82136755D01*
X93191801Y-82375909D01*
X93152466Y-82624265D01*
X66000000Y-82624265D01*
X66000000Y-80880247D01*
X145789500Y-80880247D01*
X145789500Y-82619752D01*
X145801131Y-82678229D01*
X145801132Y-82678230D01*
X145845447Y-82744552D01*
X145911769Y-82788867D01*
X145911770Y-82788868D01*
X145970247Y-82800499D01*
X145970250Y-82800500D01*
X145970252Y-82800500D01*
X147709750Y-82800500D01*
X147709751Y-82800499D01*
X147724568Y-82797552D01*
X147768229Y-82788868D01*
X147768229Y-82788867D01*
X147768231Y-82788867D01*
X147834552Y-82744552D01*
X147878867Y-82678231D01*
X147878867Y-82678229D01*
X147878868Y-82678229D01*
X147889600Y-82624271D01*
X147890500Y-82619748D01*
X147890500Y-81750000D01*
X148324417Y-81750000D01*
X148344699Y-81955932D01*
X148344700Y-81955934D01*
X148404768Y-82153954D01*
X148502315Y-82336450D01*
X148502317Y-82336452D01*
X148633589Y-82496410D01*
X148730209Y-82575702D01*
X148793550Y-82627685D01*
X148976046Y-82725232D01*
X149174066Y-82785300D01*
X149174065Y-82785300D01*
X149192529Y-82787118D01*
X149380000Y-82805583D01*
X149585934Y-82785300D01*
X149783954Y-82725232D01*
X149966450Y-82627685D01*
X150126410Y-82496410D01*
X150257685Y-82336450D01*
X150355232Y-82153954D01*
X150415300Y-81955934D01*
X150435583Y-81750000D01*
X150864417Y-81750000D01*
X150884699Y-81955932D01*
X150884700Y-81955934D01*
X150944768Y-82153954D01*
X151042315Y-82336450D01*
X151042317Y-82336452D01*
X151173589Y-82496410D01*
X151270209Y-82575702D01*
X151333550Y-82627685D01*
X151516046Y-82725232D01*
X151714066Y-82785300D01*
X151714065Y-82785300D01*
X151732529Y-82787118D01*
X151920000Y-82805583D01*
X152125934Y-82785300D01*
X152323954Y-82725232D01*
X152506450Y-82627685D01*
X152666410Y-82496410D01*
X152797685Y-82336450D01*
X152895232Y-82153954D01*
X152955300Y-81955934D01*
X152975583Y-81750000D01*
X153404417Y-81750000D01*
X153424699Y-81955932D01*
X153424700Y-81955934D01*
X153484768Y-82153954D01*
X153582315Y-82336450D01*
X153582317Y-82336452D01*
X153713589Y-82496410D01*
X153810209Y-82575702D01*
X153873550Y-82627685D01*
X154056046Y-82725232D01*
X154254066Y-82785300D01*
X154254065Y-82785300D01*
X154272529Y-82787118D01*
X154460000Y-82805583D01*
X154665934Y-82785300D01*
X154863954Y-82725232D01*
X155046450Y-82627685D01*
X155206410Y-82496410D01*
X155337685Y-82336450D01*
X155435232Y-82153954D01*
X155455406Y-82087446D01*
X155493702Y-82029010D01*
X155557514Y-82000553D01*
X155626581Y-82011112D01*
X155678975Y-82057336D01*
X155693841Y-82091349D01*
X155726567Y-82213486D01*
X155726570Y-82213492D01*
X155826399Y-82427578D01*
X155961894Y-82621082D01*
X156128917Y-82788105D01*
X156322421Y-82923600D01*
X156536507Y-83023429D01*
X156536516Y-83023433D01*
X156750000Y-83080634D01*
X156750000Y-82183012D01*
X156807007Y-82215925D01*
X156934174Y-82250000D01*
X157065826Y-82250000D01*
X157192993Y-82215925D01*
X157250000Y-82183012D01*
X157250000Y-83080633D01*
X157463483Y-83023433D01*
X157463492Y-83023429D01*
X157677578Y-82923600D01*
X157871082Y-82788105D01*
X158038105Y-82621082D01*
X158173600Y-82427578D01*
X158273429Y-82213492D01*
X158273432Y-82213486D01*
X158330636Y-82000000D01*
X157433012Y-82000000D01*
X157465925Y-81942993D01*
X157500000Y-81815826D01*
X157500000Y-81684174D01*
X157465925Y-81557007D01*
X157433012Y-81500000D01*
X158330636Y-81500000D01*
X158330635Y-81499999D01*
X159419364Y-81499999D01*
X159419364Y-81500000D01*
X160316988Y-81500000D01*
X160284075Y-81557007D01*
X160250000Y-81684174D01*
X160250000Y-81815826D01*
X160284075Y-81942993D01*
X160316988Y-82000000D01*
X159419364Y-82000000D01*
X159476567Y-82213486D01*
X159476570Y-82213492D01*
X159576399Y-82427578D01*
X159711894Y-82621082D01*
X159878917Y-82788105D01*
X160072421Y-82923600D01*
X160286507Y-83023429D01*
X160286516Y-83023433D01*
X160500000Y-83080634D01*
X160500000Y-82183012D01*
X160557007Y-82215925D01*
X160684174Y-82250000D01*
X160815826Y-82250000D01*
X160942993Y-82215925D01*
X161000000Y-82183012D01*
X161000000Y-83080633D01*
X161213483Y-83023433D01*
X161213492Y-83023429D01*
X161427578Y-82923600D01*
X161621082Y-82788105D01*
X161788105Y-82621082D01*
X161923599Y-82427578D01*
X162003118Y-82257051D01*
X162049290Y-82204612D01*
X162116484Y-82185460D01*
X162183365Y-82205676D01*
X162228699Y-82258841D01*
X162239500Y-82309456D01*
X162239500Y-82619752D01*
X162251131Y-82678229D01*
X162251132Y-82678230D01*
X162295447Y-82744552D01*
X162361769Y-82788867D01*
X162361770Y-82788868D01*
X162420247Y-82800499D01*
X162420250Y-82800500D01*
X162420252Y-82800500D01*
X164159750Y-82800500D01*
X164159751Y-82800499D01*
X164174568Y-82797552D01*
X164218229Y-82788868D01*
X164218229Y-82788867D01*
X164218231Y-82788867D01*
X164284552Y-82744552D01*
X164328867Y-82678231D01*
X164328867Y-82678229D01*
X164328868Y-82678229D01*
X164339600Y-82624271D01*
X164339601Y-82624265D01*
X177652466Y-82624265D01*
X177652466Y-82875734D01*
X177691801Y-83124090D01*
X177769508Y-83363244D01*
X177883668Y-83587293D01*
X178031463Y-83790717D01*
X178031467Y-83790722D01*
X178209277Y-83968532D01*
X178209282Y-83968536D01*
X178386720Y-84097451D01*
X178412710Y-84116334D01*
X178555474Y-84189076D01*
X178636755Y-84230491D01*
X178636757Y-84230491D01*
X178636760Y-84230493D01*
X178764949Y-84272144D01*
X178875909Y-84308198D01*
X179124266Y-84347534D01*
X179375729Y-84347534D01*
X179375734Y-84347534D01*
X179624090Y-84308198D01*
X179863240Y-84230493D01*
X180087290Y-84116334D01*
X180290724Y-83968531D01*
X180468531Y-83790724D01*
X180616334Y-83587290D01*
X180730493Y-83363240D01*
X180808198Y-83124090D01*
X180847534Y-82875729D01*
X180850000Y-82750000D01*
X180847534Y-82624271D01*
X180808198Y-82375910D01*
X180730493Y-82136760D01*
X180730491Y-82136757D01*
X180730491Y-82136755D01*
X180660810Y-82000000D01*
X180616334Y-81912710D01*
X180498119Y-81750000D01*
X180468536Y-81709282D01*
X180468532Y-81709277D01*
X180290722Y-81531467D01*
X180290717Y-81531463D01*
X180087293Y-81383668D01*
X180087292Y-81383667D01*
X180087290Y-81383666D01*
X180013451Y-81346043D01*
X179863244Y-81269508D01*
X179624090Y-81191801D01*
X179375734Y-81152466D01*
X179375729Y-81152466D01*
X179124271Y-81152466D01*
X179124266Y-81152466D01*
X178875909Y-81191801D01*
X178636755Y-81269508D01*
X178412706Y-81383668D01*
X178209282Y-81531463D01*
X178209277Y-81531467D01*
X178031467Y-81709277D01*
X178031463Y-81709282D01*
X177883668Y-81912706D01*
X177769508Y-82136755D01*
X177691801Y-82375909D01*
X177652466Y-82624265D01*
X164339601Y-82624265D01*
X164340500Y-82619748D01*
X164340500Y-80880252D01*
X164340500Y-80880249D01*
X164340499Y-80880247D01*
X164328868Y-80821770D01*
X164328867Y-80821769D01*
X164284552Y-80755447D01*
X164218230Y-80711132D01*
X164218229Y-80711131D01*
X164159752Y-80699500D01*
X164159748Y-80699500D01*
X162420252Y-80699500D01*
X162420247Y-80699500D01*
X162361770Y-80711131D01*
X162361769Y-80711132D01*
X162295447Y-80755447D01*
X162251132Y-80821769D01*
X162251131Y-80821770D01*
X162239500Y-80880247D01*
X162239500Y-81190543D01*
X162219815Y-81257582D01*
X162167011Y-81303337D01*
X162097853Y-81313281D01*
X162034297Y-81284256D01*
X162003118Y-81242948D01*
X161923600Y-81072422D01*
X161923599Y-81072420D01*
X161788113Y-80878926D01*
X161788108Y-80878920D01*
X161621082Y-80711894D01*
X161427578Y-80576399D01*
X161213492Y-80476570D01*
X161213486Y-80476567D01*
X161000000Y-80419364D01*
X161000000Y-81316988D01*
X160942993Y-81284075D01*
X160815826Y-81250000D01*
X160684174Y-81250000D01*
X160557007Y-81284075D01*
X160500000Y-81316988D01*
X160500000Y-80419364D01*
X160499999Y-80419364D01*
X160286513Y-80476567D01*
X160286507Y-80476570D01*
X160072422Y-80576399D01*
X160072420Y-80576400D01*
X159878926Y-80711886D01*
X159878920Y-80711891D01*
X159711891Y-80878920D01*
X159711886Y-80878926D01*
X159576400Y-81072420D01*
X159576399Y-81072422D01*
X159476570Y-81286507D01*
X159476567Y-81286513D01*
X159419364Y-81499999D01*
X158330635Y-81499999D01*
X158273432Y-81286513D01*
X158273429Y-81286507D01*
X158173600Y-81072422D01*
X158173599Y-81072420D01*
X158038113Y-80878926D01*
X158038108Y-80878920D01*
X157871082Y-80711894D01*
X157677578Y-80576399D01*
X157463492Y-80476570D01*
X157463486Y-80476567D01*
X157250000Y-80419364D01*
X157250000Y-81316988D01*
X157192993Y-81284075D01*
X157065826Y-81250000D01*
X156934174Y-81250000D01*
X156807007Y-81284075D01*
X156750000Y-81316988D01*
X156750000Y-80419364D01*
X156749999Y-80419364D01*
X156536513Y-80476567D01*
X156536507Y-80476570D01*
X156322422Y-80576399D01*
X156322420Y-80576400D01*
X156128926Y-80711886D01*
X156128920Y-80711891D01*
X155961891Y-80878920D01*
X155961886Y-80878926D01*
X155826400Y-81072420D01*
X155826399Y-81072422D01*
X155726570Y-81286507D01*
X155726567Y-81286514D01*
X155693841Y-81408650D01*
X155657476Y-81468310D01*
X155594629Y-81498839D01*
X155525253Y-81490544D01*
X155471375Y-81446059D01*
X155455406Y-81412553D01*
X155435232Y-81346046D01*
X155337685Y-81163550D01*
X155262897Y-81072420D01*
X155206410Y-81003589D01*
X155056121Y-80880252D01*
X155046450Y-80872315D01*
X154863954Y-80774768D01*
X154665934Y-80714700D01*
X154665932Y-80714699D01*
X154665934Y-80714699D01*
X154460000Y-80694417D01*
X154254067Y-80714699D01*
X154056043Y-80774769D01*
X153968114Y-80821769D01*
X153873550Y-80872315D01*
X153873548Y-80872316D01*
X153873547Y-80872317D01*
X153713589Y-81003589D01*
X153591411Y-81152466D01*
X153582315Y-81163550D01*
X153543643Y-81235898D01*
X153484769Y-81346043D01*
X153424699Y-81544067D01*
X153404417Y-81750000D01*
X152975583Y-81750000D01*
X152955300Y-81544066D01*
X152895232Y-81346046D01*
X152797685Y-81163550D01*
X152722897Y-81072420D01*
X152666410Y-81003589D01*
X152516121Y-80880252D01*
X152506450Y-80872315D01*
X152323954Y-80774768D01*
X152125934Y-80714700D01*
X152125932Y-80714699D01*
X152125934Y-80714699D01*
X151920000Y-80694417D01*
X151714067Y-80714699D01*
X151516043Y-80774769D01*
X151428114Y-80821769D01*
X151333550Y-80872315D01*
X151333548Y-80872316D01*
X151333547Y-80872317D01*
X151173589Y-81003589D01*
X151051411Y-81152466D01*
X151042315Y-81163550D01*
X151003643Y-81235898D01*
X150944769Y-81346043D01*
X150884699Y-81544067D01*
X150864417Y-81750000D01*
X150435583Y-81750000D01*
X150415300Y-81544066D01*
X150355232Y-81346046D01*
X150257685Y-81163550D01*
X150182897Y-81072420D01*
X150126410Y-81003589D01*
X149976121Y-80880252D01*
X149966450Y-80872315D01*
X149783954Y-80774768D01*
X149585934Y-80714700D01*
X149585932Y-80714699D01*
X149585934Y-80714699D01*
X149380000Y-80694417D01*
X149174067Y-80714699D01*
X148976043Y-80774769D01*
X148888114Y-80821769D01*
X148793550Y-80872315D01*
X148793548Y-80872316D01*
X148793547Y-80872317D01*
X148633589Y-81003589D01*
X148511411Y-81152466D01*
X148502315Y-81163550D01*
X148463643Y-81235898D01*
X148404769Y-81346043D01*
X148344699Y-81544067D01*
X148324417Y-81750000D01*
X147890500Y-81750000D01*
X147890500Y-80880252D01*
X147890500Y-80880249D01*
X147890499Y-80880247D01*
X147878868Y-80821770D01*
X147878867Y-80821769D01*
X147834552Y-80755447D01*
X147768230Y-80711132D01*
X147768229Y-80711131D01*
X147709752Y-80699500D01*
X147709748Y-80699500D01*
X145970252Y-80699500D01*
X145970247Y-80699500D01*
X145911770Y-80711131D01*
X145911769Y-80711132D01*
X145845447Y-80755447D01*
X145801132Y-80821769D01*
X145801131Y-80821770D01*
X145789500Y-80880247D01*
X66000000Y-80880247D01*
X66000000Y-70709999D01*
X83085202Y-70709999D01*
X83085202Y-70710000D01*
X83104353Y-70916676D01*
X83161158Y-71116327D01*
X83253673Y-71302123D01*
X83253681Y-71302136D01*
X83258254Y-71308191D01*
X83792356Y-70774089D01*
X83818622Y-70872114D01*
X83873916Y-70967886D01*
X83952114Y-71046084D01*
X84047886Y-71101378D01*
X84145909Y-71127642D01*
X83614785Y-71658767D01*
X83614785Y-71658768D01*
X83708625Y-71716872D01*
X83708634Y-71716877D01*
X83902186Y-71791859D01*
X84106219Y-71830000D01*
X84313781Y-71830000D01*
X84514125Y-71792549D01*
X84583640Y-71799580D01*
X84638319Y-71843078D01*
X84660801Y-71909231D01*
X84660130Y-71928321D01*
X84654308Y-71979995D01*
X84654308Y-71980004D01*
X84660130Y-72031678D01*
X84648075Y-72100500D01*
X84600726Y-72151879D01*
X84533116Y-72169503D01*
X84514126Y-72167450D01*
X84313782Y-72130000D01*
X84106219Y-72130000D01*
X83902186Y-72168140D01*
X83902185Y-72168140D01*
X83708634Y-72243121D01*
X83708633Y-72243122D01*
X83614784Y-72301231D01*
X84145909Y-72832356D01*
X84047886Y-72858622D01*
X83952114Y-72913916D01*
X83873916Y-72992114D01*
X83818622Y-73087886D01*
X83792356Y-73185909D01*
X83258254Y-72651807D01*
X83258253Y-72651808D01*
X83253679Y-72657866D01*
X83253675Y-72657872D01*
X83161158Y-72843672D01*
X83104353Y-73043323D01*
X83085202Y-73249999D01*
X83085202Y-73250000D01*
X83104353Y-73456676D01*
X83161158Y-73656327D01*
X83253673Y-73842123D01*
X83253681Y-73842136D01*
X83258254Y-73848191D01*
X83792356Y-73314089D01*
X83818622Y-73412114D01*
X83873916Y-73507886D01*
X83952114Y-73586084D01*
X84047886Y-73641378D01*
X84145909Y-73667643D01*
X83614785Y-74198767D01*
X83614785Y-74198768D01*
X83708625Y-74256872D01*
X83708634Y-74256877D01*
X83902186Y-74331859D01*
X84106219Y-74370000D01*
X84313781Y-74370000D01*
X84517813Y-74331859D01*
X84517814Y-74331859D01*
X84711370Y-74256875D01*
X84805214Y-74198768D01*
X84805214Y-74198767D01*
X84274090Y-73667642D01*
X84372114Y-73641378D01*
X84467886Y-73586084D01*
X84546084Y-73507886D01*
X84601378Y-73412114D01*
X84627643Y-73314089D01*
X85161744Y-73848190D01*
X85161745Y-73848190D01*
X85166324Y-73842127D01*
X85166326Y-73842124D01*
X85258840Y-73656330D01*
X85258841Y-73656329D01*
X85315646Y-73456676D01*
X85334798Y-73250000D01*
X85334798Y-73249999D01*
X85315646Y-73043319D01*
X85315645Y-73043316D01*
X85290958Y-72956548D01*
X85291545Y-72886681D01*
X85329812Y-72828222D01*
X85393609Y-72799732D01*
X85424104Y-72799394D01*
X85470511Y-72804622D01*
X85479999Y-72805692D01*
X85480000Y-72805692D01*
X85480001Y-72805692D01*
X85488111Y-72804778D01*
X85535892Y-72799394D01*
X85604712Y-72811448D01*
X85656092Y-72858796D01*
X85673717Y-72926406D01*
X85669042Y-72956547D01*
X85644353Y-73043321D01*
X85625202Y-73249999D01*
X85625202Y-73250000D01*
X85644353Y-73456676D01*
X85701158Y-73656327D01*
X85793673Y-73842123D01*
X85793681Y-73842136D01*
X85798254Y-73848191D01*
X86332356Y-73314089D01*
X86358622Y-73412114D01*
X86413916Y-73507886D01*
X86492114Y-73586084D01*
X86587886Y-73641378D01*
X86685909Y-73667643D01*
X86154785Y-74198767D01*
X86154785Y-74198768D01*
X86248625Y-74256872D01*
X86248634Y-74256877D01*
X86442186Y-74331859D01*
X86646219Y-74370000D01*
X86853781Y-74370000D01*
X87057813Y-74331859D01*
X87057814Y-74331859D01*
X87251370Y-74256875D01*
X87345214Y-74198768D01*
X87345214Y-74198767D01*
X86814090Y-73667642D01*
X86912114Y-73641378D01*
X87007886Y-73586084D01*
X87086084Y-73507886D01*
X87141378Y-73412114D01*
X87167643Y-73314090D01*
X87701744Y-73848190D01*
X87701745Y-73848190D01*
X87706324Y-73842127D01*
X87706326Y-73842124D01*
X87798840Y-73656330D01*
X87798841Y-73656329D01*
X87855646Y-73456676D01*
X87874798Y-73250000D01*
X87874798Y-73249999D01*
X87855646Y-73043323D01*
X87798841Y-72843670D01*
X87798840Y-72843669D01*
X87706328Y-72657879D01*
X87706324Y-72657873D01*
X87701744Y-72651808D01*
X87167643Y-73185909D01*
X87141378Y-73087886D01*
X87086084Y-72992114D01*
X87007886Y-72913916D01*
X86912114Y-72858622D01*
X86814089Y-72832356D01*
X87345214Y-72301231D01*
X87345213Y-72301229D01*
X87251374Y-72243126D01*
X87057813Y-72168140D01*
X86853781Y-72130000D01*
X86646218Y-72130000D01*
X86445873Y-72167450D01*
X86376358Y-72160419D01*
X86321680Y-72116921D01*
X86299198Y-72050767D01*
X86299869Y-72031676D01*
X86305692Y-71980000D01*
X86305692Y-71979998D01*
X86299869Y-71928323D01*
X86311923Y-71859501D01*
X86359271Y-71808121D01*
X86426882Y-71790496D01*
X86445874Y-71792549D01*
X86646219Y-71830000D01*
X86853781Y-71830000D01*
X87057813Y-71791859D01*
X87057814Y-71791859D01*
X87251370Y-71716875D01*
X87345214Y-71658768D01*
X87345214Y-71658767D01*
X86814090Y-71127643D01*
X86912114Y-71101378D01*
X87007886Y-71046084D01*
X87086084Y-70967886D01*
X87141378Y-70872114D01*
X87167643Y-70774090D01*
X87701744Y-71308190D01*
X87701745Y-71308190D01*
X87706324Y-71302127D01*
X87706326Y-71302124D01*
X87798840Y-71116330D01*
X87798841Y-71116329D01*
X87855646Y-70916676D01*
X87874798Y-70710000D01*
X87874798Y-70709999D01*
X87855646Y-70503323D01*
X87798841Y-70303670D01*
X87798840Y-70303669D01*
X87706328Y-70117879D01*
X87706324Y-70117873D01*
X87701744Y-70111808D01*
X87167643Y-70645909D01*
X87141378Y-70547886D01*
X87086084Y-70452114D01*
X87007886Y-70373916D01*
X86912114Y-70318622D01*
X86814089Y-70292356D01*
X87345214Y-69761231D01*
X87345213Y-69761229D01*
X87251374Y-69703126D01*
X87057813Y-69628140D01*
X86853781Y-69590000D01*
X86646219Y-69590000D01*
X86442186Y-69628140D01*
X86442185Y-69628140D01*
X86248634Y-69703121D01*
X86248633Y-69703122D01*
X86154784Y-69761231D01*
X86685910Y-70292356D01*
X86587886Y-70318622D01*
X86492114Y-70373916D01*
X86413916Y-70452114D01*
X86358622Y-70547886D01*
X86332356Y-70645909D01*
X85798254Y-70111807D01*
X85798253Y-70111808D01*
X85793679Y-70117866D01*
X85793675Y-70117872D01*
X85701158Y-70303672D01*
X85644353Y-70503323D01*
X85625202Y-70709999D01*
X85625202Y-70710000D01*
X85644353Y-70916678D01*
X85669042Y-71003452D01*
X85668454Y-71073319D01*
X85630187Y-71131778D01*
X85566389Y-71160267D01*
X85535892Y-71160605D01*
X85480004Y-71154308D01*
X85479996Y-71154308D01*
X85424106Y-71160605D01*
X85355284Y-71148550D01*
X85303905Y-71101201D01*
X85286281Y-71033591D01*
X85290957Y-71003450D01*
X85315646Y-70916679D01*
X85334798Y-70710000D01*
X85334798Y-70709999D01*
X85315646Y-70503323D01*
X85258841Y-70303670D01*
X85258840Y-70303669D01*
X85166328Y-70117879D01*
X85166324Y-70117873D01*
X85161744Y-70111808D01*
X84627642Y-70645909D01*
X84601378Y-70547886D01*
X84546084Y-70452114D01*
X84467886Y-70373916D01*
X84372114Y-70318622D01*
X84274089Y-70292356D01*
X84805214Y-69761231D01*
X84805213Y-69761229D01*
X84711374Y-69703126D01*
X84517813Y-69628140D01*
X84313781Y-69590000D01*
X84106219Y-69590000D01*
X83902186Y-69628140D01*
X83902185Y-69628140D01*
X83708634Y-69703121D01*
X83708633Y-69703122D01*
X83614784Y-69761231D01*
X84145910Y-70292356D01*
X84047886Y-70318622D01*
X83952114Y-70373916D01*
X83873916Y-70452114D01*
X83818622Y-70547886D01*
X83792356Y-70645909D01*
X83258254Y-70111807D01*
X83258253Y-70111808D01*
X83253679Y-70117866D01*
X83253675Y-70117872D01*
X83161158Y-70303672D01*
X83104353Y-70503323D01*
X83085202Y-70709999D01*
X66000000Y-70709999D01*
X66000000Y-67310883D01*
X76883035Y-67310883D01*
X76903516Y-67453339D01*
X76963304Y-67584254D01*
X76963305Y-67584256D01*
X77057554Y-67693026D01*
X77178629Y-67770836D01*
X77178632Y-67770837D01*
X77178631Y-67770837D01*
X77316718Y-67811382D01*
X77316720Y-67811383D01*
X77316721Y-67811383D01*
X77460644Y-67811383D01*
X77460644Y-67811382D01*
X77598735Y-67770836D01*
X77719810Y-67693026D01*
X77814059Y-67584256D01*
X77873847Y-67453340D01*
X77894329Y-67310883D01*
X77873847Y-67168426D01*
X77814059Y-67037510D01*
X77719810Y-66928740D01*
X77719807Y-66928738D01*
X77707028Y-66920525D01*
X77689243Y-66900000D01*
X80494353Y-66900000D01*
X80514834Y-67042456D01*
X80572364Y-67168426D01*
X80574623Y-67173373D01*
X80668872Y-67282143D01*
X80789947Y-67359953D01*
X80789950Y-67359954D01*
X80789949Y-67359954D01*
X80928036Y-67400499D01*
X80928038Y-67400500D01*
X80928039Y-67400500D01*
X81071962Y-67400500D01*
X81071962Y-67400499D01*
X81210053Y-67359953D01*
X81331128Y-67282143D01*
X81425377Y-67173373D01*
X81485165Y-67042457D01*
X81505647Y-66900000D01*
X81485165Y-66757543D01*
X81425377Y-66626627D01*
X81331128Y-66517857D01*
X81210053Y-66440047D01*
X81210051Y-66440046D01*
X81210049Y-66440045D01*
X81210050Y-66440045D01*
X81071963Y-66399500D01*
X81071961Y-66399500D01*
X80928039Y-66399500D01*
X80928036Y-66399500D01*
X80789949Y-66440045D01*
X80668873Y-66517856D01*
X80574623Y-66626626D01*
X80574622Y-66626628D01*
X80514834Y-66757543D01*
X80494353Y-66900000D01*
X77689243Y-66900000D01*
X77661273Y-66867720D01*
X77651330Y-66798562D01*
X77680356Y-66735006D01*
X77707029Y-66711894D01*
X77710048Y-66709953D01*
X77710053Y-66709952D01*
X77831128Y-66632142D01*
X77925377Y-66523372D01*
X77985165Y-66392456D01*
X78005647Y-66249999D01*
X77985165Y-66107542D01*
X77925377Y-65976626D01*
X77831128Y-65867856D01*
X77710053Y-65790046D01*
X77710051Y-65790045D01*
X77710049Y-65790044D01*
X77710050Y-65790044D01*
X77571963Y-65749499D01*
X77571961Y-65749499D01*
X77428039Y-65749499D01*
X77428036Y-65749499D01*
X77289949Y-65790044D01*
X77168873Y-65867855D01*
X77074623Y-65976625D01*
X77074622Y-65976627D01*
X77014834Y-66107542D01*
X76994353Y-66249999D01*
X77014834Y-66392455D01*
X77036568Y-66440045D01*
X77074623Y-66523372D01*
X77168872Y-66632142D01*
X77181652Y-66640355D01*
X77227407Y-66693159D01*
X77237351Y-66762318D01*
X77208326Y-66825873D01*
X77181653Y-66848986D01*
X77057556Y-66928738D01*
X76963305Y-67037509D01*
X76963304Y-67037511D01*
X76903516Y-67168426D01*
X76883035Y-67310883D01*
X66000000Y-67310883D01*
X66000000Y-65750000D01*
X73744353Y-65750000D01*
X73764834Y-65892456D01*
X73814177Y-66000499D01*
X73824623Y-66023373D01*
X73918872Y-66132143D01*
X74039947Y-66209953D01*
X74039950Y-66209954D01*
X74039949Y-66209954D01*
X74178036Y-66250499D01*
X74178038Y-66250500D01*
X74178039Y-66250500D01*
X74321962Y-66250500D01*
X74321962Y-66250499D01*
X74460053Y-66209953D01*
X74581128Y-66132143D01*
X74675377Y-66023373D01*
X74735165Y-65892457D01*
X74755647Y-65750000D01*
X74735165Y-65607543D01*
X74686051Y-65500000D01*
X85575113Y-65500000D01*
X85595594Y-65642456D01*
X85644480Y-65749499D01*
X85655383Y-65773373D01*
X85749632Y-65882143D01*
X85870707Y-65959953D01*
X85870710Y-65959954D01*
X85870709Y-65959954D01*
X86008796Y-66000499D01*
X86008798Y-66000500D01*
X86008799Y-66000500D01*
X86152722Y-66000500D01*
X86152722Y-66000499D01*
X86290813Y-65959953D01*
X86411888Y-65882143D01*
X86506137Y-65773373D01*
X86565925Y-65642457D01*
X86586407Y-65500000D01*
X86565925Y-65357543D01*
X86506137Y-65226627D01*
X86411888Y-65117857D01*
X86290813Y-65040047D01*
X86290811Y-65040046D01*
X86290809Y-65040045D01*
X86290810Y-65040045D01*
X86152723Y-64999500D01*
X86152721Y-64999500D01*
X86008799Y-64999500D01*
X86008796Y-64999500D01*
X85870709Y-65040045D01*
X85749633Y-65117856D01*
X85655383Y-65226626D01*
X85655382Y-65226628D01*
X85595594Y-65357543D01*
X85575113Y-65500000D01*
X74686051Y-65500000D01*
X74675377Y-65476627D01*
X74581128Y-65367857D01*
X74460053Y-65290047D01*
X74460051Y-65290046D01*
X74460049Y-65290045D01*
X74460050Y-65290045D01*
X74321963Y-65249500D01*
X74321961Y-65249500D01*
X74178039Y-65249500D01*
X74178036Y-65249500D01*
X74039949Y-65290045D01*
X73918873Y-65367856D01*
X73824623Y-65476626D01*
X73824622Y-65476628D01*
X73764834Y-65607543D01*
X73744353Y-65750000D01*
X66000000Y-65750000D01*
X66000000Y-64750005D01*
X83494358Y-64750005D01*
X83514839Y-64892461D01*
X83563723Y-64999500D01*
X83574628Y-65023378D01*
X83668877Y-65132148D01*
X83789952Y-65209958D01*
X83789955Y-65209959D01*
X83789954Y-65209959D01*
X83846725Y-65226628D01*
X83924621Y-65249500D01*
X83928041Y-65250504D01*
X83928043Y-65250505D01*
X83928044Y-65250505D01*
X84071967Y-65250505D01*
X84071967Y-65250504D01*
X84210058Y-65209958D01*
X84331133Y-65132148D01*
X84425382Y-65023378D01*
X84485170Y-64892462D01*
X84505652Y-64750005D01*
X84485170Y-64607548D01*
X84425382Y-64476632D01*
X84331133Y-64367862D01*
X84210058Y-64290052D01*
X84210056Y-64290051D01*
X84210054Y-64290050D01*
X84210055Y-64290050D01*
X84071968Y-64249505D01*
X84071966Y-64249505D01*
X83928044Y-64249505D01*
X83928041Y-64249505D01*
X83789954Y-64290050D01*
X83668878Y-64367861D01*
X83574628Y-64476631D01*
X83574627Y-64476633D01*
X83514839Y-64607548D01*
X83494358Y-64750005D01*
X66000000Y-64750005D01*
X66000000Y-60624265D01*
X67152466Y-60624265D01*
X67152466Y-60875734D01*
X67191801Y-61124090D01*
X67269508Y-61363244D01*
X67383668Y-61587293D01*
X67531463Y-61790717D01*
X67531467Y-61790722D01*
X67709277Y-61968532D01*
X67709282Y-61968536D01*
X67886720Y-62097451D01*
X67912710Y-62116334D01*
X68055474Y-62189076D01*
X68136755Y-62230491D01*
X68136757Y-62230491D01*
X68136760Y-62230493D01*
X68264949Y-62272144D01*
X68375909Y-62308198D01*
X68624266Y-62347534D01*
X68875729Y-62347534D01*
X68875734Y-62347534D01*
X69124090Y-62308198D01*
X69363240Y-62230493D01*
X69587290Y-62116334D01*
X69790724Y-61968531D01*
X69968531Y-61790724D01*
X70116334Y-61587290D01*
X70230493Y-61363240D01*
X70308198Y-61124090D01*
X70347534Y-60875729D01*
X70350000Y-60750000D01*
X70347534Y-60624271D01*
X70308198Y-60375910D01*
X70230493Y-60136760D01*
X70230491Y-60136757D01*
X70230491Y-60136755D01*
X70160810Y-60000000D01*
X70116334Y-59912710D01*
X69998118Y-59749999D01*
X77339364Y-59749999D01*
X77339364Y-59750000D01*
X78236988Y-59750000D01*
X78204075Y-59807007D01*
X78170000Y-59934174D01*
X78170000Y-60065826D01*
X78204075Y-60192993D01*
X78236988Y-60250000D01*
X77339364Y-60250000D01*
X77396567Y-60463486D01*
X77396570Y-60463492D01*
X77496399Y-60677578D01*
X77631894Y-60871082D01*
X77798917Y-61038105D01*
X77992421Y-61173600D01*
X78206507Y-61273429D01*
X78206516Y-61273433D01*
X78420000Y-61330634D01*
X78420000Y-60433012D01*
X78477007Y-60465925D01*
X78604174Y-60500000D01*
X78735826Y-60500000D01*
X78862993Y-60465925D01*
X78920000Y-60433012D01*
X78920000Y-61330633D01*
X79133483Y-61273433D01*
X79133492Y-61273429D01*
X79347578Y-61173600D01*
X79541082Y-61038105D01*
X79708105Y-60871082D01*
X79843600Y-60677578D01*
X79943429Y-60463492D01*
X79943433Y-60463483D01*
X79976158Y-60341350D01*
X80012522Y-60281690D01*
X80075369Y-60251160D01*
X80144745Y-60259454D01*
X80198623Y-60303939D01*
X80214593Y-60337447D01*
X80234768Y-60403954D01*
X80332315Y-60586450D01*
X80332317Y-60586452D01*
X80463589Y-60746410D01*
X80560209Y-60825702D01*
X80623550Y-60877685D01*
X80806046Y-60975232D01*
X81004066Y-61035300D01*
X81004065Y-61035300D01*
X81022529Y-61037118D01*
X81210000Y-61055583D01*
X81415934Y-61035300D01*
X81613954Y-60975232D01*
X81796450Y-60877685D01*
X81956410Y-60746410D01*
X82087685Y-60586450D01*
X82185232Y-60403954D01*
X82245300Y-60205934D01*
X82265583Y-60000000D01*
X82245300Y-59794066D01*
X82185232Y-59596046D01*
X82087685Y-59413550D01*
X82012897Y-59322420D01*
X81956410Y-59253589D01*
X81806121Y-59130252D01*
X81806115Y-59130247D01*
X82699500Y-59130247D01*
X82699500Y-60869752D01*
X82711131Y-60928229D01*
X82711132Y-60928230D01*
X82755447Y-60994552D01*
X82821769Y-61038867D01*
X82821770Y-61038868D01*
X82880247Y-61050499D01*
X82880250Y-61050500D01*
X82880252Y-61050500D01*
X84619750Y-61050500D01*
X84619751Y-61050499D01*
X84634568Y-61047552D01*
X84678229Y-61038868D01*
X84678229Y-61038867D01*
X84678231Y-61038867D01*
X84744552Y-60994552D01*
X84788867Y-60928231D01*
X84788867Y-60928229D01*
X84788868Y-60928229D01*
X84799310Y-60875729D01*
X84800500Y-60869748D01*
X84800500Y-60624265D01*
X87652466Y-60624265D01*
X87652466Y-60875734D01*
X87691801Y-61124090D01*
X87769508Y-61363244D01*
X87883668Y-61587293D01*
X88031463Y-61790717D01*
X88031467Y-61790722D01*
X88209277Y-61968532D01*
X88209282Y-61968536D01*
X88386720Y-62097451D01*
X88412710Y-62116334D01*
X88555474Y-62189076D01*
X88636755Y-62230491D01*
X88636757Y-62230491D01*
X88636760Y-62230493D01*
X88764949Y-62272144D01*
X88875909Y-62308198D01*
X89124266Y-62347534D01*
X89375729Y-62347534D01*
X89375734Y-62347534D01*
X89624090Y-62308198D01*
X89863240Y-62230493D01*
X90087290Y-62116334D01*
X90290724Y-61968531D01*
X90468531Y-61790724D01*
X90616334Y-61587290D01*
X90730493Y-61363240D01*
X90808198Y-61124090D01*
X90847534Y-60875729D01*
X90850000Y-60750000D01*
X90847534Y-60624271D01*
X90808198Y-60375910D01*
X90730493Y-60136760D01*
X90730491Y-60136757D01*
X90730491Y-60136755D01*
X90660810Y-60000000D01*
X90616334Y-59912710D01*
X90477042Y-59720990D01*
X90468536Y-59709282D01*
X90468532Y-59709277D01*
X90290722Y-59531467D01*
X90290717Y-59531463D01*
X90087293Y-59383668D01*
X90087292Y-59383667D01*
X90087290Y-59383666D01*
X89967088Y-59322420D01*
X89863244Y-59269508D01*
X89624090Y-59191801D01*
X89375734Y-59152466D01*
X89375729Y-59152466D01*
X89124271Y-59152466D01*
X89124266Y-59152466D01*
X88875909Y-59191801D01*
X88636755Y-59269508D01*
X88412706Y-59383668D01*
X88209282Y-59531463D01*
X88209277Y-59531467D01*
X88031467Y-59709277D01*
X88031463Y-59709282D01*
X87883668Y-59912706D01*
X87769508Y-60136755D01*
X87691801Y-60375909D01*
X87652466Y-60624265D01*
X84800500Y-60624265D01*
X84800500Y-59130252D01*
X84800500Y-59130249D01*
X84800499Y-59130247D01*
X84788868Y-59071770D01*
X84788867Y-59071769D01*
X84744552Y-59005447D01*
X84678230Y-58961132D01*
X84678229Y-58961131D01*
X84619752Y-58949500D01*
X84619748Y-58949500D01*
X82880252Y-58949500D01*
X82880247Y-58949500D01*
X82821770Y-58961131D01*
X82821769Y-58961132D01*
X82755447Y-59005447D01*
X82711132Y-59071769D01*
X82711131Y-59071770D01*
X82699500Y-59130247D01*
X81806115Y-59130247D01*
X81796450Y-59122315D01*
X81613954Y-59024768D01*
X81415934Y-58964700D01*
X81415932Y-58964699D01*
X81415934Y-58964699D01*
X81210000Y-58944417D01*
X81004067Y-58964699D01*
X80806043Y-59024769D01*
X80718114Y-59071769D01*
X80623550Y-59122315D01*
X80623548Y-59122316D01*
X80623547Y-59122317D01*
X80463589Y-59253589D01*
X80332317Y-59413547D01*
X80234767Y-59596046D01*
X80214593Y-59662552D01*
X80176296Y-59720990D01*
X80112483Y-59749447D01*
X80043416Y-59738886D01*
X79991023Y-59692661D01*
X79976158Y-59658649D01*
X79943433Y-59536516D01*
X79943429Y-59536507D01*
X79843600Y-59322422D01*
X79843599Y-59322420D01*
X79708113Y-59128926D01*
X79708108Y-59128920D01*
X79541082Y-58961894D01*
X79347578Y-58826399D01*
X79133492Y-58726570D01*
X79133486Y-58726567D01*
X78920000Y-58669364D01*
X78920000Y-59566988D01*
X78862993Y-59534075D01*
X78735826Y-59500000D01*
X78604174Y-59500000D01*
X78477007Y-59534075D01*
X78420000Y-59566988D01*
X78420000Y-58669364D01*
X78419999Y-58669364D01*
X78206513Y-58726567D01*
X78206507Y-58726570D01*
X77992422Y-58826399D01*
X77992420Y-58826400D01*
X77798926Y-58961886D01*
X77798920Y-58961891D01*
X77631891Y-59128920D01*
X77631886Y-59128926D01*
X77496400Y-59322420D01*
X77496399Y-59322422D01*
X77396570Y-59536507D01*
X77396567Y-59536513D01*
X77339364Y-59749999D01*
X69998118Y-59749999D01*
X69977042Y-59720990D01*
X69968536Y-59709282D01*
X69968532Y-59709277D01*
X69790722Y-59531467D01*
X69790717Y-59531463D01*
X69587293Y-59383668D01*
X69587292Y-59383667D01*
X69587290Y-59383666D01*
X69467088Y-59322420D01*
X69363244Y-59269508D01*
X69124090Y-59191801D01*
X68875734Y-59152466D01*
X68875729Y-59152466D01*
X68624271Y-59152466D01*
X68624266Y-59152466D01*
X68375909Y-59191801D01*
X68136755Y-59269508D01*
X67912706Y-59383668D01*
X67709282Y-59531463D01*
X67709277Y-59531467D01*
X67531467Y-59709277D01*
X67531463Y-59709282D01*
X67383668Y-59912706D01*
X67269508Y-60136755D01*
X67191801Y-60375909D01*
X67152466Y-60624265D01*
X66000000Y-60624265D01*
X66000000Y-58124000D01*
X66019685Y-58056961D01*
X66072489Y-58011206D01*
X66124000Y-58000000D01*
X91876000Y-58000000D01*
X91943039Y-58019685D01*
G37*
%TD.AperFunction*%
%TD*%
M02*
