%TF.GenerationSoftware,KiCad,Pcbnew,8.0.5*%
%TF.CreationDate,2024-12-20T11:35:35-05:00*%
%TF.ProjectId,mc3_afe,6d63335f-6166-4652-9e6b-696361645f70,rev?*%
%TF.SameCoordinates,Original*%
%TF.FileFunction,Paste,Top*%
%TF.FilePolarity,Positive*%
%FSLAX46Y46*%
G04 Gerber Fmt 4.6, Leading zero omitted, Abs format (unit mm)*
G04 Created by KiCad (PCBNEW 8.0.5) date 2024-12-20 11:35:35*
%MOMM*%
%LPD*%
G01*
G04 APERTURE LIST*
G04 Aperture macros list*
%AMRoundRect*
0 Rectangle with rounded corners*
0 $1 Rounding radius*
0 $2 $3 $4 $5 $6 $7 $8 $9 X,Y pos of 4 corners*
0 Add a 4 corners polygon primitive as box body*
4,1,4,$2,$3,$4,$5,$6,$7,$8,$9,$2,$3,0*
0 Add four circle primitives for the rounded corners*
1,1,$1+$1,$2,$3*
1,1,$1+$1,$4,$5*
1,1,$1+$1,$6,$7*
1,1,$1+$1,$8,$9*
0 Add four rect primitives between the rounded corners*
20,1,$1+$1,$2,$3,$4,$5,0*
20,1,$1+$1,$4,$5,$6,$7,0*
20,1,$1+$1,$6,$7,$8,$9,0*
20,1,$1+$1,$8,$9,$2,$3,0*%
G04 Aperture macros list end*
%ADD10RoundRect,0.200000X-0.275000X0.200000X-0.275000X-0.200000X0.275000X-0.200000X0.275000X0.200000X0*%
%ADD11R,2.540000X1.650000*%
%ADD12RoundRect,0.250000X0.312500X0.625000X-0.312500X0.625000X-0.312500X-0.625000X0.312500X-0.625000X0*%
%ADD13RoundRect,0.250000X0.475000X-0.250000X0.475000X0.250000X-0.475000X0.250000X-0.475000X-0.250000X0*%
%ADD14RoundRect,0.100000X-0.100000X0.225000X-0.100000X-0.225000X0.100000X-0.225000X0.100000X0.225000X0*%
%ADD15R,1.020000X1.830000*%
%ADD16R,1.830000X1.020000*%
%ADD17RoundRect,0.135000X-0.135000X-0.185000X0.135000X-0.185000X0.135000X0.185000X-0.135000X0.185000X0*%
%ADD18RoundRect,0.125000X-0.175000X-0.125000X0.175000X-0.125000X0.175000X0.125000X-0.175000X0.125000X0*%
%ADD19R,0.800000X0.300000*%
%ADD20RoundRect,0.212500X-0.212500X-0.212500X0.212500X-0.212500X0.212500X0.212500X-0.212500X0.212500X0*%
%ADD21RoundRect,0.062500X-0.450000X-0.062500X0.450000X-0.062500X0.450000X0.062500X-0.450000X0.062500X0*%
%ADD22RoundRect,0.062500X-0.062500X-0.450000X0.062500X-0.450000X0.062500X0.450000X-0.062500X0.450000X0*%
%ADD23RoundRect,0.250000X-0.250000X-0.475000X0.250000X-0.475000X0.250000X0.475000X-0.250000X0.475000X0*%
%ADD24RoundRect,0.225000X-0.225000X-0.250000X0.225000X-0.250000X0.225000X0.250000X-0.225000X0.250000X0*%
%ADD25RoundRect,0.250000X-0.325000X-0.650000X0.325000X-0.650000X0.325000X0.650000X-0.325000X0.650000X0*%
%ADD26RoundRect,0.202500X0.202500X0.202500X-0.202500X0.202500X-0.202500X-0.202500X0.202500X-0.202500X0*%
%ADD27RoundRect,0.062500X0.062500X0.350000X-0.062500X0.350000X-0.062500X-0.350000X0.062500X-0.350000X0*%
%ADD28RoundRect,0.062500X0.350000X0.062500X-0.350000X0.062500X-0.350000X-0.062500X0.350000X-0.062500X0*%
%ADD29RoundRect,0.225000X0.250000X-0.225000X0.250000X0.225000X-0.250000X0.225000X-0.250000X-0.225000X0*%
%ADD30RoundRect,0.125000X0.125000X-0.175000X0.125000X0.175000X-0.125000X0.175000X-0.125000X-0.175000X0*%
%ADD31R,0.300000X0.800000*%
%ADD32RoundRect,0.225000X0.225000X0.250000X-0.225000X0.250000X-0.225000X-0.250000X0.225000X-0.250000X0*%
%ADD33R,1.397000X1.524000*%
%ADD34RoundRect,0.250000X0.325000X0.650000X-0.325000X0.650000X-0.325000X-0.650000X0.325000X-0.650000X0*%
%ADD35RoundRect,0.135000X-0.185000X0.135000X-0.185000X-0.135000X0.185000X-0.135000X0.185000X0.135000X0*%
%ADD36RoundRect,0.135000X0.135000X0.185000X-0.135000X0.185000X-0.135000X-0.185000X0.135000X-0.185000X0*%
G04 APERTURE END LIST*
D10*
%TO.C,R10*%
X149200000Y-99175000D03*
X149200000Y-100825000D03*
%TD*%
%TO.C,R8*%
X145500000Y-87425000D03*
X145500000Y-89075000D03*
%TD*%
D11*
%TO.C,L1*%
X162060000Y-99460000D03*
X162060000Y-102000000D03*
X162060000Y-104540000D03*
X167140000Y-104540000D03*
X167140000Y-102000000D03*
X167140000Y-99460000D03*
%TD*%
D12*
%TO.C,R3*%
X172662500Y-104600000D03*
X169737500Y-104600000D03*
%TD*%
D13*
%TO.C,C4*%
X80500000Y-88700000D03*
X80500000Y-86800000D03*
%TD*%
D14*
%TO.C,U12*%
X84400000Y-63800000D03*
X83750000Y-63800000D03*
X83100000Y-63800000D03*
X83100000Y-65700000D03*
X84400000Y-65700000D03*
%TD*%
D15*
%TO.C,U8*%
X155400000Y-95330000D03*
D16*
X153330000Y-97400000D03*
D15*
X155400000Y-99470000D03*
D16*
X157470000Y-97400000D03*
%TD*%
D17*
%TO.C,R2*%
X110490000Y-86500000D03*
X111510000Y-86500000D03*
%TD*%
D18*
%TO.C,U1*%
X85600000Y-95150000D03*
X85600000Y-95850000D03*
D19*
X84650000Y-94850000D03*
X84650000Y-95500000D03*
X84650000Y-96150000D03*
X86550000Y-96150000D03*
X86550000Y-95500000D03*
X86550000Y-94850000D03*
%TD*%
D11*
%TO.C,L2*%
X118940000Y-91540000D03*
X118940000Y-89000000D03*
X118940000Y-86460000D03*
X113860000Y-86460000D03*
X113860000Y-89000000D03*
X113860000Y-91540000D03*
%TD*%
D20*
%TO.C,U4*%
X147012500Y-92475000D03*
X147012500Y-93525000D03*
X148062500Y-92475000D03*
X148062500Y-93525000D03*
D21*
X145675000Y-92000000D03*
X145675000Y-92500000D03*
X145675000Y-93000000D03*
X145675000Y-93500000D03*
X145675000Y-94000000D03*
D22*
X146537500Y-94862500D03*
X147037500Y-94862500D03*
X147537500Y-94862500D03*
X148037500Y-94862500D03*
X148537500Y-94862500D03*
D21*
X149400000Y-94000000D03*
X149400000Y-93500000D03*
X149400000Y-93000000D03*
X149400000Y-92500000D03*
X149400000Y-92000000D03*
D22*
X148537500Y-91137500D03*
X148037500Y-91137500D03*
X147537500Y-91137500D03*
X147037500Y-91137500D03*
X146537500Y-91137500D03*
%TD*%
D23*
%TO.C,C7*%
X107300000Y-86500000D03*
X109200000Y-86500000D03*
%TD*%
D13*
%TO.C,C2*%
X116000000Y-102150000D03*
X116000000Y-100250000D03*
%TD*%
%TO.C,C21*%
X144000000Y-99450000D03*
X144000000Y-97550000D03*
%TD*%
D23*
%TO.C,C9*%
X151850000Y-92400000D03*
X153750000Y-92400000D03*
%TD*%
%TO.C,C8*%
X121450000Y-91600000D03*
X123350000Y-91600000D03*
%TD*%
%TO.C,C3*%
X91550000Y-90500000D03*
X93450000Y-90500000D03*
%TD*%
%TO.C,C11*%
X170850000Y-106800000D03*
X172750000Y-106800000D03*
%TD*%
D24*
%TO.C,C25*%
X83335000Y-67200000D03*
X84885000Y-67200000D03*
%TD*%
D25*
%TO.C,C23*%
X74025000Y-90500000D03*
X76975000Y-90500000D03*
%TD*%
D23*
%TO.C,C1*%
X80050000Y-95500000D03*
X81950000Y-95500000D03*
%TD*%
D10*
%TO.C,R9*%
X147600000Y-99200000D03*
X147600000Y-100850000D03*
%TD*%
D26*
%TO.C,U11*%
X149187500Y-87250000D03*
X149187500Y-86250000D03*
D27*
X149437500Y-88437500D03*
D28*
X150375000Y-88000000D03*
X150375000Y-87500000D03*
X150375000Y-87000000D03*
X150375000Y-86500000D03*
X150375000Y-86000000D03*
X150375000Y-85500000D03*
D27*
X149437500Y-85062500D03*
X148937500Y-85062500D03*
D28*
X148000000Y-85500000D03*
X148000000Y-86000000D03*
X148000000Y-86500000D03*
X148000000Y-87000000D03*
X148000000Y-87500000D03*
X148000000Y-88000000D03*
D27*
X148937500Y-88437500D03*
%TD*%
D29*
%TO.C,C5*%
X146000000Y-100775000D03*
X146000000Y-99225000D03*
%TD*%
D23*
%TO.C,C12*%
X165150000Y-94400000D03*
X167050000Y-94400000D03*
%TD*%
D30*
%TO.C,U6*%
X115650000Y-97200000D03*
X116350000Y-97200000D03*
D31*
X115350000Y-98150000D03*
X116000000Y-98150000D03*
X116650000Y-98150000D03*
X116650000Y-96250000D03*
X116000000Y-96250000D03*
X115350000Y-96250000D03*
%TD*%
D32*
%TO.C,C10*%
X75775000Y-66250000D03*
X74225000Y-66250000D03*
%TD*%
D33*
%TO.C,U7*%
X126364500Y-90060000D03*
X136905500Y-90060000D03*
X126364500Y-95140000D03*
X136905500Y-95140000D03*
X126364500Y-100220000D03*
X136905500Y-100220000D03*
X126364500Y-105300000D03*
X136905500Y-105300000D03*
%TD*%
D34*
%TO.C,C26*%
X77225000Y-64250000D03*
X74275000Y-64250000D03*
%TD*%
D20*
%TO.C,U5*%
X75612500Y-94975000D03*
X75612500Y-96025000D03*
X76662500Y-94975000D03*
X76662500Y-96025000D03*
D21*
X74275000Y-94500000D03*
X74275000Y-95000000D03*
X74275000Y-95500000D03*
X74275000Y-96000000D03*
X74275000Y-96500000D03*
D22*
X75137500Y-97362500D03*
X75637500Y-97362500D03*
X76137500Y-97362500D03*
X76637500Y-97362500D03*
X77137500Y-97362500D03*
D21*
X78000000Y-96500000D03*
X78000000Y-96000000D03*
X78000000Y-95500000D03*
X78000000Y-95000000D03*
X78000000Y-94500000D03*
D22*
X77137500Y-93637500D03*
X76637500Y-93637500D03*
X76137500Y-93637500D03*
X75637500Y-93637500D03*
X75137500Y-93637500D03*
%TD*%
D35*
%TO.C,R4*%
X95000000Y-90490000D03*
X95000000Y-91510000D03*
%TD*%
D33*
%TO.C,U2*%
X99364500Y-90500000D03*
X109905500Y-90500000D03*
X99364500Y-95580000D03*
X109905500Y-95580000D03*
X99364500Y-100660000D03*
X109905500Y-100660000D03*
X99364500Y-105740000D03*
X109905500Y-105740000D03*
%TD*%
D24*
%TO.C,C6*%
X75225000Y-88500000D03*
X76775000Y-88500000D03*
%TD*%
D20*
%TO.C,U3*%
X74725000Y-69612500D03*
X74725000Y-70662500D03*
X75775000Y-69612500D03*
X75775000Y-70662500D03*
D21*
X73387500Y-69137500D03*
X73387500Y-69637500D03*
X73387500Y-70137500D03*
X73387500Y-70637500D03*
X73387500Y-71137500D03*
D22*
X74250000Y-72000000D03*
X74750000Y-72000000D03*
X75250000Y-72000000D03*
X75750000Y-72000000D03*
X76250000Y-72000000D03*
D21*
X77112500Y-71137500D03*
X77112500Y-70637500D03*
X77112500Y-70137500D03*
X77112500Y-69637500D03*
X77112500Y-69137500D03*
D22*
X76250000Y-68275000D03*
X75750000Y-68275000D03*
X75250000Y-68275000D03*
X74750000Y-68275000D03*
X74250000Y-68275000D03*
%TD*%
D11*
%TO.C,L3*%
X89000000Y-91290000D03*
X89000000Y-88750000D03*
X89000000Y-86210000D03*
X83920000Y-86210000D03*
X83920000Y-88750000D03*
X83920000Y-91290000D03*
%TD*%
D17*
%TO.C,R1*%
X80740000Y-85500000D03*
X81760000Y-85500000D03*
%TD*%
D36*
%TO.C,R5*%
X141510000Y-102200000D03*
X140490000Y-102200000D03*
%TD*%
D24*
%TO.C,C24*%
X145000000Y-84500000D03*
X146550000Y-84500000D03*
%TD*%
M02*
