%TF.GenerationSoftware,KiCad,Pcbnew,8.0.5*%
%TF.CreationDate,2024-12-20T11:35:35-05:00*%
%TF.ProjectId,mc3_afe,6d63335f-6166-4652-9e6b-696361645f70,rev?*%
%TF.SameCoordinates,Original*%
%TF.FileFunction,Copper,L4,Bot*%
%TF.FilePolarity,Positive*%
%FSLAX46Y46*%
G04 Gerber Fmt 4.6, Leading zero omitted, Abs format (unit mm)*
G04 Created by KiCad (PCBNEW 8.0.5) date 2024-12-20 11:35:35*
%MOMM*%
%LPD*%
G01*
G04 APERTURE LIST*
G04 Aperture macros list*
%AMRoundRect*
0 Rectangle with rounded corners*
0 $1 Rounding radius*
0 $2 $3 $4 $5 $6 $7 $8 $9 X,Y pos of 4 corners*
0 Add a 4 corners polygon primitive as box body*
4,1,4,$2,$3,$4,$5,$6,$7,$8,$9,$2,$3,0*
0 Add four circle primitives for the rounded corners*
1,1,$1+$1,$2,$3*
1,1,$1+$1,$4,$5*
1,1,$1+$1,$6,$7*
1,1,$1+$1,$8,$9*
0 Add four rect primitives between the rounded corners*
20,1,$1+$1,$2,$3,$4,$5,0*
20,1,$1+$1,$4,$5,$6,$7,0*
20,1,$1+$1,$6,$7,$8,$9,0*
20,1,$1+$1,$8,$9,$2,$3,0*%
G04 Aperture macros list end*
%TA.AperFunction,ComponentPad*%
%ADD10C,1.240000*%
%TD*%
%TA.AperFunction,SMDPad,CuDef*%
%ADD11RoundRect,0.250000X-0.425000X-1.600000X0.425000X-1.600000X0.425000X1.600000X-0.425000X1.600000X0*%
%TD*%
%TA.AperFunction,SMDPad,CuDef*%
%ADD12RoundRect,0.250000X-1.600000X0.425000X-1.600000X-0.425000X1.600000X-0.425000X1.600000X0.425000X0*%
%TD*%
%TA.AperFunction,ComponentPad*%
%ADD13C,1.000000*%
%TD*%
%TA.AperFunction,ComponentPad*%
%ADD14C,1.016000*%
%TD*%
%TA.AperFunction,ComponentPad*%
%ADD15R,1.700000X1.700000*%
%TD*%
%TA.AperFunction,ComponentPad*%
%ADD16O,1.700000X1.700000*%
%TD*%
%TA.AperFunction,SMDPad,CuDef*%
%ADD17RoundRect,0.250000X0.325000X0.650000X-0.325000X0.650000X-0.325000X-0.650000X0.325000X-0.650000X0*%
%TD*%
%TA.AperFunction,SMDPad,CuDef*%
%ADD18RoundRect,0.225000X-0.250000X0.225000X-0.250000X-0.225000X0.250000X-0.225000X0.250000X0.225000X0*%
%TD*%
%TA.AperFunction,SMDPad,CuDef*%
%ADD19RoundRect,0.250000X-0.325000X-0.650000X0.325000X-0.650000X0.325000X0.650000X-0.325000X0.650000X0*%
%TD*%
%TA.AperFunction,SMDPad,CuDef*%
%ADD20RoundRect,0.225000X-0.225000X-0.250000X0.225000X-0.250000X0.225000X0.250000X-0.225000X0.250000X0*%
%TD*%
%TA.AperFunction,SMDPad,CuDef*%
%ADD21RoundRect,0.225000X0.225000X0.250000X-0.225000X0.250000X-0.225000X-0.250000X0.225000X-0.250000X0*%
%TD*%
%TA.AperFunction,SMDPad,CuDef*%
%ADD22RoundRect,0.375000X0.375000X-0.625000X0.375000X0.625000X-0.375000X0.625000X-0.375000X-0.625000X0*%
%TD*%
%TA.AperFunction,SMDPad,CuDef*%
%ADD23RoundRect,0.500000X1.400000X-0.500000X1.400000X0.500000X-1.400000X0.500000X-1.400000X-0.500000X0*%
%TD*%
%TA.AperFunction,SMDPad,CuDef*%
%ADD24RoundRect,0.250000X0.650000X-0.325000X0.650000X0.325000X-0.650000X0.325000X-0.650000X-0.325000X0*%
%TD*%
%TA.AperFunction,ViaPad*%
%ADD25C,0.600000*%
%TD*%
%TA.AperFunction,Conductor*%
%ADD26C,0.200000*%
%TD*%
%TA.AperFunction,Conductor*%
%ADD27C,0.500000*%
%TD*%
G04 APERTURE END LIST*
D10*
%TO.P,J5,1,In*%
%TO.N,Net-(J5-In)*%
X173300000Y-94430000D03*
%TO.P,J5,2,Ext*%
%TO.N,GND*%
X172030000Y-93160000D03*
X172030000Y-95700000D03*
X174570000Y-93160000D03*
X174570000Y-95700000D03*
%TD*%
D11*
%TO.P,J7,2,Ext*%
%TO.N,GND*%
X149225000Y-110650000D03*
X143575000Y-110650000D03*
%TD*%
D12*
%TO.P,J3,2,Ext*%
%TO.N,GND*%
X68412500Y-108825000D03*
X68412500Y-103175000D03*
%TD*%
D13*
%TO.P,TP2,1,1*%
%TO.N,Net-(U4-PUP2)*%
X149200000Y-97200000D03*
%TD*%
D10*
%TO.P,J2,1,In*%
%TO.N,Net-(J2-In)*%
X85480000Y-71980000D03*
%TO.P,J2,2,Ext*%
%TO.N,GND*%
X84210000Y-70710000D03*
X84210000Y-73250000D03*
X86750000Y-70710000D03*
X86750000Y-73250000D03*
%TD*%
D12*
%TO.P,J1,2,Ext*%
%TO.N,GND*%
X68412500Y-73075000D03*
X68412500Y-67425000D03*
%TD*%
D14*
%TO.P,U7,2,GND*%
%TO.N,GND*%
X137985000Y-89298000D03*
X137985000Y-90822000D03*
%TO.P,U7,3,GND*%
X125285000Y-94378000D03*
X125285000Y-95902000D03*
%TO.P,U7,4,GND*%
X137985000Y-94378000D03*
X137985000Y-95902000D03*
%TO.P,U7,5,GND*%
X125285000Y-99458000D03*
X125285000Y-100982000D03*
%TO.P,U7,6,GND*%
X137985000Y-99458000D03*
X137985000Y-100982000D03*
%TO.P,U7,7,GND*%
X125285000Y-104538000D03*
X125285000Y-106062000D03*
X131000000Y-90060000D03*
X131000000Y-92600000D03*
X131000000Y-95140000D03*
X131000000Y-97680000D03*
X131000000Y-100220000D03*
X131000000Y-102760000D03*
X131000000Y-105300000D03*
X132270000Y-90060000D03*
X132270000Y-92600000D03*
X132270000Y-95140000D03*
X132270000Y-97680000D03*
X132270000Y-100220000D03*
X132270000Y-102760000D03*
X132270000Y-105300000D03*
%TD*%
D11*
%TO.P,J6,2,Ext*%
%TO.N,GND*%
X95325000Y-110650000D03*
X89675000Y-110650000D03*
%TD*%
D14*
%TO.P,U2,2,GND*%
%TO.N,GND*%
X110985000Y-89738000D03*
X110985000Y-91262000D03*
%TO.P,U2,3,GND*%
X98285000Y-94818000D03*
X98285000Y-96342000D03*
%TO.P,U2,4,GND*%
X110985000Y-94818000D03*
X110985000Y-96342000D03*
%TO.P,U2,5,GND*%
X98285000Y-99898000D03*
X98285000Y-101422000D03*
%TO.P,U2,6,GND*%
X110985000Y-99898000D03*
X110985000Y-101422000D03*
%TO.P,U2,7,GND*%
X98285000Y-104978000D03*
X98285000Y-106502000D03*
X104000000Y-90500000D03*
X104000000Y-93040000D03*
X104000000Y-95580000D03*
X104000000Y-98120000D03*
X104000000Y-100660000D03*
X104000000Y-103200000D03*
X104000000Y-105740000D03*
X105270000Y-90500000D03*
X105270000Y-93040000D03*
X105270000Y-95580000D03*
X105270000Y-98120000D03*
X105270000Y-100660000D03*
X105270000Y-103200000D03*
X105270000Y-105740000D03*
%TD*%
D15*
%TO.P,J9,1,Pin_1*%
%TO.N,Net-(J9-Pin_1)*%
X146840000Y-81750000D03*
D16*
%TO.P,J9,2,Pin_2*%
%TO.N,Net-(J9-Pin_2)*%
X149380000Y-81750000D03*
%TO.P,J9,3,Pin_3*%
%TO.N,Net-(J9-Pin_3)*%
X151920000Y-81750000D03*
%TO.P,J9,4,Pin_4*%
%TO.N,Net-(J9-Pin_4)*%
X154460000Y-81750000D03*
%TO.P,J9,5,Pin_5*%
%TO.N,GND*%
X157000000Y-81750000D03*
%TD*%
D15*
%TO.P,J10,1,Pin_1*%
%TO.N,+12V*%
X163290000Y-81750000D03*
D16*
%TO.P,J10,2,Pin_2*%
%TO.N,GND*%
X160750000Y-81750000D03*
%TD*%
D15*
%TO.P,J8,1,Pin_1*%
%TO.N,/SW1*%
X83750000Y-60000000D03*
D16*
%TO.P,J8,2,Pin_2*%
%TO.N,/SW2*%
X81210000Y-60000000D03*
%TO.P,J8,3,Pin_3*%
%TO.N,GND*%
X78670000Y-60000000D03*
%TD*%
D13*
%TO.P,TP1,1,1*%
%TO.N,Net-(U4-PUP1)*%
X147000000Y-97200000D03*
%TD*%
D12*
%TO.P,J4,2,Ext*%
%TO.N,GND*%
X68412500Y-92325000D03*
X68412500Y-86675000D03*
%TD*%
D17*
%TO.P,C13,1*%
%TO.N,+12V*%
X161975000Y-96250000D03*
%TO.P,C13,2*%
%TO.N,GND*%
X159025000Y-96250000D03*
%TD*%
D18*
%TO.P,C18,1*%
%TO.N,GND*%
X145500000Y-92475000D03*
%TO.P,C18,2*%
%TO.N,+12V*%
X145500000Y-94025000D03*
%TD*%
D19*
%TO.P,C20,1*%
%TO.N,+5V*%
X152550000Y-96250000D03*
%TO.P,C20,2*%
%TO.N,GND*%
X155500000Y-96250000D03*
%TD*%
D20*
%TO.P,C15,1*%
%TO.N,GND*%
X160475000Y-98500000D03*
%TO.P,C15,2*%
%TO.N,+12V*%
X162025000Y-98500000D03*
%TD*%
D21*
%TO.P,C19,1*%
%TO.N,GND*%
X154300000Y-98250000D03*
%TO.P,C19,2*%
%TO.N,+5V*%
X152750000Y-98250000D03*
%TD*%
D22*
%TO.P,U13,1,GND*%
%TO.N,GND*%
X154800000Y-93650000D03*
%TO.P,U13,2,VO*%
%TO.N,+5V*%
X152500000Y-93650000D03*
D23*
X152500000Y-87350000D03*
D22*
%TO.P,U13,3,VI*%
%TO.N,+12V*%
X150200000Y-93650000D03*
%TD*%
D19*
%TO.P,C14,1*%
%TO.N,+3V0*%
X164250000Y-96250000D03*
%TO.P,C14,2*%
%TO.N,GND*%
X167200000Y-96250000D03*
%TD*%
D24*
%TO.P,C17,1*%
%TO.N,+12V*%
X147500000Y-93975000D03*
%TO.P,C17,2*%
%TO.N,GND*%
X147500000Y-91025000D03*
%TD*%
D22*
%TO.P,U9,1,GND*%
%TO.N,GND*%
X166300000Y-93650000D03*
%TO.P,U9,2,VO*%
%TO.N,+3V0*%
X164000000Y-93650000D03*
D23*
X164000000Y-87350000D03*
D22*
%TO.P,U9,3,VI*%
%TO.N,+12V*%
X161700000Y-93650000D03*
%TD*%
D21*
%TO.P,C16,1*%
%TO.N,GND*%
X166000000Y-98250000D03*
%TO.P,C16,2*%
%TO.N,+3V0*%
X164450000Y-98250000D03*
%TD*%
D25*
%TO.N,GND*%
X85000000Y-110000000D03*
X72500000Y-62500000D03*
X102500000Y-112500000D03*
X77500000Y-102500000D03*
X97115686Y-82884314D03*
X147500000Y-102500000D03*
X122000000Y-89800000D03*
X160000000Y-110000000D03*
X117500000Y-97500000D03*
X137500000Y-82500000D03*
X77500000Y-82500000D03*
X90000000Y-95000000D03*
X107500000Y-112500000D03*
X80600000Y-92500000D03*
X75000000Y-110000000D03*
X87500000Y-77500000D03*
X142500000Y-107500000D03*
X112500000Y-112500000D03*
X155000000Y-90000000D03*
X153900000Y-99800000D03*
X113900000Y-103700000D03*
X112500000Y-100000000D03*
X158800000Y-93500000D03*
X157300000Y-95500000D03*
X167500000Y-92500000D03*
X87500000Y-112500000D03*
X72600000Y-96500000D03*
X164900000Y-100000000D03*
X75950000Y-92634323D03*
X155400000Y-102100000D03*
X168600000Y-97700000D03*
X130000000Y-110000000D03*
X120000000Y-110000000D03*
X75000000Y-100000000D03*
X150500000Y-95500000D03*
X87500000Y-67500000D03*
X154000000Y-95800000D03*
X140000000Y-85000000D03*
X142200000Y-104400000D03*
X163200000Y-95100000D03*
X90000000Y-80000000D03*
X82500000Y-107500000D03*
X177500000Y-112500000D03*
X137500000Y-112500000D03*
X110000000Y-110000000D03*
X122500000Y-87500000D03*
X92143291Y-82251908D03*
X167500000Y-82500000D03*
X85000000Y-80000000D03*
X132500000Y-82500000D03*
X166684314Y-88315686D03*
X70000000Y-80000000D03*
X90000000Y-105000000D03*
X170800000Y-91400000D03*
X85000000Y-105000000D03*
X122200000Y-93400000D03*
X77500000Y-107500000D03*
X177500000Y-102500000D03*
X163000000Y-97500000D03*
X100000000Y-110000000D03*
X177500000Y-97500000D03*
X160000000Y-105000000D03*
X127500000Y-112500000D03*
X82500000Y-82500000D03*
X90000000Y-70000000D03*
X72500000Y-102500000D03*
X120000000Y-105000000D03*
X77500000Y-77500000D03*
X102500000Y-87500000D03*
X135000000Y-85000000D03*
X82500000Y-112500000D03*
X72500000Y-97500000D03*
X120000000Y-95000000D03*
X147500000Y-107500000D03*
X117500000Y-82500000D03*
X160000000Y-90000000D03*
X90000000Y-65000000D03*
X79500000Y-93700000D03*
X72500000Y-77500000D03*
X115000000Y-110000000D03*
X87500000Y-107500000D03*
X127500000Y-82500000D03*
X87500000Y-82500000D03*
X139500000Y-100000000D03*
X170000000Y-85000000D03*
X143000000Y-89000000D03*
X92500000Y-97500000D03*
X122500000Y-82500000D03*
X157500000Y-107500000D03*
X150000000Y-105000000D03*
X92500000Y-92500000D03*
X180000000Y-90000000D03*
X168700000Y-95600000D03*
X80000000Y-65000000D03*
X175000000Y-90000000D03*
X70000000Y-85000000D03*
X122500000Y-102500000D03*
X170700000Y-97900000D03*
X74000000Y-92500000D03*
X82500000Y-77500000D03*
X151200000Y-97500000D03*
X166100000Y-96600000D03*
X104785689Y-85550000D03*
X117500000Y-107500000D03*
X180000000Y-95000000D03*
X102334314Y-82665686D03*
X77500000Y-112500000D03*
X105000000Y-110000000D03*
X94828830Y-85402534D03*
X151100000Y-90900000D03*
X167500000Y-107500000D03*
X85000000Y-100000000D03*
X141000000Y-90500000D03*
X135000000Y-110000000D03*
X80000000Y-75000000D03*
X132500000Y-112500000D03*
X112500000Y-95000000D03*
X155000000Y-105000000D03*
X180000000Y-100000000D03*
X80000000Y-70000000D03*
X90000000Y-100000000D03*
X162500000Y-107500000D03*
X122500000Y-112500000D03*
X82392165Y-67743135D03*
X82500000Y-97500000D03*
X142500000Y-92500000D03*
X159200000Y-98600000D03*
X70000000Y-95000000D03*
X162500000Y-112500000D03*
X157500000Y-87500000D03*
X157500000Y-102500000D03*
X140000000Y-110000000D03*
X175000000Y-110000000D03*
X180000000Y-105000000D03*
X72500000Y-112500000D03*
X177500000Y-92500000D03*
X155000000Y-110000000D03*
X75000000Y-80000000D03*
X67500000Y-77500000D03*
X87500000Y-97500000D03*
X73700000Y-98100000D03*
X160000000Y-95000000D03*
X82500000Y-102500000D03*
X168600000Y-93500000D03*
X75000000Y-75000000D03*
X155000000Y-85000000D03*
X145000000Y-105000000D03*
X142500000Y-82500000D03*
X72500000Y-82500000D03*
X122500000Y-107500000D03*
X70000000Y-100000000D03*
X85000000Y-75000000D03*
X142500000Y-96500000D03*
X90000000Y-75000000D03*
X67500000Y-82500000D03*
X73200000Y-93400000D03*
X152500000Y-112500000D03*
X165000000Y-110000000D03*
X157500000Y-92500000D03*
X125000000Y-110000000D03*
X141700000Y-100800000D03*
X67500000Y-62500000D03*
X175000000Y-100000000D03*
X130000000Y-85000000D03*
X167500000Y-112500000D03*
X177500000Y-87500000D03*
X141000000Y-93500000D03*
X132500000Y-87500000D03*
X82500000Y-62500000D03*
X152500000Y-102500000D03*
X144900000Y-91400000D03*
X153250000Y-85100000D03*
X180000000Y-85000000D03*
X87500000Y-102500000D03*
X172500000Y-112500000D03*
X77500000Y-62500000D03*
X172500000Y-97500000D03*
X157500000Y-112500000D03*
X165000000Y-90000000D03*
X80000000Y-100000000D03*
X175000000Y-85000000D03*
X67500000Y-112500000D03*
X157900000Y-89900000D03*
X122500000Y-97500000D03*
X172500000Y-87500000D03*
X107615686Y-82284314D03*
X112500000Y-97500000D03*
X70000000Y-110000000D03*
X100000000Y-85550000D03*
X80000000Y-105000000D03*
X177500000Y-107500000D03*
X72500000Y-87500000D03*
X159600000Y-102100000D03*
X72500000Y-107500000D03*
X170000000Y-110000000D03*
X79700000Y-97300000D03*
X172500000Y-82500000D03*
X67500000Y-97500000D03*
X70000000Y-65000000D03*
X80000000Y-80000000D03*
X78800000Y-98000000D03*
X152500000Y-107500000D03*
X117500000Y-112500000D03*
X75000000Y-60000000D03*
X120000000Y-100000000D03*
X112500000Y-82500000D03*
X75000000Y-105000000D03*
X146653809Y-87640921D03*
X117500000Y-102500000D03*
X125000000Y-85000000D03*
X92500000Y-87500000D03*
X143400000Y-90100000D03*
X70000000Y-75000000D03*
%TO.N,+5V*%
X79250000Y-85500000D03*
X110000000Y-84750000D03*
%TO.N,+3V0*%
X162500000Y-85500000D03*
X148000000Y-85080761D03*
X159750000Y-85500000D03*
X150500000Y-101000000D03*
X86080760Y-65500000D03*
X144725013Y-96500013D03*
X74250000Y-65750000D03*
X76750000Y-87250000D03*
X148000000Y-89250000D03*
%TO.N,+12V*%
X174250000Y-104750000D03*
%TO.N,/SW2*%
X81000000Y-66900000D03*
X77388682Y-67310883D03*
X78250000Y-91250000D03*
%TO.N,/SW1*%
X77500000Y-92250000D03*
X84000005Y-64750005D03*
X77500000Y-66249999D03*
%TO.N,Net-(J9-Pin_3)*%
X145093689Y-86343689D03*
%TO.N,Net-(J9-Pin_4)*%
X143000000Y-95200000D03*
%TO.N,Net-(J9-Pin_1)*%
X144500000Y-88000000D03*
%TO.N,Net-(J9-Pin_2)*%
X144268846Y-86138411D03*
%TO.N,Net-(U11-QE)*%
X146128753Y-87011627D03*
X152290691Y-85150000D03*
%TD*%
D26*
%TO.N,GND*%
X146653809Y-87492931D02*
X146653809Y-87640921D01*
D27*
%TO.N,+5V*%
X139950000Y-88316618D02*
X139950000Y-95560661D01*
X131500000Y-86500000D02*
X138133382Y-86500000D01*
X138133382Y-86500000D02*
X139950000Y-88316618D01*
X152750000Y-98725000D02*
X152750000Y-98250000D01*
X143689339Y-99300000D02*
X152175000Y-99300000D01*
X93250000Y-86250000D02*
X91000000Y-84000000D01*
X124500000Y-87000000D02*
X131000000Y-87000000D01*
X80750000Y-84000000D02*
X79250000Y-85500000D01*
X152750000Y-96450000D02*
X152550000Y-96250000D01*
X152175000Y-99300000D02*
X152750000Y-98725000D01*
X110000000Y-84000000D02*
X121500000Y-84000000D01*
X110000000Y-84000000D02*
X110000000Y-84750000D01*
X121500000Y-84000000D02*
X124500000Y-87000000D01*
X139950000Y-95560661D02*
X143689339Y-99300000D01*
X152750000Y-98250000D02*
X152750000Y-96450000D01*
X110000000Y-84000000D02*
X98500000Y-84000000D01*
X152500000Y-93650000D02*
X152500000Y-96200000D01*
X152500000Y-93650000D02*
X152500000Y-87350000D01*
X91000000Y-84000000D02*
X80750000Y-84000000D01*
X131000000Y-87000000D02*
X131500000Y-86500000D01*
X152500000Y-96200000D02*
X152550000Y-96250000D01*
X98500000Y-84000000D02*
X96250000Y-86250000D01*
X96250000Y-86250000D02*
X93250000Y-86250000D01*
D26*
%TO.N,+3V0*%
X73500000Y-66500000D02*
X74250000Y-65750000D01*
D27*
X164250000Y-96250000D02*
X164250000Y-98050000D01*
D26*
X85980760Y-65600000D02*
X86080760Y-65500000D01*
D27*
X77500000Y-94000000D02*
X83221251Y-88278749D01*
X83221251Y-88278749D02*
X138922182Y-88278749D01*
D26*
X74250000Y-65750000D02*
X74900000Y-65100000D01*
D27*
X164250000Y-93900000D02*
X164000000Y-93650000D01*
D26*
X77769239Y-65100000D02*
X78269239Y-65600000D01*
X158650000Y-84400000D02*
X159750000Y-85500000D01*
D27*
X143500000Y-101000000D02*
X150500000Y-101000000D01*
D26*
X76750000Y-87250000D02*
X73500000Y-84000000D01*
D27*
X76750000Y-87250000D02*
X76750000Y-93250000D01*
X162175000Y-101000000D02*
X150500000Y-101000000D01*
X164000000Y-93650000D02*
X164000000Y-87350000D01*
D26*
X144000000Y-95775000D02*
X144725013Y-96500013D01*
X149984925Y-85080761D02*
X150665686Y-84400000D01*
D27*
X164250000Y-96250000D02*
X164250000Y-93900000D01*
D26*
X148000000Y-85080761D02*
X149984925Y-85080761D01*
X146050000Y-89250000D02*
X144000000Y-91300000D01*
D27*
X164250000Y-98050000D02*
X164450000Y-98250000D01*
X139250000Y-88606567D02*
X139250000Y-96750000D01*
D26*
X74900000Y-65100000D02*
X77769239Y-65100000D01*
X78269239Y-65600000D02*
X85980760Y-65600000D01*
D27*
X164000000Y-87000000D02*
X162500000Y-85500000D01*
X164000000Y-87350000D02*
X164000000Y-87000000D01*
X164450000Y-98250000D02*
X164450000Y-98725000D01*
X138922182Y-88278749D02*
X139250000Y-88606567D01*
D26*
X150665686Y-84400000D02*
X158650000Y-84400000D01*
X144000000Y-91300000D02*
X144000000Y-95775000D01*
D27*
X139250000Y-96750000D02*
X143500000Y-101000000D01*
D26*
X73500000Y-84000000D02*
X73500000Y-66500000D01*
X148000000Y-89250000D02*
X146050000Y-89250000D01*
D27*
X164450000Y-98725000D02*
X162175000Y-101000000D01*
X76750000Y-93250000D02*
X77500000Y-94000000D01*
%TO.N,+12V*%
X161650000Y-85000000D02*
X161650000Y-84140000D01*
X145550000Y-93975000D02*
X145500000Y-94025000D01*
X150699226Y-85900000D02*
X150150000Y-86449226D01*
X159418629Y-86300000D02*
X159018629Y-85900000D01*
X161650000Y-84140000D02*
X162020000Y-83770000D01*
X169500000Y-100000000D02*
X174250000Y-104750000D01*
X147500000Y-93975000D02*
X145550000Y-93975000D01*
X163290000Y-82500000D02*
X163290000Y-83540000D01*
X160350000Y-86300000D02*
X159418629Y-86300000D01*
X161700000Y-93650000D02*
X161650000Y-93600000D01*
X161700000Y-95975000D02*
X161975000Y-96250000D01*
X150150000Y-86449226D02*
X150150000Y-93600000D01*
X163290000Y-83540000D02*
X165650000Y-85900000D01*
X161650000Y-85000000D02*
X160350000Y-86300000D01*
X161650000Y-93600000D02*
X161650000Y-85000000D01*
X161975000Y-98450000D02*
X162025000Y-98500000D01*
X150150000Y-93600000D02*
X150200000Y-93650000D01*
X161700000Y-93650000D02*
X161700000Y-95975000D01*
X169500000Y-89599226D02*
X169500000Y-100000000D01*
X162020000Y-83770000D02*
X163290000Y-82500000D01*
X165650000Y-85900000D02*
X165800774Y-85900000D01*
X159018629Y-85900000D02*
X150699226Y-85900000D01*
X150200000Y-93650000D02*
X147825000Y-93650000D01*
X165800774Y-85900000D02*
X169500000Y-89599226D01*
X147825000Y-93650000D02*
X147500000Y-93975000D01*
X161975000Y-96250000D02*
X161975000Y-98450000D01*
D26*
%TO.N,/SW2*%
X78250000Y-68750000D02*
X80100002Y-66899998D01*
X80999998Y-66899998D02*
X81000000Y-66900000D01*
X78250000Y-68750000D02*
X78250000Y-68172201D01*
X78250000Y-91250000D02*
X78250000Y-68750000D01*
X80100002Y-66899998D02*
X80999998Y-66899998D01*
X78250000Y-68172201D02*
X77388682Y-67310883D01*
%TO.N,/SW1*%
X87000000Y-65500000D02*
X86250001Y-66249999D01*
X87000000Y-62200000D02*
X87000000Y-64750000D01*
X77250001Y-66249999D02*
X76250000Y-67250000D01*
X87000000Y-64750000D02*
X84000010Y-64750000D01*
X84800000Y-60000000D02*
X87000000Y-62200000D01*
X76250000Y-85250000D02*
X77500000Y-86500000D01*
X77500000Y-86500000D02*
X77500000Y-92250000D01*
X76250000Y-67250000D02*
X76250000Y-85250000D01*
X83750000Y-60000000D02*
X84800000Y-60000000D01*
X87000000Y-64750000D02*
X87000000Y-65500000D01*
X86250001Y-66249999D02*
X77250001Y-66249999D01*
X84000010Y-64750000D02*
X84000005Y-64750005D01*
%TO.N,Net-(J9-Pin_3)*%
X151434314Y-82500000D02*
X149884314Y-84050000D01*
X145093689Y-85921386D02*
X145093689Y-86343689D01*
X146965075Y-84050000D02*
X145093689Y-85921386D01*
X151920000Y-82500000D02*
X151434314Y-82500000D01*
X149884314Y-84050000D02*
X146965075Y-84050000D01*
%TO.N,Net-(J9-Pin_4)*%
X147369239Y-84480761D02*
X150019239Y-84480761D01*
X147100000Y-85185908D02*
X147100000Y-84750000D01*
X150019239Y-84480761D02*
X150500000Y-84000000D01*
X152960000Y-84000000D02*
X154460000Y-82500000D01*
X143600000Y-94600000D02*
X143600000Y-91134314D01*
X150500000Y-84000000D02*
X152960000Y-84000000D01*
X143600000Y-91134314D02*
X145500000Y-89234314D01*
X143000000Y-95200000D02*
X143600000Y-94600000D01*
X145500000Y-89234314D02*
X145500000Y-86785908D01*
X147100000Y-84750000D02*
X147369239Y-84480761D01*
X145500000Y-86785908D02*
X147100000Y-85185908D01*
%TO.N,Net-(J9-Pin_1)*%
X146840000Y-82500000D02*
X143618846Y-85721154D01*
X143618846Y-85721154D02*
X143618846Y-87118846D01*
X143618846Y-87118846D02*
X144500000Y-88000000D01*
%TO.N,Net-(J9-Pin_2)*%
X148230000Y-83650000D02*
X146757257Y-83650000D01*
X149380000Y-82500000D02*
X148230000Y-83650000D01*
X146757257Y-83650000D02*
X144268846Y-86138411D01*
%TO.N,Net-(U11-QE)*%
X150481372Y-85150000D02*
X148619745Y-87011627D01*
X148619745Y-87011627D02*
X146128753Y-87011627D01*
X152290691Y-85150000D02*
X150481372Y-85150000D01*
%TD*%
%TA.AperFunction,Conductor*%
%TO.N,GND*%
G36*
X161118834Y-86270783D02*
G01*
X161174767Y-86312655D01*
X161199184Y-86378119D01*
X161199500Y-86386965D01*
X161199500Y-92371212D01*
X161179815Y-92438251D01*
X161127011Y-92484006D01*
X161122954Y-92485773D01*
X161034769Y-92522301D01*
X161034767Y-92522302D01*
X160914549Y-92614549D01*
X160844902Y-92705315D01*
X160822300Y-92734770D01*
X160764313Y-92874763D01*
X160764313Y-92874764D01*
X160749500Y-92987272D01*
X160749500Y-94312727D01*
X160764313Y-94425235D01*
X160764313Y-94425236D01*
X160819990Y-94559653D01*
X160822302Y-94565233D01*
X160914549Y-94685451D01*
X161034767Y-94777698D01*
X161034770Y-94777699D01*
X161034771Y-94777700D01*
X161060251Y-94788254D01*
X161172953Y-94834936D01*
X161227356Y-94878776D01*
X161249421Y-94945071D01*
X161249500Y-94949497D01*
X161249500Y-95359495D01*
X161242542Y-95400449D01*
X161202353Y-95515302D01*
X161199500Y-95545730D01*
X161199500Y-96954269D01*
X161202353Y-96984699D01*
X161202353Y-96984701D01*
X161247206Y-97112880D01*
X161247207Y-97112882D01*
X161327850Y-97222150D01*
X161437117Y-97302792D01*
X161437118Y-97302793D01*
X161437121Y-97302794D01*
X161441452Y-97304310D01*
X161498229Y-97345030D01*
X161523978Y-97409982D01*
X161524500Y-97421352D01*
X161524500Y-97768468D01*
X161504815Y-97835507D01*
X161452011Y-97881262D01*
X161382853Y-97891206D01*
X161319297Y-97862181D01*
X161294962Y-97833565D01*
X161272575Y-97797271D01*
X161272572Y-97797267D01*
X161152732Y-97677427D01*
X161152728Y-97677424D01*
X161008492Y-97588457D01*
X161008481Y-97588452D01*
X160847606Y-97535144D01*
X160748322Y-97525000D01*
X160725000Y-97525000D01*
X160725000Y-99474999D01*
X160748308Y-99474999D01*
X160748322Y-99474998D01*
X160847607Y-99464855D01*
X161008481Y-99411547D01*
X161008492Y-99411542D01*
X161152728Y-99322575D01*
X161152732Y-99322572D01*
X161272573Y-99202731D01*
X161334606Y-99102160D01*
X161386554Y-99055435D01*
X161455516Y-99044212D01*
X161519599Y-99072056D01*
X161527826Y-99079575D01*
X161546774Y-99098523D01*
X161546778Y-99098526D01*
X161546780Y-99098528D01*
X161666874Y-99159719D01*
X161666876Y-99159719D01*
X161666878Y-99159720D01*
X161766507Y-99175500D01*
X161766512Y-99175500D01*
X162283493Y-99175500D01*
X162383121Y-99159720D01*
X162383121Y-99159719D01*
X162383126Y-99159719D01*
X162503220Y-99098528D01*
X162598528Y-99003220D01*
X162659719Y-98883126D01*
X162664442Y-98853306D01*
X162675500Y-98783493D01*
X162675500Y-98216506D01*
X162659720Y-98116878D01*
X162659719Y-98116876D01*
X162659719Y-98116874D01*
X162598528Y-97996780D01*
X162598526Y-97996778D01*
X162598523Y-97996774D01*
X162503221Y-97901472D01*
X162493204Y-97896368D01*
X162442408Y-97848393D01*
X162425500Y-97785884D01*
X162425500Y-97421352D01*
X162445185Y-97354313D01*
X162497989Y-97308558D01*
X162508548Y-97304310D01*
X162510915Y-97303481D01*
X162512882Y-97302793D01*
X162622150Y-97222150D01*
X162702793Y-97112882D01*
X162732979Y-97026616D01*
X162747646Y-96984701D01*
X162747646Y-96984699D01*
X162750500Y-96954269D01*
X162750500Y-95545730D01*
X162747646Y-95515300D01*
X162747646Y-95515298D01*
X162709591Y-95406547D01*
X162702793Y-95387118D01*
X162622150Y-95277850D01*
X162512882Y-95197207D01*
X162512880Y-95197206D01*
X162384700Y-95152353D01*
X162354270Y-95149500D01*
X162354266Y-95149500D01*
X162274500Y-95149500D01*
X162207461Y-95129815D01*
X162161706Y-95077011D01*
X162150500Y-95025500D01*
X162150500Y-94949497D01*
X162170185Y-94882458D01*
X162222989Y-94836703D01*
X162227027Y-94834945D01*
X162365228Y-94777700D01*
X162365229Y-94777700D01*
X162365229Y-94777699D01*
X162365233Y-94777698D01*
X162485451Y-94685451D01*
X162577698Y-94565233D01*
X162635687Y-94425236D01*
X162650500Y-94312720D01*
X162650500Y-92987280D01*
X162635687Y-92874764D01*
X162577698Y-92734767D01*
X162485451Y-92614549D01*
X162365233Y-92522302D01*
X162365229Y-92522300D01*
X162301801Y-92496027D01*
X162225236Y-92464313D01*
X162208313Y-92462085D01*
X162144416Y-92433817D01*
X162105946Y-92375492D01*
X162100500Y-92339146D01*
X162100500Y-88586449D01*
X162120185Y-88519410D01*
X162172989Y-88473655D01*
X162242147Y-88463711D01*
X162288650Y-88480333D01*
X162310394Y-88493478D01*
X162472804Y-88544086D01*
X162543384Y-88550500D01*
X163425500Y-88550500D01*
X163492539Y-88570185D01*
X163538294Y-88622989D01*
X163549500Y-88674500D01*
X163549500Y-92350502D01*
X163529815Y-92417541D01*
X163477011Y-92463296D01*
X163472953Y-92465063D01*
X163334770Y-92522300D01*
X163334767Y-92522301D01*
X163334767Y-92522302D01*
X163214549Y-92614549D01*
X163144902Y-92705315D01*
X163122300Y-92734770D01*
X163064313Y-92874763D01*
X163064313Y-92874764D01*
X163049500Y-92987272D01*
X163049500Y-94312727D01*
X163064313Y-94425235D01*
X163064313Y-94425236D01*
X163119990Y-94559653D01*
X163122302Y-94565233D01*
X163214549Y-94685451D01*
X163334767Y-94777698D01*
X163474764Y-94835687D01*
X163587280Y-94850500D01*
X163675500Y-94850500D01*
X163742539Y-94870185D01*
X163788294Y-94922989D01*
X163799500Y-94974500D01*
X163799500Y-95078648D01*
X163779815Y-95145687D01*
X163727011Y-95191442D01*
X163716463Y-95195686D01*
X163714393Y-95196410D01*
X163712117Y-95197207D01*
X163602850Y-95277850D01*
X163522207Y-95387117D01*
X163522206Y-95387119D01*
X163477353Y-95515298D01*
X163477353Y-95515300D01*
X163474500Y-95545730D01*
X163474500Y-96954269D01*
X163477353Y-96984699D01*
X163477353Y-96984701D01*
X163522206Y-97112880D01*
X163522207Y-97112882D01*
X163602850Y-97222150D01*
X163712117Y-97302792D01*
X163712118Y-97302793D01*
X163712121Y-97302794D01*
X163716452Y-97304310D01*
X163773229Y-97345030D01*
X163798978Y-97409982D01*
X163799500Y-97421352D01*
X163799500Y-98533493D01*
X163816807Y-98642765D01*
X163814167Y-98643183D01*
X163815740Y-98698241D01*
X163783495Y-98754399D01*
X162024716Y-100513181D01*
X161963393Y-100546666D01*
X161937035Y-100549500D01*
X150757727Y-100549500D01*
X150718995Y-100541073D01*
X150718563Y-100542545D01*
X150571963Y-100499500D01*
X150571961Y-100499500D01*
X150428039Y-100499500D01*
X150428036Y-100499500D01*
X150281437Y-100542545D01*
X150281004Y-100541073D01*
X150242273Y-100549500D01*
X143737966Y-100549500D01*
X143670927Y-100529815D01*
X143650285Y-100513181D01*
X139736819Y-96599715D01*
X139703334Y-96538392D01*
X139700500Y-96512034D01*
X139700500Y-96247626D01*
X139720185Y-96180587D01*
X139772989Y-96134832D01*
X139842147Y-96124888D01*
X139905703Y-96153913D01*
X139912181Y-96159945D01*
X143412725Y-99660489D01*
X143515452Y-99719799D01*
X143539660Y-99726284D01*
X143539663Y-99726286D01*
X143539664Y-99726286D01*
X143569786Y-99734357D01*
X143630030Y-99750500D01*
X143630032Y-99750500D01*
X152234308Y-99750500D01*
X152234309Y-99750500D01*
X152324673Y-99726286D01*
X152348887Y-99719799D01*
X152451614Y-99660489D01*
X153110490Y-99001614D01*
X153168278Y-98901520D01*
X153218844Y-98853306D01*
X153219064Y-98853192D01*
X153228220Y-98848528D01*
X153247174Y-98829573D01*
X153308493Y-98796090D01*
X153378184Y-98801073D01*
X153434119Y-98842944D01*
X153440391Y-98852158D01*
X153502426Y-98952731D01*
X153622267Y-99072572D01*
X153622271Y-99072575D01*
X153766507Y-99161542D01*
X153766518Y-99161547D01*
X153927393Y-99214855D01*
X154026683Y-99224999D01*
X154550000Y-99224999D01*
X154573308Y-99224999D01*
X154573322Y-99224998D01*
X154672607Y-99214855D01*
X154833481Y-99161547D01*
X154833492Y-99161542D01*
X154977728Y-99072575D01*
X154977732Y-99072572D01*
X155097572Y-98952732D01*
X155097575Y-98952728D01*
X155186542Y-98808492D01*
X155186547Y-98808481D01*
X155189913Y-98798322D01*
X159525001Y-98798322D01*
X159535144Y-98897607D01*
X159588452Y-99058481D01*
X159588457Y-99058492D01*
X159677424Y-99202728D01*
X159677427Y-99202732D01*
X159797267Y-99322572D01*
X159797271Y-99322575D01*
X159941507Y-99411542D01*
X159941518Y-99411547D01*
X160102393Y-99464855D01*
X160201683Y-99474999D01*
X160225000Y-99474998D01*
X160225000Y-98750000D01*
X159525001Y-98750000D01*
X159525001Y-98798322D01*
X155189913Y-98798322D01*
X155239855Y-98647606D01*
X155249999Y-98548322D01*
X155250000Y-98548309D01*
X155250000Y-98500000D01*
X154550000Y-98500000D01*
X154550000Y-99224999D01*
X154026683Y-99224999D01*
X154050000Y-99224998D01*
X154050000Y-97274999D01*
X154026693Y-97275000D01*
X154026674Y-97275001D01*
X153927392Y-97285144D01*
X153766518Y-97338452D01*
X153766507Y-97338457D01*
X153622271Y-97427424D01*
X153622267Y-97427427D01*
X153502426Y-97547268D01*
X153440391Y-97647841D01*
X153388442Y-97694565D01*
X153319479Y-97705786D01*
X153255398Y-97677942D01*
X153247168Y-97670420D01*
X153236815Y-97660066D01*
X153203333Y-97598741D01*
X153200500Y-97572389D01*
X153200500Y-97258413D01*
X153220185Y-97191374D01*
X153224730Y-97184779D01*
X153277793Y-97112882D01*
X153307979Y-97026616D01*
X153322646Y-96984701D01*
X153322646Y-96984699D01*
X153325500Y-96954269D01*
X153325500Y-96949986D01*
X154425001Y-96949986D01*
X154435494Y-97052697D01*
X154490642Y-97219123D01*
X154507874Y-97247059D01*
X154535378Y-97275077D01*
X154550000Y-97333494D01*
X154550000Y-98000000D01*
X155249999Y-98000000D01*
X155249999Y-97951692D01*
X155249998Y-97951677D01*
X155239855Y-97852392D01*
X155216064Y-97780594D01*
X155213662Y-97710766D01*
X155246090Y-97653908D01*
X155249999Y-97649999D01*
X155750000Y-97649999D01*
X155874972Y-97649999D01*
X155874986Y-97649998D01*
X155977697Y-97639505D01*
X156144119Y-97584358D01*
X156144124Y-97584356D01*
X156293345Y-97492315D01*
X156417315Y-97368345D01*
X156509356Y-97219124D01*
X156509358Y-97219119D01*
X156564505Y-97052697D01*
X156564506Y-97052690D01*
X156574999Y-96949986D01*
X157950001Y-96949986D01*
X157960494Y-97052697D01*
X158015641Y-97219119D01*
X158015643Y-97219124D01*
X158107684Y-97368345D01*
X158231654Y-97492315D01*
X158380875Y-97584356D01*
X158380880Y-97584358D01*
X158547302Y-97639505D01*
X158547309Y-97639506D01*
X158650019Y-97649999D01*
X158774999Y-97649999D01*
X159275000Y-97649999D01*
X159399972Y-97649999D01*
X159399986Y-97649998D01*
X159502699Y-97639505D01*
X159521222Y-97633367D01*
X159591050Y-97630962D01*
X159651093Y-97666691D01*
X159682288Y-97729211D01*
X159674730Y-97798670D01*
X159665769Y-97816168D01*
X159588454Y-97941513D01*
X159588452Y-97941518D01*
X159535144Y-98102393D01*
X159525000Y-98201677D01*
X159525000Y-98250000D01*
X160225000Y-98250000D01*
X160225000Y-97524999D01*
X160201693Y-97525000D01*
X160201674Y-97525001D01*
X160102391Y-97535144D01*
X160095269Y-97537504D01*
X160025441Y-97539902D01*
X159965401Y-97504168D01*
X159934211Y-97441646D01*
X159941775Y-97372187D01*
X159950733Y-97354699D01*
X160034353Y-97219130D01*
X160034358Y-97219119D01*
X160089505Y-97052697D01*
X160089506Y-97052690D01*
X160099999Y-96949986D01*
X160100000Y-96949973D01*
X160100000Y-96500000D01*
X159275000Y-96500000D01*
X159275000Y-97649999D01*
X158774999Y-97649999D01*
X158775000Y-97649998D01*
X158775000Y-96500000D01*
X157950001Y-96500000D01*
X157950001Y-96949986D01*
X156574999Y-96949986D01*
X156575000Y-96949973D01*
X156575000Y-96500000D01*
X155750000Y-96500000D01*
X155750000Y-97649999D01*
X155249999Y-97649999D01*
X155250000Y-97649998D01*
X155250000Y-96500000D01*
X154425001Y-96500000D01*
X154425001Y-96949986D01*
X153325500Y-96949986D01*
X153325500Y-95545730D01*
X153322646Y-95515300D01*
X153322646Y-95515298D01*
X153284591Y-95406547D01*
X153277793Y-95387118D01*
X153197150Y-95277850D01*
X153087882Y-95197207D01*
X153050499Y-95184126D01*
X153033544Y-95178193D01*
X152976768Y-95137471D01*
X152951022Y-95072518D01*
X152950500Y-95061152D01*
X152950500Y-94949497D01*
X152970185Y-94882458D01*
X153022989Y-94836703D01*
X153027027Y-94834945D01*
X153165228Y-94777700D01*
X153165229Y-94777700D01*
X153165229Y-94777699D01*
X153165233Y-94777698D01*
X153285451Y-94685451D01*
X153377698Y-94565233D01*
X153377700Y-94565229D01*
X153382645Y-94558785D01*
X153383776Y-94559653D01*
X153427980Y-94517496D01*
X153496586Y-94504266D01*
X153561453Y-94530228D01*
X153595899Y-94572611D01*
X153683392Y-94749025D01*
X153802632Y-94897366D01*
X153802633Y-94897367D01*
X153950974Y-95016607D01*
X153950977Y-95016609D01*
X154121476Y-95101168D01*
X154306175Y-95147102D01*
X154348903Y-95150000D01*
X154362291Y-95150000D01*
X154429330Y-95169685D01*
X154475085Y-95222489D01*
X154485029Y-95291647D01*
X154479997Y-95313004D01*
X154435494Y-95447302D01*
X154435493Y-95447309D01*
X154425000Y-95550013D01*
X154425000Y-96000000D01*
X156574999Y-96000000D01*
X156574999Y-95550028D01*
X156574998Y-95550013D01*
X157950000Y-95550013D01*
X157950000Y-96000000D01*
X158775000Y-96000000D01*
X159275000Y-96000000D01*
X160099999Y-96000000D01*
X160099999Y-95550028D01*
X160099998Y-95550013D01*
X160089505Y-95447302D01*
X160034358Y-95280880D01*
X160034356Y-95280875D01*
X159942315Y-95131654D01*
X159818345Y-95007684D01*
X159669124Y-94915643D01*
X159669119Y-94915641D01*
X159502697Y-94860494D01*
X159502690Y-94860493D01*
X159399986Y-94850000D01*
X159275000Y-94850000D01*
X159275000Y-96000000D01*
X158775000Y-96000000D01*
X158775000Y-94850000D01*
X158650027Y-94850000D01*
X158650012Y-94850001D01*
X158547302Y-94860494D01*
X158380880Y-94915641D01*
X158380875Y-94915643D01*
X158231654Y-95007684D01*
X158107684Y-95131654D01*
X158015643Y-95280875D01*
X158015641Y-95280880D01*
X157960494Y-95447302D01*
X157960493Y-95447309D01*
X157950000Y-95550013D01*
X156574998Y-95550013D01*
X156564505Y-95447302D01*
X156509358Y-95280880D01*
X156509356Y-95280875D01*
X156417315Y-95131654D01*
X156293345Y-95007684D01*
X156144124Y-94915643D01*
X156144119Y-94915641D01*
X156013263Y-94872280D01*
X155955818Y-94832507D01*
X155928995Y-94767992D01*
X155941179Y-94699479D01*
X156001169Y-94578521D01*
X156047102Y-94393824D01*
X156050000Y-94351096D01*
X156050000Y-93900000D01*
X154674000Y-93900000D01*
X154606961Y-93880315D01*
X154561206Y-93827511D01*
X154550000Y-93776000D01*
X154550000Y-93400000D01*
X155050000Y-93400000D01*
X156050000Y-93400000D01*
X156050000Y-92948903D01*
X156047102Y-92906175D01*
X156001168Y-92721476D01*
X155916609Y-92550977D01*
X155916607Y-92550974D01*
X155797367Y-92402633D01*
X155797366Y-92402632D01*
X155649025Y-92283392D01*
X155649022Y-92283390D01*
X155478523Y-92198831D01*
X155293824Y-92152897D01*
X155251097Y-92150000D01*
X155050000Y-92150000D01*
X155050000Y-93400000D01*
X154550000Y-93400000D01*
X154550000Y-92150000D01*
X154348903Y-92150000D01*
X154306175Y-92152897D01*
X154121476Y-92198831D01*
X153950977Y-92283390D01*
X153950974Y-92283392D01*
X153802633Y-92402632D01*
X153802632Y-92402633D01*
X153683392Y-92550974D01*
X153595899Y-92727388D01*
X153548478Y-92778701D01*
X153480843Y-92796229D01*
X153414467Y-92774409D01*
X153383331Y-92740688D01*
X153382645Y-92741215D01*
X153377698Y-92734769D01*
X153377698Y-92734767D01*
X153285451Y-92614549D01*
X153165233Y-92522302D01*
X153165229Y-92522300D01*
X153027047Y-92465063D01*
X152972644Y-92421222D01*
X152950579Y-92354928D01*
X152950500Y-92350502D01*
X152950500Y-88674500D01*
X152970185Y-88607461D01*
X153022989Y-88561706D01*
X153074500Y-88550500D01*
X153956613Y-88550500D01*
X153956616Y-88550500D01*
X154027196Y-88544086D01*
X154189606Y-88493478D01*
X154335185Y-88405472D01*
X154455472Y-88285185D01*
X154543478Y-88139606D01*
X154594086Y-87977196D01*
X154600500Y-87906616D01*
X154600500Y-86793384D01*
X154594086Y-86722804D01*
X154543478Y-86560394D01*
X154530332Y-86538649D01*
X154512497Y-86471095D01*
X154534015Y-86404621D01*
X154588055Y-86360334D01*
X154636450Y-86350500D01*
X158780664Y-86350500D01*
X158847703Y-86370185D01*
X158868345Y-86386819D01*
X159142015Y-86660489D01*
X159182005Y-86683577D01*
X159244743Y-86719799D01*
X159359320Y-86750500D01*
X159359323Y-86750500D01*
X160409307Y-86750500D01*
X160409309Y-86750500D01*
X160501371Y-86725832D01*
X160523887Y-86719799D01*
X160626614Y-86660489D01*
X160987819Y-86299284D01*
X161049142Y-86265799D01*
X161118834Y-86270783D01*
G37*
%TD.AperFunction*%
%TA.AperFunction,Conductor*%
G36*
X149618833Y-86540022D02*
G01*
X149674767Y-86581893D01*
X149699184Y-86647358D01*
X149699500Y-86656204D01*
X149699500Y-92371212D01*
X149679815Y-92438251D01*
X149627011Y-92484006D01*
X149622954Y-92485773D01*
X149534769Y-92522301D01*
X149534767Y-92522302D01*
X149414549Y-92614549D01*
X149344902Y-92705315D01*
X149322300Y-92734770D01*
X149264313Y-92874763D01*
X149264313Y-92874764D01*
X149249500Y-92987272D01*
X149249500Y-93075500D01*
X149229815Y-93142539D01*
X149177011Y-93188294D01*
X149125500Y-93199500D01*
X146795730Y-93199500D01*
X146765300Y-93202353D01*
X146765298Y-93202353D01*
X146637119Y-93247206D01*
X146637117Y-93247207D01*
X146527850Y-93327850D01*
X146447206Y-93437118D01*
X146447205Y-93437121D01*
X146445690Y-93441452D01*
X146404970Y-93498229D01*
X146340018Y-93523978D01*
X146328648Y-93524500D01*
X146231532Y-93524500D01*
X146164493Y-93504815D01*
X146118738Y-93452011D01*
X146108794Y-93382853D01*
X146137819Y-93319297D01*
X146166435Y-93294962D01*
X146202728Y-93272575D01*
X146202732Y-93272572D01*
X146322572Y-93152732D01*
X146322575Y-93152728D01*
X146411542Y-93008492D01*
X146411547Y-93008481D01*
X146464855Y-92847606D01*
X146474999Y-92748322D01*
X146475000Y-92748309D01*
X146475000Y-92725000D01*
X145374000Y-92725000D01*
X145306961Y-92705315D01*
X145261206Y-92652511D01*
X145250000Y-92601000D01*
X145250000Y-91525000D01*
X145750000Y-91525000D01*
X145750000Y-92225000D01*
X146474999Y-92225000D01*
X146474999Y-92201692D01*
X146474998Y-92201690D01*
X146474816Y-92199902D01*
X146474888Y-92199513D01*
X146474838Y-92198530D01*
X146475073Y-92198518D01*
X146487578Y-92131208D01*
X146535453Y-92080319D01*
X146603241Y-92063391D01*
X146637178Y-92069581D01*
X146697305Y-92089505D01*
X146697309Y-92089506D01*
X146800019Y-92099999D01*
X147249999Y-92099999D01*
X147750000Y-92099999D01*
X148199972Y-92099999D01*
X148199986Y-92099998D01*
X148302697Y-92089505D01*
X148469119Y-92034358D01*
X148469124Y-92034356D01*
X148618345Y-91942315D01*
X148742315Y-91818345D01*
X148834356Y-91669124D01*
X148834358Y-91669119D01*
X148889505Y-91502697D01*
X148889506Y-91502690D01*
X148899999Y-91399986D01*
X148900000Y-91399973D01*
X148900000Y-91275000D01*
X147750000Y-91275000D01*
X147750000Y-92099999D01*
X147249999Y-92099999D01*
X147250000Y-92099998D01*
X147250000Y-91275000D01*
X146100001Y-91275000D01*
X146100001Y-91399989D01*
X146101917Y-91418737D01*
X146089147Y-91487430D01*
X146041266Y-91538314D01*
X145973476Y-91555234D01*
X145939556Y-91549044D01*
X145897608Y-91535144D01*
X145798322Y-91525000D01*
X145750000Y-91525000D01*
X145250000Y-91525000D01*
X145249999Y-91524999D01*
X145201693Y-91525000D01*
X145201675Y-91525001D01*
X145102392Y-91535144D01*
X144941518Y-91588452D01*
X144941507Y-91588457D01*
X144797271Y-91677424D01*
X144797267Y-91677427D01*
X144677427Y-91797267D01*
X144677424Y-91797271D01*
X144588457Y-91941507D01*
X144588452Y-91941518D01*
X144542206Y-92081081D01*
X144502433Y-92138526D01*
X144437917Y-92165349D01*
X144369142Y-92153034D01*
X144317942Y-92105491D01*
X144300500Y-92042077D01*
X144300500Y-91475833D01*
X144320185Y-91408794D01*
X144336819Y-91388152D01*
X145074958Y-90650013D01*
X146100000Y-90650013D01*
X146100000Y-90775000D01*
X147250000Y-90775000D01*
X147250000Y-89950000D01*
X146800028Y-89950000D01*
X146800012Y-89950001D01*
X146697302Y-89960494D01*
X146530880Y-90015641D01*
X146530875Y-90015643D01*
X146381654Y-90107684D01*
X146257684Y-90231654D01*
X146165643Y-90380875D01*
X146165641Y-90380880D01*
X146110494Y-90547302D01*
X146110493Y-90547309D01*
X146100000Y-90650013D01*
X145074958Y-90650013D01*
X146138152Y-89586819D01*
X146199475Y-89553334D01*
X146225833Y-89550500D01*
X147541499Y-89550500D01*
X147608538Y-89570185D01*
X147635211Y-89593296D01*
X147668872Y-89632143D01*
X147789947Y-89709953D01*
X147789949Y-89709953D01*
X147789950Y-89709954D01*
X147797071Y-89713207D01*
X147849874Y-89758963D01*
X147869557Y-89826003D01*
X147849871Y-89893042D01*
X147797066Y-89938796D01*
X147751235Y-89948764D01*
X147750000Y-89950000D01*
X147750000Y-90775000D01*
X148899999Y-90775000D01*
X148899999Y-90650028D01*
X148899998Y-90650013D01*
X148889505Y-90547302D01*
X148834358Y-90380880D01*
X148834356Y-90380875D01*
X148742315Y-90231654D01*
X148618345Y-90107684D01*
X148469124Y-90015643D01*
X148469119Y-90015641D01*
X148302697Y-89960494D01*
X148302690Y-89960493D01*
X148229801Y-89953046D01*
X148165110Y-89926649D01*
X148124959Y-89869468D01*
X148122097Y-89799657D01*
X148157431Y-89739380D01*
X148202061Y-89713811D01*
X148201983Y-89713639D01*
X148203855Y-89712783D01*
X148207476Y-89710709D01*
X148210053Y-89709953D01*
X148331128Y-89632143D01*
X148425377Y-89523373D01*
X148485165Y-89392457D01*
X148505647Y-89250000D01*
X148485165Y-89107543D01*
X148425377Y-88976627D01*
X148331128Y-88867857D01*
X148210053Y-88790047D01*
X148210051Y-88790046D01*
X148210049Y-88790045D01*
X148210050Y-88790045D01*
X148071963Y-88749500D01*
X148071961Y-88749500D01*
X147928039Y-88749500D01*
X147928036Y-88749500D01*
X147789949Y-88790045D01*
X147668873Y-88867856D01*
X147635212Y-88906703D01*
X147576433Y-88944477D01*
X147541499Y-88949500D01*
X146010438Y-88949500D01*
X145956593Y-88963927D01*
X145886744Y-88962265D01*
X145828881Y-88923103D01*
X145801377Y-88858874D01*
X145800500Y-88844153D01*
X145800500Y-87602518D01*
X145820185Y-87535479D01*
X145872989Y-87489724D01*
X145942147Y-87479780D01*
X145959434Y-87483541D01*
X146056789Y-87512126D01*
X146056791Y-87512127D01*
X146056792Y-87512127D01*
X146200715Y-87512127D01*
X146200715Y-87512126D01*
X146338806Y-87471580D01*
X146459881Y-87393770D01*
X146493541Y-87354923D01*
X146552320Y-87317150D01*
X146587254Y-87312127D01*
X148659305Y-87312127D01*
X148659307Y-87312127D01*
X148735734Y-87291648D01*
X148804256Y-87252087D01*
X148860205Y-87196138D01*
X149487819Y-86568522D01*
X149549142Y-86535038D01*
X149618833Y-86540022D01*
G37*
%TD.AperFunction*%
%TA.AperFunction,Conductor*%
G36*
X90829074Y-84470185D02*
G01*
X90849716Y-84486819D01*
X92973387Y-86610490D01*
X92973389Y-86610491D01*
X92973393Y-86610494D01*
X93059983Y-86660486D01*
X93076114Y-86669799D01*
X93190691Y-86700500D01*
X93190694Y-86700500D01*
X96309308Y-86700500D01*
X96309309Y-86700500D01*
X96399673Y-86676286D01*
X96423887Y-86669799D01*
X96526614Y-86610489D01*
X98650284Y-84486819D01*
X98711607Y-84453334D01*
X98737965Y-84450500D01*
X109395302Y-84450500D01*
X109462341Y-84470185D01*
X109508096Y-84522989D01*
X109518040Y-84592147D01*
X109515116Y-84605587D01*
X109494353Y-84750000D01*
X109514834Y-84892456D01*
X109568549Y-85010074D01*
X109574623Y-85023373D01*
X109668872Y-85132143D01*
X109789947Y-85209953D01*
X109789950Y-85209954D01*
X109789949Y-85209954D01*
X109928036Y-85250499D01*
X109928038Y-85250500D01*
X109928039Y-85250500D01*
X110071962Y-85250500D01*
X110071962Y-85250499D01*
X110210053Y-85209953D01*
X110331128Y-85132143D01*
X110425377Y-85023373D01*
X110485165Y-84892457D01*
X110505647Y-84750000D01*
X110485165Y-84607543D01*
X110483903Y-84598765D01*
X110485720Y-84598503D01*
X110485722Y-84539562D01*
X110523498Y-84480785D01*
X110587055Y-84451762D01*
X110604698Y-84450500D01*
X121262035Y-84450500D01*
X121329074Y-84470185D01*
X121349715Y-84486818D01*
X124223386Y-87360490D01*
X124326113Y-87419799D01*
X124350321Y-87426284D01*
X124350324Y-87426286D01*
X124350325Y-87426286D01*
X124380447Y-87434357D01*
X124440691Y-87450500D01*
X124440693Y-87450500D01*
X131059308Y-87450500D01*
X131059309Y-87450500D01*
X131149673Y-87426286D01*
X131173887Y-87419799D01*
X131276614Y-87360489D01*
X131650285Y-86986819D01*
X131711608Y-86953334D01*
X131737966Y-86950500D01*
X137895417Y-86950500D01*
X137962456Y-86970185D01*
X137983098Y-86986819D01*
X138612846Y-87616568D01*
X138646331Y-87677891D01*
X138641347Y-87747583D01*
X138599475Y-87803516D01*
X138534011Y-87827933D01*
X138525165Y-87828249D01*
X83161942Y-87828249D01*
X83071576Y-87852462D01*
X83071575Y-87852461D01*
X83047366Y-87858949D01*
X83047357Y-87858953D01*
X82944643Y-87918254D01*
X82944635Y-87918260D01*
X77587680Y-93275215D01*
X77526357Y-93308700D01*
X77456665Y-93303716D01*
X77412318Y-93275215D01*
X77236819Y-93099716D01*
X77203334Y-93038393D01*
X77200500Y-93012035D01*
X77200500Y-92849333D01*
X77220185Y-92782294D01*
X77272989Y-92736539D01*
X77342147Y-92726595D01*
X77359431Y-92730355D01*
X77374457Y-92734767D01*
X77428038Y-92750500D01*
X77428039Y-92750500D01*
X77571962Y-92750500D01*
X77571962Y-92750499D01*
X77710053Y-92709953D01*
X77831128Y-92632143D01*
X77925377Y-92523373D01*
X77985165Y-92392457D01*
X78005647Y-92250000D01*
X77985165Y-92107543D01*
X77925377Y-91976627D01*
X77925375Y-91976625D01*
X77925374Y-91976622D01*
X77830787Y-91867462D01*
X77801762Y-91803906D01*
X77800500Y-91786260D01*
X77800500Y-91783158D01*
X77820185Y-91716119D01*
X77872989Y-91670364D01*
X77942147Y-91660420D01*
X77991535Y-91678841D01*
X78039947Y-91709953D01*
X78039949Y-91709953D01*
X78039950Y-91709954D01*
X78108993Y-91730226D01*
X78167147Y-91747302D01*
X78178036Y-91750499D01*
X78178038Y-91750500D01*
X78178039Y-91750500D01*
X78321962Y-91750500D01*
X78321962Y-91750499D01*
X78460053Y-91709953D01*
X78581128Y-91632143D01*
X78675377Y-91523373D01*
X78735165Y-91392457D01*
X78755647Y-91250000D01*
X78735165Y-91107543D01*
X78675377Y-90976627D01*
X78675375Y-90976625D01*
X78675374Y-90976622D01*
X78580787Y-90867462D01*
X78551762Y-90803906D01*
X78550500Y-90786260D01*
X78550500Y-85743146D01*
X78570185Y-85676107D01*
X78622989Y-85630352D01*
X78692147Y-85620408D01*
X78755703Y-85649433D01*
X78787294Y-85691635D01*
X78824620Y-85773369D01*
X78824623Y-85773373D01*
X78918872Y-85882143D01*
X79039947Y-85959953D01*
X79039950Y-85959954D01*
X79039949Y-85959954D01*
X79178036Y-86000499D01*
X79178038Y-86000500D01*
X79178039Y-86000500D01*
X79321962Y-86000500D01*
X79321962Y-86000499D01*
X79460053Y-85959953D01*
X79581128Y-85882143D01*
X79675377Y-85773373D01*
X79717904Y-85680250D01*
X79743011Y-85644090D01*
X80900284Y-84486819D01*
X80961607Y-84453334D01*
X80987965Y-84450500D01*
X90762035Y-84450500D01*
X90829074Y-84470185D01*
G37*
%TD.AperFunction*%
%TA.AperFunction,Conductor*%
G36*
X77660445Y-65420185D02*
G01*
X77681087Y-65436819D01*
X77825571Y-65581303D01*
X77859056Y-65642626D01*
X77854072Y-65712318D01*
X77812200Y-65768251D01*
X77746736Y-65792668D01*
X77702956Y-65787961D01*
X77571964Y-65749499D01*
X77571961Y-65749499D01*
X77428039Y-65749499D01*
X77428036Y-65749499D01*
X77289949Y-65790044D01*
X77168873Y-65867855D01*
X77074622Y-65976626D01*
X77063925Y-66000049D01*
X77038813Y-66036214D01*
X76065489Y-67009540D01*
X76009541Y-67065487D01*
X76009535Y-67065495D01*
X75969982Y-67134004D01*
X75969979Y-67134009D01*
X75960757Y-67168426D01*
X75949500Y-67210438D01*
X75949500Y-85289562D01*
X75954870Y-85309602D01*
X75969979Y-85365990D01*
X75969980Y-85365991D01*
X75972538Y-85370421D01*
X75994702Y-85408811D01*
X76009540Y-85434511D01*
X76009542Y-85434513D01*
X77163181Y-86588152D01*
X77196666Y-86649475D01*
X77199500Y-86675833D01*
X77199500Y-86716841D01*
X77179815Y-86783880D01*
X77127011Y-86829635D01*
X77057853Y-86839579D01*
X77008461Y-86821157D01*
X76960053Y-86790047D01*
X76960051Y-86790046D01*
X76960049Y-86790045D01*
X76960050Y-86790045D01*
X76821963Y-86749500D01*
X76821961Y-86749500D01*
X76725833Y-86749500D01*
X76658794Y-86729815D01*
X76638152Y-86713181D01*
X73836819Y-83911848D01*
X73803334Y-83850525D01*
X73800500Y-83824167D01*
X73800500Y-66675832D01*
X73820185Y-66608793D01*
X73836815Y-66588155D01*
X74138151Y-66286818D01*
X74199474Y-66253334D01*
X74225832Y-66250500D01*
X74321962Y-66250500D01*
X74321962Y-66250499D01*
X74460053Y-66209953D01*
X74581128Y-66132143D01*
X74675377Y-66023373D01*
X74735165Y-65892457D01*
X74755647Y-65750000D01*
X74754339Y-65740905D01*
X74764279Y-65671749D01*
X74789390Y-65635580D01*
X74988153Y-65436816D01*
X75049476Y-65403334D01*
X75075833Y-65400500D01*
X77593406Y-65400500D01*
X77660445Y-65420185D01*
G37*
%TD.AperFunction*%
%TA.AperFunction,Conductor*%
G36*
X76805077Y-67222407D02*
G01*
X76861010Y-67264279D01*
X76884481Y-67320942D01*
X76903516Y-67453339D01*
X76963304Y-67584254D01*
X76963305Y-67584256D01*
X77057554Y-67693026D01*
X77178629Y-67770836D01*
X77178632Y-67770837D01*
X77178631Y-67770837D01*
X77285789Y-67802300D01*
X77313962Y-67810573D01*
X77316718Y-67811382D01*
X77316720Y-67811383D01*
X77412849Y-67811383D01*
X77479888Y-67831068D01*
X77500530Y-67847702D01*
X77913181Y-68260353D01*
X77946666Y-68321676D01*
X77949500Y-68348034D01*
X77949500Y-86225167D01*
X77929815Y-86292206D01*
X77877011Y-86337961D01*
X77807853Y-86347905D01*
X77744297Y-86318880D01*
X77737819Y-86312848D01*
X76586819Y-85161848D01*
X76553334Y-85100525D01*
X76550500Y-85074167D01*
X76550500Y-67425832D01*
X76570185Y-67358793D01*
X76586815Y-67338155D01*
X76674063Y-67250907D01*
X76735385Y-67217423D01*
X76805077Y-67222407D01*
G37*
%TD.AperFunction*%
%TA.AperFunction,Conductor*%
G36*
X158541206Y-84720185D02*
G01*
X158561848Y-84736819D01*
X159062848Y-85237819D01*
X159096333Y-85299142D01*
X159091349Y-85368834D01*
X159049477Y-85424767D01*
X158984013Y-85449184D01*
X158975167Y-85449500D01*
X152895389Y-85449500D01*
X152828350Y-85429815D01*
X152782595Y-85377011D01*
X152772651Y-85307853D01*
X152775574Y-85294412D01*
X152775854Y-85292459D01*
X152775856Y-85292457D01*
X152796338Y-85150000D01*
X152775856Y-85007543D01*
X152716068Y-84876627D01*
X152716067Y-84876626D01*
X152715787Y-84876012D01*
X152705843Y-84806853D01*
X152734868Y-84743298D01*
X152793646Y-84705523D01*
X152828581Y-84700500D01*
X158474167Y-84700500D01*
X158541206Y-84720185D01*
G37*
%TD.AperFunction*%
%TA.AperFunction,Conductor*%
G36*
X91943039Y-58019685D02*
G01*
X91988794Y-58072489D01*
X92000000Y-58124000D01*
X92000000Y-80000000D01*
X181876000Y-80000000D01*
X181943039Y-80019685D01*
X181988794Y-80072489D01*
X182000000Y-80124000D01*
X182000000Y-112876000D01*
X181980315Y-112943039D01*
X181927511Y-112988794D01*
X181876000Y-113000000D01*
X150260023Y-113000000D01*
X150192984Y-112980315D01*
X150147229Y-112927511D01*
X150137285Y-112858353D01*
X150166310Y-112794797D01*
X150172342Y-112788319D01*
X150242315Y-112718345D01*
X150334356Y-112569124D01*
X150334358Y-112569119D01*
X150389505Y-112402697D01*
X150389506Y-112402690D01*
X150399999Y-112299986D01*
X150400000Y-112299973D01*
X150400000Y-110900000D01*
X148050001Y-110900000D01*
X148050001Y-112299986D01*
X148060494Y-112402697D01*
X148115641Y-112569119D01*
X148115643Y-112569124D01*
X148207684Y-112718345D01*
X148277658Y-112788319D01*
X148311143Y-112849642D01*
X148306159Y-112919334D01*
X148264287Y-112975267D01*
X148198823Y-112999684D01*
X148189977Y-113000000D01*
X144610023Y-113000000D01*
X144542984Y-112980315D01*
X144497229Y-112927511D01*
X144487285Y-112858353D01*
X144516310Y-112794797D01*
X144522342Y-112788319D01*
X144592315Y-112718345D01*
X144684356Y-112569124D01*
X144684358Y-112569119D01*
X144739505Y-112402697D01*
X144739506Y-112402690D01*
X144749999Y-112299986D01*
X144750000Y-112299973D01*
X144750000Y-110900000D01*
X142400001Y-110900000D01*
X142400001Y-112299986D01*
X142410494Y-112402697D01*
X142465641Y-112569119D01*
X142465643Y-112569124D01*
X142557684Y-112718345D01*
X142627658Y-112788319D01*
X142661143Y-112849642D01*
X142656159Y-112919334D01*
X142614287Y-112975267D01*
X142548823Y-112999684D01*
X142539977Y-113000000D01*
X96360023Y-113000000D01*
X96292984Y-112980315D01*
X96247229Y-112927511D01*
X96237285Y-112858353D01*
X96266310Y-112794797D01*
X96272342Y-112788319D01*
X96342315Y-112718345D01*
X96434356Y-112569124D01*
X96434358Y-112569119D01*
X96489505Y-112402697D01*
X96489506Y-112402690D01*
X96499999Y-112299986D01*
X96500000Y-112299973D01*
X96500000Y-110900000D01*
X94150001Y-110900000D01*
X94150001Y-112299986D01*
X94160494Y-112402697D01*
X94215641Y-112569119D01*
X94215643Y-112569124D01*
X94307684Y-112718345D01*
X94377658Y-112788319D01*
X94411143Y-112849642D01*
X94406159Y-112919334D01*
X94364287Y-112975267D01*
X94298823Y-112999684D01*
X94289977Y-113000000D01*
X90710023Y-113000000D01*
X90642984Y-112980315D01*
X90597229Y-112927511D01*
X90587285Y-112858353D01*
X90616310Y-112794797D01*
X90622342Y-112788319D01*
X90692315Y-112718345D01*
X90784356Y-112569124D01*
X90784358Y-112569119D01*
X90839505Y-112402697D01*
X90839506Y-112402690D01*
X90849999Y-112299986D01*
X90850000Y-112299973D01*
X90850000Y-110900000D01*
X88500001Y-110900000D01*
X88500001Y-112299986D01*
X88510494Y-112402697D01*
X88565641Y-112569119D01*
X88565643Y-112569124D01*
X88657684Y-112718345D01*
X88727658Y-112788319D01*
X88761143Y-112849642D01*
X88756159Y-112919334D01*
X88714287Y-112975267D01*
X88648823Y-112999684D01*
X88639977Y-113000000D01*
X66124000Y-113000000D01*
X66056961Y-112980315D01*
X66011206Y-112927511D01*
X66000000Y-112876000D01*
X66000000Y-110124265D01*
X76652466Y-110124265D01*
X76652466Y-110375734D01*
X76691801Y-110624090D01*
X76769508Y-110863244D01*
X76883668Y-111087293D01*
X77031463Y-111290717D01*
X77031467Y-111290722D01*
X77209277Y-111468532D01*
X77209282Y-111468536D01*
X77386720Y-111597451D01*
X77412710Y-111616334D01*
X77555474Y-111689076D01*
X77636755Y-111730491D01*
X77636757Y-111730491D01*
X77636760Y-111730493D01*
X77764949Y-111772144D01*
X77875909Y-111808198D01*
X78124266Y-111847534D01*
X78375729Y-111847534D01*
X78375734Y-111847534D01*
X78624090Y-111808198D01*
X78863240Y-111730493D01*
X79087290Y-111616334D01*
X79290724Y-111468531D01*
X79468531Y-111290724D01*
X79616334Y-111087290D01*
X79730493Y-110863240D01*
X79808198Y-110624090D01*
X79847534Y-110375729D01*
X79850000Y-110250000D01*
X79847534Y-110124271D01*
X79808198Y-109875910D01*
X79730493Y-109636760D01*
X79730491Y-109636757D01*
X79730491Y-109636755D01*
X79689076Y-109555474D01*
X79616334Y-109412710D01*
X79597451Y-109386720D01*
X79468536Y-109209282D01*
X79468532Y-109209277D01*
X79290722Y-109031467D01*
X79290717Y-109031463D01*
X79247429Y-109000013D01*
X88500000Y-109000013D01*
X88500000Y-110400000D01*
X89425000Y-110400000D01*
X89925000Y-110400000D01*
X90849999Y-110400000D01*
X90849999Y-109000028D01*
X90849998Y-109000013D01*
X94150000Y-109000013D01*
X94150000Y-110400000D01*
X95075000Y-110400000D01*
X95575000Y-110400000D01*
X96499999Y-110400000D01*
X96499999Y-109000028D01*
X96499998Y-109000013D01*
X142400000Y-109000013D01*
X142400000Y-110400000D01*
X143325000Y-110400000D01*
X143825000Y-110400000D01*
X144749999Y-110400000D01*
X144749999Y-109000028D01*
X144749998Y-109000013D01*
X148050000Y-109000013D01*
X148050000Y-110400000D01*
X148975000Y-110400000D01*
X149475000Y-110400000D01*
X150399999Y-110400000D01*
X150399999Y-110124265D01*
X177652466Y-110124265D01*
X177652466Y-110375734D01*
X177691801Y-110624090D01*
X177769508Y-110863244D01*
X177883668Y-111087293D01*
X178031463Y-111290717D01*
X178031467Y-111290722D01*
X178209277Y-111468532D01*
X178209282Y-111468536D01*
X178386720Y-111597451D01*
X178412710Y-111616334D01*
X178555474Y-111689076D01*
X178636755Y-111730491D01*
X178636757Y-111730491D01*
X178636760Y-111730493D01*
X178764949Y-111772144D01*
X178875909Y-111808198D01*
X179124266Y-111847534D01*
X179375729Y-111847534D01*
X179375734Y-111847534D01*
X179624090Y-111808198D01*
X179863240Y-111730493D01*
X180087290Y-111616334D01*
X180290724Y-111468531D01*
X180468531Y-111290724D01*
X180616334Y-111087290D01*
X180730493Y-110863240D01*
X180808198Y-110624090D01*
X180847534Y-110375729D01*
X180850000Y-110250000D01*
X180847534Y-110124271D01*
X180808198Y-109875910D01*
X180730493Y-109636760D01*
X180730491Y-109636757D01*
X180730491Y-109636755D01*
X180689076Y-109555474D01*
X180616334Y-109412710D01*
X180597451Y-109386720D01*
X180468536Y-109209282D01*
X180468532Y-109209277D01*
X180290722Y-109031467D01*
X180290717Y-109031463D01*
X180087293Y-108883668D01*
X180087292Y-108883667D01*
X180087290Y-108883666D01*
X180017322Y-108848015D01*
X179863244Y-108769508D01*
X179624090Y-108691801D01*
X179375734Y-108652466D01*
X179375729Y-108652466D01*
X179124271Y-108652466D01*
X179124266Y-108652466D01*
X178875909Y-108691801D01*
X178636755Y-108769508D01*
X178412706Y-108883668D01*
X178209282Y-109031463D01*
X178209277Y-109031467D01*
X178031467Y-109209277D01*
X178031463Y-109209282D01*
X177883668Y-109412706D01*
X177769508Y-109636755D01*
X177691801Y-109875909D01*
X177652466Y-110124265D01*
X150399999Y-110124265D01*
X150399999Y-109000028D01*
X150399998Y-109000013D01*
X150389505Y-108897302D01*
X150334358Y-108730880D01*
X150334356Y-108730875D01*
X150242315Y-108581654D01*
X150118345Y-108457684D01*
X149969124Y-108365643D01*
X149969119Y-108365641D01*
X149802697Y-108310494D01*
X149802690Y-108310493D01*
X149699986Y-108300000D01*
X149475000Y-108300000D01*
X149475000Y-110400000D01*
X148975000Y-110400000D01*
X148975000Y-108300000D01*
X148750029Y-108300000D01*
X148750012Y-108300001D01*
X148647302Y-108310494D01*
X148480880Y-108365641D01*
X148480875Y-108365643D01*
X148331654Y-108457684D01*
X148207684Y-108581654D01*
X148115643Y-108730875D01*
X148115641Y-108730880D01*
X148060494Y-108897302D01*
X148060493Y-108897309D01*
X148050000Y-109000013D01*
X144749998Y-109000013D01*
X144739505Y-108897302D01*
X144684358Y-108730880D01*
X144684356Y-108730875D01*
X144592315Y-108581654D01*
X144468345Y-108457684D01*
X144319124Y-108365643D01*
X144319119Y-108365641D01*
X144152697Y-108310494D01*
X144152690Y-108310493D01*
X144049986Y-108300000D01*
X143825000Y-108300000D01*
X143825000Y-110400000D01*
X143325000Y-110400000D01*
X143325000Y-108300000D01*
X143100029Y-108300000D01*
X143100012Y-108300001D01*
X142997302Y-108310494D01*
X142830880Y-108365641D01*
X142830875Y-108365643D01*
X142681654Y-108457684D01*
X142557684Y-108581654D01*
X142465643Y-108730875D01*
X142465641Y-108730880D01*
X142410494Y-108897302D01*
X142410493Y-108897309D01*
X142400000Y-109000013D01*
X96499998Y-109000013D01*
X96489505Y-108897302D01*
X96434358Y-108730880D01*
X96434356Y-108730875D01*
X96342315Y-108581654D01*
X96218345Y-108457684D01*
X96069124Y-108365643D01*
X96069119Y-108365641D01*
X95902697Y-108310494D01*
X95902690Y-108310493D01*
X95799986Y-108300000D01*
X95575000Y-108300000D01*
X95575000Y-110400000D01*
X95075000Y-110400000D01*
X95075000Y-108300000D01*
X94850029Y-108300000D01*
X94850012Y-108300001D01*
X94747302Y-108310494D01*
X94580880Y-108365641D01*
X94580875Y-108365643D01*
X94431654Y-108457684D01*
X94307684Y-108581654D01*
X94215643Y-108730875D01*
X94215641Y-108730880D01*
X94160494Y-108897302D01*
X94160493Y-108897309D01*
X94150000Y-109000013D01*
X90849998Y-109000013D01*
X90839505Y-108897302D01*
X90784358Y-108730880D01*
X90784356Y-108730875D01*
X90692315Y-108581654D01*
X90568345Y-108457684D01*
X90419124Y-108365643D01*
X90419119Y-108365641D01*
X90252697Y-108310494D01*
X90252690Y-108310493D01*
X90149986Y-108300000D01*
X89925000Y-108300000D01*
X89925000Y-110400000D01*
X89425000Y-110400000D01*
X89425000Y-108300000D01*
X89200029Y-108300000D01*
X89200012Y-108300001D01*
X89097302Y-108310494D01*
X88930880Y-108365641D01*
X88930875Y-108365643D01*
X88781654Y-108457684D01*
X88657684Y-108581654D01*
X88565643Y-108730875D01*
X88565641Y-108730880D01*
X88510494Y-108897302D01*
X88510493Y-108897309D01*
X88500000Y-109000013D01*
X79247429Y-109000013D01*
X79087293Y-108883668D01*
X79087292Y-108883667D01*
X79087290Y-108883666D01*
X79017322Y-108848015D01*
X78863244Y-108769508D01*
X78624090Y-108691801D01*
X78375734Y-108652466D01*
X78375729Y-108652466D01*
X78124271Y-108652466D01*
X78124266Y-108652466D01*
X77875909Y-108691801D01*
X77636755Y-108769508D01*
X77412706Y-108883668D01*
X77209282Y-109031463D01*
X77209277Y-109031467D01*
X77031467Y-109209277D01*
X77031463Y-109209282D01*
X76883668Y-109412706D01*
X76769508Y-109636755D01*
X76691801Y-109875909D01*
X76652466Y-110124265D01*
X66000000Y-110124265D01*
X66000000Y-109796624D01*
X66019685Y-109729585D01*
X66072489Y-109683830D01*
X66141647Y-109673886D01*
X66205203Y-109702911D01*
X66215075Y-109713237D01*
X66215076Y-109713237D01*
X66344154Y-109842315D01*
X66493375Y-109934356D01*
X66493380Y-109934358D01*
X66659802Y-109989505D01*
X66659809Y-109989506D01*
X66762519Y-109999999D01*
X68162499Y-109999999D01*
X68662500Y-109999999D01*
X70062472Y-109999999D01*
X70062486Y-109999998D01*
X70165197Y-109989505D01*
X70331619Y-109934358D01*
X70331624Y-109934356D01*
X70480845Y-109842315D01*
X70604815Y-109718345D01*
X70696856Y-109569124D01*
X70696858Y-109569119D01*
X70752005Y-109402697D01*
X70752006Y-109402690D01*
X70762499Y-109299986D01*
X70762500Y-109299973D01*
X70762500Y-109075000D01*
X68662500Y-109075000D01*
X68662500Y-109999999D01*
X68162499Y-109999999D01*
X68162500Y-109999998D01*
X68162500Y-108575000D01*
X68662500Y-108575000D01*
X70762499Y-108575000D01*
X70762499Y-108350028D01*
X70762498Y-108350013D01*
X70752005Y-108247302D01*
X70696858Y-108080880D01*
X70696856Y-108080875D01*
X70604815Y-107931654D01*
X70480845Y-107807684D01*
X70331624Y-107715643D01*
X70331619Y-107715641D01*
X70165197Y-107660494D01*
X70165190Y-107660493D01*
X70062486Y-107650000D01*
X68662500Y-107650000D01*
X68662500Y-108575000D01*
X68162500Y-108575000D01*
X68162500Y-107650000D01*
X66762528Y-107650000D01*
X66762512Y-107650001D01*
X66659802Y-107660494D01*
X66493380Y-107715641D01*
X66493375Y-107715643D01*
X66344154Y-107807684D01*
X66215076Y-107936763D01*
X66213851Y-107935538D01*
X66164237Y-107970665D01*
X66094438Y-107973800D01*
X66034024Y-107938700D01*
X66002177Y-107876511D01*
X66000000Y-107853375D01*
X66000000Y-104146624D01*
X66019685Y-104079585D01*
X66072489Y-104033830D01*
X66141647Y-104023886D01*
X66205203Y-104052911D01*
X66215075Y-104063237D01*
X66215076Y-104063237D01*
X66344154Y-104192315D01*
X66493375Y-104284356D01*
X66493380Y-104284358D01*
X66659802Y-104339505D01*
X66659809Y-104339506D01*
X66762519Y-104349999D01*
X68162499Y-104349999D01*
X68662500Y-104349999D01*
X70062472Y-104349999D01*
X70062486Y-104349998D01*
X70165197Y-104339505D01*
X70331619Y-104284358D01*
X70331624Y-104284356D01*
X70480845Y-104192315D01*
X70604815Y-104068345D01*
X70696856Y-103919124D01*
X70696858Y-103919119D01*
X70752005Y-103752697D01*
X70752006Y-103752690D01*
X70762499Y-103649986D01*
X70762500Y-103649973D01*
X70762500Y-103425000D01*
X68662500Y-103425000D01*
X68662500Y-104349999D01*
X68162499Y-104349999D01*
X68162500Y-104349998D01*
X68162500Y-102925000D01*
X68662500Y-102925000D01*
X70762499Y-102925000D01*
X70762499Y-102700028D01*
X70762498Y-102700013D01*
X70752005Y-102597302D01*
X70696858Y-102430880D01*
X70696856Y-102430875D01*
X70604815Y-102281654D01*
X70480845Y-102157684D01*
X70331624Y-102065643D01*
X70331619Y-102065641D01*
X70165197Y-102010494D01*
X70165190Y-102010493D01*
X70062486Y-102000000D01*
X68662500Y-102000000D01*
X68662500Y-102925000D01*
X68162500Y-102925000D01*
X68162500Y-102000000D01*
X66762528Y-102000000D01*
X66762512Y-102000001D01*
X66659802Y-102010494D01*
X66493380Y-102065641D01*
X66493375Y-102065643D01*
X66344154Y-102157684D01*
X66215076Y-102286763D01*
X66213851Y-102285538D01*
X66164237Y-102320665D01*
X66094438Y-102323800D01*
X66034024Y-102288700D01*
X66002177Y-102226511D01*
X66000000Y-102203375D01*
X66000000Y-93296624D01*
X66019685Y-93229585D01*
X66072489Y-93183830D01*
X66141647Y-93173886D01*
X66205203Y-93202911D01*
X66215075Y-93213237D01*
X66215076Y-93213237D01*
X66344154Y-93342315D01*
X66493375Y-93434356D01*
X66493380Y-93434358D01*
X66659802Y-93489505D01*
X66659809Y-93489506D01*
X66762519Y-93499999D01*
X68162499Y-93499999D01*
X68662500Y-93499999D01*
X70062472Y-93499999D01*
X70062486Y-93499998D01*
X70165197Y-93489505D01*
X70331619Y-93434358D01*
X70331624Y-93434356D01*
X70480845Y-93342315D01*
X70604815Y-93218345D01*
X70696856Y-93069124D01*
X70696858Y-93069119D01*
X70752005Y-92902697D01*
X70752006Y-92902690D01*
X70762499Y-92799986D01*
X70762500Y-92799973D01*
X70762500Y-92575000D01*
X68662500Y-92575000D01*
X68662500Y-93499999D01*
X68162499Y-93499999D01*
X68162500Y-93499998D01*
X68162500Y-92075000D01*
X68662500Y-92075000D01*
X70762499Y-92075000D01*
X70762499Y-91850028D01*
X70762498Y-91850013D01*
X70752005Y-91747302D01*
X70696858Y-91580880D01*
X70696856Y-91580875D01*
X70604815Y-91431654D01*
X70480845Y-91307684D01*
X70331624Y-91215643D01*
X70331619Y-91215641D01*
X70165197Y-91160494D01*
X70165190Y-91160493D01*
X70062486Y-91150000D01*
X68662500Y-91150000D01*
X68662500Y-92075000D01*
X68162500Y-92075000D01*
X68162500Y-91150000D01*
X66762528Y-91150000D01*
X66762512Y-91150001D01*
X66659802Y-91160494D01*
X66493380Y-91215641D01*
X66493375Y-91215643D01*
X66344154Y-91307684D01*
X66215076Y-91436763D01*
X66213851Y-91435538D01*
X66164237Y-91470665D01*
X66094438Y-91473800D01*
X66034024Y-91438700D01*
X66002177Y-91376511D01*
X66000000Y-91353375D01*
X66000000Y-87646624D01*
X66019685Y-87579585D01*
X66072489Y-87533830D01*
X66141647Y-87523886D01*
X66205203Y-87552911D01*
X66215075Y-87563237D01*
X66215076Y-87563237D01*
X66344154Y-87692315D01*
X66493375Y-87784356D01*
X66493380Y-87784358D01*
X66659802Y-87839505D01*
X66659809Y-87839506D01*
X66762519Y-87849999D01*
X68162499Y-87849999D01*
X68662500Y-87849999D01*
X70062472Y-87849999D01*
X70062486Y-87849998D01*
X70165197Y-87839505D01*
X70331619Y-87784358D01*
X70331624Y-87784356D01*
X70480845Y-87692315D01*
X70604815Y-87568345D01*
X70696856Y-87419124D01*
X70696858Y-87419119D01*
X70752005Y-87252697D01*
X70752006Y-87252690D01*
X70762499Y-87149986D01*
X70762500Y-87149973D01*
X70762500Y-86925000D01*
X68662500Y-86925000D01*
X68662500Y-87849999D01*
X68162499Y-87849999D01*
X68162500Y-87849998D01*
X68162500Y-86425000D01*
X68662500Y-86425000D01*
X70762499Y-86425000D01*
X70762499Y-86200028D01*
X70762498Y-86200013D01*
X70752005Y-86097302D01*
X70696858Y-85930880D01*
X70696856Y-85930875D01*
X70604815Y-85781654D01*
X70480845Y-85657684D01*
X70331624Y-85565643D01*
X70331619Y-85565641D01*
X70165197Y-85510494D01*
X70165190Y-85510493D01*
X70062486Y-85500000D01*
X68662500Y-85500000D01*
X68662500Y-86425000D01*
X68162500Y-86425000D01*
X68162500Y-85500000D01*
X66762528Y-85500000D01*
X66762512Y-85500001D01*
X66659802Y-85510494D01*
X66493380Y-85565641D01*
X66493375Y-85565643D01*
X66344154Y-85657684D01*
X66215076Y-85786763D01*
X66213851Y-85785538D01*
X66164237Y-85820665D01*
X66094438Y-85823800D01*
X66034024Y-85788700D01*
X66002177Y-85726511D01*
X66000000Y-85703375D01*
X66000000Y-74046624D01*
X66019685Y-73979585D01*
X66072489Y-73933830D01*
X66141647Y-73923886D01*
X66205203Y-73952911D01*
X66215075Y-73963237D01*
X66215076Y-73963237D01*
X66344154Y-74092315D01*
X66493375Y-74184356D01*
X66493380Y-74184358D01*
X66659802Y-74239505D01*
X66659809Y-74239506D01*
X66762519Y-74249999D01*
X68162499Y-74249999D01*
X68662500Y-74249999D01*
X70062472Y-74249999D01*
X70062486Y-74249998D01*
X70165197Y-74239505D01*
X70331619Y-74184358D01*
X70331624Y-74184356D01*
X70480845Y-74092315D01*
X70604815Y-73968345D01*
X70696856Y-73819124D01*
X70696858Y-73819119D01*
X70752005Y-73652697D01*
X70752006Y-73652690D01*
X70762499Y-73549986D01*
X70762500Y-73549973D01*
X70762500Y-73325000D01*
X68662500Y-73325000D01*
X68662500Y-74249999D01*
X68162499Y-74249999D01*
X68162500Y-74249998D01*
X68162500Y-72825000D01*
X68662500Y-72825000D01*
X70762499Y-72825000D01*
X70762499Y-72600028D01*
X70762498Y-72600013D01*
X70752005Y-72497302D01*
X70696858Y-72330880D01*
X70696856Y-72330875D01*
X70604815Y-72181654D01*
X70480845Y-72057684D01*
X70331624Y-71965643D01*
X70331619Y-71965641D01*
X70165197Y-71910494D01*
X70165190Y-71910493D01*
X70062486Y-71900000D01*
X68662500Y-71900000D01*
X68662500Y-72825000D01*
X68162500Y-72825000D01*
X68162500Y-71900000D01*
X66762528Y-71900000D01*
X66762512Y-71900001D01*
X66659802Y-71910494D01*
X66493380Y-71965641D01*
X66493375Y-71965643D01*
X66344154Y-72057684D01*
X66215076Y-72186763D01*
X66213851Y-72185538D01*
X66164237Y-72220665D01*
X66094438Y-72223800D01*
X66034024Y-72188700D01*
X66002177Y-72126511D01*
X66000000Y-72103375D01*
X66000000Y-68396624D01*
X66019685Y-68329585D01*
X66072489Y-68283830D01*
X66141647Y-68273886D01*
X66205203Y-68302911D01*
X66215075Y-68313237D01*
X66215076Y-68313237D01*
X66344154Y-68442315D01*
X66493375Y-68534356D01*
X66493380Y-68534358D01*
X66659802Y-68589505D01*
X66659809Y-68589506D01*
X66762519Y-68599999D01*
X68162499Y-68599999D01*
X68662500Y-68599999D01*
X70062472Y-68599999D01*
X70062486Y-68599998D01*
X70165197Y-68589505D01*
X70331619Y-68534358D01*
X70331624Y-68534356D01*
X70480845Y-68442315D01*
X70604815Y-68318345D01*
X70696856Y-68169124D01*
X70696858Y-68169119D01*
X70752005Y-68002697D01*
X70752006Y-68002690D01*
X70762499Y-67899986D01*
X70762500Y-67899973D01*
X70762500Y-67675000D01*
X68662500Y-67675000D01*
X68662500Y-68599999D01*
X68162499Y-68599999D01*
X68162500Y-68599998D01*
X68162500Y-67175000D01*
X68662500Y-67175000D01*
X70762499Y-67175000D01*
X70762499Y-66950028D01*
X70762498Y-66950013D01*
X70752005Y-66847302D01*
X70696858Y-66680880D01*
X70696856Y-66680875D01*
X70604815Y-66531654D01*
X70533599Y-66460438D01*
X73199500Y-66460438D01*
X73199500Y-84039562D01*
X73201390Y-84046614D01*
X73219979Y-84115991D01*
X73219981Y-84115994D01*
X73253403Y-84173881D01*
X73253404Y-84173887D01*
X73253406Y-84173887D01*
X73259538Y-84184508D01*
X73259541Y-84184513D01*
X76210604Y-87135575D01*
X76244089Y-87196898D01*
X76245661Y-87240902D01*
X76244353Y-87249999D01*
X76264834Y-87392453D01*
X76264834Y-87392454D01*
X76264834Y-87392455D01*
X76264835Y-87392457D01*
X76288294Y-87443825D01*
X76299500Y-87495335D01*
X76299500Y-93309309D01*
X76316670Y-93373388D01*
X76316670Y-93373389D01*
X76330199Y-93423884D01*
X76348463Y-93455517D01*
X76389511Y-93526614D01*
X77223386Y-94360489D01*
X77295595Y-94402179D01*
X77326114Y-94419800D01*
X77396233Y-94438587D01*
X77440691Y-94450499D01*
X77440694Y-94450499D01*
X77559306Y-94450499D01*
X77559309Y-94450499D01*
X77635815Y-94430000D01*
X77673885Y-94419800D01*
X77673887Y-94419799D01*
X77776614Y-94360489D01*
X77860489Y-94276614D01*
X77860488Y-94276614D01*
X77919057Y-94218045D01*
X77919056Y-94218045D01*
X83371536Y-88765568D01*
X83432859Y-88732083D01*
X83459217Y-88729249D01*
X138675500Y-88729249D01*
X138742539Y-88748934D01*
X138788294Y-88801738D01*
X138799500Y-88853249D01*
X138799500Y-96809308D01*
X138819957Y-96885658D01*
X138819958Y-96885658D01*
X138819958Y-96885659D01*
X138830201Y-96923887D01*
X138889511Y-97026614D01*
X143223386Y-101360490D01*
X143326114Y-101419799D01*
X143440691Y-101450500D01*
X150242273Y-101450500D01*
X150281004Y-101458926D01*
X150281437Y-101457455D01*
X150428036Y-101500499D01*
X150428038Y-101500500D01*
X150428039Y-101500500D01*
X150571962Y-101500500D01*
X150571962Y-101500499D01*
X150624797Y-101484985D01*
X150718563Y-101457455D01*
X150718995Y-101458926D01*
X150757727Y-101450500D01*
X162234308Y-101450500D01*
X162234309Y-101450500D01*
X162324673Y-101426286D01*
X162348887Y-101419799D01*
X162451614Y-101360489D01*
X164810490Y-99001614D01*
X164868278Y-98901520D01*
X164918844Y-98853306D01*
X164919064Y-98853192D01*
X164928220Y-98848528D01*
X164947174Y-98829573D01*
X165008493Y-98796090D01*
X165078184Y-98801073D01*
X165134119Y-98842944D01*
X165140391Y-98852158D01*
X165202426Y-98952731D01*
X165322267Y-99072572D01*
X165322271Y-99072575D01*
X165466507Y-99161542D01*
X165466518Y-99161547D01*
X165627393Y-99214855D01*
X165726683Y-99224999D01*
X166250000Y-99224999D01*
X166273308Y-99224999D01*
X166273322Y-99224998D01*
X166372607Y-99214855D01*
X166533481Y-99161547D01*
X166533492Y-99161542D01*
X166677728Y-99072575D01*
X166677732Y-99072572D01*
X166797572Y-98952732D01*
X166797575Y-98952728D01*
X166886542Y-98808492D01*
X166886547Y-98808481D01*
X166939855Y-98647606D01*
X166949999Y-98548322D01*
X166950000Y-98548309D01*
X166950000Y-98500000D01*
X166250000Y-98500000D01*
X166250000Y-99224999D01*
X165726683Y-99224999D01*
X165750000Y-99224998D01*
X165750000Y-97274999D01*
X165726693Y-97275000D01*
X165726674Y-97275001D01*
X165627392Y-97285144D01*
X165466518Y-97338452D01*
X165466507Y-97338457D01*
X165322271Y-97427424D01*
X165322267Y-97427427D01*
X165202426Y-97547268D01*
X165140392Y-97647841D01*
X165088444Y-97694565D01*
X165019481Y-97705786D01*
X164955399Y-97677943D01*
X164947173Y-97670424D01*
X164928225Y-97651476D01*
X164928221Y-97651473D01*
X164928220Y-97651472D01*
X164808126Y-97590281D01*
X164808125Y-97590280D01*
X164808122Y-97590279D01*
X164805099Y-97589801D01*
X164801719Y-97588198D01*
X164798840Y-97587263D01*
X164798960Y-97586890D01*
X164741965Y-97559869D01*
X164705035Y-97500557D01*
X164700500Y-97467328D01*
X164700500Y-97421352D01*
X164720185Y-97354313D01*
X164772989Y-97308558D01*
X164783548Y-97304310D01*
X164785915Y-97303481D01*
X164787882Y-97302793D01*
X164897150Y-97222150D01*
X164977793Y-97112882D01*
X165007979Y-97026616D01*
X165022646Y-96984701D01*
X165022646Y-96984699D01*
X165025500Y-96954269D01*
X165025500Y-96949986D01*
X166125001Y-96949986D01*
X166135494Y-97052697D01*
X166190642Y-97219123D01*
X166207874Y-97247059D01*
X166235378Y-97275077D01*
X166250000Y-97333494D01*
X166250000Y-98000000D01*
X166949999Y-98000000D01*
X166949999Y-97951692D01*
X166949998Y-97951677D01*
X166939855Y-97852392D01*
X166916064Y-97780594D01*
X166913662Y-97710766D01*
X166946090Y-97653908D01*
X166949999Y-97649999D01*
X167450000Y-97649999D01*
X167574972Y-97649999D01*
X167574986Y-97649998D01*
X167677697Y-97639505D01*
X167844119Y-97584358D01*
X167844124Y-97584356D01*
X167993345Y-97492315D01*
X168117315Y-97368345D01*
X168209356Y-97219124D01*
X168209358Y-97219119D01*
X168264505Y-97052697D01*
X168264506Y-97052690D01*
X168274999Y-96949986D01*
X168275000Y-96949973D01*
X168275000Y-96500000D01*
X167450000Y-96500000D01*
X167450000Y-97649999D01*
X166949999Y-97649999D01*
X166950000Y-97649998D01*
X166950000Y-96500000D01*
X166125001Y-96500000D01*
X166125001Y-96949986D01*
X165025500Y-96949986D01*
X165025500Y-95545730D01*
X165022646Y-95515300D01*
X165022646Y-95515298D01*
X164984591Y-95406547D01*
X164977793Y-95387118D01*
X164897150Y-95277850D01*
X164787882Y-95197207D01*
X164783542Y-95195688D01*
X164726768Y-95154966D01*
X164701022Y-95090013D01*
X164700500Y-95078648D01*
X164700500Y-94811785D01*
X164720185Y-94744746D01*
X164749011Y-94713412D01*
X164785451Y-94685451D01*
X164877698Y-94565233D01*
X164877697Y-94565233D01*
X164882645Y-94558786D01*
X164883775Y-94559653D01*
X164927980Y-94517496D01*
X164996586Y-94504266D01*
X165061453Y-94530228D01*
X165095899Y-94572611D01*
X165183392Y-94749025D01*
X165302632Y-94897366D01*
X165302633Y-94897367D01*
X165450974Y-95016607D01*
X165450977Y-95016609D01*
X165621476Y-95101168D01*
X165806175Y-95147102D01*
X165848903Y-95150000D01*
X166062291Y-95150000D01*
X166129330Y-95169685D01*
X166175085Y-95222489D01*
X166185029Y-95291647D01*
X166179997Y-95313004D01*
X166135494Y-95447302D01*
X166135493Y-95447309D01*
X166125000Y-95550013D01*
X166125000Y-96000000D01*
X168274999Y-96000000D01*
X168274999Y-95550028D01*
X168274998Y-95550013D01*
X168264505Y-95447302D01*
X168209358Y-95280880D01*
X168209356Y-95280875D01*
X168117315Y-95131654D01*
X167993345Y-95007684D01*
X167844124Y-94915643D01*
X167844119Y-94915641D01*
X167677697Y-94860494D01*
X167677690Y-94860493D01*
X167574986Y-94850000D01*
X167566439Y-94850000D01*
X167499400Y-94830315D01*
X167453645Y-94777511D01*
X167443701Y-94708353D01*
X167455351Y-94670905D01*
X167501169Y-94578521D01*
X167547102Y-94393824D01*
X167550000Y-94351096D01*
X167550000Y-93900000D01*
X166174000Y-93900000D01*
X166106961Y-93880315D01*
X166061206Y-93827511D01*
X166050000Y-93776000D01*
X166050000Y-93400000D01*
X166550000Y-93400000D01*
X167550000Y-93400000D01*
X167550000Y-92948903D01*
X167547102Y-92906175D01*
X167501168Y-92721476D01*
X167416609Y-92550977D01*
X167416607Y-92550974D01*
X167297367Y-92402633D01*
X167297366Y-92402632D01*
X167149025Y-92283392D01*
X167149022Y-92283390D01*
X166978523Y-92198831D01*
X166793824Y-92152897D01*
X166751097Y-92150000D01*
X166550000Y-92150000D01*
X166550000Y-93400000D01*
X166050000Y-93400000D01*
X166050000Y-92150000D01*
X165848903Y-92150000D01*
X165806175Y-92152897D01*
X165621476Y-92198831D01*
X165450977Y-92283390D01*
X165450974Y-92283392D01*
X165302633Y-92402632D01*
X165302632Y-92402633D01*
X165183392Y-92550974D01*
X165095899Y-92727388D01*
X165048478Y-92778701D01*
X164980843Y-92796229D01*
X164914467Y-92774409D01*
X164883331Y-92740688D01*
X164882645Y-92741215D01*
X164877698Y-92734769D01*
X164877698Y-92734767D01*
X164785451Y-92614549D01*
X164665233Y-92522302D01*
X164665229Y-92522300D01*
X164527047Y-92465063D01*
X164472644Y-92421222D01*
X164450579Y-92354928D01*
X164450500Y-92350502D01*
X164450500Y-88674500D01*
X164470185Y-88607461D01*
X164522989Y-88561706D01*
X164574500Y-88550500D01*
X165456613Y-88550500D01*
X165456616Y-88550500D01*
X165527196Y-88544086D01*
X165689606Y-88493478D01*
X165835185Y-88405472D01*
X165955472Y-88285185D01*
X166043478Y-88139606D01*
X166094086Y-87977196D01*
X166100500Y-87906616D01*
X166100500Y-87136191D01*
X166120185Y-87069152D01*
X166172989Y-87023397D01*
X166242147Y-87013453D01*
X166305703Y-87042478D01*
X166312181Y-87048510D01*
X169013181Y-89749510D01*
X169046666Y-89810833D01*
X169049500Y-89837191D01*
X169049500Y-100059308D01*
X169073712Y-100149672D01*
X169080200Y-100173885D01*
X169080200Y-100173886D01*
X169080201Y-100173887D01*
X169139511Y-100276614D01*
X169139513Y-100276616D01*
X173756984Y-104894087D01*
X173782097Y-104930256D01*
X173824623Y-105023373D01*
X173918872Y-105132143D01*
X174039947Y-105209953D01*
X174039950Y-105209954D01*
X174039949Y-105209954D01*
X174178036Y-105250499D01*
X174178038Y-105250500D01*
X174178039Y-105250500D01*
X174321962Y-105250500D01*
X174321962Y-105250499D01*
X174460053Y-105209953D01*
X174581128Y-105132143D01*
X174675377Y-105023373D01*
X174735165Y-104892457D01*
X174755647Y-104750000D01*
X174735165Y-104607543D01*
X174675377Y-104476627D01*
X174581128Y-104367857D01*
X174527373Y-104333311D01*
X174460052Y-104290046D01*
X174443836Y-104285285D01*
X174391092Y-104253989D01*
X169986819Y-99849716D01*
X169953334Y-99788393D01*
X169950500Y-99762035D01*
X169950500Y-93159999D01*
X170905202Y-93159999D01*
X170905202Y-93160000D01*
X170924353Y-93366676D01*
X170981158Y-93566327D01*
X171073673Y-93752123D01*
X171073681Y-93752136D01*
X171078254Y-93758191D01*
X171612356Y-93224089D01*
X171638622Y-93322114D01*
X171693916Y-93417886D01*
X171772114Y-93496084D01*
X171867886Y-93551378D01*
X171965909Y-93577642D01*
X171434785Y-94108767D01*
X171434785Y-94108768D01*
X171528625Y-94166872D01*
X171528634Y-94166877D01*
X171722186Y-94241859D01*
X171926219Y-94280000D01*
X172133781Y-94280000D01*
X172334125Y-94242549D01*
X172403640Y-94249580D01*
X172458319Y-94293078D01*
X172480801Y-94359231D01*
X172480130Y-94378321D01*
X172474308Y-94429995D01*
X172474308Y-94430004D01*
X172480130Y-94481678D01*
X172468075Y-94550500D01*
X172420726Y-94601879D01*
X172353116Y-94619503D01*
X172334126Y-94617450D01*
X172133782Y-94580000D01*
X171926219Y-94580000D01*
X171722186Y-94618140D01*
X171722185Y-94618140D01*
X171528634Y-94693121D01*
X171528633Y-94693122D01*
X171434784Y-94751231D01*
X171965909Y-95282356D01*
X171867886Y-95308622D01*
X171772114Y-95363916D01*
X171693916Y-95442114D01*
X171638622Y-95537886D01*
X171612356Y-95635909D01*
X171078254Y-95101807D01*
X171078253Y-95101808D01*
X171073679Y-95107866D01*
X171073675Y-95107872D01*
X170981158Y-95293672D01*
X170924353Y-95493323D01*
X170905202Y-95699999D01*
X170905202Y-95700000D01*
X170924353Y-95906676D01*
X170981158Y-96106327D01*
X171073673Y-96292123D01*
X171073681Y-96292136D01*
X171078254Y-96298191D01*
X171612356Y-95764089D01*
X171638622Y-95862114D01*
X171693916Y-95957886D01*
X171772114Y-96036084D01*
X171867886Y-96091378D01*
X171965909Y-96117643D01*
X171434785Y-96648767D01*
X171434785Y-96648768D01*
X171528625Y-96706872D01*
X171528634Y-96706877D01*
X171722186Y-96781859D01*
X171926219Y-96820000D01*
X172133781Y-96820000D01*
X172337813Y-96781859D01*
X172337814Y-96781859D01*
X172531370Y-96706875D01*
X172625214Y-96648768D01*
X172625214Y-96648767D01*
X172094090Y-96117642D01*
X172192114Y-96091378D01*
X172287886Y-96036084D01*
X172366084Y-95957886D01*
X172421378Y-95862114D01*
X172447643Y-95764089D01*
X172981744Y-96298190D01*
X172981745Y-96298190D01*
X172986324Y-96292127D01*
X172986326Y-96292124D01*
X173078840Y-96106330D01*
X173078841Y-96106329D01*
X173135646Y-95906676D01*
X173154798Y-95700000D01*
X173154798Y-95699999D01*
X173135646Y-95493319D01*
X173135645Y-95493316D01*
X173110958Y-95406548D01*
X173111545Y-95336681D01*
X173149812Y-95278222D01*
X173213609Y-95249732D01*
X173244104Y-95249394D01*
X173290511Y-95254622D01*
X173299999Y-95255692D01*
X173300000Y-95255692D01*
X173300001Y-95255692D01*
X173308111Y-95254778D01*
X173355892Y-95249394D01*
X173424712Y-95261448D01*
X173476092Y-95308796D01*
X173493717Y-95376406D01*
X173489042Y-95406547D01*
X173464353Y-95493321D01*
X173445202Y-95699999D01*
X173445202Y-95700000D01*
X173464353Y-95906676D01*
X173521158Y-96106327D01*
X173613673Y-96292123D01*
X173613681Y-96292136D01*
X173618254Y-96298191D01*
X174152356Y-95764089D01*
X174178622Y-95862114D01*
X174233916Y-95957886D01*
X174312114Y-96036084D01*
X174407886Y-96091378D01*
X174505909Y-96117643D01*
X173974785Y-96648767D01*
X173974785Y-96648768D01*
X174068625Y-96706872D01*
X174068634Y-96706877D01*
X174262186Y-96781859D01*
X174466219Y-96820000D01*
X174673781Y-96820000D01*
X174877813Y-96781859D01*
X174877814Y-96781859D01*
X175071370Y-96706875D01*
X175165214Y-96648768D01*
X175165214Y-96648767D01*
X174634090Y-96117642D01*
X174732114Y-96091378D01*
X174827886Y-96036084D01*
X174906084Y-95957886D01*
X174961378Y-95862114D01*
X174987643Y-95764090D01*
X175521744Y-96298190D01*
X175521745Y-96298190D01*
X175526324Y-96292127D01*
X175526326Y-96292124D01*
X175618840Y-96106330D01*
X175618841Y-96106329D01*
X175675646Y-95906676D01*
X175694798Y-95700000D01*
X175694798Y-95699999D01*
X175675646Y-95493323D01*
X175618841Y-95293670D01*
X175618840Y-95293669D01*
X175526328Y-95107879D01*
X175526324Y-95107873D01*
X175521744Y-95101808D01*
X174987643Y-95635909D01*
X174961378Y-95537886D01*
X174906084Y-95442114D01*
X174827886Y-95363916D01*
X174732114Y-95308622D01*
X174634089Y-95282356D01*
X175165214Y-94751231D01*
X175165213Y-94751229D01*
X175071374Y-94693126D01*
X174877813Y-94618140D01*
X174673781Y-94580000D01*
X174466218Y-94580000D01*
X174265873Y-94617450D01*
X174196358Y-94610419D01*
X174141680Y-94566921D01*
X174119198Y-94500767D01*
X174119869Y-94481676D01*
X174125692Y-94430000D01*
X174125692Y-94429998D01*
X174120588Y-94384701D01*
X174119869Y-94378321D01*
X174131923Y-94309501D01*
X174179271Y-94258121D01*
X174246882Y-94240496D01*
X174265874Y-94242549D01*
X174466219Y-94280000D01*
X174673781Y-94280000D01*
X174877813Y-94241859D01*
X174877814Y-94241859D01*
X175071370Y-94166875D01*
X175165214Y-94108768D01*
X175165214Y-94108767D01*
X174634090Y-93577643D01*
X174732114Y-93551378D01*
X174827886Y-93496084D01*
X174906084Y-93417886D01*
X174961378Y-93322114D01*
X174987643Y-93224090D01*
X175521744Y-93758190D01*
X175521745Y-93758190D01*
X175526324Y-93752127D01*
X175526326Y-93752124D01*
X175618840Y-93566330D01*
X175618841Y-93566329D01*
X175675646Y-93366676D01*
X175694798Y-93160000D01*
X175694798Y-93159999D01*
X175675646Y-92953323D01*
X175618841Y-92753670D01*
X175618840Y-92753669D01*
X175526328Y-92567879D01*
X175526324Y-92567873D01*
X175521744Y-92561808D01*
X174987643Y-93095909D01*
X174961378Y-92997886D01*
X174906084Y-92902114D01*
X174827886Y-92823916D01*
X174732114Y-92768622D01*
X174634089Y-92742356D01*
X175165214Y-92211231D01*
X175165213Y-92211229D01*
X175071374Y-92153126D01*
X174877813Y-92078140D01*
X174673781Y-92040000D01*
X174466219Y-92040000D01*
X174262186Y-92078140D01*
X174262185Y-92078140D01*
X174068634Y-92153121D01*
X174068633Y-92153122D01*
X173974784Y-92211231D01*
X174505910Y-92742356D01*
X174407886Y-92768622D01*
X174312114Y-92823916D01*
X174233916Y-92902114D01*
X174178622Y-92997886D01*
X174152356Y-93095909D01*
X173618254Y-92561807D01*
X173618253Y-92561808D01*
X173613679Y-92567866D01*
X173613675Y-92567872D01*
X173521158Y-92753672D01*
X173464353Y-92953323D01*
X173445202Y-93159999D01*
X173445202Y-93160000D01*
X173464353Y-93366678D01*
X173489042Y-93453452D01*
X173488454Y-93523319D01*
X173450187Y-93581778D01*
X173386389Y-93610267D01*
X173355892Y-93610605D01*
X173300004Y-93604308D01*
X173299996Y-93604308D01*
X173244106Y-93610605D01*
X173175284Y-93598550D01*
X173123905Y-93551201D01*
X173106281Y-93483591D01*
X173110957Y-93453450D01*
X173135646Y-93366679D01*
X173154798Y-93160000D01*
X173154798Y-93159999D01*
X173135646Y-92953323D01*
X173078841Y-92753670D01*
X173078840Y-92753669D01*
X172986328Y-92567879D01*
X172986324Y-92567873D01*
X172981744Y-92561808D01*
X172447642Y-93095909D01*
X172421378Y-92997886D01*
X172366084Y-92902114D01*
X172287886Y-92823916D01*
X172192114Y-92768622D01*
X172094089Y-92742356D01*
X172625214Y-92211231D01*
X172625213Y-92211229D01*
X172531374Y-92153126D01*
X172337813Y-92078140D01*
X172133781Y-92040000D01*
X171926219Y-92040000D01*
X171722186Y-92078140D01*
X171722185Y-92078140D01*
X171528634Y-92153121D01*
X171528633Y-92153122D01*
X171434784Y-92211231D01*
X171965910Y-92742356D01*
X171867886Y-92768622D01*
X171772114Y-92823916D01*
X171693916Y-92902114D01*
X171638622Y-92997886D01*
X171612356Y-93095909D01*
X171078254Y-92561807D01*
X171078253Y-92561808D01*
X171073679Y-92567866D01*
X171073675Y-92567872D01*
X170981158Y-92753672D01*
X170924353Y-92953323D01*
X170905202Y-93159999D01*
X169950500Y-93159999D01*
X169950500Y-89539919D01*
X169950500Y-89539917D01*
X169919799Y-89425340D01*
X169900814Y-89392457D01*
X169860490Y-89322612D01*
X166077388Y-85539511D01*
X166026024Y-85509856D01*
X165974662Y-85480201D01*
X165962554Y-85476957D01*
X165950447Y-85473713D01*
X165950444Y-85473712D01*
X165860102Y-85449505D01*
X165804514Y-85417411D01*
X163776819Y-83389716D01*
X163743334Y-83328393D01*
X163740500Y-83302035D01*
X163740500Y-82924500D01*
X163760185Y-82857461D01*
X163812989Y-82811706D01*
X163864500Y-82800500D01*
X164159750Y-82800500D01*
X164159751Y-82800499D01*
X164174568Y-82797552D01*
X164218229Y-82788868D01*
X164218229Y-82788867D01*
X164218231Y-82788867D01*
X164284552Y-82744552D01*
X164328867Y-82678231D01*
X164328867Y-82678229D01*
X164328868Y-82678229D01*
X164339600Y-82624271D01*
X164339601Y-82624265D01*
X177652466Y-82624265D01*
X177652466Y-82875734D01*
X177691801Y-83124090D01*
X177769508Y-83363244D01*
X177832983Y-83487819D01*
X177880054Y-83580202D01*
X177883668Y-83587293D01*
X178031463Y-83790717D01*
X178031467Y-83790722D01*
X178209277Y-83968532D01*
X178209282Y-83968536D01*
X178289767Y-84027011D01*
X178412710Y-84116334D01*
X178546509Y-84184508D01*
X178636755Y-84230491D01*
X178636757Y-84230491D01*
X178636760Y-84230493D01*
X178764949Y-84272144D01*
X178875909Y-84308198D01*
X179124266Y-84347534D01*
X179375729Y-84347534D01*
X179375734Y-84347534D01*
X179624090Y-84308198D01*
X179679223Y-84290284D01*
X179863240Y-84230493D01*
X180087290Y-84116334D01*
X180290724Y-83968531D01*
X180468531Y-83790724D01*
X180616334Y-83587290D01*
X180730493Y-83363240D01*
X180808198Y-83124090D01*
X180847534Y-82875729D01*
X180850000Y-82750000D01*
X180847534Y-82624271D01*
X180808198Y-82375910D01*
X180730493Y-82136760D01*
X180730491Y-82136757D01*
X180730491Y-82136755D01*
X180660810Y-82000000D01*
X180616334Y-81912710D01*
X180498119Y-81750000D01*
X180468536Y-81709282D01*
X180468532Y-81709277D01*
X180290722Y-81531467D01*
X180290717Y-81531463D01*
X180087293Y-81383668D01*
X180087292Y-81383667D01*
X180087290Y-81383666D01*
X180013451Y-81346043D01*
X179863244Y-81269508D01*
X179624090Y-81191801D01*
X179375734Y-81152466D01*
X179375729Y-81152466D01*
X179124271Y-81152466D01*
X179124266Y-81152466D01*
X178875909Y-81191801D01*
X178636755Y-81269508D01*
X178412706Y-81383668D01*
X178209282Y-81531463D01*
X178209277Y-81531467D01*
X178031467Y-81709277D01*
X178031463Y-81709282D01*
X177883668Y-81912706D01*
X177769508Y-82136755D01*
X177691801Y-82375909D01*
X177652466Y-82624265D01*
X164339601Y-82624265D01*
X164340500Y-82619748D01*
X164340500Y-80880252D01*
X164340500Y-80880249D01*
X164340499Y-80880247D01*
X164328868Y-80821770D01*
X164328867Y-80821769D01*
X164284552Y-80755447D01*
X164218230Y-80711132D01*
X164218229Y-80711131D01*
X164159752Y-80699500D01*
X164159748Y-80699500D01*
X162420252Y-80699500D01*
X162420247Y-80699500D01*
X162361770Y-80711131D01*
X162361769Y-80711132D01*
X162295447Y-80755447D01*
X162251132Y-80821769D01*
X162251131Y-80821770D01*
X162239500Y-80880247D01*
X162239500Y-81190543D01*
X162219815Y-81257582D01*
X162167011Y-81303337D01*
X162097853Y-81313281D01*
X162034297Y-81284256D01*
X162003118Y-81242948D01*
X161923600Y-81072422D01*
X161923599Y-81072420D01*
X161788113Y-80878926D01*
X161788108Y-80878920D01*
X161621082Y-80711894D01*
X161427578Y-80576399D01*
X161213492Y-80476570D01*
X161213486Y-80476567D01*
X161000000Y-80419364D01*
X161000000Y-81316988D01*
X160942993Y-81284075D01*
X160815826Y-81250000D01*
X160684174Y-81250000D01*
X160557007Y-81284075D01*
X160500000Y-81316988D01*
X160500000Y-80419364D01*
X160499999Y-80419364D01*
X160286513Y-80476567D01*
X160286507Y-80476570D01*
X160072422Y-80576399D01*
X160072420Y-80576400D01*
X159878926Y-80711886D01*
X159878920Y-80711891D01*
X159711891Y-80878920D01*
X159711886Y-80878926D01*
X159576400Y-81072420D01*
X159576399Y-81072422D01*
X159476570Y-81286507D01*
X159476567Y-81286513D01*
X159419364Y-81499999D01*
X159419364Y-81500000D01*
X160316988Y-81500000D01*
X160284075Y-81557007D01*
X160250000Y-81684174D01*
X160250000Y-81815826D01*
X160284075Y-81942993D01*
X160316988Y-82000000D01*
X159419364Y-82000000D01*
X159476567Y-82213486D01*
X159476570Y-82213492D01*
X159576399Y-82427578D01*
X159711894Y-82621082D01*
X159878917Y-82788105D01*
X160072421Y-82923600D01*
X160286507Y-83023429D01*
X160286516Y-83023433D01*
X160500000Y-83080634D01*
X160500000Y-82183012D01*
X160557007Y-82215925D01*
X160684174Y-82250000D01*
X160815826Y-82250000D01*
X160942993Y-82215925D01*
X161000000Y-82183012D01*
X161000000Y-83080633D01*
X161213483Y-83023433D01*
X161213492Y-83023429D01*
X161427578Y-82923600D01*
X161621082Y-82788105D01*
X161788105Y-82621082D01*
X161923599Y-82427578D01*
X162003118Y-82257051D01*
X162049290Y-82204612D01*
X162116484Y-82185460D01*
X162183365Y-82205676D01*
X162228699Y-82258841D01*
X162239500Y-82309456D01*
X162239500Y-82619752D01*
X162251131Y-82678229D01*
X162251132Y-82678230D01*
X162284130Y-82727614D01*
X162305008Y-82794291D01*
X162286524Y-82861671D01*
X162268709Y-82884186D01*
X161743386Y-83409511D01*
X161289513Y-83863383D01*
X161289509Y-83863389D01*
X161230201Y-83966112D01*
X161230200Y-83966117D01*
X161199500Y-84080691D01*
X161199500Y-84762034D01*
X161179815Y-84829073D01*
X161163181Y-84849715D01*
X160463149Y-85549747D01*
X160401826Y-85583232D01*
X160332134Y-85578248D01*
X160276201Y-85536376D01*
X160252730Y-85479713D01*
X160251867Y-85473713D01*
X160235165Y-85357543D01*
X160175377Y-85226627D01*
X160081128Y-85117857D01*
X159960053Y-85040047D01*
X159960051Y-85040046D01*
X159960049Y-85040045D01*
X159960050Y-85040045D01*
X159821963Y-84999500D01*
X159821961Y-84999500D01*
X159725833Y-84999500D01*
X159658794Y-84979815D01*
X159638152Y-84963181D01*
X158834512Y-84159541D01*
X158834504Y-84159535D01*
X158765995Y-84119982D01*
X158765990Y-84119979D01*
X158740513Y-84113152D01*
X158689562Y-84099500D01*
X158689560Y-84099500D01*
X153584833Y-84099500D01*
X153517794Y-84079815D01*
X153472039Y-84027011D01*
X153462095Y-83957853D01*
X153491120Y-83894297D01*
X153497152Y-83887819D01*
X153757960Y-83627011D01*
X154561059Y-82823910D01*
X154622380Y-82790427D01*
X154636582Y-82788190D01*
X154665934Y-82785300D01*
X154863954Y-82725232D01*
X155046450Y-82627685D01*
X155206410Y-82496410D01*
X155337685Y-82336450D01*
X155435232Y-82153954D01*
X155455406Y-82087446D01*
X155493702Y-82029010D01*
X155557514Y-82000553D01*
X155626581Y-82011112D01*
X155678975Y-82057336D01*
X155693841Y-82091349D01*
X155726567Y-82213486D01*
X155726570Y-82213492D01*
X155826399Y-82427578D01*
X155961894Y-82621082D01*
X156128917Y-82788105D01*
X156322421Y-82923600D01*
X156536507Y-83023429D01*
X156536516Y-83023433D01*
X156750000Y-83080634D01*
X156750000Y-82183012D01*
X156807007Y-82215925D01*
X156934174Y-82250000D01*
X157065826Y-82250000D01*
X157192993Y-82215925D01*
X157250000Y-82183012D01*
X157250000Y-83080633D01*
X157463483Y-83023433D01*
X157463492Y-83023429D01*
X157677578Y-82923600D01*
X157871082Y-82788105D01*
X158038105Y-82621082D01*
X158173600Y-82427578D01*
X158273429Y-82213492D01*
X158273432Y-82213486D01*
X158330636Y-82000000D01*
X157433012Y-82000000D01*
X157465925Y-81942993D01*
X157500000Y-81815826D01*
X157500000Y-81684174D01*
X157465925Y-81557007D01*
X157433012Y-81500000D01*
X158330636Y-81500000D01*
X158330635Y-81499999D01*
X158273432Y-81286513D01*
X158273429Y-81286507D01*
X158173600Y-81072422D01*
X158173599Y-81072420D01*
X158038113Y-80878926D01*
X158038108Y-80878920D01*
X157871082Y-80711894D01*
X157677578Y-80576399D01*
X157463492Y-80476570D01*
X157463486Y-80476567D01*
X157250000Y-80419364D01*
X157250000Y-81316988D01*
X157192993Y-81284075D01*
X157065826Y-81250000D01*
X156934174Y-81250000D01*
X156807007Y-81284075D01*
X156750000Y-81316988D01*
X156750000Y-80419364D01*
X156749999Y-80419364D01*
X156536513Y-80476567D01*
X156536507Y-80476570D01*
X156322422Y-80576399D01*
X156322420Y-80576400D01*
X156128926Y-80711886D01*
X156128920Y-80711891D01*
X155961891Y-80878920D01*
X155961886Y-80878926D01*
X155826400Y-81072420D01*
X155826399Y-81072422D01*
X155726570Y-81286507D01*
X155726567Y-81286514D01*
X155693841Y-81408650D01*
X155657476Y-81468310D01*
X155594629Y-81498839D01*
X155525253Y-81490544D01*
X155471375Y-81446059D01*
X155455406Y-81412553D01*
X155435232Y-81346046D01*
X155337685Y-81163550D01*
X155262897Y-81072420D01*
X155206410Y-81003589D01*
X155056121Y-80880252D01*
X155046450Y-80872315D01*
X154863954Y-80774768D01*
X154665934Y-80714700D01*
X154665932Y-80714699D01*
X154665934Y-80714699D01*
X154460000Y-80694417D01*
X154254067Y-80714699D01*
X154056043Y-80774769D01*
X153968114Y-80821769D01*
X153873550Y-80872315D01*
X153873548Y-80872316D01*
X153873547Y-80872317D01*
X153713589Y-81003589D01*
X153591411Y-81152466D01*
X153582315Y-81163550D01*
X153543643Y-81235898D01*
X153484769Y-81346043D01*
X153424699Y-81544067D01*
X153404417Y-81750000D01*
X153424699Y-81955932D01*
X153424700Y-81955934D01*
X153484768Y-82153954D01*
X153582315Y-82336450D01*
X153695268Y-82474084D01*
X153713590Y-82496410D01*
X153786352Y-82556125D01*
X153825686Y-82613871D01*
X153827557Y-82683715D01*
X153795368Y-82739659D01*
X152871848Y-83663181D01*
X152810525Y-83696666D01*
X152784167Y-83699500D01*
X150959147Y-83699500D01*
X150892108Y-83679815D01*
X150846353Y-83627011D01*
X150836409Y-83557853D01*
X150865434Y-83494297D01*
X150871466Y-83487819D01*
X151522466Y-82836819D01*
X151583789Y-82803334D01*
X151610147Y-82800500D01*
X151862299Y-82800500D01*
X151874453Y-82801097D01*
X151920000Y-82805583D01*
X152125934Y-82785300D01*
X152323954Y-82725232D01*
X152506450Y-82627685D01*
X152666410Y-82496410D01*
X152797685Y-82336450D01*
X152895232Y-82153954D01*
X152955300Y-81955934D01*
X152975583Y-81750000D01*
X152955300Y-81544066D01*
X152895232Y-81346046D01*
X152797685Y-81163550D01*
X152722897Y-81072420D01*
X152666410Y-81003589D01*
X152516121Y-80880252D01*
X152506450Y-80872315D01*
X152323954Y-80774768D01*
X152125934Y-80714700D01*
X152125932Y-80714699D01*
X152125934Y-80714699D01*
X151920000Y-80694417D01*
X151714067Y-80714699D01*
X151516043Y-80774769D01*
X151428114Y-80821769D01*
X151333550Y-80872315D01*
X151333548Y-80872316D01*
X151333547Y-80872317D01*
X151173589Y-81003589D01*
X151051411Y-81152466D01*
X151042315Y-81163550D01*
X151003643Y-81235898D01*
X150944769Y-81346043D01*
X150884699Y-81544067D01*
X150864417Y-81750000D01*
X150884699Y-81955932D01*
X150884700Y-81955934D01*
X150939552Y-82136760D01*
X150944769Y-82153956D01*
X151044446Y-82340437D01*
X151058688Y-82408840D01*
X151033688Y-82474084D01*
X151022769Y-82486572D01*
X149796162Y-83713181D01*
X149734839Y-83746666D01*
X149708481Y-83749500D01*
X148854833Y-83749500D01*
X148787794Y-83729815D01*
X148742039Y-83677011D01*
X148732095Y-83607853D01*
X148761120Y-83544297D01*
X148767152Y-83537819D01*
X148941731Y-83363240D01*
X149481059Y-82823910D01*
X149542380Y-82790427D01*
X149556582Y-82788190D01*
X149585934Y-82785300D01*
X149783954Y-82725232D01*
X149966450Y-82627685D01*
X150126410Y-82496410D01*
X150257685Y-82336450D01*
X150355232Y-82153954D01*
X150415300Y-81955934D01*
X150435583Y-81750000D01*
X150415300Y-81544066D01*
X150355232Y-81346046D01*
X150257685Y-81163550D01*
X150182897Y-81072420D01*
X150126410Y-81003589D01*
X149976121Y-80880252D01*
X149966450Y-80872315D01*
X149783954Y-80774768D01*
X149585934Y-80714700D01*
X149585932Y-80714699D01*
X149585934Y-80714699D01*
X149380000Y-80694417D01*
X149174067Y-80714699D01*
X148976043Y-80774769D01*
X148888114Y-80821769D01*
X148793550Y-80872315D01*
X148793548Y-80872316D01*
X148793547Y-80872317D01*
X148633589Y-81003589D01*
X148511411Y-81152466D01*
X148502315Y-81163550D01*
X148463643Y-81235898D01*
X148404769Y-81346043D01*
X148344699Y-81544067D01*
X148324417Y-81750000D01*
X148344699Y-81955932D01*
X148344700Y-81955934D01*
X148404768Y-82153954D01*
X148502315Y-82336450D01*
X148615268Y-82474084D01*
X148633590Y-82496410D01*
X148706352Y-82556125D01*
X148745686Y-82613871D01*
X148747557Y-82683715D01*
X148715368Y-82739659D01*
X148141848Y-83313181D01*
X148080525Y-83346666D01*
X148054167Y-83349500D01*
X146714833Y-83349500D01*
X146647794Y-83329815D01*
X146602039Y-83277011D01*
X146592095Y-83207853D01*
X146621120Y-83144297D01*
X146627152Y-83137819D01*
X146928152Y-82836819D01*
X146989475Y-82803334D01*
X147015833Y-82800500D01*
X147709750Y-82800500D01*
X147709751Y-82800499D01*
X147724568Y-82797552D01*
X147768229Y-82788868D01*
X147768229Y-82788867D01*
X147768231Y-82788867D01*
X147834552Y-82744552D01*
X147878867Y-82678231D01*
X147878867Y-82678229D01*
X147878868Y-82678229D01*
X147889600Y-82624271D01*
X147890500Y-82619748D01*
X147890500Y-80880252D01*
X147890500Y-80880249D01*
X147890499Y-80880247D01*
X147878868Y-80821770D01*
X147878867Y-80821769D01*
X147834552Y-80755447D01*
X147768230Y-80711132D01*
X147768229Y-80711131D01*
X147709752Y-80699500D01*
X147709748Y-80699500D01*
X145970252Y-80699500D01*
X145970247Y-80699500D01*
X145911770Y-80711131D01*
X145911769Y-80711132D01*
X145845447Y-80755447D01*
X145801132Y-80821769D01*
X145801131Y-80821770D01*
X145789500Y-80880247D01*
X145789500Y-82619752D01*
X145801131Y-82678229D01*
X145801132Y-82678230D01*
X145845447Y-82744552D01*
X145853601Y-82750000D01*
X145911769Y-82788867D01*
X145914658Y-82790797D01*
X145959463Y-82844409D01*
X145968170Y-82913734D01*
X145938016Y-82976761D01*
X145933448Y-82981580D01*
X143434335Y-85480694D01*
X143378387Y-85536641D01*
X143378381Y-85536649D01*
X143338828Y-85605158D01*
X143338825Y-85605163D01*
X143329834Y-85638720D01*
X143318346Y-85681592D01*
X143318346Y-87158408D01*
X143338825Y-87234835D01*
X143371073Y-87290691D01*
X143371074Y-87290693D01*
X143371073Y-87290693D01*
X143378381Y-87303351D01*
X143378388Y-87303360D01*
X143960604Y-87885575D01*
X143994089Y-87946898D01*
X143995661Y-87990902D01*
X143994353Y-87999999D01*
X144014834Y-88142456D01*
X144067287Y-88257309D01*
X144074623Y-88273373D01*
X144168872Y-88382143D01*
X144289947Y-88459953D01*
X144289950Y-88459954D01*
X144289949Y-88459954D01*
X144428036Y-88500499D01*
X144428038Y-88500500D01*
X144428039Y-88500500D01*
X144571962Y-88500500D01*
X144571962Y-88500499D01*
X144679121Y-88469035D01*
X144710050Y-88459954D01*
X144710050Y-88459953D01*
X144710053Y-88459953D01*
X144831128Y-88382143D01*
X144925377Y-88273373D01*
X144932713Y-88257311D01*
X144962706Y-88191635D01*
X145008461Y-88138831D01*
X145075500Y-88119146D01*
X145142539Y-88138831D01*
X145188294Y-88191635D01*
X145199500Y-88243146D01*
X145199500Y-89058481D01*
X145179815Y-89125520D01*
X145163181Y-89146162D01*
X143359541Y-90949801D01*
X143359535Y-90949809D01*
X143319982Y-91018318D01*
X143319979Y-91018323D01*
X143299500Y-91094753D01*
X143299500Y-94424166D01*
X143279815Y-94491205D01*
X143263181Y-94511847D01*
X143111847Y-94663181D01*
X143050524Y-94696666D01*
X143024166Y-94699500D01*
X142928036Y-94699500D01*
X142789949Y-94740045D01*
X142668873Y-94817856D01*
X142574623Y-94926626D01*
X142574622Y-94926628D01*
X142514834Y-95057543D01*
X142494353Y-95200000D01*
X142514834Y-95342456D01*
X142562720Y-95447309D01*
X142574623Y-95473373D01*
X142668872Y-95582143D01*
X142789947Y-95659953D01*
X142789950Y-95659954D01*
X142789949Y-95659954D01*
X142881544Y-95686848D01*
X142926336Y-95700000D01*
X142928036Y-95700499D01*
X142928038Y-95700500D01*
X142928039Y-95700500D01*
X143071962Y-95700500D01*
X143071962Y-95700499D01*
X143210053Y-95659953D01*
X143331128Y-95582143D01*
X143425377Y-95473373D01*
X143437284Y-95447302D01*
X143462706Y-95391635D01*
X143508461Y-95338831D01*
X143575500Y-95319146D01*
X143642539Y-95338831D01*
X143688294Y-95391635D01*
X143699500Y-95443146D01*
X143699500Y-95814562D01*
X143712242Y-95862114D01*
X143719979Y-95890990D01*
X143719982Y-95890995D01*
X143759535Y-95959504D01*
X143759541Y-95959512D01*
X144185617Y-96385588D01*
X144219102Y-96446911D01*
X144220674Y-96490915D01*
X144219366Y-96500012D01*
X144239847Y-96642469D01*
X144269261Y-96706875D01*
X144299636Y-96773386D01*
X144393885Y-96882156D01*
X144514960Y-96959966D01*
X144514963Y-96959967D01*
X144514962Y-96959967D01*
X144653049Y-97000512D01*
X144653051Y-97000513D01*
X144653052Y-97000513D01*
X144796975Y-97000513D01*
X144796975Y-97000512D01*
X144935066Y-96959966D01*
X145056141Y-96882156D01*
X145150390Y-96773386D01*
X145210178Y-96642470D01*
X145230660Y-96500013D01*
X145210178Y-96357556D01*
X145150390Y-96226640D01*
X145056141Y-96117870D01*
X144935066Y-96040060D01*
X144935064Y-96040059D01*
X144935062Y-96040058D01*
X144935063Y-96040058D01*
X144796976Y-95999513D01*
X144796974Y-95999513D01*
X144700846Y-95999513D01*
X144633807Y-95979828D01*
X144613165Y-95963194D01*
X144336819Y-95686848D01*
X144303334Y-95625525D01*
X144300500Y-95599167D01*
X144300500Y-92907922D01*
X144320185Y-92840883D01*
X144372989Y-92795128D01*
X144442147Y-92785184D01*
X144505703Y-92814209D01*
X144542206Y-92868918D01*
X144588452Y-93008481D01*
X144588457Y-93008492D01*
X144677424Y-93152728D01*
X144677427Y-93152732D01*
X144797266Y-93272571D01*
X144897840Y-93334606D01*
X144944564Y-93386554D01*
X144955787Y-93455517D01*
X144927943Y-93519599D01*
X144920426Y-93527825D01*
X144901473Y-93546778D01*
X144840279Y-93666878D01*
X144824500Y-93766506D01*
X144824500Y-94283493D01*
X144840279Y-94383121D01*
X144840280Y-94383124D01*
X144840281Y-94383126D01*
X144901472Y-94503220D01*
X144901473Y-94503221D01*
X144901476Y-94503225D01*
X144996774Y-94598523D01*
X144996778Y-94598526D01*
X144996780Y-94598528D01*
X145116874Y-94659719D01*
X145116876Y-94659719D01*
X145116878Y-94659720D01*
X145216507Y-94675500D01*
X145216512Y-94675500D01*
X145783493Y-94675500D01*
X145883121Y-94659720D01*
X145883121Y-94659719D01*
X145883126Y-94659719D01*
X146003220Y-94598528D01*
X146098528Y-94503220D01*
X146103630Y-94493205D01*
X146151604Y-94442410D01*
X146214115Y-94425500D01*
X146328648Y-94425500D01*
X146395687Y-94445185D01*
X146441442Y-94497989D01*
X146445690Y-94508548D01*
X146447205Y-94512878D01*
X146447206Y-94512881D01*
X146447207Y-94512882D01*
X146527850Y-94622150D01*
X146637118Y-94702793D01*
X146653008Y-94708353D01*
X146765299Y-94747646D01*
X146795730Y-94750500D01*
X146795734Y-94750500D01*
X148204270Y-94750500D01*
X148234699Y-94747646D01*
X148234701Y-94747646D01*
X148298790Y-94725219D01*
X148362882Y-94702793D01*
X148472150Y-94622150D01*
X148552793Y-94512882D01*
X148581795Y-94429998D01*
X148597646Y-94384701D01*
X148597646Y-94384699D01*
X148600500Y-94354269D01*
X148600500Y-94224500D01*
X148620185Y-94157461D01*
X148672989Y-94111706D01*
X148724500Y-94100500D01*
X149125500Y-94100500D01*
X149192539Y-94120185D01*
X149238294Y-94172989D01*
X149249500Y-94224500D01*
X149249500Y-94312727D01*
X149264313Y-94425235D01*
X149264313Y-94425236D01*
X149319990Y-94559653D01*
X149322302Y-94565233D01*
X149414549Y-94685451D01*
X149534767Y-94777698D01*
X149674764Y-94835687D01*
X149787280Y-94850500D01*
X149787287Y-94850500D01*
X150612713Y-94850500D01*
X150612720Y-94850500D01*
X150725236Y-94835687D01*
X150865233Y-94777698D01*
X150985451Y-94685451D01*
X151077698Y-94565233D01*
X151135687Y-94425236D01*
X151150500Y-94312720D01*
X151150500Y-92987280D01*
X151135687Y-92874764D01*
X151077698Y-92734767D01*
X150985451Y-92614549D01*
X150865233Y-92522302D01*
X150865229Y-92522300D01*
X150801801Y-92496027D01*
X150725236Y-92464313D01*
X150708313Y-92462085D01*
X150644416Y-92433817D01*
X150605946Y-92375492D01*
X150600500Y-92339146D01*
X150600500Y-88586449D01*
X150620185Y-88519410D01*
X150672989Y-88473655D01*
X150742147Y-88463711D01*
X150788650Y-88480333D01*
X150810394Y-88493478D01*
X150972804Y-88544086D01*
X151043384Y-88550500D01*
X151925500Y-88550500D01*
X151992539Y-88570185D01*
X152038294Y-88622989D01*
X152049500Y-88674500D01*
X152049500Y-92350502D01*
X152029815Y-92417541D01*
X151977011Y-92463296D01*
X151972953Y-92465063D01*
X151834770Y-92522300D01*
X151834767Y-92522301D01*
X151834767Y-92522302D01*
X151714549Y-92614549D01*
X151644902Y-92705315D01*
X151622300Y-92734770D01*
X151564313Y-92874763D01*
X151564313Y-92874764D01*
X151549500Y-92987272D01*
X151549500Y-94312727D01*
X151564313Y-94425235D01*
X151564313Y-94425236D01*
X151619990Y-94559653D01*
X151622302Y-94565233D01*
X151714549Y-94685451D01*
X151834767Y-94777698D01*
X151834770Y-94777699D01*
X151834771Y-94777700D01*
X151860251Y-94788254D01*
X151972953Y-94834936D01*
X152027356Y-94878776D01*
X152049421Y-94945071D01*
X152049500Y-94949497D01*
X152049500Y-95107019D01*
X152029815Y-95174058D01*
X151999134Y-95206789D01*
X151902850Y-95277850D01*
X151822207Y-95387117D01*
X151822206Y-95387119D01*
X151777353Y-95515298D01*
X151777353Y-95515300D01*
X151774500Y-95545730D01*
X151774500Y-96954269D01*
X151777353Y-96984699D01*
X151777353Y-96984701D01*
X151822206Y-97112880D01*
X151822207Y-97112882D01*
X151902850Y-97222150D01*
X152012118Y-97302793D01*
X152054845Y-97317744D01*
X152140299Y-97347646D01*
X152170730Y-97350500D01*
X152170734Y-97350500D01*
X152175500Y-97350500D01*
X152242539Y-97370185D01*
X152288294Y-97422989D01*
X152299500Y-97474500D01*
X152299500Y-97572389D01*
X152279815Y-97639428D01*
X152263181Y-97660070D01*
X152176476Y-97746774D01*
X152176473Y-97746778D01*
X152156075Y-97786811D01*
X152118891Y-97859790D01*
X152115279Y-97866878D01*
X152099500Y-97966506D01*
X152099500Y-98533493D01*
X152116807Y-98642765D01*
X152114167Y-98643183D01*
X152115740Y-98698241D01*
X152083497Y-98754398D01*
X152024717Y-98813180D01*
X151963394Y-98846666D01*
X151937034Y-98849500D01*
X143927304Y-98849500D01*
X143860265Y-98829815D01*
X143839623Y-98813181D01*
X142226442Y-97200000D01*
X146294355Y-97200000D01*
X146314859Y-97368869D01*
X146314860Y-97368874D01*
X146375182Y-97527931D01*
X146437475Y-97618177D01*
X146471817Y-97667929D01*
X146560822Y-97746780D01*
X146599150Y-97780736D01*
X146728060Y-97848393D01*
X146749775Y-97859790D01*
X146914944Y-97900500D01*
X147085056Y-97900500D01*
X147250225Y-97859790D01*
X147333339Y-97816168D01*
X147400849Y-97780736D01*
X147400850Y-97780734D01*
X147400852Y-97780734D01*
X147528183Y-97667929D01*
X147624818Y-97527930D01*
X147685140Y-97368872D01*
X147705645Y-97200000D01*
X148494355Y-97200000D01*
X148514859Y-97368869D01*
X148514860Y-97368874D01*
X148575182Y-97527931D01*
X148637475Y-97618177D01*
X148671817Y-97667929D01*
X148760822Y-97746780D01*
X148799150Y-97780736D01*
X148928060Y-97848393D01*
X148949775Y-97859790D01*
X149114944Y-97900500D01*
X149285056Y-97900500D01*
X149450225Y-97859790D01*
X149533339Y-97816168D01*
X149600849Y-97780736D01*
X149600850Y-97780734D01*
X149600852Y-97780734D01*
X149728183Y-97667929D01*
X149824818Y-97527930D01*
X149885140Y-97368872D01*
X149905645Y-97200000D01*
X149885140Y-97031128D01*
X149824818Y-96872070D01*
X149728183Y-96732071D01*
X149600852Y-96619266D01*
X149600849Y-96619263D01*
X149450226Y-96540210D01*
X149285056Y-96499500D01*
X149114944Y-96499500D01*
X148949773Y-96540210D01*
X148799150Y-96619263D01*
X148671816Y-96732072D01*
X148575182Y-96872068D01*
X148514860Y-97031125D01*
X148514859Y-97031130D01*
X148494355Y-97200000D01*
X147705645Y-97200000D01*
X147685140Y-97031128D01*
X147624818Y-96872070D01*
X147528183Y-96732071D01*
X147400852Y-96619266D01*
X147400849Y-96619263D01*
X147250226Y-96540210D01*
X147085056Y-96499500D01*
X146914944Y-96499500D01*
X146749773Y-96540210D01*
X146599150Y-96619263D01*
X146471816Y-96732072D01*
X146375182Y-96872068D01*
X146314860Y-97031125D01*
X146314859Y-97031130D01*
X146294355Y-97200000D01*
X142226442Y-97200000D01*
X140436819Y-95410377D01*
X140403334Y-95349054D01*
X140400500Y-95322696D01*
X140400500Y-88257311D01*
X140400500Y-88257309D01*
X140369799Y-88142732D01*
X140369799Y-88142731D01*
X140369799Y-88142730D01*
X140310492Y-88040007D01*
X140310488Y-88040002D01*
X138409998Y-86139513D01*
X138409996Y-86139511D01*
X138320090Y-86087603D01*
X138307270Y-86080201D01*
X138295162Y-86076957D01*
X138283055Y-86073713D01*
X138283052Y-86073712D01*
X138244824Y-86063469D01*
X138192691Y-86049500D01*
X131440691Y-86049500D01*
X131350325Y-86073713D01*
X131350324Y-86073712D01*
X131326115Y-86080200D01*
X131326106Y-86080204D01*
X131223392Y-86139505D01*
X131223384Y-86139511D01*
X130849716Y-86513181D01*
X130788393Y-86546666D01*
X130762035Y-86549500D01*
X124737966Y-86549500D01*
X124670927Y-86529815D01*
X124650285Y-86513181D01*
X121776616Y-83639513D01*
X121776614Y-83639511D01*
X121706983Y-83599309D01*
X121673888Y-83580201D01*
X121661780Y-83576957D01*
X121649673Y-83573713D01*
X121649670Y-83573712D01*
X121611478Y-83563478D01*
X121559309Y-83549500D01*
X110059309Y-83549500D01*
X98440691Y-83549500D01*
X98371944Y-83567920D01*
X98326112Y-83580201D01*
X98326107Y-83580204D01*
X98223393Y-83639505D01*
X98223385Y-83639511D01*
X96099716Y-85763181D01*
X96038393Y-85796666D01*
X96012035Y-85799500D01*
X93487965Y-85799500D01*
X93420926Y-85779815D01*
X93400284Y-85763181D01*
X91276616Y-83639513D01*
X91276614Y-83639511D01*
X91206983Y-83599309D01*
X91173888Y-83580201D01*
X91161780Y-83576957D01*
X91149673Y-83573713D01*
X91149670Y-83573712D01*
X91111478Y-83563478D01*
X91059309Y-83549500D01*
X80690691Y-83549500D01*
X80576114Y-83580201D01*
X80576112Y-83580201D01*
X80576112Y-83580202D01*
X80548554Y-83596113D01*
X80548553Y-83596113D01*
X80473389Y-83639508D01*
X80473384Y-83639512D01*
X79108905Y-85003990D01*
X79056163Y-85035285D01*
X79039949Y-85040046D01*
X79039945Y-85040048D01*
X78918873Y-85117856D01*
X78824623Y-85226626D01*
X78824622Y-85226628D01*
X78787294Y-85308365D01*
X78741539Y-85361169D01*
X78674500Y-85380853D01*
X78607460Y-85361168D01*
X78561705Y-85308364D01*
X78550500Y-85256853D01*
X78550500Y-82624265D01*
X93152466Y-82624265D01*
X93152466Y-82875734D01*
X93191801Y-83124090D01*
X93269508Y-83363244D01*
X93332983Y-83487819D01*
X93380054Y-83580202D01*
X93383668Y-83587293D01*
X93531463Y-83790717D01*
X93531467Y-83790722D01*
X93709277Y-83968532D01*
X93709282Y-83968536D01*
X93789767Y-84027011D01*
X93912710Y-84116334D01*
X94046509Y-84184508D01*
X94136755Y-84230491D01*
X94136757Y-84230491D01*
X94136760Y-84230493D01*
X94264949Y-84272144D01*
X94375909Y-84308198D01*
X94624266Y-84347534D01*
X94875729Y-84347534D01*
X94875734Y-84347534D01*
X95124090Y-84308198D01*
X95179223Y-84290284D01*
X95363240Y-84230493D01*
X95587290Y-84116334D01*
X95790724Y-83968531D01*
X95968531Y-83790724D01*
X96116334Y-83587290D01*
X96230493Y-83363240D01*
X96308198Y-83124090D01*
X96347534Y-82875729D01*
X96350000Y-82750000D01*
X96347534Y-82624271D01*
X96308198Y-82375910D01*
X96230493Y-82136760D01*
X96230491Y-82136757D01*
X96230491Y-82136755D01*
X96160810Y-82000000D01*
X96116334Y-81912710D01*
X95998119Y-81750000D01*
X95968536Y-81709282D01*
X95968532Y-81709277D01*
X95790722Y-81531467D01*
X95790717Y-81531463D01*
X95587293Y-81383668D01*
X95587292Y-81383667D01*
X95587290Y-81383666D01*
X95513451Y-81346043D01*
X95363244Y-81269508D01*
X95124090Y-81191801D01*
X94875734Y-81152466D01*
X94875729Y-81152466D01*
X94624271Y-81152466D01*
X94624266Y-81152466D01*
X94375909Y-81191801D01*
X94136755Y-81269508D01*
X93912706Y-81383668D01*
X93709282Y-81531463D01*
X93709277Y-81531467D01*
X93531467Y-81709277D01*
X93531463Y-81709282D01*
X93383668Y-81912706D01*
X93269508Y-82136755D01*
X93191801Y-82375909D01*
X93152466Y-82624265D01*
X78550500Y-82624265D01*
X78550500Y-70709999D01*
X83085202Y-70709999D01*
X83085202Y-70710000D01*
X83104353Y-70916676D01*
X83161158Y-71116327D01*
X83253673Y-71302123D01*
X83253681Y-71302136D01*
X83258254Y-71308191D01*
X83792356Y-70774089D01*
X83818622Y-70872114D01*
X83873916Y-70967886D01*
X83952114Y-71046084D01*
X84047886Y-71101378D01*
X84145909Y-71127642D01*
X83614785Y-71658767D01*
X83614785Y-71658768D01*
X83708625Y-71716872D01*
X83708634Y-71716877D01*
X83902186Y-71791859D01*
X84106219Y-71830000D01*
X84313781Y-71830000D01*
X84514125Y-71792549D01*
X84583640Y-71799580D01*
X84638319Y-71843078D01*
X84660801Y-71909231D01*
X84660130Y-71928321D01*
X84654308Y-71979995D01*
X84654308Y-71980004D01*
X84660130Y-72031678D01*
X84648075Y-72100500D01*
X84600726Y-72151879D01*
X84533116Y-72169503D01*
X84514126Y-72167450D01*
X84313782Y-72130000D01*
X84106219Y-72130000D01*
X83902186Y-72168140D01*
X83902185Y-72168140D01*
X83708634Y-72243121D01*
X83708633Y-72243122D01*
X83614784Y-72301231D01*
X84145909Y-72832356D01*
X84047886Y-72858622D01*
X83952114Y-72913916D01*
X83873916Y-72992114D01*
X83818622Y-73087886D01*
X83792356Y-73185909D01*
X83258254Y-72651807D01*
X83258253Y-72651808D01*
X83253679Y-72657866D01*
X83253675Y-72657872D01*
X83161158Y-72843672D01*
X83104353Y-73043323D01*
X83085202Y-73249999D01*
X83085202Y-73250000D01*
X83104353Y-73456676D01*
X83161158Y-73656327D01*
X83253673Y-73842123D01*
X83253681Y-73842136D01*
X83258254Y-73848191D01*
X83792356Y-73314089D01*
X83818622Y-73412114D01*
X83873916Y-73507886D01*
X83952114Y-73586084D01*
X84047886Y-73641378D01*
X84145909Y-73667643D01*
X83614785Y-74198767D01*
X83614785Y-74198768D01*
X83708625Y-74256872D01*
X83708634Y-74256877D01*
X83902186Y-74331859D01*
X84106219Y-74370000D01*
X84313781Y-74370000D01*
X84517813Y-74331859D01*
X84517814Y-74331859D01*
X84711370Y-74256875D01*
X84805214Y-74198768D01*
X84805214Y-74198767D01*
X84274090Y-73667642D01*
X84372114Y-73641378D01*
X84467886Y-73586084D01*
X84546084Y-73507886D01*
X84601378Y-73412114D01*
X84627643Y-73314089D01*
X85161744Y-73848190D01*
X85161745Y-73848190D01*
X85166324Y-73842127D01*
X85166326Y-73842124D01*
X85258840Y-73656330D01*
X85258841Y-73656329D01*
X85315646Y-73456676D01*
X85334798Y-73250000D01*
X85334798Y-73249999D01*
X85315646Y-73043319D01*
X85315645Y-73043316D01*
X85290958Y-72956548D01*
X85291545Y-72886681D01*
X85329812Y-72828222D01*
X85393609Y-72799732D01*
X85424104Y-72799394D01*
X85470511Y-72804622D01*
X85479999Y-72805692D01*
X85480000Y-72805692D01*
X85480001Y-72805692D01*
X85488111Y-72804778D01*
X85535892Y-72799394D01*
X85604712Y-72811448D01*
X85656092Y-72858796D01*
X85673717Y-72926406D01*
X85669042Y-72956547D01*
X85644353Y-73043321D01*
X85625202Y-73249999D01*
X85625202Y-73250000D01*
X85644353Y-73456676D01*
X85701158Y-73656327D01*
X85793673Y-73842123D01*
X85793681Y-73842136D01*
X85798254Y-73848191D01*
X86332356Y-73314089D01*
X86358622Y-73412114D01*
X86413916Y-73507886D01*
X86492114Y-73586084D01*
X86587886Y-73641378D01*
X86685909Y-73667643D01*
X86154785Y-74198767D01*
X86154785Y-74198768D01*
X86248625Y-74256872D01*
X86248634Y-74256877D01*
X86442186Y-74331859D01*
X86646219Y-74370000D01*
X86853781Y-74370000D01*
X87057813Y-74331859D01*
X87057814Y-74331859D01*
X87251370Y-74256875D01*
X87345214Y-74198768D01*
X87345214Y-74198767D01*
X86814090Y-73667642D01*
X86912114Y-73641378D01*
X87007886Y-73586084D01*
X87086084Y-73507886D01*
X87141378Y-73412114D01*
X87167643Y-73314090D01*
X87701744Y-73848190D01*
X87701745Y-73848190D01*
X87706324Y-73842127D01*
X87706326Y-73842124D01*
X87798840Y-73656330D01*
X87798841Y-73656329D01*
X87855646Y-73456676D01*
X87874798Y-73250000D01*
X87874798Y-73249999D01*
X87855646Y-73043323D01*
X87798841Y-72843670D01*
X87798840Y-72843669D01*
X87706328Y-72657879D01*
X87706324Y-72657873D01*
X87701744Y-72651808D01*
X87167643Y-73185909D01*
X87141378Y-73087886D01*
X87086084Y-72992114D01*
X87007886Y-72913916D01*
X86912114Y-72858622D01*
X86814089Y-72832356D01*
X87345214Y-72301231D01*
X87345213Y-72301229D01*
X87251374Y-72243126D01*
X87057813Y-72168140D01*
X86853781Y-72130000D01*
X86646218Y-72130000D01*
X86445873Y-72167450D01*
X86376358Y-72160419D01*
X86321680Y-72116921D01*
X86299198Y-72050767D01*
X86299869Y-72031676D01*
X86305692Y-71980000D01*
X86305692Y-71979998D01*
X86299869Y-71928323D01*
X86311923Y-71859501D01*
X86359271Y-71808121D01*
X86426882Y-71790496D01*
X86445874Y-71792549D01*
X86646219Y-71830000D01*
X86853781Y-71830000D01*
X87057813Y-71791859D01*
X87057814Y-71791859D01*
X87251370Y-71716875D01*
X87345214Y-71658768D01*
X87345214Y-71658767D01*
X86814090Y-71127643D01*
X86912114Y-71101378D01*
X87007886Y-71046084D01*
X87086084Y-70967886D01*
X87141378Y-70872114D01*
X87167643Y-70774090D01*
X87701744Y-71308190D01*
X87701745Y-71308190D01*
X87706324Y-71302127D01*
X87706326Y-71302124D01*
X87798840Y-71116330D01*
X87798841Y-71116329D01*
X87855646Y-70916676D01*
X87874798Y-70710000D01*
X87874798Y-70709999D01*
X87855646Y-70503323D01*
X87798841Y-70303670D01*
X87798840Y-70303669D01*
X87706328Y-70117879D01*
X87706324Y-70117873D01*
X87701744Y-70111808D01*
X87167643Y-70645909D01*
X87141378Y-70547886D01*
X87086084Y-70452114D01*
X87007886Y-70373916D01*
X86912114Y-70318622D01*
X86814089Y-70292356D01*
X87345214Y-69761231D01*
X87345213Y-69761229D01*
X87251374Y-69703126D01*
X87057813Y-69628140D01*
X86853781Y-69590000D01*
X86646219Y-69590000D01*
X86442186Y-69628140D01*
X86442185Y-69628140D01*
X86248634Y-69703121D01*
X86248633Y-69703122D01*
X86154784Y-69761231D01*
X86685910Y-70292356D01*
X86587886Y-70318622D01*
X86492114Y-70373916D01*
X86413916Y-70452114D01*
X86358622Y-70547886D01*
X86332356Y-70645909D01*
X85798254Y-70111807D01*
X85798253Y-70111808D01*
X85793679Y-70117866D01*
X85793675Y-70117872D01*
X85701158Y-70303672D01*
X85644353Y-70503323D01*
X85625202Y-70709999D01*
X85625202Y-70710000D01*
X85644353Y-70916678D01*
X85669042Y-71003452D01*
X85668454Y-71073319D01*
X85630187Y-71131778D01*
X85566389Y-71160267D01*
X85535892Y-71160605D01*
X85480004Y-71154308D01*
X85479996Y-71154308D01*
X85424106Y-71160605D01*
X85355284Y-71148550D01*
X85303905Y-71101201D01*
X85286281Y-71033591D01*
X85290957Y-71003450D01*
X85315646Y-70916679D01*
X85334798Y-70710000D01*
X85334798Y-70709999D01*
X85315646Y-70503323D01*
X85258841Y-70303670D01*
X85258840Y-70303669D01*
X85166328Y-70117879D01*
X85166324Y-70117873D01*
X85161744Y-70111808D01*
X84627642Y-70645909D01*
X84601378Y-70547886D01*
X84546084Y-70452114D01*
X84467886Y-70373916D01*
X84372114Y-70318622D01*
X84274089Y-70292356D01*
X84805214Y-69761231D01*
X84805213Y-69761229D01*
X84711374Y-69703126D01*
X84517813Y-69628140D01*
X84313781Y-69590000D01*
X84106219Y-69590000D01*
X83902186Y-69628140D01*
X83902185Y-69628140D01*
X83708634Y-69703121D01*
X83708633Y-69703122D01*
X83614784Y-69761231D01*
X84145910Y-70292356D01*
X84047886Y-70318622D01*
X83952114Y-70373916D01*
X83873916Y-70452114D01*
X83818622Y-70547886D01*
X83792356Y-70645909D01*
X83258254Y-70111807D01*
X83258253Y-70111808D01*
X83253679Y-70117866D01*
X83253675Y-70117872D01*
X83161158Y-70303672D01*
X83104353Y-70503323D01*
X83085202Y-70709999D01*
X78550500Y-70709999D01*
X78550500Y-68925833D01*
X78570185Y-68858794D01*
X78586819Y-68838152D01*
X80188154Y-67236817D01*
X80249477Y-67203332D01*
X80275835Y-67200498D01*
X80541498Y-67200498D01*
X80608537Y-67220183D01*
X80635212Y-67243297D01*
X80668869Y-67282141D01*
X80668871Y-67282142D01*
X80668872Y-67282143D01*
X80789947Y-67359953D01*
X80789950Y-67359954D01*
X80789949Y-67359954D01*
X80928036Y-67400499D01*
X80928038Y-67400500D01*
X80928039Y-67400500D01*
X81071962Y-67400500D01*
X81071962Y-67400499D01*
X81210053Y-67359953D01*
X81331128Y-67282143D01*
X81425377Y-67173373D01*
X81485165Y-67042457D01*
X81505647Y-66900000D01*
X81485165Y-66757543D01*
X81470763Y-66726009D01*
X81460821Y-66656851D01*
X81489846Y-66593296D01*
X81548625Y-66555522D01*
X81583559Y-66550499D01*
X86289561Y-66550499D01*
X86289563Y-66550499D01*
X86365990Y-66530020D01*
X86434512Y-66490459D01*
X86490461Y-66434510D01*
X87240460Y-65684511D01*
X87280022Y-65615988D01*
X87300500Y-65539562D01*
X87300500Y-65460438D01*
X87300500Y-64710438D01*
X87300500Y-62160438D01*
X87280021Y-62084011D01*
X87280017Y-62084004D01*
X87240464Y-62015495D01*
X87240458Y-62015487D01*
X85849236Y-60624265D01*
X87652466Y-60624265D01*
X87652466Y-60875734D01*
X87691801Y-61124090D01*
X87769508Y-61363244D01*
X87883668Y-61587293D01*
X88031463Y-61790717D01*
X88031467Y-61790722D01*
X88209277Y-61968532D01*
X88209282Y-61968536D01*
X88368211Y-62084004D01*
X88412710Y-62116334D01*
X88555474Y-62189076D01*
X88636755Y-62230491D01*
X88636757Y-62230491D01*
X88636760Y-62230493D01*
X88764949Y-62272144D01*
X88875909Y-62308198D01*
X89124266Y-62347534D01*
X89375729Y-62347534D01*
X89375734Y-62347534D01*
X89624090Y-62308198D01*
X89863240Y-62230493D01*
X90087290Y-62116334D01*
X90290724Y-61968531D01*
X90468531Y-61790724D01*
X90616334Y-61587290D01*
X90730493Y-61363240D01*
X90808198Y-61124090D01*
X90847534Y-60875729D01*
X90850000Y-60750000D01*
X90847534Y-60624271D01*
X90808198Y-60375910D01*
X90730493Y-60136760D01*
X90730491Y-60136757D01*
X90730491Y-60136755D01*
X90660810Y-60000000D01*
X90616334Y-59912710D01*
X90505051Y-59759541D01*
X90468536Y-59709282D01*
X90468532Y-59709277D01*
X90290722Y-59531467D01*
X90290717Y-59531463D01*
X90087293Y-59383668D01*
X90087292Y-59383667D01*
X90087290Y-59383666D01*
X89967088Y-59322420D01*
X89863244Y-59269508D01*
X89624090Y-59191801D01*
X89375734Y-59152466D01*
X89375729Y-59152466D01*
X89124271Y-59152466D01*
X89124266Y-59152466D01*
X88875909Y-59191801D01*
X88636755Y-59269508D01*
X88412706Y-59383668D01*
X88209282Y-59531463D01*
X88209277Y-59531467D01*
X88031467Y-59709277D01*
X88031463Y-59709282D01*
X87883668Y-59912706D01*
X87769508Y-60136755D01*
X87691801Y-60375909D01*
X87652466Y-60624265D01*
X85849236Y-60624265D01*
X84984512Y-59759541D01*
X84984504Y-59759535D01*
X84915995Y-59719982D01*
X84915991Y-59719980D01*
X84915989Y-59719979D01*
X84915987Y-59719978D01*
X84915986Y-59719978D01*
X84892404Y-59713659D01*
X84832745Y-59677293D01*
X84802217Y-59614446D01*
X84800500Y-59593885D01*
X84800500Y-59130249D01*
X84800499Y-59130247D01*
X84788868Y-59071770D01*
X84788867Y-59071769D01*
X84744552Y-59005447D01*
X84678230Y-58961132D01*
X84678229Y-58961131D01*
X84619752Y-58949500D01*
X84619748Y-58949500D01*
X82880252Y-58949500D01*
X82880247Y-58949500D01*
X82821770Y-58961131D01*
X82821769Y-58961132D01*
X82755447Y-59005447D01*
X82711132Y-59071769D01*
X82711131Y-59071770D01*
X82699500Y-59130247D01*
X82699500Y-60869752D01*
X82711131Y-60928229D01*
X82711132Y-60928230D01*
X82755447Y-60994552D01*
X82821769Y-61038867D01*
X82821770Y-61038868D01*
X82880247Y-61050499D01*
X82880250Y-61050500D01*
X82880252Y-61050500D01*
X84619750Y-61050500D01*
X84619751Y-61050499D01*
X84634568Y-61047552D01*
X84678229Y-61038868D01*
X84678229Y-61038867D01*
X84678231Y-61038867D01*
X84744552Y-60994552D01*
X84788867Y-60928231D01*
X84788867Y-60928229D01*
X84788868Y-60928229D01*
X84799310Y-60875729D01*
X84800500Y-60869748D01*
X84800500Y-60724833D01*
X84820185Y-60657794D01*
X84872989Y-60612039D01*
X84942147Y-60602095D01*
X85005703Y-60631120D01*
X85012181Y-60637152D01*
X86663181Y-62288152D01*
X86696666Y-62349475D01*
X86699500Y-62375833D01*
X86699500Y-64325500D01*
X86679815Y-64392539D01*
X86627011Y-64438294D01*
X86575500Y-64449500D01*
X84458501Y-64449500D01*
X84391462Y-64429815D01*
X84364787Y-64406701D01*
X84331135Y-64367863D01*
X84265216Y-64325500D01*
X84210058Y-64290052D01*
X84210056Y-64290051D01*
X84210054Y-64290050D01*
X84210055Y-64290050D01*
X84071968Y-64249505D01*
X84071966Y-64249505D01*
X83928044Y-64249505D01*
X83928041Y-64249505D01*
X83789954Y-64290050D01*
X83668878Y-64367861D01*
X83574628Y-64476631D01*
X83574627Y-64476633D01*
X83514839Y-64607548D01*
X83494358Y-64750005D01*
X83514839Y-64892461D01*
X83574627Y-65023376D01*
X83574628Y-65023378D01*
X83636080Y-65094299D01*
X83665105Y-65157853D01*
X83655161Y-65227011D01*
X83609407Y-65279815D01*
X83542367Y-65299500D01*
X78445072Y-65299500D01*
X78378033Y-65279815D01*
X78357391Y-65263181D01*
X77953751Y-64859541D01*
X77953743Y-64859535D01*
X77885234Y-64819982D01*
X77885229Y-64819979D01*
X77859752Y-64813152D01*
X77808801Y-64799500D01*
X74860438Y-64799500D01*
X74822224Y-64809739D01*
X74784009Y-64819979D01*
X74784004Y-64819982D01*
X74715495Y-64859535D01*
X74715487Y-64859541D01*
X74361847Y-65213181D01*
X74300524Y-65246666D01*
X74274166Y-65249500D01*
X74178036Y-65249500D01*
X74039949Y-65290045D01*
X73918873Y-65367856D01*
X73824623Y-65476626D01*
X73824622Y-65476628D01*
X73764834Y-65607543D01*
X73744353Y-65750000D01*
X73744353Y-65750001D01*
X73745661Y-65759103D01*
X73735713Y-65828261D01*
X73710603Y-65864424D01*
X73315489Y-66259540D01*
X73259541Y-66315487D01*
X73259535Y-66315495D01*
X73219982Y-66384004D01*
X73219979Y-66384009D01*
X73206448Y-66434510D01*
X73199500Y-66460438D01*
X70533599Y-66460438D01*
X70480845Y-66407684D01*
X70331624Y-66315643D01*
X70331619Y-66315641D01*
X70165197Y-66260494D01*
X70165190Y-66260493D01*
X70062486Y-66250000D01*
X68662500Y-66250000D01*
X68662500Y-67175000D01*
X68162500Y-67175000D01*
X68162500Y-66250000D01*
X66762528Y-66250000D01*
X66762512Y-66250001D01*
X66659802Y-66260494D01*
X66493380Y-66315641D01*
X66493375Y-66315643D01*
X66344154Y-66407684D01*
X66215076Y-66536763D01*
X66213851Y-66535538D01*
X66164237Y-66570665D01*
X66094438Y-66573800D01*
X66034024Y-66538700D01*
X66002177Y-66476511D01*
X66000000Y-66453375D01*
X66000000Y-60624265D01*
X67152466Y-60624265D01*
X67152466Y-60875734D01*
X67191801Y-61124090D01*
X67269508Y-61363244D01*
X67383668Y-61587293D01*
X67531463Y-61790717D01*
X67531467Y-61790722D01*
X67709277Y-61968532D01*
X67709282Y-61968536D01*
X67868211Y-62084004D01*
X67912710Y-62116334D01*
X68055474Y-62189076D01*
X68136755Y-62230491D01*
X68136757Y-62230491D01*
X68136760Y-62230493D01*
X68264949Y-62272144D01*
X68375909Y-62308198D01*
X68624266Y-62347534D01*
X68875729Y-62347534D01*
X68875734Y-62347534D01*
X69124090Y-62308198D01*
X69363240Y-62230493D01*
X69587290Y-62116334D01*
X69790724Y-61968531D01*
X69968531Y-61790724D01*
X70116334Y-61587290D01*
X70230493Y-61363240D01*
X70308198Y-61124090D01*
X70347534Y-60875729D01*
X70350000Y-60750000D01*
X70347534Y-60624271D01*
X70308198Y-60375910D01*
X70230493Y-60136760D01*
X70230491Y-60136757D01*
X70230491Y-60136755D01*
X70160810Y-60000000D01*
X70116334Y-59912710D01*
X70005051Y-59759541D01*
X69998118Y-59749999D01*
X77339364Y-59749999D01*
X77339364Y-59750000D01*
X78236988Y-59750000D01*
X78204075Y-59807007D01*
X78170000Y-59934174D01*
X78170000Y-60065826D01*
X78204075Y-60192993D01*
X78236988Y-60250000D01*
X77339364Y-60250000D01*
X77396567Y-60463486D01*
X77396570Y-60463492D01*
X77496399Y-60677578D01*
X77631894Y-60871082D01*
X77798917Y-61038105D01*
X77992421Y-61173600D01*
X78206507Y-61273429D01*
X78206516Y-61273433D01*
X78420000Y-61330634D01*
X78420000Y-60433012D01*
X78477007Y-60465925D01*
X78604174Y-60500000D01*
X78735826Y-60500000D01*
X78862993Y-60465925D01*
X78920000Y-60433012D01*
X78920000Y-61330633D01*
X79133483Y-61273433D01*
X79133492Y-61273429D01*
X79347578Y-61173600D01*
X79541082Y-61038105D01*
X79708105Y-60871082D01*
X79843600Y-60677578D01*
X79943429Y-60463492D01*
X79943433Y-60463483D01*
X79976158Y-60341350D01*
X80012522Y-60281690D01*
X80075369Y-60251160D01*
X80144745Y-60259454D01*
X80198623Y-60303939D01*
X80214593Y-60337447D01*
X80234768Y-60403954D01*
X80332315Y-60586450D01*
X80353315Y-60612039D01*
X80463589Y-60746410D01*
X80560209Y-60825702D01*
X80623550Y-60877685D01*
X80806046Y-60975232D01*
X81004066Y-61035300D01*
X81004065Y-61035300D01*
X81022529Y-61037118D01*
X81210000Y-61055583D01*
X81415934Y-61035300D01*
X81613954Y-60975232D01*
X81796450Y-60877685D01*
X81956410Y-60746410D01*
X82087685Y-60586450D01*
X82185232Y-60403954D01*
X82245300Y-60205934D01*
X82265583Y-60000000D01*
X82245300Y-59794066D01*
X82185232Y-59596046D01*
X82087685Y-59413550D01*
X82012897Y-59322420D01*
X81956410Y-59253589D01*
X81806121Y-59130252D01*
X81796450Y-59122315D01*
X81613954Y-59024768D01*
X81415934Y-58964700D01*
X81415932Y-58964699D01*
X81415934Y-58964699D01*
X81210000Y-58944417D01*
X81004067Y-58964699D01*
X80806043Y-59024769D01*
X80718114Y-59071769D01*
X80623550Y-59122315D01*
X80623548Y-59122316D01*
X80623547Y-59122317D01*
X80463589Y-59253589D01*
X80332317Y-59413547D01*
X80234767Y-59596046D01*
X80214593Y-59662552D01*
X80176296Y-59720990D01*
X80112483Y-59749447D01*
X80043416Y-59738886D01*
X79991023Y-59692661D01*
X79976158Y-59658649D01*
X79943433Y-59536516D01*
X79943429Y-59536507D01*
X79843600Y-59322422D01*
X79843599Y-59322420D01*
X79708113Y-59128926D01*
X79708108Y-59128920D01*
X79541082Y-58961894D01*
X79347578Y-58826399D01*
X79133492Y-58726570D01*
X79133486Y-58726567D01*
X78920000Y-58669364D01*
X78920000Y-59566988D01*
X78862993Y-59534075D01*
X78735826Y-59500000D01*
X78604174Y-59500000D01*
X78477007Y-59534075D01*
X78420000Y-59566988D01*
X78420000Y-58669364D01*
X78419999Y-58669364D01*
X78206513Y-58726567D01*
X78206507Y-58726570D01*
X77992422Y-58826399D01*
X77992420Y-58826400D01*
X77798926Y-58961886D01*
X77798920Y-58961891D01*
X77631891Y-59128920D01*
X77631886Y-59128926D01*
X77496400Y-59322420D01*
X77496399Y-59322422D01*
X77396570Y-59536507D01*
X77396567Y-59536513D01*
X77339364Y-59749999D01*
X69998118Y-59749999D01*
X69968536Y-59709282D01*
X69968532Y-59709277D01*
X69790722Y-59531467D01*
X69790717Y-59531463D01*
X69587293Y-59383668D01*
X69587292Y-59383667D01*
X69587290Y-59383666D01*
X69467088Y-59322420D01*
X69363244Y-59269508D01*
X69124090Y-59191801D01*
X68875734Y-59152466D01*
X68875729Y-59152466D01*
X68624271Y-59152466D01*
X68624266Y-59152466D01*
X68375909Y-59191801D01*
X68136755Y-59269508D01*
X67912706Y-59383668D01*
X67709282Y-59531463D01*
X67709277Y-59531467D01*
X67531467Y-59709277D01*
X67531463Y-59709282D01*
X67383668Y-59912706D01*
X67269508Y-60136755D01*
X67191801Y-60375909D01*
X67152466Y-60624265D01*
X66000000Y-60624265D01*
X66000000Y-58124000D01*
X66019685Y-58056961D01*
X66072489Y-58011206D01*
X66124000Y-58000000D01*
X91876000Y-58000000D01*
X91943039Y-58019685D01*
G37*
%TD.AperFunction*%
%TD*%
M02*
