%TF.GenerationSoftware,KiCad,Pcbnew,8.0.5*%
%TF.CreationDate,2024-12-20T11:35:35-05:00*%
%TF.ProjectId,mc3_afe,6d63335f-6166-4652-9e6b-696361645f70,rev?*%
%TF.SameCoordinates,Original*%
%TF.FileFunction,Soldermask,Top*%
%TF.FilePolarity,Negative*%
%FSLAX46Y46*%
G04 Gerber Fmt 4.6, Leading zero omitted, Abs format (unit mm)*
G04 Created by KiCad (PCBNEW 8.0.5) date 2024-12-20 11:35:35*
%MOMM*%
%LPD*%
G01*
G04 APERTURE LIST*
G04 Aperture macros list*
%AMRoundRect*
0 Rectangle with rounded corners*
0 $1 Rounding radius*
0 $2 $3 $4 $5 $6 $7 $8 $9 X,Y pos of 4 corners*
0 Add a 4 corners polygon primitive as box body*
4,1,4,$2,$3,$4,$5,$6,$7,$8,$9,$2,$3,0*
0 Add four circle primitives for the rounded corners*
1,1,$1+$1,$2,$3*
1,1,$1+$1,$4,$5*
1,1,$1+$1,$6,$7*
1,1,$1+$1,$8,$9*
0 Add four rect primitives between the rounded corners*
20,1,$1+$1,$2,$3,$4,$5,0*
20,1,$1+$1,$4,$5,$6,$7,0*
20,1,$1+$1,$6,$7,$8,$9,0*
20,1,$1+$1,$8,$9,$2,$3,0*%
G04 Aperture macros list end*
%ADD10C,1.240000*%
%ADD11R,1.500000X1.000000*%
%ADD12RoundRect,0.200000X-0.275000X0.200000X-0.275000X-0.200000X0.275000X-0.200000X0.275000X0.200000X0*%
%ADD13R,2.540000X1.650000*%
%ADD14RoundRect,0.250000X-0.385000X-1.350000X0.385000X-1.350000X0.385000X1.350000X-0.385000X1.350000X0*%
%ADD15RoundRect,0.250000X-0.425000X-1.600000X0.425000X-1.600000X0.425000X1.600000X-0.425000X1.600000X0*%
%ADD16RoundRect,0.250000X0.312500X0.625000X-0.312500X0.625000X-0.312500X-0.625000X0.312500X-0.625000X0*%
%ADD17RoundRect,0.250000X0.475000X-0.250000X0.475000X0.250000X-0.475000X0.250000X-0.475000X-0.250000X0*%
%ADD18RoundRect,0.100000X-0.100000X0.225000X-0.100000X-0.225000X0.100000X-0.225000X0.100000X0.225000X0*%
%ADD19R,1.020000X1.830000*%
%ADD20R,1.830000X1.020000*%
%ADD21RoundRect,0.250000X-1.350000X0.385000X-1.350000X-0.385000X1.350000X-0.385000X1.350000X0.385000X0*%
%ADD22RoundRect,0.250000X-1.600000X0.425000X-1.600000X-0.425000X1.600000X-0.425000X1.600000X0.425000X0*%
%ADD23RoundRect,0.135000X-0.135000X-0.185000X0.135000X-0.185000X0.135000X0.185000X-0.135000X0.185000X0*%
%ADD24C,1.000000*%
%ADD25R,0.800000X0.300000*%
%ADD26R,0.600000X1.200000*%
%ADD27RoundRect,0.062500X-0.450000X-0.062500X0.450000X-0.062500X0.450000X0.062500X-0.450000X0.062500X0*%
%ADD28RoundRect,0.062500X-0.062500X-0.450000X0.062500X-0.450000X0.062500X0.450000X-0.062500X0.450000X0*%
%ADD29R,2.100000X2.100000*%
%ADD30RoundRect,0.250000X-0.250000X-0.475000X0.250000X-0.475000X0.250000X0.475000X-0.250000X0.475000X0*%
%ADD31RoundRect,0.225000X-0.225000X-0.250000X0.225000X-0.250000X0.225000X0.250000X-0.225000X0.250000X0*%
%ADD32RoundRect,0.250000X-0.325000X-0.650000X0.325000X-0.650000X0.325000X0.650000X-0.325000X0.650000X0*%
%ADD33RoundRect,0.062500X0.062500X0.350000X-0.062500X0.350000X-0.062500X-0.350000X0.062500X-0.350000X0*%
%ADD34RoundRect,0.062500X0.350000X0.062500X-0.350000X0.062500X-0.350000X-0.062500X0.350000X-0.062500X0*%
%ADD35R,1.000000X2.000000*%
%ADD36RoundRect,0.225000X0.250000X-0.225000X0.250000X0.225000X-0.250000X0.225000X-0.250000X-0.225000X0*%
%ADD37R,0.300000X0.800000*%
%ADD38R,1.200000X0.600000*%
%ADD39RoundRect,0.225000X0.225000X0.250000X-0.225000X0.250000X-0.225000X-0.250000X0.225000X-0.250000X0*%
%ADD40R,1.397000X1.524000*%
%ADD41RoundRect,0.250000X0.325000X0.650000X-0.325000X0.650000X-0.325000X-0.650000X0.325000X-0.650000X0*%
%ADD42RoundRect,0.135000X-0.185000X0.135000X-0.185000X-0.135000X0.185000X-0.135000X0.185000X0.135000X0*%
%ADD43R,1.700000X1.700000*%
%ADD44O,1.700000X1.700000*%
%ADD45RoundRect,0.135000X0.135000X0.185000X-0.135000X0.185000X-0.135000X-0.185000X0.135000X-0.185000X0*%
G04 APERTURE END LIST*
D10*
%TO.C,J5*%
X173300000Y-94430000D03*
X172030000Y-93160000D03*
X172030000Y-95700000D03*
X174570000Y-93160000D03*
X174570000Y-95700000D03*
%TD*%
D11*
%TO.C,JP3*%
X142500000Y-87150000D03*
X142500000Y-85850000D03*
%TD*%
D12*
%TO.C,R10*%
X149200000Y-99175000D03*
X149200000Y-100825000D03*
%TD*%
%TO.C,R8*%
X145500000Y-87425000D03*
X145500000Y-89075000D03*
%TD*%
D13*
%TO.C,L1*%
X162060000Y-99460000D03*
X162060000Y-102000000D03*
X162060000Y-104540000D03*
X167140000Y-104540000D03*
X167140000Y-102000000D03*
X167140000Y-99460000D03*
%TD*%
D14*
%TO.C,J7*%
X146400000Y-110900000D03*
D15*
X149225000Y-110650000D03*
X143575000Y-110650000D03*
%TD*%
D16*
%TO.C,R3*%
X172662500Y-104600000D03*
X169737500Y-104600000D03*
%TD*%
D17*
%TO.C,C4*%
X80500000Y-88700000D03*
X80500000Y-86800000D03*
%TD*%
D18*
%TO.C,U12*%
X84400000Y-63800000D03*
X83750000Y-63800000D03*
X83100000Y-63800000D03*
X83100000Y-65700000D03*
X84400000Y-65700000D03*
%TD*%
D19*
%TO.C,U8*%
X155400000Y-95330000D03*
D20*
X153330000Y-97400000D03*
D19*
X155400000Y-99470000D03*
D20*
X157470000Y-97400000D03*
%TD*%
D21*
%TO.C,J3*%
X68162500Y-106000000D03*
D22*
X68412500Y-108825000D03*
X68412500Y-103175000D03*
%TD*%
D23*
%TO.C,R2*%
X110490000Y-86500000D03*
X111510000Y-86500000D03*
%TD*%
D24*
%TO.C,TP2*%
X149200000Y-97200000D03*
%TD*%
D25*
%TO.C,U1*%
X84650000Y-94850000D03*
X84650000Y-95500000D03*
X84650000Y-96150000D03*
X86550000Y-96150000D03*
X86550000Y-95500000D03*
X86550000Y-94850000D03*
D26*
X85600000Y-95500000D03*
%TD*%
D13*
%TO.C,L2*%
X118940000Y-91540000D03*
X118940000Y-89000000D03*
X118940000Y-86460000D03*
X113860000Y-86460000D03*
X113860000Y-89000000D03*
X113860000Y-91540000D03*
%TD*%
D27*
%TO.C,U4*%
X145675000Y-92000000D03*
X145675000Y-92500000D03*
X145675000Y-93000000D03*
X145675000Y-93500000D03*
X145675000Y-94000000D03*
D28*
X146537500Y-94862500D03*
X147037500Y-94862500D03*
X147537500Y-94862500D03*
X148037500Y-94862500D03*
X148537500Y-94862500D03*
D27*
X149400000Y-94000000D03*
X149400000Y-93500000D03*
X149400000Y-93000000D03*
X149400000Y-92500000D03*
X149400000Y-92000000D03*
D28*
X148537500Y-91137500D03*
X148037500Y-91137500D03*
X147537500Y-91137500D03*
X147037500Y-91137500D03*
X146537500Y-91137500D03*
D29*
X147537500Y-93000000D03*
%TD*%
D30*
%TO.C,C7*%
X107300000Y-86500000D03*
X109200000Y-86500000D03*
%TD*%
D17*
%TO.C,C2*%
X116000000Y-102150000D03*
X116000000Y-100250000D03*
%TD*%
%TO.C,C21*%
X144000000Y-99450000D03*
X144000000Y-97550000D03*
%TD*%
D30*
%TO.C,C9*%
X151850000Y-92400000D03*
X153750000Y-92400000D03*
%TD*%
%TO.C,C8*%
X121450000Y-91600000D03*
X123350000Y-91600000D03*
%TD*%
%TO.C,C3*%
X91550000Y-90500000D03*
X93450000Y-90500000D03*
%TD*%
%TO.C,C11*%
X170850000Y-106800000D03*
X172750000Y-106800000D03*
%TD*%
D31*
%TO.C,C25*%
X83335000Y-67200000D03*
X84885000Y-67200000D03*
%TD*%
D32*
%TO.C,C23*%
X74025000Y-90500000D03*
X76975000Y-90500000D03*
%TD*%
D10*
%TO.C,J2*%
X85480000Y-71980000D03*
X84210000Y-70710000D03*
X84210000Y-73250000D03*
X86750000Y-70710000D03*
X86750000Y-73250000D03*
%TD*%
D30*
%TO.C,C1*%
X80050000Y-95500000D03*
X81950000Y-95500000D03*
%TD*%
D12*
%TO.C,R9*%
X147600000Y-99200000D03*
X147600000Y-100850000D03*
%TD*%
D33*
%TO.C,U11*%
X149437500Y-88437500D03*
D34*
X150375000Y-88000000D03*
X150375000Y-87500000D03*
X150375000Y-87000000D03*
X150375000Y-86500000D03*
X150375000Y-86000000D03*
X150375000Y-85500000D03*
D33*
X149437500Y-85062500D03*
X148937500Y-85062500D03*
D34*
X148000000Y-85500000D03*
X148000000Y-86000000D03*
X148000000Y-86500000D03*
X148000000Y-87000000D03*
X148000000Y-87500000D03*
X148000000Y-88000000D03*
D33*
X148937500Y-88437500D03*
D35*
X149187500Y-86750000D03*
%TD*%
D36*
%TO.C,C5*%
X146000000Y-100775000D03*
X146000000Y-99225000D03*
%TD*%
D21*
%TO.C,J1*%
X68162500Y-70250000D03*
D22*
X68412500Y-73075000D03*
X68412500Y-67425000D03*
%TD*%
D30*
%TO.C,C12*%
X165150000Y-94400000D03*
X167050000Y-94400000D03*
%TD*%
D37*
%TO.C,U6*%
X115350000Y-98150000D03*
X116000000Y-98150000D03*
X116650000Y-98150000D03*
X116650000Y-96250000D03*
X116000000Y-96250000D03*
X115350000Y-96250000D03*
D38*
X116000000Y-97200000D03*
%TD*%
D39*
%TO.C,C10*%
X75775000Y-66250000D03*
X74225000Y-66250000D03*
%TD*%
D40*
%TO.C,U7*%
X126364500Y-90060000D03*
X136905500Y-90060000D03*
X126364500Y-95140000D03*
X136905500Y-95140000D03*
X126364500Y-100220000D03*
X136905500Y-100220000D03*
X126364500Y-105300000D03*
X136905500Y-105300000D03*
%TD*%
D14*
%TO.C,J6*%
X92500000Y-110900000D03*
D15*
X95325000Y-110650000D03*
X89675000Y-110650000D03*
%TD*%
D41*
%TO.C,C26*%
X77225000Y-64250000D03*
X74275000Y-64250000D03*
%TD*%
D27*
%TO.C,U5*%
X74275000Y-94500000D03*
X74275000Y-95000000D03*
X74275000Y-95500000D03*
X74275000Y-96000000D03*
X74275000Y-96500000D03*
D28*
X75137500Y-97362500D03*
X75637500Y-97362500D03*
X76137500Y-97362500D03*
X76637500Y-97362500D03*
X77137500Y-97362500D03*
D27*
X78000000Y-96500000D03*
X78000000Y-96000000D03*
X78000000Y-95500000D03*
X78000000Y-95000000D03*
X78000000Y-94500000D03*
D28*
X77137500Y-93637500D03*
X76637500Y-93637500D03*
X76137500Y-93637500D03*
X75637500Y-93637500D03*
X75137500Y-93637500D03*
D29*
X76137500Y-95500000D03*
%TD*%
D42*
%TO.C,R4*%
X95000000Y-90490000D03*
X95000000Y-91510000D03*
%TD*%
D40*
%TO.C,U2*%
X99364500Y-90500000D03*
X109905500Y-90500000D03*
X99364500Y-95580000D03*
X109905500Y-95580000D03*
X99364500Y-100660000D03*
X109905500Y-100660000D03*
X99364500Y-105740000D03*
X109905500Y-105740000D03*
%TD*%
D43*
%TO.C,J9*%
X146840000Y-81750000D03*
D44*
X149380000Y-81750000D03*
X151920000Y-81750000D03*
X154460000Y-81750000D03*
X157000000Y-81750000D03*
%TD*%
D31*
%TO.C,C6*%
X75225000Y-88500000D03*
X76775000Y-88500000D03*
%TD*%
D27*
%TO.C,U3*%
X73387500Y-69137500D03*
X73387500Y-69637500D03*
X73387500Y-70137500D03*
X73387500Y-70637500D03*
X73387500Y-71137500D03*
D28*
X74250000Y-72000000D03*
X74750000Y-72000000D03*
X75250000Y-72000000D03*
X75750000Y-72000000D03*
X76250000Y-72000000D03*
D27*
X77112500Y-71137500D03*
X77112500Y-70637500D03*
X77112500Y-70137500D03*
X77112500Y-69637500D03*
X77112500Y-69137500D03*
D28*
X76250000Y-68275000D03*
X75750000Y-68275000D03*
X75250000Y-68275000D03*
X74750000Y-68275000D03*
X74250000Y-68275000D03*
D29*
X75250000Y-70137500D03*
%TD*%
D43*
%TO.C,J10*%
X163290000Y-81750000D03*
D44*
X160750000Y-81750000D03*
%TD*%
D13*
%TO.C,L3*%
X89000000Y-91290000D03*
X89000000Y-88750000D03*
X89000000Y-86210000D03*
X83920000Y-86210000D03*
X83920000Y-88750000D03*
X83920000Y-91290000D03*
%TD*%
D23*
%TO.C,R1*%
X80740000Y-85500000D03*
X81760000Y-85500000D03*
%TD*%
D45*
%TO.C,R5*%
X141510000Y-102200000D03*
X140490000Y-102200000D03*
%TD*%
D43*
%TO.C,J8*%
X83750000Y-60000000D03*
D44*
X81210000Y-60000000D03*
X78670000Y-60000000D03*
%TD*%
D24*
%TO.C,TP1*%
X147000000Y-97200000D03*
%TD*%
D21*
%TO.C,J4*%
X68162500Y-89500000D03*
D22*
X68412500Y-92325000D03*
X68412500Y-86675000D03*
%TD*%
D31*
%TO.C,C24*%
X145000000Y-84500000D03*
X146550000Y-84500000D03*
%TD*%
G36*
X142193039Y-108769685D02*
G01*
X142238794Y-108822489D01*
X142250000Y-108874000D01*
X142250000Y-112876000D01*
X142230315Y-112943039D01*
X142177511Y-112988794D01*
X142126000Y-113000000D01*
X96874000Y-113000000D01*
X96806961Y-112980315D01*
X96761206Y-112927511D01*
X96750000Y-112876000D01*
X96750000Y-108874000D01*
X96769685Y-108806961D01*
X96822489Y-108761206D01*
X96874000Y-108750000D01*
X142126000Y-108750000D01*
X142193039Y-108769685D01*
G37*
G36*
X70193039Y-93769685D02*
G01*
X70238794Y-93822489D01*
X70250000Y-93874000D01*
X70250000Y-101626000D01*
X70230315Y-101693039D01*
X70177511Y-101738794D01*
X70126000Y-101750000D01*
X66124000Y-101750000D01*
X66056961Y-101730315D01*
X66011206Y-101677511D01*
X66000000Y-101626000D01*
X66000000Y-93874000D01*
X66019685Y-93806961D01*
X66072489Y-93761206D01*
X66124000Y-93750000D01*
X70126000Y-93750000D01*
X70193039Y-93769685D01*
G37*
G36*
X91943039Y-58019685D02*
G01*
X91988794Y-58072489D01*
X92000000Y-58124000D01*
X92000000Y-80000000D01*
X144376000Y-80000000D01*
X144443039Y-80019685D01*
X144488794Y-80072489D01*
X144500000Y-80124000D01*
X144500000Y-84126000D01*
X144480315Y-84193039D01*
X144427511Y-84238794D01*
X144376000Y-84250000D01*
X98750000Y-84250000D01*
X96283965Y-86222828D01*
X96219319Y-86249336D01*
X96206503Y-86250000D01*
X93293497Y-86250000D01*
X93226458Y-86230315D01*
X93216035Y-86222828D01*
X90750000Y-84250000D01*
X74500000Y-84250000D01*
X72499999Y-85000000D01*
X71320801Y-85943358D01*
X71256155Y-85969866D01*
X71187440Y-85957216D01*
X71174556Y-85949704D01*
X70500000Y-85500000D01*
X66124000Y-85500000D01*
X66056961Y-85480315D01*
X66011206Y-85427511D01*
X66000000Y-85376000D01*
X66000000Y-82624265D01*
X93152466Y-82624265D01*
X93152466Y-82875734D01*
X93191801Y-83124090D01*
X93269508Y-83363244D01*
X93383668Y-83587293D01*
X93531463Y-83790717D01*
X93531467Y-83790722D01*
X93709277Y-83968532D01*
X93709282Y-83968536D01*
X93912706Y-84116331D01*
X94136755Y-84230491D01*
X94375909Y-84308198D01*
X94624266Y-84347534D01*
X94875734Y-84347534D01*
X95124090Y-84308198D01*
X95363244Y-84230491D01*
X95587293Y-84116331D01*
X95790717Y-83968536D01*
X95790722Y-83968532D01*
X95968532Y-83790722D01*
X95968536Y-83790717D01*
X96116331Y-83587293D01*
X96230491Y-83363244D01*
X96308197Y-83124090D01*
X96347534Y-82875725D01*
X96350000Y-82750000D01*
X96347534Y-82624274D01*
X96308197Y-82375909D01*
X96230491Y-82136755D01*
X96116331Y-81912706D01*
X95968536Y-81709282D01*
X95968532Y-81709277D01*
X95790722Y-81531467D01*
X95790717Y-81531463D01*
X95587293Y-81383668D01*
X95363244Y-81269508D01*
X95124090Y-81191801D01*
X94875734Y-81152466D01*
X94624266Y-81152466D01*
X94375909Y-81191801D01*
X94136755Y-81269508D01*
X93912706Y-81383668D01*
X93709282Y-81531463D01*
X93709277Y-81531467D01*
X93531467Y-81709277D01*
X93531463Y-81709282D01*
X93383668Y-81912706D01*
X93269508Y-82136755D01*
X93191801Y-82375909D01*
X93152466Y-82624265D01*
X66000000Y-82624265D01*
X66000000Y-74624000D01*
X66019685Y-74556961D01*
X66072489Y-74511206D01*
X66124000Y-74500000D01*
X70126000Y-74500000D01*
X70193039Y-74519685D01*
X70238794Y-74572489D01*
X70250000Y-74624000D01*
X70250000Y-76000000D01*
X71749999Y-78499998D01*
X71750000Y-78500000D01*
X73999999Y-79750000D01*
X83999999Y-79750000D01*
X86250001Y-78499998D01*
X87750000Y-76250000D01*
X87750000Y-65500000D01*
X86499999Y-63499999D01*
X85828804Y-63052536D01*
X85783943Y-62998971D01*
X85775163Y-62929655D01*
X85779950Y-62910150D01*
X86000000Y-62250000D01*
X86000000Y-60624265D01*
X87652466Y-60624265D01*
X87652466Y-60875734D01*
X87691801Y-61124090D01*
X87769508Y-61363244D01*
X87883668Y-61587293D01*
X88031463Y-61790717D01*
X88031467Y-61790722D01*
X88209277Y-61968532D01*
X88209282Y-61968536D01*
X88412706Y-62116331D01*
X88636755Y-62230491D01*
X88875909Y-62308198D01*
X89124266Y-62347534D01*
X89375734Y-62347534D01*
X89624090Y-62308198D01*
X89863244Y-62230491D01*
X90087293Y-62116331D01*
X90290717Y-61968536D01*
X90290722Y-61968532D01*
X90468532Y-61790722D01*
X90468536Y-61790717D01*
X90616331Y-61587293D01*
X90730491Y-61363244D01*
X90808197Y-61124090D01*
X90847534Y-60875725D01*
X90850000Y-60750000D01*
X90847534Y-60624274D01*
X90808197Y-60375909D01*
X90730491Y-60136755D01*
X90616331Y-59912706D01*
X90468536Y-59709282D01*
X90468532Y-59709277D01*
X90290722Y-59531467D01*
X90290717Y-59531463D01*
X90087293Y-59383668D01*
X89863244Y-59269508D01*
X89624090Y-59191801D01*
X89375734Y-59152466D01*
X89124266Y-59152466D01*
X88875909Y-59191801D01*
X88636755Y-59269508D01*
X88412706Y-59383668D01*
X88209282Y-59531463D01*
X88209277Y-59531467D01*
X88031467Y-59709277D01*
X88031463Y-59709282D01*
X87883668Y-59912706D01*
X87769508Y-60136755D01*
X87691801Y-60375909D01*
X87652466Y-60624265D01*
X86000000Y-60624265D01*
X86000000Y-58124000D01*
X86019685Y-58056961D01*
X86072489Y-58011206D01*
X86124000Y-58000000D01*
X91876000Y-58000000D01*
X91943039Y-58019685D01*
G37*
G36*
X181943039Y-80019685D02*
G01*
X181988794Y-80072489D01*
X182000000Y-80124000D01*
X182000000Y-112876000D01*
X181980315Y-112943039D01*
X181927511Y-112988794D01*
X181876000Y-113000000D01*
X150874000Y-113000000D01*
X150806961Y-112980315D01*
X150761206Y-112927511D01*
X150750000Y-112876000D01*
X150750000Y-110124265D01*
X177652466Y-110124265D01*
X177652466Y-110375734D01*
X177691801Y-110624090D01*
X177769508Y-110863244D01*
X177883668Y-111087293D01*
X178031463Y-111290717D01*
X178031467Y-111290722D01*
X178209277Y-111468532D01*
X178209282Y-111468536D01*
X178412706Y-111616331D01*
X178636755Y-111730491D01*
X178875909Y-111808198D01*
X179124266Y-111847534D01*
X179375734Y-111847534D01*
X179624090Y-111808198D01*
X179863244Y-111730491D01*
X180087293Y-111616331D01*
X180290717Y-111468536D01*
X180290722Y-111468532D01*
X180468532Y-111290722D01*
X180468536Y-111290717D01*
X180616331Y-111087293D01*
X180730491Y-110863244D01*
X180808197Y-110624090D01*
X180847534Y-110375725D01*
X180850000Y-110250000D01*
X180847534Y-110124274D01*
X180808197Y-109875909D01*
X180730491Y-109636755D01*
X180616331Y-109412706D01*
X180468536Y-109209282D01*
X180468532Y-109209277D01*
X180290722Y-109031467D01*
X180290717Y-109031463D01*
X180087293Y-108883668D01*
X179863244Y-108769508D01*
X179624090Y-108691801D01*
X179375734Y-108652466D01*
X179124266Y-108652466D01*
X178875909Y-108691801D01*
X178636755Y-108769508D01*
X178412706Y-108883668D01*
X178209282Y-109031463D01*
X178209277Y-109031467D01*
X178031467Y-109209277D01*
X178031463Y-109209282D01*
X177883668Y-109412706D01*
X177769508Y-109636755D01*
X177691801Y-109875909D01*
X177652466Y-110124265D01*
X150750000Y-110124265D01*
X150750000Y-108874000D01*
X150769685Y-108806961D01*
X150822489Y-108761206D01*
X150874000Y-108750000D01*
X174499999Y-108750000D01*
X176499999Y-107499999D01*
X177750000Y-105499999D01*
X177750000Y-87749999D01*
X176499999Y-85500000D01*
X176500000Y-85500000D01*
X174000000Y-84250000D01*
X165624000Y-84250000D01*
X165556961Y-84230315D01*
X165511206Y-84177511D01*
X165500000Y-84126000D01*
X165500000Y-82624265D01*
X177652466Y-82624265D01*
X177652466Y-82875734D01*
X177691801Y-83124090D01*
X177769508Y-83363244D01*
X177883668Y-83587293D01*
X178031463Y-83790717D01*
X178031467Y-83790722D01*
X178209277Y-83968532D01*
X178209282Y-83968536D01*
X178412706Y-84116331D01*
X178636755Y-84230491D01*
X178875909Y-84308198D01*
X179124266Y-84347534D01*
X179375734Y-84347534D01*
X179624090Y-84308198D01*
X179863244Y-84230491D01*
X180087293Y-84116331D01*
X180290717Y-83968536D01*
X180290722Y-83968532D01*
X180468532Y-83790722D01*
X180468536Y-83790717D01*
X180616331Y-83587293D01*
X180730491Y-83363244D01*
X180808197Y-83124090D01*
X180847534Y-82875725D01*
X180850000Y-82750000D01*
X180847534Y-82624274D01*
X180808197Y-82375909D01*
X180730491Y-82136755D01*
X180616331Y-81912706D01*
X180468536Y-81709282D01*
X180468532Y-81709277D01*
X180290722Y-81531467D01*
X180290717Y-81531463D01*
X180087293Y-81383668D01*
X179863244Y-81269508D01*
X179624090Y-81191801D01*
X179375734Y-81152466D01*
X179124266Y-81152466D01*
X178875909Y-81191801D01*
X178636755Y-81269508D01*
X178412706Y-81383668D01*
X178209282Y-81531463D01*
X178209277Y-81531467D01*
X178031467Y-81709277D01*
X178031463Y-81709282D01*
X177883668Y-81912706D01*
X177769508Y-82136755D01*
X177691801Y-82375909D01*
X177652466Y-82624265D01*
X165500000Y-82624265D01*
X165500000Y-80124000D01*
X165519685Y-80056961D01*
X165572489Y-80011206D01*
X165624000Y-80000000D01*
X181876000Y-80000000D01*
X181943039Y-80019685D01*
G37*
G36*
X79526717Y-106769685D02*
G01*
X79532611Y-106773717D01*
X82249999Y-108750000D01*
X88126000Y-108750000D01*
X88193039Y-108769685D01*
X88238794Y-108822489D01*
X88250000Y-108874000D01*
X88250000Y-112876000D01*
X88230315Y-112943039D01*
X88177511Y-112988794D01*
X88126000Y-113000000D01*
X66124000Y-113000000D01*
X66056961Y-112980315D01*
X66011206Y-112927511D01*
X66000000Y-112876000D01*
X66000000Y-110374000D01*
X66019685Y-110306961D01*
X66072489Y-110261206D01*
X66124000Y-110250000D01*
X71000000Y-110250000D01*
X71000000Y-110124265D01*
X76652466Y-110124265D01*
X76652466Y-110375734D01*
X76691801Y-110624090D01*
X76769508Y-110863244D01*
X76883668Y-111087293D01*
X77031463Y-111290717D01*
X77031467Y-111290722D01*
X77209277Y-111468532D01*
X77209282Y-111468536D01*
X77412706Y-111616331D01*
X77636755Y-111730491D01*
X77875909Y-111808198D01*
X78124266Y-111847534D01*
X78375734Y-111847534D01*
X78624090Y-111808198D01*
X78863244Y-111730491D01*
X79087293Y-111616331D01*
X79290717Y-111468536D01*
X79290722Y-111468532D01*
X79468532Y-111290722D01*
X79468536Y-111290717D01*
X79616331Y-111087293D01*
X79730491Y-110863244D01*
X79808197Y-110624090D01*
X79847534Y-110375725D01*
X79850000Y-110250000D01*
X79847534Y-110124274D01*
X79808197Y-109875909D01*
X79730491Y-109636755D01*
X79616331Y-109412706D01*
X79468536Y-109209282D01*
X79468532Y-109209277D01*
X79290722Y-109031467D01*
X79290717Y-109031463D01*
X79087293Y-108883668D01*
X78863244Y-108769508D01*
X78624090Y-108691801D01*
X78375734Y-108652466D01*
X78124266Y-108652466D01*
X77875909Y-108691801D01*
X77636755Y-108769508D01*
X77412706Y-108883668D01*
X77209282Y-109031463D01*
X77209277Y-109031467D01*
X77031467Y-109209277D01*
X77031463Y-109209282D01*
X76883668Y-109412706D01*
X76769508Y-109636755D01*
X76691801Y-109875909D01*
X76652466Y-110124265D01*
X71000000Y-110124265D01*
X71000000Y-108219007D01*
X71019685Y-108151968D01*
X71072489Y-108106213D01*
X71141647Y-108096269D01*
X71187798Y-108112678D01*
X72250001Y-108750000D01*
X73750000Y-108750000D01*
X74999995Y-108250002D01*
X75000001Y-108249998D01*
X76966933Y-106774800D01*
X77032375Y-106750324D01*
X77041333Y-106750000D01*
X79459678Y-106750000D01*
X79526717Y-106769685D01*
G37*
G36*
X76443039Y-58019685D02*
G01*
X76488794Y-58072489D01*
X76500000Y-58124000D01*
X76500000Y-62126000D01*
X76480315Y-62193039D01*
X76427511Y-62238794D01*
X76376000Y-62250000D01*
X73999999Y-62250000D01*
X71499999Y-63499999D01*
X70500000Y-65249999D01*
X70499996Y-65250006D01*
X70284273Y-65681454D01*
X70236686Y-65732613D01*
X70173364Y-65750000D01*
X66124000Y-65750000D01*
X66056961Y-65730315D01*
X66011206Y-65677511D01*
X66000000Y-65626000D01*
X66000000Y-60624265D01*
X67152466Y-60624265D01*
X67152466Y-60875734D01*
X67191801Y-61124090D01*
X67269508Y-61363244D01*
X67383668Y-61587293D01*
X67531463Y-61790717D01*
X67531467Y-61790722D01*
X67709277Y-61968532D01*
X67709282Y-61968536D01*
X67912706Y-62116331D01*
X68136755Y-62230491D01*
X68375909Y-62308198D01*
X68624266Y-62347534D01*
X68875734Y-62347534D01*
X69124090Y-62308198D01*
X69363244Y-62230491D01*
X69587293Y-62116331D01*
X69790717Y-61968536D01*
X69790722Y-61968532D01*
X69968532Y-61790722D01*
X69968536Y-61790717D01*
X70116331Y-61587293D01*
X70230491Y-61363244D01*
X70308197Y-61124090D01*
X70347534Y-60875725D01*
X70350000Y-60750000D01*
X70347534Y-60624274D01*
X70308197Y-60375909D01*
X70230491Y-60136755D01*
X70116331Y-59912706D01*
X69968536Y-59709282D01*
X69968532Y-59709277D01*
X69790722Y-59531467D01*
X69790717Y-59531463D01*
X69587293Y-59383668D01*
X69363244Y-59269508D01*
X69124090Y-59191801D01*
X68875734Y-59152466D01*
X68624266Y-59152466D01*
X68375909Y-59191801D01*
X68136755Y-59269508D01*
X67912706Y-59383668D01*
X67709282Y-59531463D01*
X67709277Y-59531467D01*
X67531467Y-59709277D01*
X67531463Y-59709282D01*
X67383668Y-59912706D01*
X67269508Y-60136755D01*
X67191801Y-60375909D01*
X67152466Y-60624265D01*
X66000000Y-60624265D01*
X66000000Y-58124000D01*
X66019685Y-58056961D01*
X66072489Y-58011206D01*
X66124000Y-58000000D01*
X76376000Y-58000000D01*
X76443039Y-58019685D01*
G37*
M02*
