M48
; DRILL file {KiCad 7.0.2} date Tue Apr  2 19:02:09 2024
; FORMAT={-:-/ absolute / inch / decimal}
; #@! TF.CreationDate,2024-04-02T19:02:09-04:00
; #@! TF.GenerationSoftware,Kicad,Pcbnew,7.0.2
; #@! TF.FileFunction,MixedPlating,1,2
FMAT,2
INCH
; #@! TA.AperFunction,Plated,PTH,ViaDrill
T1C0.0157
; #@! TA.AperFunction,Plated,PTH,ComponentDrill
T2C0.0200
; #@! TA.AperFunction,Plated,PTH,ComponentDrill
T3C0.0315
; #@! TA.AperFunction,Plated,PTH,ComponentDrill
T4C0.0472
; #@! TA.AperFunction,Plated,PTH,ComponentDrill
T5C0.0669
%
G90
G05
T1
X4.7835Y-3.4449
X4.9213Y-3.5827
X5.2165Y-3.3661
X5.2362Y-3.8976
T2
X4.6244Y-3.4736
X4.6244Y-3.5236
X4.7244Y-3.4736
X4.7244Y-3.5236
X4.7944Y-3.7486
X4.8244Y-3.4736
X4.8244Y-3.5236
X4.8544Y-3.7486
X4.9244Y-3.4736
X4.9244Y-3.5236
X4.9944Y-3.7486
X5.0244Y-3.4736
X5.0244Y-3.5236
X5.0544Y-3.7486
X5.1244Y-3.4736
X5.1244Y-3.5236
X5.1944Y-3.7486
X5.2244Y-3.4736
X5.2244Y-3.5236
X5.2544Y-3.7486
T3
X4.8031Y-3.9094
X5.0Y-3.9094
T5
X4.813Y-3.8031
X4.813Y-4.0157
X4.9902Y-3.8031
X4.9902Y-4.0157
T4
G00X4.7106Y-3.8031
M15
G01X4.6594Y-3.8031
M16
G05
G00X4.7106Y-4.0157
M15
G01X4.6594Y-4.0157
M16
G05
G00X5.1437Y-3.8031
M15
G01X5.0925Y-3.8031
M16
G05
G00X5.1437Y-4.0157
M15
G01X5.0925Y-4.0157
M16
G05
T0
M30
