%TF.GenerationSoftware,KiCad,Pcbnew,7.0.2*%
%TF.CreationDate,2024-04-02T19:02:07-04:00*%
%TF.ProjectId,filt2,66696c74-322e-46b6-9963-61645f706362,rev?*%
%TF.SameCoordinates,Original*%
%TF.FileFunction,Copper,L2,Bot*%
%TF.FilePolarity,Positive*%
%FSLAX46Y46*%
G04 Gerber Fmt 4.6, Leading zero omitted, Abs format (unit mm)*
G04 Created by KiCad (PCBNEW 7.0.2) date 2024-04-02 19:02:07*
%MOMM*%
%LPD*%
G01*
G04 APERTURE LIST*
G04 Aperture macros list*
%AMRoundRect*
0 Rectangle with rounded corners*
0 $1 Rounding radius*
0 $2 $3 $4 $5 $6 $7 $8 $9 X,Y pos of 4 corners*
0 Add a 4 corners polygon primitive as box body*
4,1,4,$2,$3,$4,$5,$6,$7,$8,$9,$2,$3,0*
0 Add four circle primitives for the rounded corners*
1,1,$1+$1,$2,$3*
1,1,$1+$1,$4,$5*
1,1,$1+$1,$6,$7*
1,1,$1+$1,$8,$9*
0 Add four rect primitives between the rounded corners*
20,1,$1+$1,$2,$3,$4,$5,0*
20,1,$1+$1,$4,$5,$6,$7,0*
20,1,$1+$1,$6,$7,$8,$9,0*
20,1,$1+$1,$8,$9,$2,$3,0*%
G04 Aperture macros list end*
%TA.AperFunction,ComponentPad*%
%ADD10C,1.016000*%
%TD*%
%TA.AperFunction,SMDPad,CuDef*%
%ADD11RoundRect,0.200000X-0.200000X-0.275000X0.200000X-0.275000X0.200000X0.275000X-0.200000X0.275000X0*%
%TD*%
%TA.AperFunction,ComponentPad*%
%ADD12C,1.500000*%
%TD*%
%TA.AperFunction,ComponentPad*%
%ADD13C,2.500000*%
%TD*%
%TA.AperFunction,ComponentPad*%
%ADD14RoundRect,0.500000X-1.250000X0.500000X-1.250000X-0.500000X1.250000X-0.500000X1.250000X0.500000X0*%
%TD*%
%TA.AperFunction,ViaPad*%
%ADD15C,0.800000*%
%TD*%
%TA.AperFunction,Conductor*%
%ADD16C,0.250000*%
%TD*%
G04 APERTURE END LIST*
D10*
%TO.P,U1,3,GND*%
%TO.N,GND*%
X121778000Y-95215000D03*
X123302000Y-95215000D03*
%TO.P,U1,5,GND*%
X126858000Y-95215000D03*
X128382000Y-95215000D03*
%TO.P,U1,7,GND*%
X131938000Y-95215000D03*
X133462000Y-95215000D03*
X117460000Y-89500000D03*
X120000000Y-89500000D03*
X122540000Y-89500000D03*
X125080000Y-89500000D03*
X127620000Y-89500000D03*
X130160000Y-89500000D03*
X132700000Y-89500000D03*
X117460000Y-88230000D03*
X120000000Y-88230000D03*
X122540000Y-88230000D03*
X125080000Y-88230000D03*
X127620000Y-88230000D03*
X130160000Y-88230000D03*
X132700000Y-88230000D03*
%TD*%
D11*
%TO.P,R1,1*%
%TO.N,Net-(J2-In)*%
X123675000Y-93000000D03*
%TO.P,R1,2*%
%TO.N,Net-(J1-In)*%
X125325000Y-93000000D03*
%TD*%
D12*
%TO.P,J2,1,In*%
%TO.N,Net-(J2-In)*%
X122000000Y-99300000D03*
D13*
%TO.P,J2,2,Ext*%
%TO.N,GND*%
X122250000Y-96600000D03*
D14*
X119000000Y-96600000D03*
D13*
X122250000Y-102000000D03*
D14*
X119000000Y-102000000D03*
%TD*%
D12*
%TO.P,J1,1,In*%
%TO.N,Net-(J1-In)*%
X127000000Y-99300000D03*
D13*
%TO.P,J1,2,Ext*%
%TO.N,GND*%
X126750000Y-96600000D03*
D14*
X130000000Y-96600000D03*
D13*
X126750000Y-102000000D03*
D14*
X130000000Y-102000000D03*
%TD*%
D15*
%TO.N,GND*%
X133000000Y-99000000D03*
%TO.N,Net-(J1-In)*%
X132500000Y-85500000D03*
%TO.N,GND*%
X125000000Y-91000000D03*
X121500000Y-87500000D03*
%TD*%
D16*
%TO.N,Net-(J2-In)*%
X124135000Y-93460000D02*
X124135000Y-97165000D01*
X124135000Y-97165000D02*
X122000000Y-99300000D01*
X123675000Y-93000000D02*
X124135000Y-93460000D01*
%TO.N,Net-(J1-In)*%
X131867000Y-86133000D02*
X132500000Y-85500000D01*
X131867000Y-89133000D02*
X131867000Y-86133000D01*
X128000000Y-93000000D02*
X131867000Y-89133000D01*
X125325000Y-93000000D02*
X128000000Y-93000000D01*
X125175000Y-97475000D02*
X125175000Y-93150000D01*
X127000000Y-99300000D02*
X125175000Y-97475000D01*
X125175000Y-93150000D02*
X125325000Y-93000000D01*
%TD*%
%TA.AperFunction,Conductor*%
%TO.N,GND*%
G36*
X134942539Y-83020185D02*
G01*
X134988294Y-83072989D01*
X134999500Y-83124500D01*
X134999500Y-103875500D01*
X134979815Y-103942539D01*
X134927011Y-103988294D01*
X134875500Y-103999500D01*
X115624500Y-103999500D01*
X115557461Y-103979815D01*
X115511706Y-103927011D01*
X115500500Y-103875500D01*
X115500500Y-102555260D01*
X116750000Y-102555260D01*
X116750242Y-102560731D01*
X116760609Y-102677329D01*
X116816557Y-102872862D01*
X116910723Y-103053131D01*
X117039247Y-103210752D01*
X117196868Y-103339276D01*
X117377137Y-103433442D01*
X117572670Y-103489390D01*
X117689268Y-103499757D01*
X117694739Y-103500000D01*
X118750000Y-103500000D01*
X118750000Y-102600000D01*
X119250000Y-102600000D01*
X119250000Y-103500000D01*
X120305261Y-103500000D01*
X120310731Y-103499757D01*
X120427329Y-103489390D01*
X120622862Y-103433442D01*
X120803133Y-103339276D01*
X120943432Y-103224874D01*
X120895183Y-103176624D01*
X120861698Y-103115301D01*
X120866682Y-103045609D01*
X120895183Y-103001262D01*
X121498766Y-102397678D01*
X121542316Y-102479822D01*
X121662009Y-102620735D01*
X121809195Y-102732623D01*
X121851402Y-102752150D01*
X121200831Y-103402720D01*
X121372546Y-103519793D01*
X121608860Y-103633596D01*
X121859496Y-103710908D01*
X122118856Y-103750000D01*
X122381144Y-103750000D01*
X122640503Y-103710908D01*
X122891139Y-103633596D01*
X123127456Y-103519792D01*
X123299167Y-103402720D01*
X122648609Y-102752161D01*
X122767431Y-102680669D01*
X122901658Y-102553523D01*
X123004861Y-102401308D01*
X123652124Y-103048571D01*
X123699972Y-102988572D01*
X123831117Y-102761423D01*
X123926940Y-102517270D01*
X123985306Y-102261552D01*
X124004907Y-101999999D01*
X123985306Y-101738447D01*
X123926940Y-101482729D01*
X123831117Y-101238575D01*
X123699972Y-101011426D01*
X123652125Y-100951427D01*
X123001232Y-101602319D01*
X122957684Y-101520178D01*
X122837991Y-101379265D01*
X122690805Y-101267377D01*
X122648596Y-101247849D01*
X123299167Y-100597278D01*
X123127451Y-100480205D01*
X122920981Y-100380774D01*
X122869122Y-100333952D01*
X122850809Y-100266525D01*
X122871857Y-100199901D01*
X122887102Y-100181373D01*
X122887101Y-100181372D01*
X122961598Y-100106877D01*
X123087102Y-99927639D01*
X123179575Y-99729330D01*
X123236207Y-99517977D01*
X123255277Y-99300000D01*
X123236207Y-99082023D01*
X123236207Y-99082022D01*
X123236207Y-99082021D01*
X123226495Y-99045776D01*
X123228157Y-98975926D01*
X123258586Y-98926002D01*
X124428684Y-97755905D01*
X124490005Y-97722422D01*
X124559697Y-97727406D01*
X124615630Y-97769278D01*
X124616682Y-97770704D01*
X124622513Y-97778730D01*
X124622514Y-97778732D01*
X124643291Y-97807330D01*
X124648181Y-97814060D01*
X124654593Y-97823822D01*
X124676826Y-97861416D01*
X124676829Y-97861419D01*
X124676830Y-97861420D01*
X124690995Y-97875585D01*
X124703627Y-97890375D01*
X124715406Y-97906587D01*
X124749058Y-97934426D01*
X124757699Y-97942289D01*
X125741411Y-98926001D01*
X125774896Y-98987324D01*
X125773505Y-99045774D01*
X125763792Y-99082022D01*
X125744722Y-99300000D01*
X125763792Y-99517974D01*
X125763793Y-99517977D01*
X125820425Y-99729330D01*
X125912898Y-99927639D01*
X126038402Y-100106877D01*
X126038404Y-100106879D01*
X126038405Y-100106880D01*
X126112897Y-100181372D01*
X126146382Y-100242695D01*
X126141398Y-100312387D01*
X126099526Y-100368320D01*
X126079018Y-100380773D01*
X125872546Y-100480206D01*
X125700831Y-100597278D01*
X126351390Y-101247838D01*
X126232569Y-101319331D01*
X126098342Y-101446477D01*
X125995138Y-101598692D01*
X125347873Y-100951427D01*
X125300028Y-101011424D01*
X125168882Y-101238576D01*
X125073059Y-101482729D01*
X125014693Y-101738447D01*
X124995092Y-102000000D01*
X125014693Y-102261552D01*
X125073059Y-102517270D01*
X125168882Y-102761424D01*
X125300027Y-102988573D01*
X125347873Y-103048571D01*
X125347874Y-103048571D01*
X125998766Y-102397679D01*
X126042316Y-102479822D01*
X126162009Y-102620735D01*
X126309195Y-102732623D01*
X126351402Y-102752150D01*
X125700831Y-103402720D01*
X125872546Y-103519793D01*
X126108860Y-103633596D01*
X126359496Y-103710908D01*
X126618856Y-103750000D01*
X126881144Y-103750000D01*
X127140503Y-103710908D01*
X127391139Y-103633596D01*
X127627456Y-103519792D01*
X127799167Y-103402720D01*
X127148609Y-102752161D01*
X127267431Y-102680669D01*
X127401658Y-102553523D01*
X127504861Y-102401308D01*
X128104816Y-103001262D01*
X128138301Y-103062585D01*
X128133317Y-103132276D01*
X128104816Y-103176624D01*
X128056566Y-103224874D01*
X128196868Y-103339276D01*
X128377137Y-103433442D01*
X128572670Y-103489390D01*
X128689268Y-103499757D01*
X128694739Y-103500000D01*
X129750000Y-103500000D01*
X129750000Y-102600000D01*
X130250000Y-102600000D01*
X130250000Y-103500000D01*
X131305261Y-103500000D01*
X131310731Y-103499757D01*
X131427329Y-103489390D01*
X131622862Y-103433442D01*
X131803131Y-103339276D01*
X131960752Y-103210752D01*
X132089276Y-103053131D01*
X132183442Y-102872862D01*
X132239390Y-102677329D01*
X132249757Y-102560731D01*
X132250000Y-102555260D01*
X132250000Y-102250000D01*
X131195882Y-102250000D01*
X131234556Y-102156631D01*
X131255177Y-102000000D01*
X131234556Y-101843369D01*
X131195882Y-101750000D01*
X132250000Y-101750000D01*
X132250000Y-101444739D01*
X132249757Y-101439268D01*
X132239390Y-101322670D01*
X132183442Y-101127137D01*
X132089276Y-100946868D01*
X131960752Y-100789247D01*
X131803131Y-100660723D01*
X131622862Y-100566557D01*
X131427329Y-100510609D01*
X131310731Y-100500242D01*
X131305261Y-100500000D01*
X130250000Y-100500000D01*
X130250000Y-101400000D01*
X129750000Y-101400000D01*
X129750000Y-100500000D01*
X128694739Y-100500000D01*
X128689268Y-100500242D01*
X128572670Y-100510609D01*
X128377135Y-100566558D01*
X128196869Y-100660721D01*
X128056566Y-100775123D01*
X128056565Y-100775124D01*
X128104816Y-100823375D01*
X128138301Y-100884698D01*
X128133317Y-100954390D01*
X128104816Y-100998737D01*
X127501232Y-101602319D01*
X127457684Y-101520178D01*
X127337991Y-101379265D01*
X127190805Y-101267377D01*
X127148596Y-101247848D01*
X127799167Y-100597278D01*
X127708455Y-100535432D01*
X127664153Y-100481403D01*
X127656094Y-100411999D01*
X127686837Y-100349257D01*
X127707178Y-100331407D01*
X127806877Y-100261598D01*
X127961598Y-100106877D01*
X128087102Y-99927639D01*
X128179575Y-99729330D01*
X128236207Y-99517977D01*
X128255277Y-99300000D01*
X128236207Y-99082023D01*
X128179575Y-98870670D01*
X128087102Y-98672362D01*
X127961598Y-98493123D01*
X127806877Y-98338402D01*
X127707181Y-98268594D01*
X127663558Y-98214019D01*
X127656366Y-98144520D01*
X127687888Y-98082166D01*
X127708455Y-98064568D01*
X127799167Y-98002720D01*
X127148609Y-97352162D01*
X127267431Y-97280669D01*
X127401658Y-97153523D01*
X127504861Y-97001308D01*
X128104816Y-97601262D01*
X128138301Y-97662585D01*
X128133317Y-97732276D01*
X128104816Y-97776624D01*
X128056566Y-97824874D01*
X128196868Y-97939276D01*
X128377137Y-98033442D01*
X128572670Y-98089390D01*
X128689268Y-98099757D01*
X128694739Y-98100000D01*
X129750000Y-98100000D01*
X129750000Y-97200000D01*
X130250000Y-97200000D01*
X130250000Y-98100000D01*
X131305261Y-98100000D01*
X131310731Y-98099757D01*
X131427329Y-98089390D01*
X131622862Y-98033442D01*
X131803131Y-97939276D01*
X131960752Y-97810752D01*
X132089276Y-97653131D01*
X132183442Y-97472862D01*
X132239390Y-97277329D01*
X132249757Y-97160731D01*
X132250000Y-97155260D01*
X132250000Y-96850000D01*
X131195882Y-96850000D01*
X131234556Y-96756631D01*
X131255177Y-96600000D01*
X131234556Y-96443369D01*
X131195882Y-96350000D01*
X132250000Y-96350000D01*
X132250000Y-96044739D01*
X132249757Y-96039268D01*
X132239390Y-95922670D01*
X132183442Y-95727137D01*
X132089276Y-95546868D01*
X131960752Y-95389247D01*
X131803131Y-95260723D01*
X131622862Y-95166557D01*
X131427329Y-95110609D01*
X131310731Y-95100242D01*
X131305261Y-95100000D01*
X130250000Y-95100000D01*
X130250000Y-96000000D01*
X129750000Y-96000000D01*
X129750000Y-95100000D01*
X128694739Y-95100000D01*
X128689268Y-95100242D01*
X128572670Y-95110609D01*
X128377135Y-95166558D01*
X128196869Y-95260721D01*
X128056566Y-95375123D01*
X128056565Y-95375124D01*
X128104816Y-95423375D01*
X128138301Y-95484698D01*
X128133317Y-95554390D01*
X128104816Y-95598737D01*
X127501232Y-96202319D01*
X127457684Y-96120178D01*
X127337991Y-95979265D01*
X127190805Y-95867377D01*
X127148596Y-95847849D01*
X127799167Y-95197278D01*
X127627451Y-95080205D01*
X127391139Y-94966403D01*
X127140503Y-94889091D01*
X126881144Y-94850000D01*
X126618856Y-94850000D01*
X126359496Y-94889091D01*
X126108860Y-94966403D01*
X125978302Y-95029277D01*
X125909361Y-95040629D01*
X125845226Y-95012907D01*
X125806260Y-94954912D01*
X125800500Y-94917557D01*
X125800500Y-93996941D01*
X125820185Y-93929902D01*
X125860351Y-93890824D01*
X125960185Y-93830472D01*
X126080469Y-93710188D01*
X126080468Y-93710187D01*
X126080472Y-93710185D01*
X126095485Y-93685349D01*
X126147012Y-93638163D01*
X126201602Y-93625500D01*
X127917256Y-93625500D01*
X127937762Y-93627764D01*
X127940665Y-93627672D01*
X127940667Y-93627673D01*
X128007872Y-93625561D01*
X128011768Y-93625500D01*
X128035448Y-93625500D01*
X128039350Y-93625500D01*
X128043313Y-93624999D01*
X128054962Y-93624080D01*
X128098627Y-93622709D01*
X128117859Y-93617120D01*
X128136918Y-93613174D01*
X128143196Y-93612381D01*
X128156792Y-93610664D01*
X128197407Y-93594582D01*
X128208444Y-93590803D01*
X128250390Y-93578618D01*
X128267629Y-93568422D01*
X128285102Y-93559862D01*
X128303732Y-93552486D01*
X128339064Y-93526814D01*
X128348830Y-93520400D01*
X128386418Y-93498171D01*
X128386417Y-93498171D01*
X128386420Y-93498170D01*
X128400585Y-93484004D01*
X128415373Y-93471373D01*
X128431587Y-93459594D01*
X128459438Y-93425926D01*
X128467279Y-93417309D01*
X132250789Y-89633800D01*
X132266885Y-89620906D01*
X132268873Y-89618787D01*
X132268877Y-89618786D01*
X132314949Y-89569723D01*
X132317534Y-89567055D01*
X132337120Y-89547471D01*
X132339585Y-89544292D01*
X132347167Y-89535416D01*
X132377062Y-89503582D01*
X132386712Y-89486027D01*
X132397400Y-89469757D01*
X132409671Y-89453938D01*
X132409673Y-89453936D01*
X132427026Y-89413832D01*
X132432157Y-89403362D01*
X132453197Y-89365092D01*
X132458175Y-89345699D01*
X132464481Y-89327282D01*
X132466018Y-89323728D01*
X132472438Y-89308896D01*
X132479272Y-89265745D01*
X132481635Y-89254331D01*
X132492500Y-89212019D01*
X132492500Y-89191982D01*
X132494027Y-89172584D01*
X132497160Y-89152804D01*
X132493050Y-89109324D01*
X132492500Y-89097655D01*
X132492500Y-88822546D01*
X132492500Y-86522621D01*
X132512184Y-86455586D01*
X132564987Y-86409831D01*
X132590718Y-86401335D01*
X132779803Y-86361144D01*
X132952730Y-86284151D01*
X133105870Y-86172889D01*
X133232533Y-86032216D01*
X133327179Y-85868284D01*
X133345446Y-85812063D01*
X133385674Y-85688256D01*
X133405460Y-85500000D01*
X133385674Y-85311744D01*
X133327179Y-85131716D01*
X133327179Y-85131715D01*
X133232533Y-84967783D01*
X133105870Y-84827110D01*
X132952730Y-84715848D01*
X132779802Y-84638855D01*
X132594648Y-84599500D01*
X132594646Y-84599500D01*
X132405354Y-84599500D01*
X132405352Y-84599500D01*
X132220197Y-84638855D01*
X132047269Y-84715848D01*
X131894129Y-84827110D01*
X131767466Y-84967783D01*
X131672820Y-85131715D01*
X131614326Y-85311742D01*
X131596679Y-85479649D01*
X131570094Y-85544263D01*
X131561039Y-85554368D01*
X131483208Y-85632199D01*
X131467110Y-85645096D01*
X131419096Y-85696225D01*
X131416392Y-85699016D01*
X131399628Y-85715780D01*
X131399621Y-85715787D01*
X131396880Y-85718529D01*
X131394499Y-85721597D01*
X131394490Y-85721608D01*
X131394411Y-85721711D01*
X131386842Y-85730572D01*
X131356935Y-85762420D01*
X131347285Y-85779974D01*
X131336609Y-85796228D01*
X131324326Y-85812063D01*
X131306975Y-85852158D01*
X131301838Y-85862644D01*
X131280802Y-85900907D01*
X131275821Y-85920309D01*
X131269520Y-85938711D01*
X131261561Y-85957102D01*
X131254728Y-86000243D01*
X131252361Y-86011675D01*
X131241500Y-86053982D01*
X131241499Y-86074020D01*
X131239973Y-86093405D01*
X131236839Y-86113195D01*
X131240949Y-86156675D01*
X131241499Y-86168343D01*
X131241499Y-88822546D01*
X131221814Y-88889585D01*
X131205180Y-88910227D01*
X127777228Y-92338181D01*
X127715905Y-92371666D01*
X127689547Y-92374500D01*
X126201602Y-92374500D01*
X126134563Y-92354815D01*
X126095485Y-92314650D01*
X126080472Y-92289815D01*
X126080470Y-92289813D01*
X126080469Y-92289811D01*
X125960186Y-92169528D01*
X125872180Y-92116326D01*
X125814606Y-92081522D01*
X125652196Y-92030914D01*
X125652193Y-92030913D01*
X125584424Y-92024755D01*
X125584420Y-92024754D01*
X125581616Y-92024500D01*
X125068384Y-92024500D01*
X125065580Y-92024754D01*
X125065575Y-92024755D01*
X124997806Y-92030913D01*
X124916598Y-92056217D01*
X124835394Y-92081522D01*
X124835392Y-92081522D01*
X124835392Y-92081523D01*
X124689813Y-92169528D01*
X124587681Y-92271661D01*
X124526358Y-92305146D01*
X124456666Y-92300162D01*
X124412319Y-92271661D01*
X124310186Y-92169528D01*
X124222179Y-92116326D01*
X124164606Y-92081522D01*
X124002196Y-92030914D01*
X124002193Y-92030913D01*
X123934424Y-92024755D01*
X123934420Y-92024754D01*
X123931616Y-92024500D01*
X123418384Y-92024500D01*
X123415580Y-92024754D01*
X123415575Y-92024755D01*
X123347806Y-92030913D01*
X123266598Y-92056217D01*
X123185394Y-92081522D01*
X123185392Y-92081522D01*
X123185392Y-92081523D01*
X123039813Y-92169528D01*
X122919528Y-92289813D01*
X122831523Y-92435392D01*
X122780913Y-92597806D01*
X122774755Y-92665575D01*
X122774500Y-92668384D01*
X122774500Y-93331616D01*
X122774754Y-93334420D01*
X122774755Y-93334424D01*
X122780913Y-93402193D01*
X122780914Y-93402196D01*
X122831522Y-93564606D01*
X122831523Y-93564607D01*
X122919528Y-93710186D01*
X123039813Y-93830471D01*
X123039815Y-93830472D01*
X123185394Y-93918478D01*
X123347804Y-93969086D01*
X123396723Y-93973531D01*
X123461705Y-93999201D01*
X123502493Y-94055929D01*
X123509500Y-94097022D01*
X123509500Y-95106060D01*
X123489815Y-95173099D01*
X123437011Y-95218854D01*
X123367853Y-95228798D01*
X123315649Y-95208514D01*
X123127455Y-95080206D01*
X122891139Y-94966403D01*
X122640503Y-94889091D01*
X122381144Y-94850000D01*
X122118856Y-94850000D01*
X121859496Y-94889091D01*
X121608860Y-94966403D01*
X121372545Y-95080206D01*
X121200831Y-95197278D01*
X121851390Y-95847837D01*
X121732569Y-95919331D01*
X121598342Y-96046477D01*
X121495138Y-96198692D01*
X120895182Y-95598736D01*
X120861697Y-95537413D01*
X120866681Y-95467721D01*
X120895182Y-95423373D01*
X120943431Y-95375123D01*
X120803131Y-95260723D01*
X120622862Y-95166557D01*
X120427329Y-95110609D01*
X120310731Y-95100242D01*
X120305261Y-95100000D01*
X119250000Y-95100000D01*
X119250000Y-96000000D01*
X118750000Y-96000000D01*
X118750000Y-95100000D01*
X117694739Y-95100000D01*
X117689268Y-95100242D01*
X117572670Y-95110609D01*
X117377137Y-95166557D01*
X117196868Y-95260723D01*
X117039247Y-95389247D01*
X116910723Y-95546868D01*
X116816557Y-95727137D01*
X116760609Y-95922670D01*
X116750242Y-96039268D01*
X116750000Y-96044739D01*
X116750000Y-96350000D01*
X117804118Y-96350000D01*
X117765444Y-96443369D01*
X117744823Y-96600000D01*
X117765444Y-96756631D01*
X117804118Y-96850000D01*
X116750000Y-96850000D01*
X116750000Y-97155260D01*
X116750242Y-97160731D01*
X116760609Y-97277329D01*
X116816557Y-97472862D01*
X116910723Y-97653131D01*
X117039247Y-97810752D01*
X117196868Y-97939276D01*
X117377137Y-98033442D01*
X117572670Y-98089390D01*
X117689268Y-98099757D01*
X117694739Y-98100000D01*
X118750000Y-98100000D01*
X118750000Y-97200000D01*
X119250000Y-97200000D01*
X119250000Y-98100000D01*
X120305261Y-98100000D01*
X120310731Y-98099757D01*
X120427329Y-98089390D01*
X120622862Y-98033442D01*
X120803133Y-97939276D01*
X120943432Y-97824874D01*
X120895183Y-97776624D01*
X120861698Y-97715301D01*
X120866682Y-97645609D01*
X120895183Y-97601262D01*
X121498766Y-96997678D01*
X121542316Y-97079822D01*
X121662009Y-97220735D01*
X121809195Y-97332623D01*
X121851401Y-97352149D01*
X121200831Y-98002720D01*
X121291544Y-98064567D01*
X121335846Y-98118596D01*
X121343906Y-98187999D01*
X121313163Y-98250742D01*
X121292817Y-98268596D01*
X121193119Y-98338405D01*
X121038402Y-98493122D01*
X120912898Y-98672361D01*
X120820425Y-98870668D01*
X120763792Y-99082025D01*
X120744722Y-99300000D01*
X120763792Y-99517974D01*
X120763793Y-99517977D01*
X120820425Y-99729330D01*
X120912898Y-99927639D01*
X121038402Y-100106877D01*
X121193123Y-100261598D01*
X121292817Y-100331405D01*
X121336440Y-100385980D01*
X121343633Y-100455479D01*
X121312111Y-100517833D01*
X121291544Y-100535432D01*
X121200832Y-100597278D01*
X121851391Y-101247837D01*
X121732569Y-101319331D01*
X121598342Y-101446477D01*
X121495138Y-101598692D01*
X120895182Y-100998736D01*
X120861697Y-100937413D01*
X120866681Y-100867721D01*
X120895182Y-100823373D01*
X120943431Y-100775123D01*
X120803131Y-100660723D01*
X120622862Y-100566557D01*
X120427329Y-100510609D01*
X120310731Y-100500242D01*
X120305261Y-100500000D01*
X119250000Y-100500000D01*
X119250000Y-101400000D01*
X118750000Y-101400000D01*
X118750000Y-100500000D01*
X117694739Y-100500000D01*
X117689268Y-100500242D01*
X117572670Y-100510609D01*
X117377137Y-100566557D01*
X117196868Y-100660723D01*
X117039247Y-100789247D01*
X116910723Y-100946868D01*
X116816557Y-101127137D01*
X116760609Y-101322670D01*
X116750242Y-101439268D01*
X116750000Y-101444739D01*
X116750000Y-101750000D01*
X117804118Y-101750000D01*
X117765444Y-101843369D01*
X117744823Y-102000000D01*
X117765444Y-102156631D01*
X117804118Y-102250000D01*
X116750000Y-102250000D01*
X116750000Y-102555260D01*
X115500500Y-102555260D01*
X115500500Y-83124500D01*
X115520185Y-83057461D01*
X115572989Y-83011706D01*
X115624500Y-83000500D01*
X134875500Y-83000500D01*
X134942539Y-83020185D01*
G37*
%TD.AperFunction*%
%TD*%
M02*
