%TF.GenerationSoftware,KiCad,Pcbnew,7.0.2*%
%TF.CreationDate,2024-04-02T19:02:07-04:00*%
%TF.ProjectId,filt2,66696c74-322e-46b6-9963-61645f706362,rev?*%
%TF.SameCoordinates,Original*%
%TF.FileFunction,Legend,Bot*%
%TF.FilePolarity,Positive*%
%FSLAX46Y46*%
G04 Gerber Fmt 4.6, Leading zero omitted, Abs format (unit mm)*
G04 Created by KiCad (PCBNEW 7.0.2) date 2024-04-02 19:02:07*
%MOMM*%
%LPD*%
G01*
G04 APERTURE LIST*
%ADD10C,0.150000*%
%ADD11C,0.100000*%
%ADD12C,0.120000*%
G04 APERTURE END LIST*
D10*
%TO.C,R1*%
X124666666Y-91962619D02*
X124999999Y-91486428D01*
X125238094Y-91962619D02*
X125238094Y-90962619D01*
X125238094Y-90962619D02*
X124857142Y-90962619D01*
X124857142Y-90962619D02*
X124761904Y-91010238D01*
X124761904Y-91010238D02*
X124714285Y-91057857D01*
X124714285Y-91057857D02*
X124666666Y-91153095D01*
X124666666Y-91153095D02*
X124666666Y-91295952D01*
X124666666Y-91295952D02*
X124714285Y-91391190D01*
X124714285Y-91391190D02*
X124761904Y-91438809D01*
X124761904Y-91438809D02*
X124857142Y-91486428D01*
X124857142Y-91486428D02*
X125238094Y-91486428D01*
X123714285Y-91962619D02*
X124285713Y-91962619D01*
X123999999Y-91962619D02*
X123999999Y-90962619D01*
X123999999Y-90962619D02*
X124095237Y-91105476D01*
X124095237Y-91105476D02*
X124190475Y-91200714D01*
X124190475Y-91200714D02*
X124285713Y-91248333D01*
D11*
%TO.C,J1*%
X129462619Y-98966666D02*
X130176904Y-98966666D01*
X130176904Y-98966666D02*
X130319761Y-98919047D01*
X130319761Y-98919047D02*
X130415000Y-98823809D01*
X130415000Y-98823809D02*
X130462619Y-98680952D01*
X130462619Y-98680952D02*
X130462619Y-98585714D01*
X130462619Y-99966666D02*
X130462619Y-99395238D01*
X130462619Y-99680952D02*
X129462619Y-99680952D01*
X129462619Y-99680952D02*
X129605476Y-99585714D01*
X129605476Y-99585714D02*
X129700714Y-99490476D01*
X129700714Y-99490476D02*
X129748333Y-99395238D01*
D12*
%TO.C,R1*%
X124262742Y-92477500D02*
X124737258Y-92477500D01*
X124262742Y-93522500D02*
X124737258Y-93522500D01*
D11*
%TO.C,J1*%
X127000000Y-94800000D02*
G75*
G03*
X127000000Y-103800000I0J-4500000D01*
G01*
%TD*%
M02*
