%TF.GenerationSoftware,KiCad,Pcbnew,7.0.2*%
%TF.CreationDate,2024-04-02T19:02:07-04:00*%
%TF.ProjectId,filt2,66696c74-322e-46b6-9963-61645f706362,rev?*%
%TF.SameCoordinates,Original*%
%TF.FileFunction,Copper,L1,Top*%
%TF.FilePolarity,Positive*%
%FSLAX46Y46*%
G04 Gerber Fmt 4.6, Leading zero omitted, Abs format (unit mm)*
G04 Created by KiCad (PCBNEW 7.0.2) date 2024-04-02 19:02:07*
%MOMM*%
%LPD*%
G01*
G04 APERTURE LIST*
G04 Aperture macros list*
%AMRoundRect*
0 Rectangle with rounded corners*
0 $1 Rounding radius*
0 $2 $3 $4 $5 $6 $7 $8 $9 X,Y pos of 4 corners*
0 Add a 4 corners polygon primitive as box body*
4,1,4,$2,$3,$4,$5,$6,$7,$8,$9,$2,$3,0*
0 Add four circle primitives for the rounded corners*
1,1,$1+$1,$2,$3*
1,1,$1+$1,$4,$5*
1,1,$1+$1,$6,$7*
1,1,$1+$1,$8,$9*
0 Add four rect primitives between the rounded corners*
20,1,$1+$1,$2,$3,$4,$5,0*
20,1,$1+$1,$4,$5,$6,$7,0*
20,1,$1+$1,$6,$7,$8,$9,0*
20,1,$1+$1,$8,$9,$2,$3,0*%
G04 Aperture macros list end*
%TA.AperFunction,SMDPad,CuDef*%
%ADD10R,1.524000X1.397000*%
%TD*%
%TA.AperFunction,ComponentPad*%
%ADD11C,1.016000*%
%TD*%
%TA.AperFunction,SMDPad,CuDef*%
%ADD12R,13.208000X5.664200*%
%TD*%
%TA.AperFunction,SMDPad,CuDef*%
%ADD13R,18.796000X2.387600*%
%TD*%
%TA.AperFunction,SMDPad,CuDef*%
%ADD14R,12.700000X4.775200*%
%TD*%
%TA.AperFunction,ComponentPad*%
%ADD15C,1.500000*%
%TD*%
%TA.AperFunction,ComponentPad*%
%ADD16C,2.500000*%
%TD*%
%TA.AperFunction,ComponentPad*%
%ADD17RoundRect,0.500000X-1.250000X0.500000X-1.250000X-0.500000X1.250000X-0.500000X1.250000X0.500000X0*%
%TD*%
%TA.AperFunction,ViaPad*%
%ADD18C,0.800000*%
%TD*%
%TA.AperFunction,Conductor*%
%ADD19C,0.250000*%
%TD*%
G04 APERTURE END LIST*
D10*
%TO.P,U1,1*%
%TO.N,Net-(J2-In)*%
X117460000Y-94135500D03*
%TO.P,U1,2,GND*%
%TO.N,GND*%
X117460000Y-83594500D03*
D11*
%TO.P,U1,3,GND*%
X121778000Y-95215000D03*
X123302000Y-95215000D03*
D10*
X122540000Y-94135500D03*
%TO.P,U1,4,GND*%
X122540000Y-83594500D03*
D11*
%TO.P,U1,5,GND*%
X126858000Y-95215000D03*
X128382000Y-95215000D03*
D10*
X127620000Y-94135500D03*
%TO.P,U1,6,GND*%
X127620000Y-83594500D03*
D11*
%TO.P,U1,7,GND*%
X131938000Y-95215000D03*
X133462000Y-95215000D03*
D10*
X132700000Y-94135500D03*
D12*
X127874000Y-92890900D03*
D11*
X117460000Y-89500000D03*
X120000000Y-89500000D03*
X122540000Y-89500000D03*
X125080000Y-89500000D03*
X127620000Y-89500000D03*
X130160000Y-89500000D03*
X132700000Y-89500000D03*
D13*
X125080000Y-88865000D03*
D11*
X117460000Y-88230000D03*
X120000000Y-88230000D03*
X122540000Y-88230000D03*
X125080000Y-88230000D03*
X127620000Y-88230000D03*
X130160000Y-88230000D03*
X132700000Y-88230000D03*
D14*
X122032000Y-85283600D03*
D10*
%TO.P,U1,8*%
%TO.N,Net-(J1-In)*%
X132700000Y-83594500D03*
%TD*%
D15*
%TO.P,J2,1,In*%
%TO.N,Net-(J2-In)*%
X122000000Y-99300000D03*
D16*
%TO.P,J2,2,Ext*%
%TO.N,GND*%
X122250000Y-96600000D03*
D17*
X119000000Y-96600000D03*
D16*
X122250000Y-102000000D03*
D17*
X119000000Y-102000000D03*
%TD*%
D15*
%TO.P,J1,1,In*%
%TO.N,Net-(J1-In)*%
X127000000Y-99300000D03*
D16*
%TO.P,J1,2,Ext*%
%TO.N,GND*%
X126750000Y-96600000D03*
D17*
X130000000Y-96600000D03*
D16*
X126750000Y-102000000D03*
D17*
X130000000Y-102000000D03*
%TD*%
D18*
%TO.N,GND*%
X133000000Y-99000000D03*
%TO.N,Net-(J1-In)*%
X132500000Y-85500000D03*
%TO.N,GND*%
X125000000Y-91000000D03*
X121500000Y-87500000D03*
%TD*%
D19*
%TO.N,Net-(J1-In)*%
X132500000Y-85500000D02*
X132500000Y-83794500D01*
X132500000Y-83794500D02*
X132700000Y-83594500D01*
%TO.N,Net-(J2-In)*%
X116925000Y-94670500D02*
X117460000Y-94135500D01*
X118783274Y-99300000D02*
X116925000Y-97441726D01*
X116925000Y-97441726D02*
X116925000Y-94670500D01*
X122000000Y-99300000D02*
X118783274Y-99300000D01*
%TD*%
%TA.AperFunction,Conductor*%
%TO.N,GND*%
G36*
X128880539Y-83020185D02*
G01*
X128926294Y-83072989D01*
X128937500Y-83124500D01*
X128937500Y-84408135D01*
X128937500Y-84408180D01*
X128937501Y-84409466D01*
X128943852Y-84554954D01*
X128994509Y-84900782D01*
X129084971Y-85238391D01*
X129086300Y-85241736D01*
X129212680Y-85559856D01*
X129212683Y-85559864D01*
X129214015Y-85563215D01*
X129379896Y-85870862D01*
X129381962Y-85873813D01*
X129381963Y-85873814D01*
X129578305Y-86154219D01*
X129578310Y-86154226D01*
X129580372Y-86157170D01*
X129812730Y-86418270D01*
X130073830Y-86650628D01*
X130076775Y-86652690D01*
X130076780Y-86652694D01*
X130238533Y-86765954D01*
X130360138Y-86851104D01*
X130667785Y-87016985D01*
X130992609Y-87146029D01*
X131330218Y-87236491D01*
X131676046Y-87287148D01*
X131821533Y-87293500D01*
X133578466Y-87293499D01*
X133723954Y-87287148D01*
X134069782Y-87236491D01*
X134407391Y-87146029D01*
X134732215Y-87016985D01*
X134816650Y-86971457D01*
X134884999Y-86956967D01*
X134950334Y-86981730D01*
X134991909Y-87037884D01*
X134999500Y-87080603D01*
X134999500Y-103875500D01*
X134979815Y-103942539D01*
X134927011Y-103988294D01*
X134875500Y-103999500D01*
X115624500Y-103999500D01*
X115557461Y-103979815D01*
X115511706Y-103927011D01*
X115500500Y-103875500D01*
X115500500Y-97769561D01*
X115520185Y-97702522D01*
X115572989Y-97656767D01*
X115642147Y-97646823D01*
X115670278Y-97654321D01*
X115752609Y-97687029D01*
X116090218Y-97777491D01*
X116093779Y-97778012D01*
X116093781Y-97778013D01*
X116115696Y-97781223D01*
X116380522Y-97820014D01*
X116444000Y-97849207D01*
X116462868Y-97869820D01*
X116465405Y-97873312D01*
X116499058Y-97901152D01*
X116507699Y-97909015D01*
X118282470Y-99683787D01*
X118295370Y-99699888D01*
X118346497Y-99747900D01*
X118349294Y-99750611D01*
X118368803Y-99770120D01*
X118371983Y-99772587D01*
X118380845Y-99780155D01*
X118412692Y-99810062D01*
X118430244Y-99819711D01*
X118446512Y-99830397D01*
X118462338Y-99842673D01*
X118502420Y-99860017D01*
X118512907Y-99865155D01*
X118551181Y-99886197D01*
X118559684Y-99888379D01*
X118570582Y-99891178D01*
X118588987Y-99897478D01*
X118607378Y-99905437D01*
X118650524Y-99912270D01*
X118661942Y-99914635D01*
X118704255Y-99925500D01*
X118724290Y-99925500D01*
X118743689Y-99927027D01*
X118763470Y-99930160D01*
X118806948Y-99926050D01*
X118818618Y-99925500D01*
X120846851Y-99925500D01*
X120913890Y-99945185D01*
X120948423Y-99978374D01*
X121038402Y-100106877D01*
X121193123Y-100261598D01*
X121292817Y-100331405D01*
X121336440Y-100385980D01*
X121343633Y-100455479D01*
X121312111Y-100517833D01*
X121291544Y-100535432D01*
X121200832Y-100597278D01*
X121851391Y-101247837D01*
X121732569Y-101319331D01*
X121598342Y-101446477D01*
X121495138Y-101598692D01*
X120895182Y-100998736D01*
X120861697Y-100937413D01*
X120866681Y-100867721D01*
X120895182Y-100823373D01*
X120943431Y-100775123D01*
X120803131Y-100660723D01*
X120622862Y-100566557D01*
X120427329Y-100510609D01*
X120310731Y-100500242D01*
X120305261Y-100500000D01*
X119250000Y-100500000D01*
X119250000Y-101400000D01*
X118750000Y-101400000D01*
X118750000Y-100500000D01*
X117694739Y-100500000D01*
X117689268Y-100500242D01*
X117572670Y-100510609D01*
X117377137Y-100566557D01*
X117196868Y-100660723D01*
X117039247Y-100789247D01*
X116910723Y-100946868D01*
X116816557Y-101127137D01*
X116760609Y-101322670D01*
X116750242Y-101439268D01*
X116750000Y-101444739D01*
X116750000Y-101750000D01*
X117804118Y-101750000D01*
X117765444Y-101843369D01*
X117744823Y-102000000D01*
X117765444Y-102156631D01*
X117804118Y-102250000D01*
X116750000Y-102250000D01*
X116750000Y-102555260D01*
X116750242Y-102560731D01*
X116760609Y-102677329D01*
X116816557Y-102872862D01*
X116910723Y-103053131D01*
X117039247Y-103210752D01*
X117196868Y-103339276D01*
X117377137Y-103433442D01*
X117572670Y-103489390D01*
X117689268Y-103499757D01*
X117694739Y-103500000D01*
X118750000Y-103500000D01*
X118750000Y-102600000D01*
X119250000Y-102600000D01*
X119250000Y-103500000D01*
X120305261Y-103500000D01*
X120310731Y-103499757D01*
X120427329Y-103489390D01*
X120622862Y-103433442D01*
X120803133Y-103339276D01*
X120943432Y-103224874D01*
X120895183Y-103176624D01*
X120861698Y-103115301D01*
X120866682Y-103045609D01*
X120895183Y-103001262D01*
X121498766Y-102397678D01*
X121542316Y-102479822D01*
X121662009Y-102620735D01*
X121809195Y-102732623D01*
X121851402Y-102752150D01*
X121200831Y-103402720D01*
X121372546Y-103519793D01*
X121608860Y-103633596D01*
X121859496Y-103710908D01*
X122118856Y-103750000D01*
X122381144Y-103750000D01*
X122640503Y-103710908D01*
X122891139Y-103633596D01*
X123127456Y-103519792D01*
X123299167Y-103402720D01*
X122648609Y-102752161D01*
X122767431Y-102680669D01*
X122901658Y-102553523D01*
X123004861Y-102401308D01*
X123652124Y-103048571D01*
X123699972Y-102988572D01*
X123831117Y-102761423D01*
X123926940Y-102517270D01*
X123985306Y-102261552D01*
X124004907Y-102000000D01*
X124995092Y-102000000D01*
X125014693Y-102261552D01*
X125073059Y-102517270D01*
X125168882Y-102761424D01*
X125300027Y-102988573D01*
X125347873Y-103048571D01*
X125347874Y-103048571D01*
X125998766Y-102397679D01*
X126042316Y-102479822D01*
X126162009Y-102620735D01*
X126309195Y-102732623D01*
X126351402Y-102752150D01*
X125700831Y-103402720D01*
X125872546Y-103519793D01*
X126108860Y-103633596D01*
X126359496Y-103710908D01*
X126618856Y-103750000D01*
X126881144Y-103750000D01*
X127140503Y-103710908D01*
X127391139Y-103633596D01*
X127627456Y-103519792D01*
X127799167Y-103402720D01*
X127148609Y-102752161D01*
X127267431Y-102680669D01*
X127401658Y-102553523D01*
X127504861Y-102401308D01*
X128104816Y-103001262D01*
X128138301Y-103062585D01*
X128133317Y-103132276D01*
X128104816Y-103176624D01*
X128056566Y-103224874D01*
X128196868Y-103339276D01*
X128377137Y-103433442D01*
X128572670Y-103489390D01*
X128689268Y-103499757D01*
X128694739Y-103500000D01*
X129750000Y-103500000D01*
X129750000Y-102600000D01*
X130250000Y-102600000D01*
X130250000Y-103500000D01*
X131305261Y-103500000D01*
X131310731Y-103499757D01*
X131427329Y-103489390D01*
X131622862Y-103433442D01*
X131803131Y-103339276D01*
X131960752Y-103210752D01*
X132089276Y-103053131D01*
X132183442Y-102872862D01*
X132239390Y-102677329D01*
X132249757Y-102560731D01*
X132250000Y-102555260D01*
X132250000Y-102250000D01*
X131195882Y-102250000D01*
X131234556Y-102156631D01*
X131255177Y-102000000D01*
X131234556Y-101843369D01*
X131195882Y-101750000D01*
X132250000Y-101750000D01*
X132250000Y-101444739D01*
X132249757Y-101439268D01*
X132239390Y-101322670D01*
X132183442Y-101127137D01*
X132089276Y-100946868D01*
X131960752Y-100789247D01*
X131803131Y-100660723D01*
X131622862Y-100566557D01*
X131427329Y-100510609D01*
X131310731Y-100500242D01*
X131305261Y-100500000D01*
X130250000Y-100500000D01*
X130250000Y-101400000D01*
X129750000Y-101400000D01*
X129750000Y-100500000D01*
X128694739Y-100500000D01*
X128689268Y-100500242D01*
X128572670Y-100510609D01*
X128377135Y-100566558D01*
X128196869Y-100660721D01*
X128056566Y-100775123D01*
X128056565Y-100775124D01*
X128104816Y-100823375D01*
X128138301Y-100884698D01*
X128133317Y-100954390D01*
X128104816Y-100998737D01*
X127501232Y-101602319D01*
X127457684Y-101520178D01*
X127337991Y-101379265D01*
X127190805Y-101267377D01*
X127148596Y-101247848D01*
X127799167Y-100597278D01*
X127708455Y-100535432D01*
X127664153Y-100481403D01*
X127656094Y-100411999D01*
X127686837Y-100349257D01*
X127707178Y-100331407D01*
X127806877Y-100261598D01*
X127961598Y-100106877D01*
X128087102Y-99927639D01*
X128179575Y-99729330D01*
X128236207Y-99517977D01*
X128255277Y-99300000D01*
X128236207Y-99082023D01*
X128179575Y-98870670D01*
X128087102Y-98672362D01*
X127961598Y-98493123D01*
X127806877Y-98338402D01*
X127707181Y-98268594D01*
X127663558Y-98214019D01*
X127656366Y-98144520D01*
X127687888Y-98082166D01*
X127708455Y-98064568D01*
X127799167Y-98002720D01*
X127148609Y-97352161D01*
X127267431Y-97280669D01*
X127401658Y-97153523D01*
X127504861Y-97001308D01*
X128104816Y-97601262D01*
X128138301Y-97662585D01*
X128133317Y-97732276D01*
X128104816Y-97776624D01*
X128056566Y-97824874D01*
X128196868Y-97939276D01*
X128377137Y-98033442D01*
X128572670Y-98089390D01*
X128689268Y-98099757D01*
X128694739Y-98100000D01*
X129750000Y-98100000D01*
X129750000Y-97200000D01*
X130250000Y-97200000D01*
X130250000Y-98100000D01*
X131305261Y-98100000D01*
X131310731Y-98099757D01*
X131427329Y-98089390D01*
X131622862Y-98033442D01*
X131803131Y-97939276D01*
X131960752Y-97810752D01*
X132089276Y-97653131D01*
X132183442Y-97472862D01*
X132239390Y-97277329D01*
X132249757Y-97160731D01*
X132250000Y-97155260D01*
X132250000Y-96850000D01*
X131195882Y-96850000D01*
X131234556Y-96756631D01*
X131255177Y-96600000D01*
X131234556Y-96443369D01*
X131195882Y-96350000D01*
X132250000Y-96350000D01*
X132250000Y-96044739D01*
X132249757Y-96039268D01*
X132239390Y-95922670D01*
X132183442Y-95727137D01*
X132089276Y-95546868D01*
X131960752Y-95389247D01*
X131803131Y-95260723D01*
X131622862Y-95166557D01*
X131427329Y-95110609D01*
X131310731Y-95100242D01*
X131305261Y-95100000D01*
X130250000Y-95100000D01*
X130250000Y-96000000D01*
X129750000Y-96000000D01*
X129750000Y-95100000D01*
X128694739Y-95100000D01*
X128689268Y-95100242D01*
X128572670Y-95110609D01*
X128377135Y-95166558D01*
X128196869Y-95260721D01*
X128056566Y-95375123D01*
X128056565Y-95375124D01*
X128104816Y-95423375D01*
X128138301Y-95484698D01*
X128133317Y-95554390D01*
X128104816Y-95598737D01*
X127501232Y-96202319D01*
X127457684Y-96120178D01*
X127337991Y-95979265D01*
X127190805Y-95867377D01*
X127148596Y-95847848D01*
X127799167Y-95197278D01*
X127627451Y-95080205D01*
X127391139Y-94966403D01*
X127140503Y-94889091D01*
X126881144Y-94850000D01*
X126618856Y-94850000D01*
X126359496Y-94889091D01*
X126108860Y-94966403D01*
X125872545Y-95080206D01*
X125700831Y-95197278D01*
X126351390Y-95847838D01*
X126232569Y-95919331D01*
X126098342Y-96046477D01*
X125995138Y-96198692D01*
X125347873Y-95551427D01*
X125300028Y-95611424D01*
X125168882Y-95838576D01*
X125073059Y-96082729D01*
X125014693Y-96338447D01*
X124995092Y-96600000D01*
X125014693Y-96861552D01*
X125073059Y-97117270D01*
X125168882Y-97361424D01*
X125300027Y-97588573D01*
X125347873Y-97648571D01*
X125347874Y-97648571D01*
X125998766Y-96997679D01*
X126042316Y-97079822D01*
X126162009Y-97220735D01*
X126309195Y-97332623D01*
X126351402Y-97352150D01*
X125700831Y-98002720D01*
X125872546Y-98119793D01*
X126079018Y-98219226D01*
X126130878Y-98266049D01*
X126149190Y-98333476D01*
X126128142Y-98400100D01*
X126112898Y-98418627D01*
X126038400Y-98493125D01*
X125912898Y-98672361D01*
X125820425Y-98870668D01*
X125763792Y-99082025D01*
X125744722Y-99300000D01*
X125763792Y-99517974D01*
X125820425Y-99729331D01*
X125844128Y-99780161D01*
X125912898Y-99927639D01*
X126038402Y-100106877D01*
X126038404Y-100106879D01*
X126038405Y-100106880D01*
X126112897Y-100181372D01*
X126146382Y-100242695D01*
X126141398Y-100312387D01*
X126099526Y-100368320D01*
X126079018Y-100380773D01*
X125872546Y-100480206D01*
X125700831Y-100597278D01*
X126351390Y-101247838D01*
X126232569Y-101319331D01*
X126098342Y-101446477D01*
X125995138Y-101598692D01*
X125347873Y-100951427D01*
X125300028Y-101011424D01*
X125168882Y-101238576D01*
X125073059Y-101482729D01*
X125014693Y-101738447D01*
X124995092Y-102000000D01*
X124004907Y-102000000D01*
X124004907Y-101999999D01*
X123985306Y-101738447D01*
X123926940Y-101482729D01*
X123831117Y-101238575D01*
X123699972Y-101011426D01*
X123652125Y-100951427D01*
X123001232Y-101602319D01*
X122957684Y-101520178D01*
X122837991Y-101379265D01*
X122690805Y-101267377D01*
X122648596Y-101247849D01*
X123299167Y-100597278D01*
X123127451Y-100480205D01*
X122920981Y-100380774D01*
X122869122Y-100333952D01*
X122850809Y-100266525D01*
X122871857Y-100199901D01*
X122887102Y-100181373D01*
X122887101Y-100181372D01*
X122961598Y-100106877D01*
X123087102Y-99927639D01*
X123179575Y-99729330D01*
X123236207Y-99517977D01*
X123255277Y-99300000D01*
X123236207Y-99082023D01*
X123179575Y-98870670D01*
X123087102Y-98672362D01*
X122961598Y-98493123D01*
X122887102Y-98418627D01*
X122853617Y-98357304D01*
X122858601Y-98287612D01*
X122900473Y-98231679D01*
X122920981Y-98219226D01*
X123127456Y-98119792D01*
X123299167Y-98002720D01*
X122648609Y-97352161D01*
X122767431Y-97280669D01*
X122901658Y-97153523D01*
X123004861Y-97001308D01*
X123652124Y-97648571D01*
X123699972Y-97588572D01*
X123831117Y-97361423D01*
X123926940Y-97117270D01*
X123985306Y-96861552D01*
X124004907Y-96600000D01*
X123985306Y-96338447D01*
X123926940Y-96082729D01*
X123831117Y-95838575D01*
X123699972Y-95611426D01*
X123652125Y-95551427D01*
X123001232Y-96202319D01*
X122957684Y-96120178D01*
X122837991Y-95979265D01*
X122690805Y-95867377D01*
X122648596Y-95847849D01*
X123299167Y-95197278D01*
X123127451Y-95080205D01*
X122891139Y-94966403D01*
X122640503Y-94889091D01*
X122381144Y-94850000D01*
X122118856Y-94850000D01*
X121859496Y-94889091D01*
X121608860Y-94966403D01*
X121400199Y-95066889D01*
X121331257Y-95078241D01*
X121267123Y-95050519D01*
X121228157Y-94992523D01*
X121222427Y-94952453D01*
X121222440Y-94951831D01*
X121222500Y-94950467D01*
X121222499Y-93320534D01*
X121216148Y-93175046D01*
X121165491Y-92829218D01*
X121075029Y-92491609D01*
X120945985Y-92166785D01*
X120780104Y-91859138D01*
X120579628Y-91572830D01*
X120347270Y-91311730D01*
X120086170Y-91079372D01*
X120083226Y-91077310D01*
X120083219Y-91077305D01*
X119802814Y-90880963D01*
X119802813Y-90880962D01*
X119799862Y-90878896D01*
X119492215Y-90713015D01*
X119488864Y-90711683D01*
X119488856Y-90711680D01*
X119170736Y-90585300D01*
X119170737Y-90585300D01*
X119167391Y-90583971D01*
X119163924Y-90583042D01*
X119163918Y-90583040D01*
X118833258Y-90494440D01*
X118833251Y-90494438D01*
X118829782Y-90493509D01*
X118826227Y-90492988D01*
X118826221Y-90492987D01*
X118487082Y-90443310D01*
X118487078Y-90443309D01*
X118483954Y-90442852D01*
X118480810Y-90442714D01*
X118480792Y-90442713D01*
X118339839Y-90436559D01*
X118339798Y-90436558D01*
X118338467Y-90436500D01*
X118337092Y-90436500D01*
X116582864Y-90436500D01*
X116582818Y-90436500D01*
X116581534Y-90436501D01*
X116580206Y-90436558D01*
X116580204Y-90436559D01*
X116439206Y-90442714D01*
X116439204Y-90442714D01*
X116436046Y-90442852D01*
X116432921Y-90443309D01*
X116432918Y-90443310D01*
X116093778Y-90492987D01*
X116093769Y-90492988D01*
X116090218Y-90493509D01*
X116086751Y-90494437D01*
X116086741Y-90494440D01*
X115756081Y-90583040D01*
X115756070Y-90583043D01*
X115752609Y-90583971D01*
X115749272Y-90585296D01*
X115749262Y-90585300D01*
X115670281Y-90616677D01*
X115600710Y-90623134D01*
X115538692Y-90590954D01*
X115503918Y-90530352D01*
X115500500Y-90501438D01*
X115500500Y-83124500D01*
X115520185Y-83057461D01*
X115572989Y-83011706D01*
X115624500Y-83000500D01*
X128813500Y-83000500D01*
X128880539Y-83020185D01*
G37*
%TD.AperFunction*%
%TA.AperFunction,Conductor*%
G36*
X121542316Y-97079822D02*
G01*
X121662009Y-97220735D01*
X121809195Y-97332623D01*
X121851402Y-97352150D01*
X121200831Y-98002720D01*
X121291544Y-98064567D01*
X121335846Y-98118596D01*
X121343906Y-98187999D01*
X121313163Y-98250742D01*
X121292817Y-98268596D01*
X121193119Y-98338405D01*
X121038402Y-98493122D01*
X120948426Y-98621623D01*
X120893849Y-98665248D01*
X120846851Y-98674500D01*
X119093727Y-98674500D01*
X119026688Y-98654815D01*
X119006046Y-98638181D01*
X118679546Y-98311681D01*
X118646061Y-98250358D01*
X118651045Y-98180666D01*
X118692917Y-98124733D01*
X118744510Y-98105489D01*
X118750000Y-98100000D01*
X118750000Y-97894017D01*
X118769685Y-97826978D01*
X118822489Y-97781223D01*
X118841907Y-97774242D01*
X119093907Y-97706719D01*
X119163756Y-97708382D01*
X119221619Y-97747544D01*
X119249123Y-97811773D01*
X119250000Y-97826494D01*
X119250000Y-98100000D01*
X120305261Y-98100000D01*
X120310731Y-98099757D01*
X120427329Y-98089390D01*
X120622862Y-98033442D01*
X120803133Y-97939276D01*
X120943432Y-97824874D01*
X120895183Y-97776624D01*
X120861698Y-97715301D01*
X120866682Y-97645609D01*
X120895183Y-97601262D01*
X121498766Y-96997679D01*
X121542316Y-97079822D01*
G37*
%TD.AperFunction*%
%TD*%
M02*
