%TF.GenerationSoftware,KiCad,Pcbnew,7.0.2*%
%TF.CreationDate,2024-01-21T01:29:37-05:00*%
%TF.ProjectId,jtag-adapter,6a746167-2d61-4646-9170-7465722e6b69,rev?*%
%TF.SameCoordinates,Original*%
%TF.FileFunction,Legend,Top*%
%TF.FilePolarity,Positive*%
%FSLAX46Y46*%
G04 Gerber Fmt 4.6, Leading zero omitted, Abs format (unit mm)*
G04 Created by KiCad (PCBNEW 7.0.2) date 2024-01-21 01:29:37*
%MOMM*%
%LPD*%
G01*
G04 APERTURE LIST*
%ADD10C,0.150000*%
%ADD11C,0.120000*%
G04 APERTURE END LIST*
D10*
X90500000Y-71000000D02*
X90500000Y-73000000D01*
%TO.C,J2*%
X89666666Y-65462619D02*
X89666666Y-66176904D01*
X89666666Y-66176904D02*
X89619047Y-66319761D01*
X89619047Y-66319761D02*
X89523809Y-66415000D01*
X89523809Y-66415000D02*
X89380952Y-66462619D01*
X89380952Y-66462619D02*
X89285714Y-66462619D01*
X90095238Y-65557857D02*
X90142857Y-65510238D01*
X90142857Y-65510238D02*
X90238095Y-65462619D01*
X90238095Y-65462619D02*
X90476190Y-65462619D01*
X90476190Y-65462619D02*
X90571428Y-65510238D01*
X90571428Y-65510238D02*
X90619047Y-65557857D01*
X90619047Y-65557857D02*
X90666666Y-65653095D01*
X90666666Y-65653095D02*
X90666666Y-65748333D01*
X90666666Y-65748333D02*
X90619047Y-65891190D01*
X90619047Y-65891190D02*
X90047619Y-66462619D01*
X90047619Y-66462619D02*
X90666666Y-66462619D01*
%TO.C,J1*%
X86366666Y-65517619D02*
X86366666Y-66231904D01*
X86366666Y-66231904D02*
X86319047Y-66374761D01*
X86319047Y-66374761D02*
X86223809Y-66470000D01*
X86223809Y-66470000D02*
X86080952Y-66517619D01*
X86080952Y-66517619D02*
X85985714Y-66517619D01*
X87366666Y-66517619D02*
X86795238Y-66517619D01*
X87080952Y-66517619D02*
X87080952Y-65517619D01*
X87080952Y-65517619D02*
X86985714Y-65660476D01*
X86985714Y-65660476D02*
X86890476Y-65755714D01*
X86890476Y-65755714D02*
X86795238Y-65803333D01*
D11*
%TO.C,J2*%
X91340000Y-64940000D02*
X91340000Y-79060000D01*
X91340000Y-64940000D02*
X93400000Y-64940000D01*
X91340000Y-79060000D02*
X95460000Y-79060000D01*
X93400000Y-64940000D02*
X93400000Y-67000000D01*
X93400000Y-67000000D02*
X95460000Y-67000000D01*
X94400000Y-64940000D02*
X95460000Y-64940000D01*
X95460000Y-64940000D02*
X95460000Y-66000000D01*
X95460000Y-67000000D02*
X95460000Y-79060000D01*
%TO.C,J1*%
X85370000Y-67495000D02*
X85370000Y-67555000D01*
X85370000Y-67495000D02*
X88030000Y-67495000D01*
X85370000Y-76445000D02*
X85370000Y-76505000D01*
X85370000Y-76505000D02*
X88030000Y-76505000D01*
X88030000Y-67495000D02*
X88030000Y-67555000D01*
X88030000Y-67555000D02*
X89490000Y-67555000D01*
X88030000Y-76445000D02*
X88030000Y-76505000D01*
%TD*%
M02*
