%TF.GenerationSoftware,KiCad,Pcbnew,7.0.2*%
%TF.CreationDate,2024-01-21T01:29:36-05:00*%
%TF.ProjectId,jtag-adapter,6a746167-2d61-4646-9170-7465722e6b69,rev?*%
%TF.SameCoordinates,Original*%
%TF.FileFunction,Copper,L1,Top*%
%TF.FilePolarity,Positive*%
%FSLAX46Y46*%
G04 Gerber Fmt 4.6, Leading zero omitted, Abs format (unit mm)*
G04 Created by KiCad (PCBNEW 7.0.2) date 2024-01-21 01:29:36*
%MOMM*%
%LPD*%
G01*
G04 APERTURE LIST*
%TA.AperFunction,ComponentPad*%
%ADD10R,1.350000X1.350000*%
%TD*%
%TA.AperFunction,ComponentPad*%
%ADD11O,1.350000X1.350000*%
%TD*%
%TA.AperFunction,SMDPad,CuDef*%
%ADD12R,2.100000X0.750000*%
%TD*%
%TA.AperFunction,ViaPad*%
%ADD13C,0.800000*%
%TD*%
%TA.AperFunction,Conductor*%
%ADD14C,0.250000*%
%TD*%
G04 APERTURE END LIST*
D10*
%TO.P,J2,1,Pin_1*%
%TO.N,+1V8*%
X94400000Y-66000000D03*
D11*
%TO.P,J2,2,Pin_2*%
%TO.N,GND*%
X92400000Y-66000000D03*
%TO.P,J2,3,Pin_3*%
%TO.N,/TMS*%
X94400000Y-68000000D03*
%TO.P,J2,4,Pin_4*%
%TO.N,GND*%
X92400000Y-68000000D03*
%TO.P,J2,5,Pin_5*%
%TO.N,/TCK*%
X94400000Y-70000000D03*
%TO.P,J2,6,Pin_6*%
%TO.N,GND*%
X92400000Y-70000000D03*
%TO.P,J2,7,Pin_7*%
%TO.N,/TDO*%
X94400000Y-72000000D03*
%TO.P,J2,8,Pin_8*%
%TO.N,GND*%
X92400000Y-72000000D03*
%TO.P,J2,9,Pin_9*%
%TO.N,/TDI*%
X94400000Y-74000000D03*
%TO.P,J2,10,Pin_10*%
%TO.N,GND*%
X92400000Y-74000000D03*
%TO.P,J2,11,Pin_11*%
%TO.N,unconnected-(J2-Pin_11-Pad11)*%
X94400000Y-76000000D03*
%TO.P,J2,12,Pin_12*%
%TO.N,GND*%
X92400000Y-76000000D03*
%TO.P,J2,13,Pin_13*%
%TO.N,unconnected-(J2-Pin_13-Pad13)*%
X94400000Y-78000000D03*
%TO.P,J2,14,Pin_14*%
%TO.N,GND*%
X92400000Y-78000000D03*
%TD*%
D12*
%TO.P,J1,1,Pin_1*%
%TO.N,GND*%
X88500000Y-68190000D03*
%TO.P,J1,2,Pin_2*%
%TO.N,+1V8*%
X84900000Y-68190000D03*
%TO.P,J1,3,Pin_3*%
%TO.N,GND*%
X88500000Y-69460000D03*
%TO.P,J1,4,Pin_4*%
%TO.N,/TMS*%
X84900000Y-69460000D03*
%TO.P,J1,5,Pin_5*%
%TO.N,GND*%
X88500000Y-70730000D03*
%TO.P,J1,6,Pin_6*%
%TO.N,/TCK*%
X84900000Y-70730000D03*
%TO.P,J1,7,Pin_7*%
%TO.N,GND*%
X88500000Y-72000000D03*
%TO.P,J1,8,Pin_8*%
%TO.N,/TDO*%
X84900000Y-72000000D03*
%TO.P,J1,9,Pin_9*%
%TO.N,GND*%
X88500000Y-73270000D03*
%TO.P,J1,10,Pin_10*%
%TO.N,/TDI*%
X84900000Y-73270000D03*
%TO.P,J1,11,Pin_11*%
%TO.N,GND*%
X88500000Y-74540000D03*
%TO.P,J1,12,Pin_12*%
%TO.N,unconnected-(J1-Pin_12-Pad12)*%
X84900000Y-74540000D03*
%TO.P,J1,13,Pin_13*%
%TO.N,GND*%
X88500000Y-75810000D03*
%TO.P,J1,14,Pin_14*%
%TO.N,unconnected-(J1-Pin_14-Pad14)*%
X84900000Y-75810000D03*
%TD*%
D13*
%TO.N,+1V8*%
X86000000Y-66000000D03*
%TO.N,/TMS*%
X86850498Y-68500000D03*
%TO.N,/TCK*%
X86524219Y-70007266D03*
%TO.N,/TDO*%
X86500000Y-71500000D03*
%TO.N,/TDI*%
X86500000Y-73000000D03*
%TD*%
D14*
%TO.N,GND*%
X88500000Y-72000000D02*
X92400000Y-72000000D01*
X92400000Y-70000000D02*
X92400000Y-66000000D01*
X88500000Y-75810000D02*
X88500000Y-68190000D01*
X92400000Y-78000000D02*
X92400000Y-70000000D01*
%TO.N,+1V8*%
X84900000Y-67100000D02*
X86000000Y-66000000D01*
X84900000Y-68190000D02*
X84900000Y-67100000D01*
%TO.N,/TMS*%
X85890498Y-69460000D02*
X86850498Y-68500000D01*
X84900000Y-69460000D02*
X85890498Y-69460000D01*
%TO.N,/TCK*%
X84900000Y-70730000D02*
X85801485Y-70730000D01*
X85801485Y-70730000D02*
X86524219Y-70007266D01*
%TO.N,/TDO*%
X86000000Y-72000000D02*
X86500000Y-71500000D01*
X84900000Y-72000000D02*
X86000000Y-72000000D01*
%TO.N,/TDI*%
X86230000Y-73270000D02*
X86500000Y-73000000D01*
X84900000Y-73270000D02*
X86230000Y-73270000D01*
%TD*%
%TA.AperFunction,Conductor*%
%TO.N,GND*%
G36*
X92650000Y-77684314D02*
G01*
X92638045Y-77672359D01*
X92525148Y-77614835D01*
X92431481Y-77600000D01*
X92368519Y-77600000D01*
X92274852Y-77614835D01*
X92161955Y-77672359D01*
X92150000Y-77684314D01*
X92150000Y-76315686D01*
X92161955Y-76327641D01*
X92274852Y-76385165D01*
X92368519Y-76400000D01*
X92431481Y-76400000D01*
X92525148Y-76385165D01*
X92638045Y-76327641D01*
X92650000Y-76315686D01*
X92650000Y-77684314D01*
G37*
%TD.AperFunction*%
%TA.AperFunction,Conductor*%
G36*
X92650000Y-75684314D02*
G01*
X92638045Y-75672359D01*
X92525148Y-75614835D01*
X92431481Y-75600000D01*
X92368519Y-75600000D01*
X92274852Y-75614835D01*
X92161955Y-75672359D01*
X92150000Y-75684314D01*
X92150000Y-74315686D01*
X92161955Y-74327641D01*
X92274852Y-74385165D01*
X92368519Y-74400000D01*
X92431481Y-74400000D01*
X92525148Y-74385165D01*
X92638045Y-74327641D01*
X92650000Y-74315686D01*
X92650000Y-75684314D01*
G37*
%TD.AperFunction*%
%TA.AperFunction,Conductor*%
G36*
X92650000Y-73684313D02*
G01*
X92638045Y-73672359D01*
X92525148Y-73614835D01*
X92431481Y-73600000D01*
X92368519Y-73600000D01*
X92274852Y-73614835D01*
X92161955Y-73672359D01*
X92150000Y-73684314D01*
X92150000Y-72315686D01*
X92161955Y-72327641D01*
X92274852Y-72385165D01*
X92368519Y-72400000D01*
X92431481Y-72400000D01*
X92525148Y-72385165D01*
X92638045Y-72327641D01*
X92650000Y-72315685D01*
X92650000Y-73684313D01*
G37*
%TD.AperFunction*%
%TA.AperFunction,Conductor*%
G36*
X92650000Y-71684314D02*
G01*
X92638045Y-71672359D01*
X92525148Y-71614835D01*
X92431481Y-71600000D01*
X92368519Y-71600000D01*
X92274852Y-71614835D01*
X92161955Y-71672359D01*
X92150000Y-71684314D01*
X92150000Y-70315686D01*
X92161955Y-70327641D01*
X92274852Y-70385165D01*
X92368519Y-70400000D01*
X92431481Y-70400000D01*
X92525148Y-70385165D01*
X92638045Y-70327641D01*
X92650000Y-70315686D01*
X92650000Y-71684314D01*
G37*
%TD.AperFunction*%
%TA.AperFunction,Conductor*%
G36*
X92650000Y-69684314D02*
G01*
X92638045Y-69672359D01*
X92525148Y-69614835D01*
X92431481Y-69600000D01*
X92368519Y-69600000D01*
X92274852Y-69614835D01*
X92161955Y-69672359D01*
X92150000Y-69684314D01*
X92150000Y-68315686D01*
X92161955Y-68327641D01*
X92274852Y-68385165D01*
X92368519Y-68400000D01*
X92431481Y-68400000D01*
X92525148Y-68385165D01*
X92638045Y-68327641D01*
X92650000Y-68315686D01*
X92650000Y-69684314D01*
G37*
%TD.AperFunction*%
%TA.AperFunction,Conductor*%
G36*
X92650000Y-67684313D02*
G01*
X92638045Y-67672359D01*
X92525148Y-67614835D01*
X92431481Y-67600000D01*
X92368519Y-67600000D01*
X92274852Y-67614835D01*
X92161955Y-67672359D01*
X92150000Y-67684314D01*
X92150000Y-66315686D01*
X92161955Y-66327641D01*
X92274852Y-66385165D01*
X92368519Y-66400000D01*
X92431481Y-66400000D01*
X92525148Y-66385165D01*
X92638045Y-66327641D01*
X92650000Y-66315686D01*
X92650000Y-67684313D01*
G37*
%TD.AperFunction*%
%TA.AperFunction,Conductor*%
G36*
X95942539Y-64520185D02*
G01*
X95988294Y-64572989D01*
X95999500Y-64624500D01*
X95999500Y-79375500D01*
X95979815Y-79442539D01*
X95927011Y-79488294D01*
X95875500Y-79499500D01*
X83124500Y-79499500D01*
X83057461Y-79479815D01*
X83011706Y-79427011D01*
X83000500Y-79375500D01*
X83000500Y-77749999D01*
X91249494Y-77749999D01*
X91249495Y-77750000D01*
X92084314Y-77750000D01*
X92072359Y-77761955D01*
X92014835Y-77874852D01*
X91995014Y-78000000D01*
X92014835Y-78125148D01*
X92072359Y-78238045D01*
X92084314Y-78250000D01*
X91249495Y-78250000D01*
X91299651Y-78426278D01*
X91396712Y-78621205D01*
X91527944Y-78794985D01*
X91688868Y-78941685D01*
X91874012Y-79056322D01*
X92077069Y-79134986D01*
X92150000Y-79148619D01*
X92150000Y-78315686D01*
X92161955Y-78327641D01*
X92274852Y-78385165D01*
X92368519Y-78400000D01*
X92431481Y-78400000D01*
X92525148Y-78385165D01*
X92638045Y-78327641D01*
X92650000Y-78315686D01*
X92650000Y-79148619D01*
X92722930Y-79134986D01*
X92925987Y-79056322D01*
X93111131Y-78941685D01*
X93272052Y-78794987D01*
X93300730Y-78757011D01*
X93356838Y-78715374D01*
X93426550Y-78710681D01*
X93487733Y-78744422D01*
X93498640Y-78757009D01*
X93527573Y-78795323D01*
X93675493Y-78930169D01*
X93688568Y-78942088D01*
X93781178Y-78999430D01*
X93873791Y-79056773D01*
X94057991Y-79128132D01*
X94076931Y-79135470D01*
X94291074Y-79175500D01*
X94291076Y-79175500D01*
X94508924Y-79175500D01*
X94508926Y-79175500D01*
X94723069Y-79135470D01*
X94858496Y-79083004D01*
X94926208Y-79056773D01*
X94926210Y-79056772D01*
X95111432Y-78942088D01*
X95272427Y-78795322D01*
X95403712Y-78621472D01*
X95500817Y-78426459D01*
X95500818Y-78426457D01*
X95560435Y-78216925D01*
X95568939Y-78125148D01*
X95580536Y-78000000D01*
X95560435Y-77783077D01*
X95560435Y-77783074D01*
X95500818Y-77573542D01*
X95403712Y-77378528D01*
X95272426Y-77204676D01*
X95148427Y-77091637D01*
X95112145Y-77031926D01*
X95113906Y-76962079D01*
X95148427Y-76908363D01*
X95272426Y-76795323D01*
X95301358Y-76757011D01*
X95403712Y-76621472D01*
X95500817Y-76426459D01*
X95500818Y-76426457D01*
X95560435Y-76216925D01*
X95568939Y-76125148D01*
X95580536Y-76000000D01*
X95560435Y-75783077D01*
X95560435Y-75783074D01*
X95500818Y-75573542D01*
X95403712Y-75378528D01*
X95272426Y-75204676D01*
X95148427Y-75091637D01*
X95112145Y-75031926D01*
X95113906Y-74962079D01*
X95148427Y-74908363D01*
X95272426Y-74795323D01*
X95301358Y-74757011D01*
X95403712Y-74621472D01*
X95500817Y-74426459D01*
X95500818Y-74426457D01*
X95560435Y-74216925D01*
X95568939Y-74125148D01*
X95580536Y-74000000D01*
X95560435Y-73783077D01*
X95560435Y-73783074D01*
X95500818Y-73573542D01*
X95403712Y-73378528D01*
X95272426Y-73204676D01*
X95148427Y-73091637D01*
X95112145Y-73031926D01*
X95113906Y-72962079D01*
X95148427Y-72908363D01*
X95272426Y-72795323D01*
X95272683Y-72794983D01*
X95403712Y-72621472D01*
X95500817Y-72426459D01*
X95500818Y-72426457D01*
X95560435Y-72216925D01*
X95568939Y-72125148D01*
X95580536Y-72000000D01*
X95560435Y-71783077D01*
X95560435Y-71783074D01*
X95500818Y-71573542D01*
X95403712Y-71378528D01*
X95272426Y-71204676D01*
X95148427Y-71091637D01*
X95112145Y-71031926D01*
X95113906Y-70962079D01*
X95148427Y-70908363D01*
X95272426Y-70795323D01*
X95301358Y-70757011D01*
X95403712Y-70621472D01*
X95500817Y-70426459D01*
X95500818Y-70426457D01*
X95560435Y-70216925D01*
X95567717Y-70138333D01*
X95580536Y-70000000D01*
X95560435Y-69783077D01*
X95560435Y-69783074D01*
X95500818Y-69573542D01*
X95403712Y-69378528D01*
X95272426Y-69204676D01*
X95148427Y-69091637D01*
X95112145Y-69031926D01*
X95113906Y-68962079D01*
X95148427Y-68908363D01*
X95272426Y-68795323D01*
X95272683Y-68794983D01*
X95403712Y-68621472D01*
X95500817Y-68426459D01*
X95500818Y-68426457D01*
X95560435Y-68216925D01*
X95563577Y-68183008D01*
X95580536Y-68000000D01*
X95560435Y-67783077D01*
X95560435Y-67783074D01*
X95500818Y-67573542D01*
X95403712Y-67378528D01*
X95322252Y-67270657D01*
X95297560Y-67205295D01*
X95312125Y-67136961D01*
X95346894Y-67096664D01*
X95432546Y-67032546D01*
X95518796Y-66917331D01*
X95569091Y-66782483D01*
X95575500Y-66722873D01*
X95575499Y-65277128D01*
X95569091Y-65217517D01*
X95518796Y-65082669D01*
X95432546Y-64967454D01*
X95317331Y-64881204D01*
X95182483Y-64830909D01*
X95122873Y-64824500D01*
X95119550Y-64824500D01*
X93680439Y-64824500D01*
X93680420Y-64824500D01*
X93677128Y-64824501D01*
X93673848Y-64824853D01*
X93673840Y-64824854D01*
X93617515Y-64830909D01*
X93482669Y-64881204D01*
X93367451Y-64967455D01*
X93304913Y-65050996D01*
X93248980Y-65092867D01*
X93179288Y-65097851D01*
X93122109Y-65068322D01*
X93111131Y-65058314D01*
X92925987Y-64943677D01*
X92722927Y-64865011D01*
X92650001Y-64851378D01*
X92650000Y-64851379D01*
X92650000Y-65684313D01*
X92638045Y-65672359D01*
X92525148Y-65614835D01*
X92431481Y-65600000D01*
X92368519Y-65600000D01*
X92274852Y-65614835D01*
X92161955Y-65672359D01*
X92150000Y-65684314D01*
X92150000Y-64851379D01*
X92149998Y-64851378D01*
X92077072Y-64865011D01*
X91874012Y-64943677D01*
X91688868Y-65058314D01*
X91527944Y-65205014D01*
X91396712Y-65378794D01*
X91299651Y-65573721D01*
X91249494Y-65749999D01*
X91249495Y-65750000D01*
X92084314Y-65750000D01*
X92072359Y-65761955D01*
X92014835Y-65874852D01*
X91995014Y-66000000D01*
X92014835Y-66125148D01*
X92072359Y-66238045D01*
X92084314Y-66250000D01*
X91249495Y-66250000D01*
X91299651Y-66426278D01*
X91396712Y-66621205D01*
X91527942Y-66794981D01*
X91652315Y-66908361D01*
X91688596Y-66968072D01*
X91686836Y-67037920D01*
X91652315Y-67091636D01*
X91527944Y-67205014D01*
X91396712Y-67378794D01*
X91299651Y-67573721D01*
X91249494Y-67749999D01*
X91249495Y-67750000D01*
X92084314Y-67750000D01*
X92072359Y-67761955D01*
X92014835Y-67874852D01*
X91995014Y-68000000D01*
X92014835Y-68125148D01*
X92072359Y-68238045D01*
X92084314Y-68250000D01*
X91249495Y-68250000D01*
X91299651Y-68426278D01*
X91396712Y-68621205D01*
X91527944Y-68794985D01*
X91652315Y-68908363D01*
X91688597Y-68968074D01*
X91686836Y-69037921D01*
X91652315Y-69091637D01*
X91527944Y-69205014D01*
X91396712Y-69378794D01*
X91299651Y-69573721D01*
X91249494Y-69749999D01*
X91249495Y-69750000D01*
X92084314Y-69750000D01*
X92072359Y-69761955D01*
X92014835Y-69874852D01*
X91995014Y-70000000D01*
X92014835Y-70125148D01*
X92072359Y-70238045D01*
X92084314Y-70250000D01*
X91249495Y-70250000D01*
X91299651Y-70426278D01*
X91396712Y-70621205D01*
X91527944Y-70794985D01*
X91652315Y-70908363D01*
X91688597Y-70968074D01*
X91686836Y-71037921D01*
X91652315Y-71091637D01*
X91527944Y-71205014D01*
X91396712Y-71378794D01*
X91299651Y-71573721D01*
X91249494Y-71749999D01*
X91249495Y-71750000D01*
X92084314Y-71750000D01*
X92072359Y-71761955D01*
X92014835Y-71874852D01*
X91995014Y-72000000D01*
X92014835Y-72125148D01*
X92072359Y-72238045D01*
X92084314Y-72250000D01*
X91249495Y-72250000D01*
X91299651Y-72426278D01*
X91396712Y-72621205D01*
X91527944Y-72794985D01*
X91652315Y-72908363D01*
X91688597Y-72968074D01*
X91686836Y-73037921D01*
X91652315Y-73091637D01*
X91527944Y-73205014D01*
X91396712Y-73378794D01*
X91299651Y-73573721D01*
X91249494Y-73749999D01*
X91249495Y-73750000D01*
X92084314Y-73750000D01*
X92072359Y-73761955D01*
X92014835Y-73874852D01*
X91995014Y-74000000D01*
X92014835Y-74125148D01*
X92072359Y-74238045D01*
X92084314Y-74250000D01*
X91249495Y-74250000D01*
X91299651Y-74426278D01*
X91396712Y-74621205D01*
X91527944Y-74794985D01*
X91652315Y-74908363D01*
X91688597Y-74968074D01*
X91686836Y-75037921D01*
X91652315Y-75091637D01*
X91527944Y-75205014D01*
X91396712Y-75378794D01*
X91299651Y-75573721D01*
X91249494Y-75749999D01*
X91249495Y-75750000D01*
X92084314Y-75750000D01*
X92072359Y-75761955D01*
X92014835Y-75874852D01*
X91995014Y-76000000D01*
X92014835Y-76125148D01*
X92072359Y-76238045D01*
X92084314Y-76250000D01*
X91249495Y-76250000D01*
X91299651Y-76426278D01*
X91396712Y-76621205D01*
X91527944Y-76794985D01*
X91652315Y-76908363D01*
X91688597Y-76968074D01*
X91686836Y-77037921D01*
X91652315Y-77091637D01*
X91527944Y-77205014D01*
X91396712Y-77378794D01*
X91299651Y-77573721D01*
X91249494Y-77749999D01*
X83000500Y-77749999D01*
X83000500Y-76229578D01*
X83349500Y-76229578D01*
X83349501Y-76232872D01*
X83355909Y-76292483D01*
X83406204Y-76427331D01*
X83492454Y-76542546D01*
X83607669Y-76628796D01*
X83742517Y-76679091D01*
X83802127Y-76685500D01*
X85997872Y-76685499D01*
X86057483Y-76679091D01*
X86192331Y-76628796D01*
X86307546Y-76542546D01*
X86393796Y-76427331D01*
X86444091Y-76292483D01*
X86450500Y-76232873D01*
X86450500Y-76060000D01*
X86950000Y-76060000D01*
X86950000Y-76229518D01*
X86950354Y-76236132D01*
X86956400Y-76292371D01*
X87006647Y-76427089D01*
X87092811Y-76542188D01*
X87207910Y-76628352D01*
X87342628Y-76678599D01*
X87398867Y-76684645D01*
X87405482Y-76685000D01*
X88250000Y-76685000D01*
X88250000Y-76060000D01*
X88750000Y-76060000D01*
X88750000Y-76685000D01*
X89594518Y-76685000D01*
X89601132Y-76684645D01*
X89657371Y-76678599D01*
X89792089Y-76628352D01*
X89907188Y-76542188D01*
X89993352Y-76427089D01*
X90043599Y-76292371D01*
X90049645Y-76236132D01*
X90050000Y-76229518D01*
X90050000Y-76060000D01*
X88750000Y-76060000D01*
X88250000Y-76060000D01*
X86950000Y-76060000D01*
X86450500Y-76060000D01*
X86450499Y-75387128D01*
X86444091Y-75327517D01*
X86403367Y-75218332D01*
X86398384Y-75148642D01*
X86403368Y-75131666D01*
X86444091Y-75022483D01*
X86450500Y-74962873D01*
X86450500Y-74790000D01*
X86950000Y-74790000D01*
X86950000Y-74959518D01*
X86950354Y-74966132D01*
X86956400Y-75022373D01*
X86997165Y-75131667D01*
X87002149Y-75201358D01*
X86997165Y-75218333D01*
X86956400Y-75327626D01*
X86950354Y-75383867D01*
X86950000Y-75390481D01*
X86950000Y-75560000D01*
X88250000Y-75560000D01*
X88250000Y-74790000D01*
X88750000Y-74790000D01*
X88750000Y-75560000D01*
X90050000Y-75560000D01*
X90050000Y-75390481D01*
X90049645Y-75383867D01*
X90043599Y-75327626D01*
X90002835Y-75218333D01*
X89997851Y-75148642D01*
X90002835Y-75131667D01*
X90043599Y-75022373D01*
X90049645Y-74966132D01*
X90050000Y-74959518D01*
X90050000Y-74790000D01*
X88750000Y-74790000D01*
X88250000Y-74790000D01*
X86950000Y-74790000D01*
X86450500Y-74790000D01*
X86450499Y-74117128D01*
X86444091Y-74057517D01*
X86444090Y-74057514D01*
X86442426Y-74042031D01*
X86446065Y-74041639D01*
X86442956Y-73998136D01*
X86476444Y-73936814D01*
X86537769Y-73903332D01*
X86564121Y-73900500D01*
X86594648Y-73900500D01*
X86718083Y-73874262D01*
X86779803Y-73861144D01*
X86809601Y-73847876D01*
X86878850Y-73838590D01*
X86942127Y-73868217D01*
X86979341Y-73927351D01*
X86978678Y-73997218D01*
X86976220Y-74004488D01*
X86956400Y-74057626D01*
X86950354Y-74113867D01*
X86950000Y-74120481D01*
X86950000Y-74290000D01*
X88250000Y-74290000D01*
X88250000Y-73520000D01*
X88750000Y-73520000D01*
X88750000Y-74290000D01*
X90050000Y-74290000D01*
X90050000Y-74120481D01*
X90049645Y-74113867D01*
X90043599Y-74057626D01*
X90002835Y-73948333D01*
X89997851Y-73878642D01*
X90002835Y-73861667D01*
X90043599Y-73752373D01*
X90049645Y-73696132D01*
X90050000Y-73689518D01*
X90050000Y-73520000D01*
X88750000Y-73520000D01*
X88250000Y-73520000D01*
X88250000Y-72250000D01*
X88750000Y-72250000D01*
X88750000Y-73020000D01*
X90050000Y-73020000D01*
X90050000Y-72850481D01*
X90049645Y-72843867D01*
X90043599Y-72787626D01*
X90002835Y-72678333D01*
X89997851Y-72608642D01*
X90002835Y-72591667D01*
X90043599Y-72482373D01*
X90049645Y-72426132D01*
X90050000Y-72419518D01*
X90050000Y-72250000D01*
X88750000Y-72250000D01*
X88250000Y-72250000D01*
X88250000Y-70980000D01*
X88750000Y-70980000D01*
X88750000Y-71750000D01*
X90050000Y-71750000D01*
X90050000Y-71580481D01*
X90049645Y-71573867D01*
X90043599Y-71517626D01*
X90002835Y-71408333D01*
X89997851Y-71338642D01*
X90002835Y-71321667D01*
X90043599Y-71212373D01*
X90049645Y-71156132D01*
X90050000Y-71149518D01*
X90050000Y-70980000D01*
X88750000Y-70980000D01*
X88250000Y-70980000D01*
X88250000Y-69710000D01*
X88750000Y-69710000D01*
X88750000Y-70480000D01*
X90050000Y-70480000D01*
X90050000Y-70310481D01*
X90049645Y-70303867D01*
X90043599Y-70247626D01*
X90002835Y-70138333D01*
X89997851Y-70068642D01*
X90002835Y-70051667D01*
X90043599Y-69942373D01*
X90049645Y-69886132D01*
X90050000Y-69879518D01*
X90050000Y-69710000D01*
X88750000Y-69710000D01*
X88250000Y-69710000D01*
X88250000Y-68440000D01*
X88750000Y-68440000D01*
X88750000Y-69210000D01*
X90050000Y-69210000D01*
X90050000Y-69040481D01*
X90049645Y-69033867D01*
X90043599Y-68977626D01*
X90002835Y-68868333D01*
X89997851Y-68798642D01*
X90002835Y-68781667D01*
X90043599Y-68672373D01*
X90049645Y-68616132D01*
X90050000Y-68609518D01*
X90050000Y-68440000D01*
X88750000Y-68440000D01*
X88250000Y-68440000D01*
X88250000Y-67315000D01*
X88750000Y-67315000D01*
X88750000Y-67940000D01*
X90050000Y-67940000D01*
X90050000Y-67770481D01*
X90049645Y-67763867D01*
X90043599Y-67707628D01*
X89993352Y-67572910D01*
X89907188Y-67457811D01*
X89792089Y-67371647D01*
X89657371Y-67321400D01*
X89601132Y-67315354D01*
X89594518Y-67315000D01*
X88750000Y-67315000D01*
X88250000Y-67315000D01*
X87405482Y-67315000D01*
X87398867Y-67315354D01*
X87342628Y-67321400D01*
X87207910Y-67371647D01*
X87092810Y-67457811D01*
X87023940Y-67549811D01*
X86968006Y-67591682D01*
X86924673Y-67599500D01*
X86755850Y-67599500D01*
X86570696Y-67638855D01*
X86560672Y-67643318D01*
X86491422Y-67652601D01*
X86428146Y-67622971D01*
X86394057Y-67573370D01*
X86393796Y-67572669D01*
X86307546Y-67457454D01*
X86192331Y-67371204D01*
X86057483Y-67320909D01*
X86005816Y-67315354D01*
X86001166Y-67314854D01*
X86001165Y-67314853D01*
X85997873Y-67314500D01*
X85994551Y-67314500D01*
X85869453Y-67314500D01*
X85802414Y-67294815D01*
X85756659Y-67242011D01*
X85746715Y-67172853D01*
X85775740Y-67109297D01*
X85781772Y-67102819D01*
X85947772Y-66936819D01*
X86009095Y-66903334D01*
X86035453Y-66900500D01*
X86094648Y-66900500D01*
X86218083Y-66874262D01*
X86279803Y-66861144D01*
X86452730Y-66784151D01*
X86481528Y-66763228D01*
X86605870Y-66672889D01*
X86612059Y-66666016D01*
X86732533Y-66532216D01*
X86827179Y-66368284D01*
X86885674Y-66188256D01*
X86905460Y-66000000D01*
X86885674Y-65811744D01*
X86827179Y-65631716D01*
X86827179Y-65631715D01*
X86732533Y-65467783D01*
X86605870Y-65327110D01*
X86452730Y-65215848D01*
X86279802Y-65138855D01*
X86094648Y-65099500D01*
X86094646Y-65099500D01*
X85905354Y-65099500D01*
X85905352Y-65099500D01*
X85720197Y-65138855D01*
X85547269Y-65215848D01*
X85394129Y-65327110D01*
X85267466Y-65467783D01*
X85172820Y-65631715D01*
X85114326Y-65811742D01*
X85096679Y-65979649D01*
X85070094Y-66044263D01*
X85061039Y-66054368D01*
X84516208Y-66599199D01*
X84500110Y-66612096D01*
X84452096Y-66663225D01*
X84449392Y-66666016D01*
X84432628Y-66682780D01*
X84432621Y-66682787D01*
X84429880Y-66685529D01*
X84427499Y-66688597D01*
X84427490Y-66688608D01*
X84427411Y-66688711D01*
X84419842Y-66697572D01*
X84389935Y-66729420D01*
X84380285Y-66746974D01*
X84369609Y-66763228D01*
X84357326Y-66779063D01*
X84339975Y-66819158D01*
X84334838Y-66829644D01*
X84313802Y-66867907D01*
X84308821Y-66887309D01*
X84302520Y-66905711D01*
X84294561Y-66924102D01*
X84287728Y-66967242D01*
X84285360Y-66978674D01*
X84274499Y-67020977D01*
X84274500Y-67041016D01*
X84272972Y-67060414D01*
X84269840Y-67080196D01*
X84271397Y-67096663D01*
X84273950Y-67123673D01*
X84274500Y-67135343D01*
X84274500Y-67190500D01*
X84254815Y-67257539D01*
X84202011Y-67303294D01*
X84150500Y-67314500D01*
X83805439Y-67314500D01*
X83805420Y-67314500D01*
X83802128Y-67314501D01*
X83798848Y-67314853D01*
X83798840Y-67314854D01*
X83742515Y-67320909D01*
X83607669Y-67371204D01*
X83492454Y-67457454D01*
X83406204Y-67572668D01*
X83355909Y-67707516D01*
X83351342Y-67749999D01*
X83349500Y-67767127D01*
X83349500Y-67770448D01*
X83349500Y-67770449D01*
X83349500Y-68609560D01*
X83349500Y-68609578D01*
X83349501Y-68612872D01*
X83349853Y-68616152D01*
X83349854Y-68616159D01*
X83350425Y-68621471D01*
X83355909Y-68672483D01*
X83396632Y-68781667D01*
X83401616Y-68851357D01*
X83396632Y-68868332D01*
X83355909Y-68977514D01*
X83350059Y-69031926D01*
X83349500Y-69037127D01*
X83349500Y-69040448D01*
X83349500Y-69040449D01*
X83349500Y-69879560D01*
X83349500Y-69879578D01*
X83349501Y-69882872D01*
X83355909Y-69942483D01*
X83396632Y-70051667D01*
X83401616Y-70121357D01*
X83396632Y-70138332D01*
X83355909Y-70247514D01*
X83355909Y-70247517D01*
X83349500Y-70307127D01*
X83349500Y-70310448D01*
X83349500Y-70310449D01*
X83349500Y-71149560D01*
X83349500Y-71149578D01*
X83349501Y-71152872D01*
X83355909Y-71212483D01*
X83396632Y-71321667D01*
X83401616Y-71391357D01*
X83396632Y-71408332D01*
X83355909Y-71517514D01*
X83349885Y-71573542D01*
X83349500Y-71577127D01*
X83349500Y-71580448D01*
X83349500Y-71580449D01*
X83349500Y-72419560D01*
X83349500Y-72419578D01*
X83349501Y-72422872D01*
X83349853Y-72426152D01*
X83349854Y-72426159D01*
X83354329Y-72467784D01*
X83355909Y-72482483D01*
X83396632Y-72591667D01*
X83401616Y-72661357D01*
X83396632Y-72678332D01*
X83355909Y-72787514D01*
X83353304Y-72811744D01*
X83349500Y-72847127D01*
X83349500Y-72850448D01*
X83349500Y-72850449D01*
X83349500Y-73689560D01*
X83349500Y-73689578D01*
X83349501Y-73692872D01*
X83355909Y-73752483D01*
X83396632Y-73861667D01*
X83401616Y-73931357D01*
X83396632Y-73948332D01*
X83355909Y-74057514D01*
X83355909Y-74057517D01*
X83349500Y-74117127D01*
X83349500Y-74120448D01*
X83349500Y-74120449D01*
X83349500Y-74959560D01*
X83349500Y-74959578D01*
X83349501Y-74962872D01*
X83355909Y-75022483D01*
X83396632Y-75131666D01*
X83401616Y-75201357D01*
X83396632Y-75218332D01*
X83355909Y-75327514D01*
X83350396Y-75378794D01*
X83349500Y-75387127D01*
X83349500Y-75390448D01*
X83349500Y-75390449D01*
X83349500Y-76229560D01*
X83349500Y-76229578D01*
X83000500Y-76229578D01*
X83000500Y-64624500D01*
X83020185Y-64557461D01*
X83072989Y-64511706D01*
X83124500Y-64500500D01*
X95875500Y-64500500D01*
X95942539Y-64520185D01*
G37*
%TD.AperFunction*%
%TD*%
M02*
